<?xml version="1.0" encoding="utf-8"?>
<!-- Generator: Adobe Illustrator 27.5.0, SVG Export Plug-In . SVG Version: 6.00 Build 0)  -->
<svg version="1.1" id="Layer_1" xmlns="http://www.w3.org/2000/svg" xmlns:xlink="http://www.w3.org/1999/xlink" x="0px" y="0px"
	 viewBox="0 0 65 65" style="enable-background:new 0 0 65 65;" xml:space="preserve">
<style type="text/css">
	.st0{fill:#30D9C4;}
</style>
<g>
	<g>
		<g>
			<g>
				<g>
					<path class="st0" d="M41.6,29.3h-1.4v-0.9c0-0.9-0.5-3.6-4.5-4.5c-0.9,0.5-2.3,0.5-3.2,0.5c-0.9,0-2.3-0.5-3.2-0.9
						c-4.1,0.9-4.5,3.6-4.5,4.5v0.9h-1.4v-0.5c0-1.4,0.5-2.7,1.8-3.6c0.9-1.4,2.3-1.8,3.6-2.3h0.5c0.9,0.5,1.8,0.9,2.7,0.9
						s1.8-0.5,2.7-0.9h0.5c1.8,0.5,3.2,0.9,4.1,1.8s1.8,2.3,1.8,3.6v1.4H41.6z"/>
				</g>
				<g>
					<path class="st0" d="M32.5,22.1c-2.7,0-5-2.3-5-5s2.3-5,5-5s5,2.3,5,5S35.2,22.1,32.5,22.1z M32.5,13c-2.3,0-3.6,1.8-3.6,4.1
						s1.8,3.6,3.6,3.6c2.3,0,3.6-1.8,3.6-3.6C36.1,14.9,34.3,13,32.5,13z"/>
				</g>
			</g>
			<g>
				<g>
					<path class="st0" d="M13,45.6c-1.8,0-3.6,0-5-0.5c-0.5,0-0.5-0.5-0.5-0.5l-0.5-4.1h1.4L9,43.8c0.9,0.5,2.7,0.5,4.1,0.5
						c1.8,0,3.2,0,5-0.5l0.5,1.4C16.7,45.2,14.9,45.6,13,45.6z"/>
				</g>
				<g>
					<path class="st0" d="M6.3,44.3c-0.9,0-1.4-0.5-1.8-0.9L4,42.9v-2.7c0-1.4,0.5-2.7,1.8-3.6c0.9-0.9,2.3-1.4,4.1-1.8h0.5
						c0.9,0,1.8,0.5,2.7,0.5c0.9,0,1.8-0.5,2.7-0.9h0.5c1.4,0.5,2.7,0.9,3.6,1.4L18.9,37c-0.5-0.5-1.8-0.9-2.7-1.4
						c-0.9,0.5-2.3,0.9-3.2,0.9c-0.9,0-2.3-0.5-3.2-0.9c-1.4,0.5-4.5,1.4-4.5,4.5v2.3c0.5,0.5,0.9,0.5,1.4,0.9L6.3,44.3z"/>
				</g>
				<g>
					<path class="st0" d="M13,33.9c-2.7,0-5-2.3-5-5s2.3-5,5-5s5,2.3,5,5S15.8,33.9,13,33.9z M13,25.3c-2.3,0-3.6,1.4-3.6,3.6
						c0,1.8,1.4,3.6,3.6,3.6s3.6-1.8,3.6-3.6C16.7,26.6,14.9,25.3,13,25.3z"/>
				</g>
			</g>
			<g>
				<g>
					<path class="st0" d="M52,45.6c-1.8,0-3.6,0-5-0.5l0.5-1.4c0.9,0.5,2.7,0.5,4.5,0.5c1.4,0,3.2,0,4.5-0.5l0.5-3.2h1.4l-0.9,3.6
						c0,0.5,0,0.5-0.5,0.5C55.6,45.2,53.8,45.6,52,45.6z"/>
				</g>
				<g>
					<path class="st0" d="M58.7,44.3l-0.5-1.4c0.5,0,0.9-0.5,1.4-0.9v-1.8c0-0.9-0.5-3.6-4.5-4.5c-0.9,0.5-2.3,0.9-3.2,0.9
						s-2.3-0.5-3.2-0.9c-0.9,0.5-1.8,0.9-2.7,1.4l-0.9-1.4c0.9-0.5,2.3-1.4,3.6-1.4h0.5c0.5,0.5,1.4,0.9,2.7,0.9
						c1.4,0,1.8-0.5,2.7-0.9h0.5c1.8,0.5,3.2,0.9,4.1,1.8s1.8,2.3,1.8,3.6v2.7c0,0,0,0.5-0.5,0.5C60.1,43.8,59.2,44.3,58.7,44.3z"/>
				</g>
				<g>
					<path class="st0" d="M52,33.9c-2.7,0-5-2.3-5-5s2.3-5,5-5c2.7,0,5,2.3,5,5S54.7,33.9,52,33.9z M52,25.3c-2.3,0-3.6,1.8-3.6,3.6
						c0,2.3,1.8,3.6,3.6,3.6c2.3,0,3.6-1.8,3.6-3.6C55.6,26.6,53.8,25.3,52,25.3z"/>
				</g>
			</g>
		</g>
		<g>
			<g>
				<path class="st0" d="M32.5,52.9c-3.2,0-6.3-1.4-8.6-3.6c-2.3-2.3-3.6-5-3.6-8.6c0-3.2,1.4-6.3,3.6-8.6c2.3-2.3,5.4-3.6,8.6-3.6
					s6.3,1.4,8.6,3.6s3.6,5.4,3.6,8.6s-1.4,6.3-3.6,8.6C38.8,52,35.7,52.9,32.5,52.9z M32.5,29.8c-2.7,0-5.9,1.4-7.7,3.2
					c-2.3,2.3-3.2,5-3.2,7.7s1.4,5.9,3.2,7.7c2.3,2.3,5,3.2,7.7,3.2c2.7,0,5.9-1.4,7.7-3.2c2.3-2.3,3.2-5,3.2-7.7s-0.9-5.4-3.2-7.7
					C37.9,31.1,35.2,29.8,32.5,29.8z"/>
			</g>
		</g>
	</g>
	<path class="st0" d="M32.5,28.4c-6.8,0-11.8,5.4-11.8,11.8C20.7,47,26.2,52,32.5,52c6.8,0,11.8-5.4,11.8-11.8
		C44.7,33.9,39.3,28.4,32.5,28.4z M37,41.5h-3.2v3.2c0,0.5-0.5,0.9-0.9,0.9S32,45.2,32,44.7v-3.2h-3.6c-0.9,0-1.4-0.5-1.4-0.9
		c0-0.9,0.5-1.4,1.4-1.4h3.2v-3.2c0-0.5,0.5-0.9,0.9-0.9s0.9,0.5,0.9,0.9v3.2h3.2c0.5,0,0.9,0.5,0.9,0.9
		C37.9,41.1,37.5,41.5,37,41.5z"/>
</g>
</svg>
