<?xml version="1.0" encoding="utf-8"?>
<!-- Generator: Adobe Illustrator 27.5.0, SVG Export Plug-In . SVG Version: 6.00 Build 0)  -->
<svg version="1.1" id="Layer_1" xmlns="http://www.w3.org/2000/svg" xmlns:xlink="http://www.w3.org/1999/xlink" x="0px" y="0px"
	 viewBox="0 0 51 51" style="enable-background:new 0 0 51 51;" xml:space="preserve">
<style type="text/css">
	.st0{fill:#C6C6C6;}
</style>
<g>
	<g>
		<g>
			<g>
				<g>
					<path class="st0" d="M32.7,23h-1.1v-0.7c0-0.7-0.4-2.9-3.6-3.6C27.3,19,26.2,19,25.5,19c-0.7,0-1.8-0.4-2.5-0.7
						c-3.2,0.7-3.6,2.9-3.6,3.6v0.7h-1.1v-0.4c0-1.1,0.4-2.2,1.4-2.9c0.7-1.1,1.8-1.4,2.9-1.8H23c0.7,0.4,1.4,0.7,2.2,0.7
						s1.4-0.4,2.2-0.7h0.4c1.4,0.4,2.5,0.7,3.2,1.4c0.7,0.7,1.4,1.8,1.4,2.9V23H32.7z"/>
				</g>
				<g>
					<path class="st0" d="M25.5,17.2c-2.2,0-4-1.8-4-4s1.8-4,4-4s4,1.8,4,4S27.7,17.2,25.5,17.2z M25.5,10c-1.8,0-2.9,1.4-2.9,3.2
						s1.4,2.9,2.9,2.9c1.8,0,2.9-1.4,2.9-2.9C28.4,11.5,26.9,10,25.5,10z"/>
				</g>
			</g>
			<g>
				<g>
					<path class="st0" d="M10,35.9c-1.4,0-2.9,0-4-0.4c-0.4,0-0.4-0.4-0.4-0.4L5.3,32h1.1l0.4,2.5c0.7,0.4,2.2,0.4,3.2,0.4
						c1.4,0,2.5,0,4-0.4l0.4,1.1C12.9,35.6,11.5,35.9,10,35.9z"/>
				</g>
				<g>
					<path class="st0" d="M4.6,34.9c-0.7,0-1.1-0.4-1.4-0.7l-0.4-0.4v-2.2c0-1.1,0.4-2.2,1.4-2.9C5,28,6.1,27.7,7.5,27.3h0.4
						c0.7,0,1.4,0.4,2.2,0.4s1.4-0.4,2.2-0.7h0.4c1.1,0.4,2.2,0.7,2.9,1.1l-0.7,1.1c-0.4-0.4-1.4-0.7-2.2-1.1
						c-0.7,0.4-1.8,0.7-2.5,0.7S8.2,28.4,7.5,28c-1.1,0.4-3.6,1.1-3.6,3.6v1.8c0.4,0.4,0.7,0.4,1.1,0.7L4.6,34.9z"/>
				</g>
				<g>
					<path class="st0" d="M10,26.6c-2.2,0-4-1.8-4-4s1.8-4,4-4s4,1.8,4,4S12.2,26.6,10,26.6z M10,19.7c-1.8,0-2.9,1.1-2.9,2.9
						c0,1.4,1.1,2.9,2.9,2.9s2.9-1.4,2.9-2.9C12.9,20.8,11.5,19.7,10,19.7z"/>
				</g>
			</g>
			<g>
				<g>
					<path class="st0" d="M41,35.9c-1.4,0-2.9,0-4-0.4l0.4-1.1c0.7,0.4,2.2,0.4,3.6,0.4c1.1,0,2.5,0,3.6-0.4l0.4-2.5H46l-0.7,2.9
						c0,0.4,0,0.4-0.4,0.4C43.9,35.6,42.4,35.9,41,35.9z"/>
				</g>
				<g>
					<path class="st0" d="M46.4,34.9L46,33.8c0.4,0,0.7-0.4,1.1-0.7v-1.4c0-0.7-0.4-2.9-3.6-3.6c-0.7,0.4-1.8,0.7-2.5,0.7
						c-0.7,0-1.8-0.4-2.5-0.7c-0.7,0.4-1.4,0.7-2.2,1.1L35.6,28c0.7-0.4,1.8-1.1,2.9-1.1h0.4c0.4,0.4,1.1,0.7,2.2,0.7
						s1.4-0.4,2.2-0.7h0.4c1.4,0.4,2.5,0.7,3.2,1.4c0.7,0.7,1.4,1.8,1.4,2.9v2.2c0,0,0,0.4-0.4,0.4C47.5,34.5,46.7,34.9,46.4,34.9z"
						/>
				</g>
				<g>
					<path class="st0" d="M41,26.6c-2.2,0-4-1.8-4-4s1.8-4,4-4s4,1.8,4,4S43.1,26.6,41,26.6z M41,19.7c-1.8,0-2.9,1.4-2.9,2.9
						c0,1.8,1.4,2.9,2.9,2.9c1.8,0,2.9-1.4,2.9-2.9C43.9,20.8,42.4,19.7,41,19.7z"/>
				</g>
			</g>
		</g>
		<g>
			<g>
				<path class="st0" d="M25.5,41.7c-2.5,0-5-1.1-6.8-2.9c-1.8-1.8-2.9-4-2.9-6.8c0-2.5,1.1-5,2.9-6.8s4.3-2.9,6.8-2.9
					s5,1.1,6.8,2.9s2.9,4.3,2.9,6.8s-1.1,5-2.9,6.8C30.5,41,28,41.7,25.5,41.7z M25.5,23.3c-2.2,0-4.7,1.1-6.1,2.5
					c-1.8,1.8-2.5,4-2.5,6.1s1.1,4.7,2.5,6.1c1.8,1.8,4,2.5,6.1,2.5s4.7-1.1,6.1-2.5c1.8-1.8,2.5-4,2.5-6.1s-0.7-4.3-2.5-6.1
					C29.8,24.4,27.7,23.3,25.5,23.3z"/>
			</g>
		</g>
	</g>
	<path class="st0" d="M25.5,22.3c-5.4,0-9.4,4.3-9.4,9.4c0,5.4,4.3,9.4,9.4,9.4c5.4,0,9.4-4.3,9.4-9.4
		C35.2,26.6,30.9,22.3,25.5,22.3z M29.1,32.7h-2.5v2.5c0,0.4-0.4,0.7-0.7,0.7c-0.4,0-0.7-0.4-0.7-0.7v-2.5h-2.9
		c-0.7,0-1.1-0.4-1.1-0.7c0-0.7,0.4-1.1,1.1-1.1h2.5v-2.5c0-0.4,0.4-0.7,0.7-0.7c0.4,0,0.7,0.4,0.7,0.7v2.5h2.5
		c0.4,0,0.7,0.4,0.7,0.7C29.8,32.3,29.5,32.7,29.1,32.7z"/>
</g>
</svg>
