<?xml version="1.0" encoding="UTF-8"?>
<svg width="26px" height="26px" viewBox="0 0 26 26" version="1.1" xmlns="http://www.w3.org/2000/svg" xmlns:xlink="http://www.w3.org/1999/xlink">
    <title>menu_icons/Insights/active_Insights_icon</title>
    <g id="menu_icons/Insights/active_Insights_icon" stroke="none" stroke-width="1" fill="none" fill-rule="evenodd">
        <g id="Group" fill="#FFFFFF">
            <rect id="Rectangle-Copy" x="0" y="0" width="26" height="26" rx="3"></rect>
        </g>
        <path d="M23.9718253,6.446446 C23.9715953,7.0815795 23.4565154,7.596285 22.8213767,7.596078 C22.186238,7.595871 21.6716181,7.080832 21.6718481,6.44571 L21.6723081,4.932379 L13.3145362,13.312015 C12.8866254,13.74108 12.1990473,13.764425 11.7430768,13.365375 L7.95272597,10.048844 L2.96312105,15.038165 C2.51400452,15.48724 1.78587775,15.48724 1.33679572,15.03805 C0.887713679,14.588975 0.887736679,13.860795 1.33685322,13.41172 L7.08722157,7.6617315 C7.51532782,7.2336555 8.20200899,7.210805 8.65762297,7.609464 L12.4468698,10.925075 L20.0519742,3.3 L18.2513221,3.3 C17.6161834,3.3 17.1013336,2.7851335 17.1013336,2.15 C17.1013336,1.514878 17.6161834,1 18.2513221,1 L22.8232167,1 C23.1281937,1 23.4207508,1.12121 23.6364886,1.3369615 C23.8521115,1.5527015 23.9732053,1.8453075 23.9732053,2.150368 L23.9718253,6.446446 Z M18.2500571,13.65 C18.2500571,13.014855 18.765022,12.5 19.4000457,12.5 L22.8500114,12.5 C23.4851501,12.5 24,13.014855 24,13.65 C24,14.285145 23.4851501,14.8 22.8500114,14.8 L19.4000457,14.8 C18.765022,14.8 18.2500571,14.285145 18.2500571,13.65 Z M10.7751314,17.1 C10.1400617,17.1 9.62518885,17.614855 9.62518885,18.25 C9.62518885,18.885145 10.1400617,19.4 10.7751314,19.4 L14.2250971,19.4 C14.8602358,19.4 15.3750857,18.885145 15.3750857,18.25 C15.3750857,17.614855 14.8602358,17.1 14.2250971,17.1 L10.7751314,17.1 Z M1.00027456,22.85 C1.00027456,22.214855 1.51514744,21.7 2.15026313,21.7 L5.60022885,21.7 C6.23535604,21.7 6.75021742,22.214855 6.75021742,22.85 C6.75021742,23.485145 6.23535604,24 5.60022885,24 L2.15026313,24 C1.51514744,24 1.00027456,23.485145 1.00027456,22.85 Z M9.62518885,22.85 C9.62518885,22.214855 10.1400617,21.7 10.7751314,21.7 L14.2250971,21.7 C14.8602358,21.7 15.3750857,22.214855 15.3750857,22.85 C15.3750857,23.485145 14.8602358,24 14.2250971,24 L10.7751314,24 C10.1400617,24 9.62518885,23.485145 9.62518885,22.85 Z M18.2500571,22.85 C18.2500571,22.214855 18.765022,21.7 19.4000457,21.7 L22.8500114,21.7 C23.4851501,21.7 24,22.214855 24,22.85 C24,23.485145 23.4851501,24 22.8500114,24 L19.4000457,24 C18.765022,24 18.2500571,23.485145 18.2500571,22.85 Z M19.4000457,17.1 C18.765022,17.1 18.2500571,17.614855 18.2500571,18.25 C18.2500571,18.885145 18.765022,19.4 19.4000457,19.4 L22.8500114,19.4 C23.4851501,19.4 24,18.885145 24,18.25 C24,17.614855 23.4851501,17.1 22.8500114,17.1 L19.4000457,17.1 Z" id="Shape" fill="#30D9C4"></path>
    </g>
</svg>