<svg xmlns="http://www.w3.org/2000/svg" width="92" height="92" viewBox="0 0 92 92">
    <g fill="none" fill-opacity=".267" fill-rule="evenodd">
        <g fill="#B9CBD7" fill-rule="nonzero">
            <g>
                <g>
                    <path d="M127.029 60.742h22.752c7.086 0 12.85 5.763 12.85 12.848 0 7.085-5.764 12.847-12.85 12.847H120.94c-3.965 0-7.188 3.224-7.188 7.188 0 3.964 3.223 7.187 7.188 7.187h60.063c2.674-2.951 7.52-1.044 7.526 2.872.003 3.93-4.882 5.827-7.525 2.878H120.94c-7.135 0-12.939-5.804-12.939-12.937 0-7.134 5.804-12.938 12.939-12.938h28.842c3.914 0 7.099-3.184 7.099-7.097 0-3.914-3.185-7.098-7.099-7.098H127.03c-2.665 2.94-7.525 1.065-7.528-2.871-.006-3.942 4.848-5.819 7.528-2.879zm57.14-4.492c8.79 0 15.823 7.138 15.831 15.893 0 5.808-3.472 11.663-7.068 16.253-3.351 4.276-6.674 7.252-6.814 7.376-1.085.966-2.729.973-3.82.004-.14-.124-3.47-3.093-6.828-7.364-4.706-5.984-7.094-11.446-7.098-16.238-.01-8.773 7.078-15.915 15.798-15.924zm.006 5.75c-5.547.005-10.058 4.566-10.053 10.168.006 5.979 6.152 13.486 10.08 17.475 3.92-3.995 10.053-11.516 10.047-17.494-.007-5.607-4.495-10.15-10.074-10.15zm.011 5.75c3.072 0 5.157 3.14 3.988 5.96-1.182 2.849-4.871 3.565-7.036 1.405-2.73-2.729-.758-7.365 3.048-7.365zM123.814 16c8.72 0 15.814 7.137 15.814 15.908 0 4.794-2.383 10.258-7.082 16.247-3.355 4.273-6.682 7.245-6.822 7.369-1.09.969-2.73.967-3.82 0-.14-.124-3.467-3.096-6.822-7.369-4.7-5.989-7.082-11.453-7.082-16.247C108 23.138 115.095 16 123.814 16zm0 5.75c-5.55 0-10.063 4.557-10.063 10.158 0 5.998 6.136 13.503 10.061 17.487 3.923-3.991 10.066-11.507 10.066-17.487 0-5.601-4.515-10.158-10.064-10.158zm0 5.75c2.382 0 4.313 1.93 4.313 4.312 0 2.382-1.931 4.313-4.313 4.313-2.382 0-4.313-1.93-4.313-4.313 0-2.381 1.931-4.312 4.313-4.312z" transform="translate(-748 -427) translate(172 401) translate(468 10)"/>
                </g>
            </g>
        </g>
    </g>
</svg>
