<?xml version="1.0" encoding="UTF-8"?>
<svg width="14px" height="14px" viewBox="0 0 14 14" version="1.1" xmlns="http://www.w3.org/2000/svg" xmlns:xlink="http://www.w3.org/1999/xlink">
    <title>Add New User</title>
    <g id="Page-1" stroke="none" stroke-width="1" fill="none" fill-rule="evenodd" fill-opacity="0.472394">
        <path d="M10.7916667,7.58333333 C12.5609167,7.58333333 14,9.023 14,10.7916667 C14,12.5603333 12.5609167,14 10.7916667,14 C9.02241667,14 7.58333333,12.5603333 7.58333333,10.7916667 C7.58333333,9.023 9.02241667,7.58333333 10.7916667,7.58333333 Z M10.7916667,9.33333333 C10.6306667,9.33333333 10.5,9.464 10.5,9.625 L10.5,9.625 L10.5,10.5 L9.625,10.5 C9.464,10.5 9.33333333,10.6306667 9.33333333,10.7916667 C9.33333333,10.9526667 9.464,11.0833333 9.625,11.0833333 L9.625,11.0833333 L10.5,11.0833333 L10.5,11.9583333 C10.5,12.1193333 10.6306667,12.25 10.7916667,12.25 C10.9526667,12.25 11.0833333,12.1193333 11.0833333,11.9583333 L11.0833333,11.9583333 L11.0833333,11.0833333 L11.9583333,11.0833333 C12.1193333,11.0833333 12.25,10.9526667 12.25,10.7916667 C12.25,10.6306667 12.1193333,10.5 11.9583333,10.5 L11.9583333,10.5 L11.0833333,10.5 L11.0833333,9.625 C11.0833333,9.464 10.9526667,9.33333333 10.7916667,9.33333333 Z M6.384,-5.32907052e-14 C7.17208333,-5.32907052e-14 7.74258333,0.261916667 8.0815,0.77875 C8.5295,1.463 8.31133333,1.93783333 8.04941667,2.21608333 L8.04941667,2.21608333 L7.90766667,2.35841667 L7.8715,3.08816667 C7.96133333,3.13075 8.04241667,3.19083333 8.10891667,3.26666667 C8.24366667,3.42183333 8.30608333,3.62716667 8.281,3.83075 L8.281,3.83075 L8.17308333,4.6935 C8.13866667,4.97058333 7.94908333,5.19516667 7.69825,5.285 C7.60025,5.88583333 7.30625,6.46975 6.88041667,6.90491667 L6.88041667,6.90491667 L7,7.38091667 L7.97183333,7.62475 C8.07333333,7.65041667 8.15383333,7.72916667 8.18183333,7.83008333 C8.20983333,7.93158333 8.18125,8.0395 8.10775,8.11416667 C7.5285,8.69458333 7.161,9.43308333 7.04375,10.2491667 C7.02275,10.3926667 6.90025,10.4994167 6.755,10.4994167 L6.755,10.4994167 L0.291666667,10.4988333 C0.130666667,10.4988333 2.93098879e-14,10.3681667 2.93098879e-14,10.2071667 C2.93098879e-14,9.058 0.778166667,8.06108333 1.89291667,7.78283333 L1.89291667,7.78283333 L3.5,7.3815 L3.62891667,6.86583333 C3.22933333,6.44 2.9505,5.87708333 2.85308333,5.30075 C2.57716667,5.2255 2.36308333,4.98925 2.32633333,4.69291667 L2.32633333,4.69291667 L2.21841667,3.83075 C2.19275,3.62483333 2.25691667,3.41775 2.394,3.26258333 C2.46691667,3.17916667 2.55791667,3.11558333 2.65883333,3.073 C2.62791667,2.80583333 2.58708333,2.41675 2.58708333,2.23183333 C2.58708333,1.41691667 2.83266667,0.480083333 4.72616667,0.432833333 C5.383,-5.32907052e-14 6.08008333,-5.32907052e-14 6.384,-5.32907052e-14 Z M9.884,1.41220369e-13 C10.6720833,1.41220369e-13 11.2425833,0.261916667 11.5826667,0.778166667 C12.0306667,1.46241667 11.8125,1.93725 11.5505833,2.2155 L11.5505833,2.2155 L11.4088333,2.35783333 L11.3726667,3.08758333 C11.4625,3.13016667 11.5435833,3.19025 11.6100833,3.26608333 C11.7448333,3.42125 11.80725,3.62658333 11.7821667,3.83016667 L11.7821667,3.83016667 L11.67425,4.69291667 C11.6398333,4.97 11.45025,5.19516667 11.1988333,5.28441667 C11.0938333,5.91966667 10.7648333,6.54208333 10.29175,6.98541667 C10.2503333,7.02391667 10.1978333,7.04958333 10.1418333,7.06008333 C9.83616667,7.112 9.54508333,7.19891667 9.27558333,7.31733333 C9.23825,7.33366667 9.198,7.34183333 9.15833333,7.34183333 C9.12391667,7.34183333 9.09008333,7.336 9.05741667,7.32375 L9.05741667,7.32375 L8.98683333,7.2975 C8.90866667,7.26833333 8.83108333,7.238 8.74825,7.217 L8.74825,7.217 L8.01325,7.03383333 C7.92458333,7.01166667 7.85166667,6.94925 7.8155,6.86466667 C7.77991667,6.78066667 7.78575,6.68441667 7.83125,6.60508333 C7.98525,6.33791667 8.106,6.05266667 8.18941667,5.75866667 C8.20516667,5.70091667 8.23841667,5.65016667 8.2845,5.61283333 C8.54525,5.39875 8.71091667,5.09775 8.75233333,4.76583333 L8.75233333,4.76583333 L8.85966667,3.90308333 C8.90516667,3.54141667 8.7955,3.17508333 8.55925,2.89625 C8.46766667,2.78891667 8.4665,2.63141667 8.55633333,2.52175 C9.00608333,1.97633333 9.03583333,1.26875 8.63683333,0.581 C8.59308333,0.505166667 8.5855,0.413583333 8.61641667,0.331916667 C8.64733333,0.249666667 8.71325,0.186083333 8.79608333,0.158083333 C9.20966667,0.0175 9.59466667,1.41220369e-13 9.884,1.41220369e-13 Z" id="Add-New-User" fill="#7196B1" fill-rule="nonzero"></path>
    </g>
</svg>