<?xml version="1.0" encoding="UTF-8"?>
<svg width="14px" height="14px" viewBox="0 0 14 14" version="1.1" xmlns="http://www.w3.org/2000/svg" xmlns:xlink="http://www.w3.org/1999/xlink">
    <title>Add New</title>
    <g id="Page-1" stroke="none" stroke-width="1" fill="none" fill-rule="evenodd" fill-opacity="0.472394">
        <path d="M1.4,2.8 L0,2.8 L0,12.6 C0,13.37 0.63,14 1.4,14 L11.2,14 L11.2,12.6 L1.4,12.6 L1.4,2.8 Z M12.6,0 L4.2,0 C3.43,0 2.8,0.63 2.8,1.4 L2.8,9.8 C2.8,10.57 3.43,11.2 4.2,11.2 L12.6,11.2 C13.37,11.2 14,10.57 14,9.8 L14,1.4 C14,0.63 13.37,0 12.6,0 Z M11.9,6.3 L9.1,6.3 L9.1,9.1 L7.7,9.1 L7.7,6.3 L4.9,6.3 L4.9,4.9 L7.7,4.9 L7.7,2.1 L9.1,2.1 L9.1,4.9 L11.9,4.9 L11.9,6.3 Z" id="Add-New" fill="#7196B1" fill-rule="nonzero"></path>
    </g>
</svg>