<svg xmlns="http://www.w3.org/2000/svg" width="290" height="290" viewBox="0 0 290 290">
    <path d="M159.343 279.67a12.845 12.845 0 0 1 10.021-15.117l4.51-6.676a39.448 39.448 0 0 1 15.283-15.621 39.876 39.876 0 0 1 22.047-1.512 71.306 71.306 0 0 0 7.392 0 63.286 63.286 0 0 0 1.252-7.432 39.957 39.957 0 0 1 7.016-20.912 39.4 39.4 0 0 1 18.916-10.834 62.367 62.367 0 0 0 7.015-2.772 65.521 65.521 0 0 0-2.129-7.054 40.385 40.385 0 0 1-2.881-22.046 39.311 39.311 0 0 1 12.526-18.14 37.732 37.732 0 0 0 5.763-6.677c0-.882-4.384-5.291-6.764-7.936a46.877 46.877 0 0 1-12.527-18.645 48.507 48.507 0 0 1 1-22.675 37.134 37.134 0 0 0 1.378-10.582 45.307 45.307 0 0 0-9.771-3.905A47.145 47.145 0 0 1 219.6 70.8a47.71 47.71 0 0 1-10.272-20.03 36.392 36.392 0 0 0-4.135-10.078A48.151 48.151 0 0 0 194.92 42.2a47.593 47.593 0 0 1-22.549 1.007 46.585 46.585 0 0 1-18.54-12.6 34.558 34.558 0 0 0-8.644-5.417 37.6 37.6 0 0 0-8.644 6.677A46.585 46.585 0 0 1 118 44.47a47.456 47.456 0 0 1-22.549-1.008 35.03 35.03 0 0 0-10.523-1.385 46.78 46.78 0 0 0-3.879 9.823 47.6 47.6 0 0 1-10.272 20.03A47.268 47.268 0 0 1 50.86 82.264a35.676 35.676 0 0 0-10.021 4.157 46.969 46.969 0 0 0 1.5 10.33 48.507 48.507 0 0 1 1 22.675 46.864 46.864 0 0 1-12.527 18.644 35.291 35.291 0 0 0-6.639 8.945l5.638 5.8a39.3 39.3 0 0 1 12.527 18.14A40.4 40.4 0 0 1 39.46 193a63.31 63.31 0 0 0-2.129 7.054 62.62 62.62 0 0 0 7.015 2.772 39.407 39.407 0 0 1 19.041 11.085 39.962 39.962 0 0 1 7.013 21.037 63.52 63.52 0 0 0 1.253 7.433h7.391a39.5 39.5 0 0 1 22.047 1.511 39.319 39.319 0 0 1 15.283 15.621 37.75 37.75 0 0 0 5.387 6.929 11.752 11.752 0 0 1-2.882 23.306h-2.629a34.124 34.124 0 0 1-20.293-17.384 38.571 38.571 0 0 0-5.136-7.811 60.752 60.752 0 0 0-8.268.756 33.534 33.534 0 0 1-26.053-4.032 34.107 34.107 0 0 1-10.523-24.439 37.991 37.991 0 0 0-1.628-8.566 57.617 57.617 0 0 0-7.642-3.024A33.949 33.949 0 0 1 14.907 210a34.068 34.068 0 0 1 1.253-26.456 37.925 37.925 0 0 0 2.255-8.566 60.964 60.964 0 0 0-5.888-5.291A34.446 34.446 0 0 1 0 146.134a39.384 39.384 0 0 1 12.527-25.2 37.76 37.76 0 0 0 6.263-8.188 36.479 36.479 0 0 0-.752-11.968 38.883 38.883 0 0 1 1.378-27.715 38.689 38.689 0 0 1 23.927-15.491 37.481 37.481 0 0 0 9.9-4.158 36.884 36.884 0 0 0 4.134-9.952 39.078 39.078 0 0 1 15.28-23.936 38.26 38.26 0 0 1 27.559-1.386 35.613 35.613 0 0 0 10.9 1.386 36.865 36.865 0 0 0 8.644-6.929A39 39 0 0 1 144.812 0a39.007 39.007 0 0 1 25.054 12.6 36.835 36.835 0 0 0 8.142 6.3 34.658 34.658 0 0 0 10.9-1.385 38.254 38.254 0 0 1 28.06 1.385 38.946 38.946 0 0 1 15.408 24.062 37.92 37.92 0 0 0 4.135 9.952 36.445 36.445 0 0 0 9.9 4.158 38.812 38.812 0 0 1 24.8 16 39 39 0 0 1 1.378 27.715 36.87 36.87 0 0 0-1.378 10.834 37.766 37.766 0 0 0 6.263 8.188A39.386 39.386 0 0 1 290 145a34.446 34.446 0 0 1-12.527 23.557 37.758 37.758 0 0 0-5.512 6.3 57.492 57.492 0 0 0 2.38 8.063 34.066 34.066 0 0 1 1.253 26.455 33.951 33.951 0 0 1-21.8 15.243 38.192 38.192 0 0 0-7.892 3.276 59.855 59.855 0 0 0-1.378 8.188A34.1 34.1 0 0 1 234 260.521a33.534 33.534 0 0 1-26.056 4.031 34.645 34.645 0 0 0-8.645 0 56.659 56.659 0 0 0-4.76 6.551 34.145 34.145 0 0 1-20.168 18.644 12.742 12.742 0 0 1-15.033-10.078zM113.6 185.651a12.582 12.582 0 0 1-5.219-21.766l52.995-53.163a12.688 12.688 0 0 1 17.915 17.972l-53.12 53.289-.126-.377a12.5 12.5 0 0 1-12.445 4.045zM159 172c0-7.179 5.372-13 12-13s12 5.82 12 13-5.372 13-12 13-12-5.82-12-13zm-50-50c0-7.18 5.373-13 12-13s12 5.82 12 13-5.373 13-12 13-12-5.82-12-13z" style="fill:#fff;opacity:.217;mix-blend-mode:overlay;isolation:isolate"/>
</svg>
