<svg xmlns="http://www.w3.org/2000/svg" width="68" height="88" viewBox="0 0 68 88">
    <path d="M66.464 88a1.462 1.462 0 0 1-.661-.155l-14.048-6.968-11.115 6.9a1.458 1.458 0 0 1-.778.224 1.49 1.49 0 0 1-.489-.083 1.463 1.463 0 0 1-.907-.892l-4.279-11.9-4.771 11.945a1.464 1.464 0 0 1-.915.851 1.492 1.492 0 0 1-.462.073 1.462 1.462 0 0 1-.778-.223l-11.115-6.9-14.008 6.972a1.473 1.473 0 0 1-2.02-1.89l13.046-30.275a3.121 3.121 0 0 0-.514-.777 8.242 8.242 0 0 0-3.08-1.334h-.012C7.69 53 5.572 52.365 4.549 50.605c-1.009-1.735-.514-3.861-.078-5.737v-.006a8.173 8.173 0 0 0 .369-3.376 7.965 7.965 0 0 0-1.94-2.6l-.009-.009C1.536 37.441 0 35.819 0 33.736s1.536-3.707 2.892-5.136l.033-.035a7.892 7.892 0 0 0 1.916-2.579 8.223 8.223 0 0 0-.369-3.386c-.439-1.877-.938-4.006.076-5.743C5.575 15.1 7.7 14.461 9.573 13.9a8.22 8.22 0 0 0 3.077-1.335 8.153 8.153 0 0 0 1.345-3.056L14 9.5c.566-1.859 1.208-3.966 2.984-4.983a4.793 4.793 0 0 1 2.429-.541 15.133 15.133 0 0 1 3.353.464 13.181 13.181 0 0 0 2.749.44 2.6 2.6 0 0 0 .649-.07A8.111 8.111 0 0 0 28.8 2.872C30.237 1.526 31.871 0 33.968 0s3.725 1.523 5.166 2.867h.005l.03.028a8.05 8.05 0 0 0 2.606 1.911 2.556 2.556 0 0 0 .643.07 13.281 13.281 0 0 0 2.756-.44 15.06 15.06 0 0 1 3.354-.467 4.781 4.781 0 0 1 2.429.544c1.78 1.023 2.419 3.13 2.984 4.99a8.133 8.133 0 0 0 1.344 3.059 8.242 8.242 0 0 0 3.08 1.338h.009c1.869.563 3.989 1.2 5.012 2.96 1.01 1.732.515 3.858.078 5.735v.005a8.2 8.2 0 0 0-.37 3.377 7.9 7.9 0 0 0 1.912 2.577l.038.04c1.355 1.431 2.892 3.053 2.892 5.136s-1.536 3.709-2.892 5.139l-.026.028a7.979 7.979 0 0 0-1.923 2.586 8.2 8.2 0 0 0 .37 3.376c.442 1.875.943 4-.074 5.744-1.026 1.762-3.151 2.4-5.025 2.963a8.224 8.224 0 0 0-3.079 1.334 3.219 3.219 0 0 0-.535.823l12.917 29.891A1.459 1.459 0 0 1 66.523 88h-.037zM25.6 59.659a.651.651 0 0 0 .1.013 5.076 5.076 0 0 1 1.237.149 9.833 9.833 0 0 1 3.881 2.623l.013.012c1.094 1.021 2.224 2.077 3.148 2.077s2.054-1.055 3.146-2.074l.009-.009a9.855 9.855 0 0 1 3.886-2.628 5.2 5.2 0 0 1 1.191-.152h.192a16.192 16.192 0 0 1 3.446.494 13.313 13.313 0 0 0 2.706.426c.106 0 .208 0 .3-.013a.28.28 0 0 0 .076-.02.445.445 0 0 1 .063-.018 1.5 1.5 0 0 0 .491-.135 2.04 2.04 0 0 0 .685-.815 13.152 13.152 0 0 0 .949-2.485.15.15 0 0 1 .007-.018v-.005c.181-.593.357-1.12.537-1.61.013-.035.023-.072.034-.108.016-.051.032-.1.051-.153a.1.1 0 0 1 .017-.031.148.148 0 0 0 .013-.02 6.616 6.616 0 0 1 1.42-2.337 10.04 10.04 0 0 1 4.31-2.068c1.417-.425 2.882-.864 3.326-1.625.428-.733.086-2.193-.243-3.606v-.005a9.992 9.992 0 0 1-.349-4.8 9.776 9.776 0 0 1 2.653-3.864c1.028-1.085 2.091-2.208 2.091-3.129s-1.069-2.038-2.096-3.125a9.742 9.742 0 0 1-2.652-3.866 9.933 9.933 0 0 1 .338-4.765l.007-.031c.331-1.414.673-2.875.245-3.608-.439-.758-1.9-1.2-3.312-1.622h-.011a10.048 10.048 0 0 1-4.313-2.067 9.879 9.879 0 0 1-2.079-4.273v-.01c-.428-1.406-.872-2.86-1.636-3.3a1.873 1.873 0 0 0-.927-.183 13.542 13.542 0 0 0-2.709.426 16.067 16.067 0 0 1-3.455.5 5.353 5.353 0 0 1-1.374-.159 9.833 9.833 0 0 1-3.881-2.623l-.013-.012C36.024 3.985 34.894 2.93 33.97 2.93s-2.058 1.059-3.151 2.08l-.013.012a9.836 9.836 0 0 1-3.88 2.623 5.392 5.392 0 0 1-1.37.159A15.954 15.954 0 0 1 22.1 7.3a13.459 13.459 0 0 0-2.706-.426 1.886 1.886 0 0 0-.93.182c-.756.433-1.2 1.867-1.622 3.253l-.014.048v.015a9.868 9.868 0 0 1-2.078 4.267 9.987 9.987 0 0 1-4.3 2.064h-.016l-.03.009c-1.4.425-2.856.865-3.293 1.616-.428.733-.085 2.2.246 3.61l.008.037a9.9 9.9 0 0 1 .334 4.763A9.69 9.69 0 0 1 5.05 30.6c-1.03 1.086-2.093 2.209-2.093 3.135s1.057 2.038 2.079 3.12l.009.01A9.752 9.752 0 0 1 7.7 40.726a10.013 10.013 0 0 1-.342 4.78v.016c-.331 1.415-.674 2.877-.246 3.611.439.759 1.9 1.2 3.318 1.624a10.187 10.187 0 0 1 4.326 2.066 6.524 6.524 0 0 1 1.426 2.358.037.037 0 0 0 .011.013.032.032 0 0 1 .01.014 1.5 1.5 0 0 1 .049.144l.028.087c.182.485.359 1.014.558 1.666a19.344 19.344 0 0 0 .691 2.012 2.653 2.653 0 0 0 .946 1.288 1.858 1.858 0 0 0 .922.181 13.547 13.547 0 0 0 2.714-.425c.381-.085.823-.184 1.27-.266.241-.047.487-.079.725-.111l.182-.024a12 12 0 0 1 .617-.059c.076-.006.152-.015.226-.025a2.858 2.858 0 0 1 .359-.031.55.55 0 0 1 .11.014zM11.918 33.872a22.153 22.153 0 1 1 22.153 22 22.1 22.1 0 0 1-22.153-22zm26.429 9.957a4.185 4.185 0 0 0-1.625 1.655l-.48.707a1.362 1.362 0 0 0 .265 2.7 1.342 1.342 0 0 0 .268-.027 3.636 3.636 0 0 0 2.146-1.975 6 6 0 0 1 .506-.695 3.8 3.8 0 0 1 .92 0 3.571 3.571 0 0 0 2.771-.427 3.626 3.626 0 0 0 1.12-2.59 6.349 6.349 0 0 1 .146-.868 4.129 4.129 0 0 1 .84-.347 3.633 3.633 0 0 0 2.318-1.616 3.612 3.612 0 0 0-.133-2.8 5.992 5.992 0 0 1-.253-.854 4.022 4.022 0 0 1 .586-.668 3.667 3.667 0 0 0 1.333-2.5 4.158 4.158 0 0 0-1.333-2.669 4 4 0 0 1-.666-.868 3.881 3.881 0 0 1 .147-1.148 4.114 4.114 0 0 0-.147-2.937 4.109 4.109 0 0 0-2.638-1.7 3.857 3.857 0 0 1-1.053-.44 4.024 4.024 0 0 1-.439-1.055 4.114 4.114 0 0 0-1.639-2.55 4.088 4.088 0 0 0-2.985-.147 3.679 3.679 0 0 1-1.04.149h-.12a3.947 3.947 0 0 1-.866-.668 4.15 4.15 0 0 0-2.665-1.335 4.148 4.148 0 0 0-2.665 1.335 3.9 3.9 0 0 1-.919.734h-.107a3.807 3.807 0 0 1-1.054-.148 4.11 4.11 0 0 0-1.275-.2 4.053 4.053 0 0 0-1.656.351 4.127 4.127 0 0 0-1.625 2.536 3.918 3.918 0 0 1-.44 1.055 3.955 3.955 0 0 1-1.053.44 4.1 4.1 0 0 0-2.545 1.641 4.09 4.09 0 0 0-.147 2.937 3.878 3.878 0 0 1 .08 1.268 4.013 4.013 0 0 1-.667.868 4.168 4.168 0 0 0-1.332 2.67 3.662 3.662 0 0 0 1.332 2.5 6.674 6.674 0 0 1 .626.561 3.968 3.968 0 0 1-.239.908 3.612 3.612 0 0 0-.133 2.8 3.626 3.626 0 0 0 2.318 1.616 6.246 6.246 0 0 1 .813.32 3.974 3.974 0 0 1 .173.907 3.625 3.625 0 0 0 1.12 2.59 3.581 3.581 0 0 0 1.887.538 3.535 3.535 0 0 0 .884-.112 6.807 6.807 0 0 1 .879-.08 4.1 4.1 0 0 1 .546.828 3.648 3.648 0 0 0 2.159 1.842h.323a1.244 1.244 0 0 0 .263-2.471 3.964 3.964 0 0 1-.573-.734A4.173 4.173 0 0 0 28.979 44a4.218 4.218 0 0 0-2.344-.16h-.787a6.622 6.622 0 0 1-.133-.788 4.212 4.212 0 0 0-.746-2.229 4.2 4.2 0 0 0-2.025-1.175 6.482 6.482 0 0 1-.746-.293 6.585 6.585 0 0 1 .226-.747 4.252 4.252 0 0 0 .307-2.336 4.154 4.154 0 0 0-1.331-1.921l-.6-.614a3.715 3.715 0 0 1 .706-.948 4.985 4.985 0 0 0 1.332-1.976 5.133 5.133 0 0 0-.106-2.4 5.014 5.014 0 0 1-.16-1.094 3.83 3.83 0 0 1 1.066-.44 5.061 5.061 0 0 0 2.119-1.1 5.054 5.054 0 0 0 1.093-2.122 4.875 4.875 0 0 1 .413-1.041h.08a3.718 3.718 0 0 1 1.039.148 5.074 5.074 0 0 0 2.4.107 4.963 4.963 0 0 0 1.972-1.335 4.007 4.007 0 0 1 .92-.707 3.66 3.66 0 0 1 .919.573 4.956 4.956 0 0 0 1.972 1.336 5.074 5.074 0 0 0 2.4-.107 5.173 5.173 0 0 1 1.093-.16 3.848 3.848 0 0 1 .439 1.068 5.07 5.07 0 0 0 1.093 2.122 5.028 5.028 0 0 0 2.106 1.094 4.913 4.913 0 0 1 1.039.414 3.867 3.867 0 0 1-.147 1.121 5.158 5.158 0 0 0-.106 2.4 4.966 4.966 0 0 0 1.332 1.976l.217.234a2.956 2.956 0 0 1 .5.6 3.986 3.986 0 0 1-.613.708 4.16 4.16 0 0 0-1.333 1.921 4.268 4.268 0 0 0 .307 2.336 7.22 7.22 0 0 1 .227.748 6.6 6.6 0 0 1-.746.293 4.2 4.2 0 0 0-2.012 1.148 4.219 4.219 0 0 0-.746 2.216 6.444 6.444 0 0 1-.133.787c-.126.007-.254.01-.392.01s-.273 0-.393-.01a4.312 4.312 0 0 0-.894-.094 4.236 4.236 0 0 0-1.457.266zm-2.8-13.964-5.636 5.647a1.336 1.336 0 0 0 .554 2.312 1.365 1.365 0 0 0 .312.037 1.332 1.332 0 0 0 1.012-.466l.014.04 5.649-5.66a1.349 1.349 0 1 0-1.905-1.909zm-.533 6.448a1.332 1.332 0 1 0 1.332-1.335 1.335 1.335 0 0 0-1.331 1.335zm-5.33-5.34a1.332 1.332 0 1 0 1.332-1.335 1.335 1.335 0 0 0-1.33 1.336z" style="fill:#30d941"/>
</svg>
