<svg xmlns="http://www.w3.org/2000/svg" width="20" height="26" viewBox="0 0 20 26">
    <path d="M19.555 26h-.007a.424.424 0 0 1-.194-.046L15.222 23.9l-3.269 2.038a.428.428 0 0 1-.229.066.44.44 0 0 1-.144-.024.43.43 0 0 1-.266-.264L10.055 22.2l-1.4 3.532a.437.437 0 0 1-.4.273.428.428 0 0 1-.229-.066L4.748 23.9.629 25.954a.435.435 0 0 1-.492-.072.435.435 0 0 1-.1-.486l3.837-8.945a.9.9 0 0 0-.151-.23 2.409 2.409 0 0 0-.906-.394 2.352 2.352 0 0 1-1.476-.876 2.323 2.323 0 0 1-.025-1.688v-.008a2.419 2.419 0 0 0 .109-1 2.372 2.372 0 0 0-.571-.769A2.364 2.364 0 0 1 0 9.968a2.367 2.367 0 0 1 .851-1.519l.011-.012a2.339 2.339 0 0 0 .563-.76 2.419 2.419 0 0 0-.109-1v-.003a2.314 2.314 0 0 1 .024-1.692 2.346 2.346 0 0 1 1.477-.875 2.426 2.426 0 0 0 .905-.4 2.42 2.42 0 0 0 .4-.9A2.351 2.351 0 0 1 5 1.333a1.406 1.406 0 0 1 .715-.16 4.432 4.432 0 0 1 .986.138 3.985 3.985 0 0 0 .808.13.778.778 0 0 0 .191-.021 2.371 2.371 0 0 0 .769-.571A2.374 2.374 0 0 1 9.99 0a2.376 2.376 0 0 1 1.52.847l.01.009a2.355 2.355 0 0 0 .767.565.77.77 0 0 0 .19.021 4.021 4.021 0 0 0 .81-.13 4.387 4.387 0 0 1 .986-.138 1.4 1.4 0 0 1 .715.16 2.345 2.345 0 0 1 .877 1.474 2.425 2.425 0 0 0 .4.9 2.409 2.409 0 0 0 .906.394 2.352 2.352 0 0 1 1.476.876 2.323 2.323 0 0 1 .025 1.688v.008a2.464 2.464 0 0 0-.109 1 2.332 2.332 0 0 0 .563.761l.011.012a2.367 2.367 0 0 1 .851 1.517 2.367 2.367 0 0 1-.851 1.518l-.007.007a2.374 2.374 0 0 0-.566.765 2.435 2.435 0 0 0 .109 1 2.317 2.317 0 0 1-.022 1.7 2.354 2.354 0 0 1-1.477.876 2.4 2.4 0 0 0-.905.394.947.947 0 0 0-.157.243L19.9 25.3a.432.432 0 0 1-.337.7zM7.529 17.627a.158.158 0 0 0 .029 0 1.406 1.406 0 0 1 .364.044 2.893 2.893 0 0 1 1.142.775c.323.3.657.616.929.616s.606-.312.926-.614a2.9 2.9 0 0 1 1.146-.778 1.44 1.44 0 0 1 .35-.045h.058a4.766 4.766 0 0 1 1.012.145 3.954 3.954 0 0 0 .8.126h.088a.108.108 0 0 0 .022-.005.064.064 0 0 1 .02-.005.433.433 0 0 0 .144-.041.6.6 0 0 0 .2-.24 3.892 3.892 0 0 0 .279-.734v-.007c.052-.172.1-.328.158-.475 0-.012.008-.024.012-.037l.014-.041a.026.026 0 0 1 .005-.01 1.968 1.968 0 0 1 .418-.691 2.948 2.948 0 0 1 1.268-.61c.417-.125.847-.255.978-.48a1.81 1.81 0 0 0-.073-1.067 2.965 2.965 0 0 1-.1-1.417 2.868 2.868 0 0 1 .779-1.141c.3-.321.616-.654.616-.925s-.312-.6-.615-.923a2.88 2.88 0 0 1-.781-1.147 2.925 2.925 0 0 1 .1-1.4v-.017a1.8 1.8 0 0 0 .073-1.066c-.129-.223-.555-.353-.968-.478h-.009a2.956 2.956 0 0 1-1.269-.611 2.928 2.928 0 0 1-.612-1.265c-.126-.416-.257-.845-.482-.975a.548.548 0 0 0-.273-.054 3.952 3.952 0 0 0-.8.126 4.682 4.682 0 0 1-1.014.148 1.541 1.541 0 0 1-.406-.048 2.893 2.893 0 0 1-1.14-.772l-.005-.005c-.321-.3-.654-.614-.926-.614s-.6.311-.922.611l-.008.008a2.893 2.893 0 0 1-1.14.772 1.566 1.566 0 0 1-.4.048A4.684 4.684 0 0 1 6.5 2.156a3.915 3.915 0 0 0-.8-.126.557.557 0 0 0-.274.054c-.222.127-.352.551-.477.96v.014a2.928 2.928 0 0 1-.612 1.265 2.94 2.94 0 0 1-1.266.61l-.017.005c-.41.125-.835.255-.963.476a1.807 1.807 0 0 0 .073 1.067v.017a2.928 2.928 0 0 1 .1 1.4 2.864 2.864 0 0 1-.777 1.138c-.3.322-.617.655-.617.928s.31.6.609.92l.005.005a2.874 2.874 0 0 1 .779 1.141 2.955 2.955 0 0 1-.1 1.407v.01a1.81 1.81 0 0 0-.073 1.067c.129.222.555.352.968.477h.009a2.991 2.991 0 0 1 1.272.61 1.934 1.934 0 0 1 .419.7l.005.008.014.041a.253.253 0 0 0 .009.028c.054.146.107.307.164.492a5.817 5.817 0 0 0 .2.595.787.787 0 0 0 .278.38.547.547 0 0 0 .272.055 3.928 3.928 0 0 0 .8-.126h.023c.114-.026.232-.052.351-.074.068-.014.135-.023.2-.031l.066-.009c.055-.006.114-.012.182-.017l.066-.007a.875.875 0 0 1 .106-.009.135.135 0 0 1 .035 0zm-4.023-7.619a6.516 6.516 0 1 1 6.515 6.5 6.514 6.514 0 0 1-6.515-6.5z" style="fill:#fff"/>
</svg>
