<svg xmlns="http://www.w3.org/2000/svg" width="90" height="93" viewBox="0 0 90 93">
    <g fill="none" fill-rule="evenodd" opacity=".19">
        <g fill="#B9CBD7" fill-rule="nonzero">
            <g>
                <g>
                    <path d="M163.295 16.076c1.125-.213 2.266.025 3.212.67l26.952 18.386c1.954 1.333 2.46 4.009 1.129 5.964l-3.972 5.834h1.038c2.474 0 4.486 2.015 4.486 4.49v1.707c1.507 1.068 2.494 2.825 2.494 4.81v12.536h1.39c1.641 0 2.976 1.336 2.976 2.979v14.143c0 1.643-1.335 2.98-2.976 2.98h-1.39v12.535c0 3.248-2.64 5.89-5.884 5.89h-73.866c-3.245 0-5.884-2.642-5.884-5.89V57.937c0-2.372 1.409-4.42 3.432-5.352V51.42c0-2.476 2.013-4.49 4.486-4.49h3.39l1.991-20.175c.233-2.356 2.336-4.082 4.689-3.85l20.518 2.03c.728.071 1.26.72 1.187 1.448-.072.729-.72 1.259-1.447 1.189l-20.518-2.03c-.901-.09-1.705.572-1.794 1.473l-2.47 25.031h1.688l1.588-16.087c.117-1.191.882-2.193 1.996-2.613 1.48-.558 2.761-1.601 3.61-2.936.631-.993 1.755-1.537 2.934-1.421l10.153 1.004c.728.072 1.26.72 1.188 1.449-.072.728-.72 1.259-1.448 1.188l-10.153-1.004c-.178-.018-.35.064-.44.207-1.154 1.815-2.898 3.234-4.91 3.993-.162.061-.278.216-.295.394l-1.562 15.826h6.473l23.264-34.17c.644-.948 1.62-1.587 2.745-1.8zm32.69 48.188h-80.337v32.519h7.139c.73 0 1.323.593 1.323 1.325s-.592 1.325-1.323 1.325h-7.14v3.677c0 1.786 1.452 3.24 3.237 3.24h73.866c1.784 0 3.236-1.454 3.236-3.24v-3.677h-64.723c-.73 0-1.324-.593-1.324-1.325s.593-1.325 1.324-1.325h64.723v-6.209h-12.587l-.276-.003c-5.41-.147-9.765-4.598-9.765-10.047 0-1.038.158-2.04.451-2.982l.001-.004c.138-.44.306-.868.5-1.281l.04-.087.017-.033c1.63-3.35 5.066-5.664 9.032-5.664h12.587v-6.209zm4.039 8.86h-16.625c-2.803 0-5.246 1.568-6.5 3.875-.056.105-.11.211-.163.319-.104.216-.197.437-.28.664-.291.793-.45 1.65-.45 2.542 0 .892.159 1.748.45 2.542.082.226.176.448.28.663.052.108.107.214.164.32 1.253 2.306 3.696 3.875 6.5 3.875h16.624c.181 0 .329-.147.329-.329V73.452c0-.181-.148-.329-.33-.329zm-16.315 2.023c2.962 0 5.371 2.412 5.371 5.377 0 2.964-2.409 5.376-5.37 5.376-2.963 0-5.372-2.412-5.372-5.376 0-2.965 2.41-5.377 5.371-5.377zm0 2.65c-1.502 0-2.723 1.224-2.723 2.727s1.221 2.726 2.723 2.726c1.502 0 2.724-1.223 2.724-2.726 0-1.504-1.222-2.727-2.724-2.727zm9.04-23.1h-73.865c-1.785 0-3.236 1.454-3.236 3.24v3.677h80.338v-3.677c0-1.786-1.452-3.24-3.236-3.24zm-1.095-5.116h-2.842l-1.68 2.466h5.618c.251 0 .499.018.742.049v-.675c0-1.015-.824-1.84-1.838-1.84zm-27.558-30.93c-.102 0-.206.01-.308.03-.43.081-.804.325-1.05.688L140.49 52.047h2.034l16.64-24.441c.663-.975 1.84-1.5 3.002-1.337 1.566.22 3.19-.08 4.574-.845 1.03-.57 2.277-.508 3.256.16l13.971 9.53c.979.668 1.492 1.807 1.34 2.975-.205 1.569.11 3.192.887 4.57.584 1.039.529 2.298-.145 3.287l-4.153 6.101h2.033l8.471-12.444c.51-.748.316-1.77-.432-2.28l-26.952-18.386c-.275-.188-.594-.286-.92-.286zm4.408 9.123c-.146-.1-.336-.112-.485-.03-1.882 1.04-4.09 1.448-6.22 1.15-.021-.003-.041-.004-.061-.004-.151 0-.299.077-.387.208l-15.624 22.95h6.71c.386-5.676 5.118-10.176 10.883-10.176 5.766 0 10.498 4.5 10.884 10.175h4.488l5.17-7.593c.1-.148.11-.341.026-.492-1.057-1.875-1.486-4.082-1.207-6.217.022-.167-.058-.34-.205-.44zm-5.184 16.749c-4.304 0-7.849 3.312-8.228 7.524h16.457c-.379-4.212-3.924-7.524-8.229-7.524zm-39.273 5.058h-3.13c-1.013 0-1.837.825-1.837 1.84v.626h4.724l.243-2.466z" transform="translate(-1209 -426) translate(172 401) translate(924 9)"/>
                </g>
            </g>
        </g>
    </g>
</svg>
