<svg xmlns="http://www.w3.org/2000/svg" width="28" height="28" viewBox="0 0 28 28">
    <defs>
        <filter id="bx017hvz1a">
            <feColorMatrix in="SourceGraphic" values="0 0 0 0 0.188235 0 0 0 0 0.850980 0 0 0 0 0.768627 0 0 0 1.000000 0"/>
        </filter>
    </defs>
    <g fill="none" fill-rule="evenodd">
        <g>
            <g>
                <g filter="url(#bx017hvz1a)" transform="translate(-241 -576) translate(172 511) translate(42 43)">
                    <g>
                        <path fill="#FFF" fill-rule="nonzero" d="M7.57 10.94L5.62 9.002C2.346 11.481.191 15.298 0 19.631h2.728c.205-3.588 2.06-6.729 4.843-8.692zm16.902 8.69H27.2c-.205-4.332-2.36-8.15-5.62-10.627l-1.937 1.936c2.755 1.963 4.624 5.104 4.829 8.692zm-2.687.678c0-4.157-2.238-7.636-6.139-8.557v-.92c0-1.124-.914-2.031-2.046-2.031-1.132 0-2.046.907-2.046 2.03v.921c-3.915.921-6.139 4.387-6.139 8.557v6.769l-2.728 2.708v1.353h21.826v-1.353l-2.728-2.708v-6.77zM13.6 35.2c.191 0 .368-.014.546-.054.886-.19 1.61-.785 1.964-1.598.136-.325.205-.677.205-1.056h-5.457c.014 1.49 1.228 2.708 2.742 2.708z" transform="translate(27 14)"/>
                    </g>
                </g>
            </g>
        </g>
    </g>
</svg>
