<svg id="Layer_1" data-name="Layer 1" xmlns="http://www.w3.org/2000/svg" viewBox="0 0 14 15"><defs><style>.cls-1{fill:#6ad6c4;}</style></defs><path class="cls-1" d="M2.47,6.71v0Z"/><path class="cls-1" d="M2.5,6.66h0Z"/><path class="cls-1" d="M2.53,6.6Z"/><path class="cls-1" d="M2.56,6.52v0Z"/><path class="cls-1" d="M2.62,5.49v.84h0V5.49a.66.66,0,0,1,0-.14s0,0,0,0,0,0,0,0A.66.66,0,0,0,2.62,5.49Z"/><path class="cls-1" d="M3.4,4.76h0a.76.76,0,0,0-.6.29.76.76,0,0,1,.6-.29h.06l.14,0-.14,0Z"/><path class="cls-1" d="M4.07,5.23h0v0Z"/><polygon class="cls-1" points="4.04 5.17 4.04 5.17 4.04 5.17 4.05 5.18 4.05 5.18 4.05 5.18 4.04 5.17"/><path class="cls-1" d="M2.58,6.46v0Z"/><path class="cls-1" d="M3.92,5h0L4,5s0,0,0,0S4,5,4,5Z"/><path class="cls-1" d="M4,5.09H4Z"/><path class="cls-1" d="M2.6,6.4v0Z"/><path class="cls-1" d="M4.65,5.42v6.19h0V5.42Z"/><polygon class="cls-1" points="11.82 9.76 11.82 11.61 11.82 11.61 11.82 9.76 11.82 9.76"/><polygon class="cls-1" points="4.42 4.76 11.04 4.76 11.05 4.76 4.42 4.76 4.42 4.76"/><path class="cls-1" d="M4.11,5.39a.38.38,0,0,1,0,.1V6.77h0V5.49A.38.38,0,0,0,4.11,5.39Z"/><path class="cls-1" d="M4.61,5.16v0h0v0Z"/><path class="cls-1" d="M4.47,4.83v0l0,0h0Z"/><polygon class="cls-1" points="11.82 5.51 11.82 5.51 11.82 6.19 11.82 6.19 11.82 5.51"/><path class="cls-1" d="M4.55,5V5Z"/><path class="cls-1" d="M4.5,4.89h0v0Z"/><path class="cls-1" d="M4.59,5.08h0v0Z"/><path class="cls-1" d="M2,6.47l0,0Z"/><polygon class="cls-1" points="0.66 3.71 9.82 3.71 9.82 3.71 0.65 3.71 0.66 3.71"/><path class="cls-1" d="M2.08,6.27v0Z"/><path class="cls-1" d="M2,6.42s0,0,0,0S2,6.41,2,6.42Z"/><path class="cls-1" d="M2.05,6.36s0,0,0,0S2.05,6.35,2.05,6.36Z"/><path class="cls-1" d="M9.82,4.23Z"/><path class="cls-1" d="M2.53,4.54a1.12,1.12,0,0,0-.28.33A1.12,1.12,0,0,1,2.53,4.54Z"/><path class="cls-1" d="M.59,6.1a.75.75,0,0,0,.33.61A.75.75,0,0,1,.59,6.1V3.77h0Z"/><path class="cls-1" d="M2.08,5.48a1,1,0,0,1,0-.17,1,1,0,0,0,0,.17h0v.76h0V5.49Z"/><path class="cls-1" d="M1.33,6.83h0l.19,0-.19,0Z"/><path class="cls-1" d="M1.92,6.57l0,0Z"/><path class="cls-1" d="M1.83,6.66l0,0Z"/><polygon class="cls-1" points="4.06 6.83 4.06 6.83 2.51 6.83 2.51 6.83 4.06 6.83"/><path class="cls-1" d="M1.54,6.81l.06,0Z"/><path class="cls-1" d="M1.61,6.79l0,0Z"/><path class="cls-1" d="M1.88,6.62l0,0Z"/><path class="cls-1" d="M1.78,6.7l0,0Z"/><path class="cls-1" d="M2,6.53l0,0Z"/><path class="cls-1" d="M1.73,6.73l0,0Z"/><path class="cls-1" d="M1.67,6.76l0,0Z"/><rect class="cls-1" x="9.58" y="5.87" width="1.18" height="0.52"/><rect class="cls-1" x="5.57" y="5.85" width="3.54" height="0.52"/><rect class="cls-1" x="5.57" y="7.1" width="4.39" height="0.52"/><rect class="cls-1" x="8.24" y="8.35" width="1.72" height="0.52"/><rect class="cls-1" x="5.57" y="8.33" width="2.21" height="0.52"/><rect class="cls-1" x="5.57" y="9.58" width="5.19" height="0.52"/><path class="cls-1" d="M.06,3.74V6.1A1.23,1.23,0,0,0,.42,7a1.26,1.26,0,0,0,.85.38H4.06a.06.06,0,0,1,.06.06V12a.05.05,0,0,0,0,0l.72.29h0l.62-.26h0l.62.26h0l.62-.26h0l.62.26h0l.61-.26h0l.62.26h0l.61-.26h.05l.62.26h0l.62-.26h0l.62.26h.05l.72-.3s0,0,0,0h0a.34.34,0,0,0,0-.1V9.78h-.22a1.55,1.55,0,0,1-.31,0v1.85h0a.07.07,0,0,1,0,.06l-.19.08h-.05l-.62-.26h0l-.62.26h0l-.62-.26H9.54l-.61.26h0l-.62-.26h0l-.61.26h0l-.62-.26h0l-.62.26h0l-.62-.26h0l-.62.26h0l-.19-.08a.06.06,0,0,1,0-.06h0V5.34h0v0a.13.13,0,0,0,0-.06V5.16h0v0h0v0h0V5l0,0v0h0l0,0v0h0v0h0v0l0,0h0v0l0,0h6.64a.77.77,0,0,1,.77.75h0v.68a1.55,1.55,0,0,1,.31,0l.22,0V5.51A1.3,1.3,0,0,0,11,4.23h-.56a.06.06,0,0,1-.06-.06V3.74a.55.55,0,0,0-.56-.55H.62A.55.55,0,0,0,.06,3.74ZM2.51,6.83h0a.06.06,0,0,1-.06-.09h0v0l0,0h0l0-.06h0s0,0,0-.06V6.4s0,0,0-.06h0V5.49a.66.66,0,0,1,0-.14s0,0,0,0a.42.42,0,0,1,0-.1.46.46,0,0,1,.09-.15.76.76,0,0,1,.6-.29h.06l.14,0a1,1,0,0,1,.23.11h0l0,0s0,0,0,0h0L4,5s0,0,0,0H4v0H4v0a.05.05,0,0,1,0,0h0v.05h0v0h0a.36.36,0,0,1,0,.11.38.38,0,0,1,0,.1V6.77h0a.06.06,0,0,1-.06.06H2.51ZM.59,3.77h0a.06.06,0,0,1,.06-.06H9.82a.06.06,0,0,1,.06.06v.4a.05.05,0,0,1-.06.06H3.14a1.33,1.33,0,0,0-.61.29,1.12,1.12,0,0,0-.28.33,1.22,1.22,0,0,0-.15.39.43.43,0,0,0,0,0,1,1,0,0,0,0,.17h0v.76h0v.05s0,0,0,0v0s0,0,0,0v0l0,0v0l0,0H2l0,0v0l0,0h0l0,0h0l0,0h0l0,0h0l0,0h0l0,0h0l-.06,0h0l-.19,0H1.23a.64.64,0,0,1-.31-.11A.75.75,0,0,1,.59,6.1Z"/><path class="cls-1" d="M12.13,9.79h.22a1.81,1.81,0,0,0,0-3.6l-.22,0a1.55,1.55,0,0,0-.31,0h0a1.81,1.81,0,0,0,0,3.57h0A1.55,1.55,0,0,0,12.13,9.79Zm0-.52A1.29,1.29,0,1,1,13.42,8,1.3,1.3,0,0,1,12.13,9.27Z"/><path class="cls-1" d="M11.36,7.54h.13V8h0l.07-.1.29-.35H12l-.34.4.36.53h-.14L11.57,8l-.08.1v.35h-.13Z"/><path class="cls-1" d="M12.11,7.56a1.06,1.06,0,0,1,.26,0,.59.59,0,0,1,.38.11.46.46,0,0,1,.13.34.49.49,0,0,1-.14.36.55.55,0,0,1-.41.13h-.22Zm.12.82h.12a.36.36,0,0,0,.4-.4.33.33,0,0,0-.38-.36h-.14Z"/></svg>