<?xml version="1.0" encoding="utf-8"?>
<!-- Generator: Adobe Illustrator 25.2.1, SVG Export Plug-In . SVG Version: 6.00 Build 0)  -->
<svg version="1.1" id="Layer_1" xmlns="http://www.w3.org/2000/svg" xmlns:xlink="http://www.w3.org/1999/xlink" x="0px" y="0px"
	 viewBox="0 0 73.9 79.1" style="enable-background:new 0 0 73.9 79.1;" xml:space="preserve">
<style type="text/css">
	.st0{fill:#FFFFFF;}
</style>
<g>
	<path class="st0" d="M12.7,42.7L12.7,42.7z"/>
	<path class="st0" d="M12.8,42.5L12.8,42.5z"/>
	<path class="st0" d="M13,42.2"/>
	<path class="st0" d="M13.1,41.8L13.1,41.8z"/>
	<path class="st0" d="M13.4,36.4v4.4l0,0V36.4c0-0.2,0-0.5,0-0.7l0,0l0,0C13.4,35.9,13.4,36.1,13.4,36.4z"/>
	<path class="st0" d="M17.5,32.5L17.5,32.5c-1.2,0-2.4,0.6-3.1,1.5C15.1,33.1,16.3,32.5,17.5,32.5h0.3h0.7h-0.7H17.5z"/>
	<path class="st0" d="M21,35L21,35L21,35z"/>
	<polygon class="st0" points="20.9,34.7 20.9,34.7 20.9,34.7 20.9,34.7 20.9,34.7 20.9,34.7 	"/>
	<path class="st0" d="M13.2,41.4L13.2,41.4z"/>
	<path class="st0" d="M20.2,33.8L20.2,33.8h0.4l0,0l0,0H20.2z"/>
	<path class="st0" d="M20.7,34.3L20.7,34.3z"/>
	<path class="st0" d="M13.3,41.1L13.3,41.1z"/>
	<path class="st0" d="M24.1,36v32.4l0,0V36z"/>
	<polygon class="st0" points="61.6,58.7 61.6,68.4 61.6,68.4 61.6,58.7 	"/>
	<polygon class="st0" points="22.9,32.5 57.5,32.5 57.6,32.5 22.9,32.5 	"/>
	<path class="st0" d="M21.2,35.8c0,0.2,0,0.3,0,0.5v6.7l0,0v-6.7C21.3,36.2,21.3,36,21.2,35.8z"/>
	<path class="st0" d="M23.9,34.6L23.9,34.6L23.9,34.6L23.9,34.6z"/>
	<path class="st0" d="M23.1,32.9L23.1,32.9L23.1,32.9L23.1,32.9z"/>
	<polygon class="st0" points="61.6,36.5 61.6,36.5 61.6,40 61.6,40 	"/>
	<path class="st0" d="M23.5,33.8L23.5,33.8z"/>
	<path class="st0" d="M23.3,33.2L23.3,33.2L23.3,33.2z"/>
	<path class="st0" d="M23.8,34.2L23.8,34.2L23.8,34.2z"/>
	<path class="st0" d="M10.2,41.5L10.2,41.5z"/>
	<polygon class="st0" points="3.2,27 51.1,27 51.1,27 3.1,27 	"/>
	<path class="st0" d="M10.6,40.4L10.6,40.4z"/>
	<path class="st0" d="M10.2,41.2L10.2,41.2C10.2,41.2,10.2,41.2,10.2,41.2z"/>
	<path class="st0" d="M10.5,40.9L10.5,40.9C10.5,40.9,10.5,40.9,10.5,40.9z"/>
	<path class="st0" d="M51.1,29.8"/>
	<path class="st0" d="M13,31.4c-0.6,0.5-1.1,1.1-1.5,1.7C11.9,32.4,12.4,31.9,13,31.4z"/>
	<path class="st0" d="M2.8,39.6c0,1.3,0.7,2.5,1.7,3.2C3.5,42,2.8,40.8,2.8,39.6V27.4l0,0V39.6z"/>
	<path class="st0" d="M10.6,36.3c0-0.3,0-0.6,0-0.9C10.6,35.7,10.6,36,10.6,36.3L10.6,36.3v4l0,0V36.3L10.6,36.3z"/>
	<path class="st0" d="M6.7,43.4L6.7,43.4h1C7.7,43.4,6.7,43.4,6.7,43.4z"/>
	<path class="st0" d="M9.8,42L9.8,42z"/>
	<path class="st0" d="M9.3,42.5L9.3,42.5z"/>
	<polygon class="st0" points="21,43.4 21,43.4 12.9,43.4 12.9,43.4 	"/>
	<path class="st0" d="M7.8,43.3h0.3H7.8z"/>
	<path class="st0" d="M8.1,43.2L8.1,43.2z"/>
	<path class="st0" d="M9.6,42.3L9.6,42.3z"/>
	<path class="st0" d="M9,42.7L9,42.7z"/>
	<path class="st0" d="M10.2,41.8L10.2,41.8z"/>
	<path class="st0" d="M8.8,42.9L8.8,42.9z"/>
	<path class="st0" d="M8.5,43L8.5,43z"/>
	<rect x="49.9" y="38.3" class="st0" width="6.2" height="2.7"/>
	<rect x="28.9" y="38.2" class="st0" width="18.5" height="2.7"/>
	<rect x="28.9" y="44.8" class="st0" width="23" height="2.7"/>
	<rect x="42.9" y="51.3" class="st0" width="9" height="2.7"/>
	<rect x="28.9" y="51.2" class="st0" width="11.6" height="2.7"/>
	<rect x="28.9" y="57.8" class="st0" width="27.2" height="2.7"/>
	<path class="st0" d="M0,27.2v12.4c0,1.8,0.6,3.5,1.9,4.7c1.2,1.2,2.8,1.9,4.5,2H21c0.2,0,0.3,0.1,0.3,0.3v23.9l0,0l3.8,1.5l0,0
		l3.2-1.4l0,0l3.2,1.4l0,0l3.2-1.4l0,0l3.2,1.4l0,0l3.2-1.4l0,0l3.2,1.4l0,0l3.2-1.4h0.3l3.2,1.4l0,0l3.2-1.4l0,0l3.2,1.4H58
		l3.8-1.6l0,0l0,0c0-0.2,0-0.4,0-0.5v-11h-1.2c-0.5,0.1-1.1,0.1-1.6,0v9.7l0,0c0,0.1,0,0.2,0,0.3l-1,0.4h-0.3l-3.2-1.4l0,0l-3.2,1.4
		l0,0l-3.2-1.4h1.7l-3.2,1.4l0,0l-3.2-1.4l0,0L40,69.2l0,0l-3.2-1.4l0,0l-3.2,1.4l0,0l-3.2-1.4l0,0l-3.2,1.4l0,0l-1-0.4
		c-0.1-0.1-0.1-0.2,0-0.3l0,0V35.6l0,0l0,0c0-0.1,0-0.2,0-0.3v-0.6l0,0l0,0l0,0l0,0l0,0v-0.8l0,0l0,0l0,0l0,0l0,0l0,0l0,0l0,0l0,0
		l0,0l0,0l0,0l0,0h34.8c2.2,0,4,1.7,4,3.9l0,0v3.6c0.5-0.1,1.1-0.1,1.6,0h1.2v-4.8c0.5-3.7-2.1-7.2-5.8-7.7c-1.6-0.2-3.1,0.1-4.5,1
		h-2.9c-0.2,0-0.3-0.1-0.3-0.3v0v-2.3c0-1.6-1.3-2.9-2.9-2.9c0,0,0,0-0.1,0H3C1.4,24.3,0.1,25.6,0,27.2C0,27.2,0,27.2,0,27.2z
		 M12.9,43.4L12.9,43.4c-0.2,0-0.3-0.1-0.4-0.3c0-0.1,0-0.1,0-0.2l0,0l0,0l0,0l0,0v-0.3l0,0c0,0,0,0,0-0.3v-1.2c0,0,0,0,0-0.3l0,0
		v-4.5c0-0.2,0-0.5,0-0.7l0,0c0-0.2,0-0.3,0-0.5c0.1-0.3,0.3-0.6,0.5-0.8c0.8-1,1.9-1.5,3.1-1.5h0.3h0.7c0.4,0.1,0.8,0.3,1.2,0.6
		l0,0l0,0l0,0l0,0l2.3,0.4l0,0l0,0l0,0l0,0l0,0l0,0l0,0v0.3l0,0l0,0l0,0c0,0.2,0,0.4,0,0.6c0,0.2,0,0.3,0,0.5v7.9l0,0
		c0,0.2-0.1,0.3-0.3,0.3H12.9z M2.8,27.4L2.8,27.4c0-0.2,0.1-0.3,0.3-0.3h48c0.2,0,0.3,0.1,0.3,0.3c0,0,0,0,0,0v2.1
		c0,0.1-0.1,0.3-0.2,0.3c0,0-0.1,0-0.1,0h-35C15,30,13.9,30.5,13,31.3c-0.6,0.5-1.1,1.1-1.5,1.7c-0.4,0.6-0.6,1.3-0.8,2l0,0
		c0,0.3,0,0.6,0,0.9l0,0v4l0,0v0.3l0,0l0,0l0,0l0,0l0,0l0,0l0,0h-0.5l0,0l0,0l0,0l0,0l0,0l0,0l0,0l0,0l0,0l0,0l0,0l0,0l0,0l0,0H9.9
		l0,0h-1H6.2c-0.6,0-1.1-0.2-1.6-0.6c-0.6,0.1-1.2,0.1-1.7-0.1V27.4z"/>
	<path class="st0" d="M63.2,58.9h1.2c5.2-0.5,9-5.2,8.4-10.4c-0.5-4.4-4-8-8.4-8.4h-1.2c-0.5-0.1-1.1-0.1-1.6,0l0,0
		c-5.2,0.9-8.6,5.8-7.8,10.9c0.7,4,3.8,7.1,7.8,7.8l0,0C62.2,58.8,62.7,58.9,63.2,58.9z M63.2,56.2c-3.7,0-6.8-3-6.8-6.8
		c0-3.7,3-6.8,6.8-6.8c3.7,0,6.8,3,6.8,6.8c0,0,0,0.1,0,0.1C69.9,53.2,66.9,56.1,63.2,56.2z"/>
	<path class="st0" d="M59.2,47.1h0.7v2.4l0,0l0.4-0.5l1.5-1.8h0.8l-1.8,2.1l1.9,2.8h-0.7l-1.6-2.5L59.9,50v1.8h-0.7V47.1z"/>
	<path class="st0" d="M63.1,47.2c0.5-0.1,0.9-0.1,1.4,0c0.7,0,1.4,0.2,2,0.6c0.5,0.5,0.7,1.1,0.7,1.8c0,0.7-0.2,1.4-0.7,1.9
		c-0.6,0.5-1.4,0.8-2.1,0.7h-1.2V47.2z M63.8,51.5h0.6c1,0.1,2-0.6,2.1-1.6c0-0.1,0-0.3,0-0.4c0.1-0.9-0.6-1.8-1.5-1.9
		c-0.1,0-0.3,0-0.4,0h-0.7L63.8,51.5z"/>
</g>
</svg>
