<?xml version="1.0" encoding="UTF-8"?><svg id="Layer_1" xmlns="http://www.w3.org/2000/svg" viewBox="0 0 156.5 216.43"><defs><style>.cls-1{fill:#00dfc9;}.cls-2{fill:#fff;}</style></defs><g id="Red_point"><g><path class="cls-1" d="M140.29,125.78c10.13-13.18,16.22-29.64,16.22-47.55C156.5,35.03,121.47,0,78.26,0S0,35.03,0,78.23c0,17.88,6.07,34.31,16.17,47.49l62.08,90.71,62.03-90.65Z"/><ellipse class="cls-2" cx="78.26" cy="78.23" rx="60.35" ry="60.37" transform="translate(-.28 156.19) rotate(-89.78)"/></g></g><path class="cls-1" d="M119.38,63.97h-5.54c-1.07,0-2.05,.43-2.77,1.11l-5.49-17.98c-.32-1.05-1.43-1.99-2.68-1.99H53.62c-1.25,0-2.36,.93-2.68,1.99l-5.49,17.98c-.73-.69-1.7-1.12-2.78-1.12h-5.54c-2.23,0-4.05,1.82-4.05,4.05v.64c0,2.23,1.82,4.05,4.05,4.05h4.26c-2.29,1.7-3.58,3.59-3.58,5.57v25.79c0,1.12,.91,2.03,2.03,2.03h13.07c1.12,0,2.03-.91,2.03-2.03v-2.51h46.64v2.54c0,1.12,.91,2.03,2.03,2.03h13.07c1.12,0,2.03-.91,2.03-2.03v-25.83c0-1.99-1.29-3.87-3.58-5.57h4.26c2.23,0,4.05-1.82,4.05-4.05v-.64c0-2.23-1.82-4.05-4.05-4.05Zm-65.43-13.57c.26-.87,1.03-1.43,1.94-1.43h44.73c.91,0,1.67,.57,1.94,1.43l5.6,18.33c-3.47-.6-15.55-1.04-29.91-1.04s-26.42,.44-29.9,1.04l5.6-18.33Zm-2.85,35.76c-2.87,0-5.2-2.33-5.2-5.2s2.33-5.2,5.2-5.2,5.2,2.33,5.2,5.2-2.33,5.2-5.2,5.2Zm43.03,1.59l-.97,2.91c-.21,.64-.79,1.05-1.46,1.05h-26.92c-.67,0-1.25-.41-1.46-1.05l-.97-2.91c-.16-.48-.09-.97,.21-1.38,.3-.41,.74-.64,1.25-.64h28.85c.51,0,.95,.22,1.25,.64,.3,.41,.37,.9,.21,1.38Zm11.26-1.59c-2.87,0-5.2-2.33-5.2-5.2s2.33-5.2,5.2-5.2,5.2,2.33,5.2,5.2-2.33,5.2-5.2,5.2Z"/></svg>