<?xml version="1.0" encoding="UTF-8"?>
<svg width="14px" height="14px" viewBox="0 0 14 14" version="1.1" xmlns="http://www.w3.org/2000/svg" xmlns:xlink="http://www.w3.org/1999/xlink">
    <title>bulk</title>
    <g id="Page-1" stroke="none" stroke-width="1" fill="none" fill-rule="evenodd" fill-opacity="0.472394">
        <g id="Dashboard_Bulk_Upload" transform="translate(-140.000000, -525.000000)" fill="#7196B1">
            <path d="M151.502857,525 C152.871429,525 154,526.133742 154,527.502249 L154,527.502249 L154,536.529243 C153.971429,537.869121 152.842857,539 151.474286,539 L151.474286,539 L142.497143,539 C141.128571,539 140,537.869121 140,536.497751 L140,536.497751 L140,527.502249 C140,526.133742 141.128571,525 142.497143,525 L142.497143,525 Z M151.502857,526.162372 L142.497143,526.162372 C141.754286,526.162372 141.16,526.757873 141.16,527.502249 L141.16,527.502249 L141.16,536.52638 C141.16,537.270757 141.754286,537.866258 142.497143,537.866258 L142.497143,537.866258 L151.502857,537.866258 C152.245714,537.866258 152.84,537.270757 152.84,536.52638 L152.84,536.52638 L152.84,527.502249 C152.84,526.757873 152.245714,526.162372 151.502857,526.162372 L151.502857,526.162372 Z M150.788571,535.217996 C151.117143,535.217996 151.385714,535.484254 151.38288,535.813497 C151.354286,536.139877 151.114286,536.408998 150.788571,536.408998 L150.788571,536.408998 L143.18,536.408998 C142.854286,536.408998 142.585714,536.139877 142.585714,535.813497 C142.585714,535.487117 142.854286,535.217996 143.18,535.217996 L143.18,535.217996 Z M144.428571,527.562372 C144.754286,527.562372 145.022857,527.831493 145.022857,528.157873 L145.022857,528.157873 L145.022857,531.851125 L145.588571,531.166871 C145.797143,530.929243 146.151429,530.869121 146.42,531.078119 C146.657143,531.287117 146.717143,531.642127 146.508571,531.911247 L146.508571,531.911247 L144.934286,533.817996 C144.377143,534.213088 144.102857,533.935378 143.982857,533.817996 L143.982857,533.817996 L142.408571,531.911247 C142.2,531.67362 142.228571,531.284254 142.497143,531.078119 C142.734286,530.869121 143.12,530.897751 143.328571,531.166871 L143.328571,531.166871 L143.834286,531.77955 L143.834286,528.157873 C143.834286,527.831493 144.102857,527.562372 144.428571,527.562372 Z M149.542857,527.559509 C149.868571,527.559509 150.137143,527.82863 150.137143,528.15501 L150.137143,528.15501 L150.137143,531.848262 L150.702857,531.164008 C150.911429,530.92638 151.265714,530.866258 151.534286,531.075256 C151.771429,531.284254 151.831429,531.642127 151.622857,531.908384 L151.622857,531.908384 L150.048571,533.815133 C149.9,533.935378 149.502857,534.213088 149.097143,533.815133 L149.097143,533.815133 L147.522857,531.908384 C147.314286,531.670757 147.342857,531.284254 147.611429,531.075256 C147.848571,530.866258 148.234286,530.894888 148.442857,531.164008 L148.442857,531.164008 L148.948571,531.776687 L148.948571,528.15501 C148.948571,527.82863 149.217143,527.559509 149.542857,527.559509 Z" id="bulk"></path>
        </g>
    </g>
</svg>