<?xml version="1.0" encoding="UTF-8"?>
<svg width="14px" height="14px" viewBox="0 0 14 14" version="1.1" xmlns="http://www.w3.org/2000/svg" xmlns:xlink="http://www.w3.org/1999/xlink">
    <title>bulk</title>
    <g id="Page-1" stroke="none" stroke-width="1" fill="none" fill-rule="evenodd">
        <g id="Dashboard_Bulk_Upload_menu_hover" transform="translate(-141.000000, -525.000000)" fill="#30D9C4" fill-rule="nonzero">
            <path d="M152.502857,525 C153.871429,525 155,526.133742 155,527.502249 L155,527.502249 L155,536.529243 C154.971429,537.869121 153.842857,539 152.474286,539 L152.474286,539 L143.497143,539 C142.128571,539 141,537.869121 141,536.497751 L141,536.497751 L141,527.502249 C141,526.133742 142.128571,525 143.497143,525 L143.497143,525 Z M152.502857,526.162372 L143.497143,526.162372 C142.754286,526.162372 142.16,526.757873 142.16,527.502249 L142.16,527.502249 L142.16,536.52638 C142.16,537.270757 142.754286,537.866258 143.497143,537.866258 L143.497143,537.866258 L152.502857,537.866258 C153.245714,537.866258 153.84,537.270757 153.84,536.52638 L153.84,536.52638 L153.84,527.502249 C153.84,526.757873 153.245714,526.162372 152.502857,526.162372 L152.502857,526.162372 Z M151.788571,535.217996 C152.117143,535.217996 152.385714,535.484254 152.38288,535.813497 C152.354286,536.139877 152.114286,536.408998 151.788571,536.408998 L151.788571,536.408998 L144.18,536.408998 C143.854286,536.408998 143.585714,536.139877 143.585714,535.813497 C143.585714,535.487117 143.854286,535.217996 144.18,535.217996 L144.18,535.217996 Z M145.428571,527.562372 C145.754286,527.562372 146.022857,527.831493 146.022857,528.157873 L146.022857,528.157873 L146.022857,531.851125 L146.588571,531.166871 C146.797143,530.929243 147.151429,530.869121 147.42,531.078119 C147.657143,531.287117 147.717143,531.642127 147.508571,531.911247 L147.508571,531.911247 L145.934286,533.817996 C145.377143,534.213088 145.102857,533.935378 144.982857,533.817996 L144.982857,533.817996 L143.408571,531.911247 C143.2,531.67362 143.228571,531.284254 143.497143,531.078119 C143.734286,530.869121 144.12,530.897751 144.328571,531.166871 L144.328571,531.166871 L144.834286,531.77955 L144.834286,528.157873 C144.834286,527.831493 145.102857,527.562372 145.428571,527.562372 Z M150.542857,527.559509 C150.868571,527.559509 151.137143,527.82863 151.137143,528.15501 L151.137143,528.15501 L151.137143,531.848262 L151.702857,531.164008 C151.911429,530.92638 152.265714,530.866258 152.534286,531.075256 C152.771429,531.284254 152.831429,531.642127 152.622857,531.908384 L152.622857,531.908384 L151.048571,533.815133 C150.9,533.935378 150.502857,534.213088 150.097143,533.815133 L150.097143,533.815133 L148.522857,531.908384 C148.314286,531.670757 148.342857,531.284254 148.611429,531.075256 C148.848571,530.866258 149.234286,530.894888 149.442857,531.164008 L149.442857,531.164008 L149.948571,531.776687 L149.948571,528.15501 C149.948571,527.82863 150.217143,527.559509 150.542857,527.559509 Z" id="bulk"></path>
        </g>
    </g>
</svg>