<svg xmlns="http://www.w3.org/2000/svg" width="25" height="29" viewBox="0 0 25 29">
    <defs>
        <filter id="bsu0j111sa">
            <feColorMatrix in="SourceGraphic" values="0 0 0 0 0.188235 0 0 0 0 0.850980 0 0 0 0 0.768627 0 0 0 1.000000 0"/>
        </filter>
    </defs>
    <g fill="none" fill-rule="evenodd" stroke-linecap="round">
        <g>
            <g>
                <g filter="url(#bsu0j111sa)" transform="translate(-686 -435) translate(655 403) translate(31 22)">
                    <g>
                        <path stroke="#000" stroke-width="1.507" d="M20.322.549C14.82-.182 9.246-.182 3.745.549 1.978.887.714 2.45.753 4.249v18.627c-.048 1.797 1.212 3.364 2.977 3.701 5.511.731 11.095.731 16.607 0 1.77-.338 3.042-1.899 3.014-3.7V4.25c.023-1.806-1.255-3.367-3.03-3.701zM7.535 10.549L7.535 15.07M5.274 12.809L9.796 12.809M9.419 18.461L5.651 22.228M5.651 18.461L9.419 22.228M14.316 12.809L18.837 12.809M14.316 18.837L18.837 18.837M14.316 21.852L18.837 21.852M3.768 6.782L23.358 6.782" transform="translate(0 10.96)"/>
                    </g>
                </g>
            </g>
        </g>
    </g>
</svg>
