<?xml version="1.0" encoding="UTF-8"?>
<svg width="35px" height="35px" viewBox="0 0 35 35" version="1.1" xmlns="http://www.w3.org/2000/svg" xmlns:xlink="http://www.w3.org/1999/xlink">
    <title>9A46E0D3-F361-49DC-B645-D657FD8087AD</title>
    <g id="Page-1" stroke="none" stroke-width="1" fill="none" fill-rule="evenodd">
        <g id="Dashboard_Main" transform="translate(-197.000000, -81.000000)" fill="#30D9C4" fill-rule="nonzero">
            <g id="Navbar" transform="translate(172.000000, 52.000000)">
                <path d="M55.625,64 L29.375,64 C26.9587542,64 25,62.0412458 25,59.625 L25,37.75 C25,35.3337542 26.9587542,33.375 29.375,33.375 C29.761774,33.375 30.1327068,33.2213546 30.4061974,32.9478641 C30.6796879,32.6743735 30.8333333,32.3034407 30.8333333,31.9166667 L30.8333333,30.4583333 C30.8333333,29.6529181 31.4862514,29 32.2916667,29 C33.0970819,29 33.75,29.6529181 33.75,30.4583333 L33.75,31.9166667 C33.75,34.3329124 31.7912458,36.2916667 29.375,36.2916667 C28.5695847,36.2916667 27.9166667,36.9445847 27.9166667,37.75 L27.9166667,59.625 C27.9166667,60.4304153 28.5695847,61.0833333 29.375,61.0833333 L55.625,61.0833333 C56.4304153,61.0833333 57.0833333,60.4304153 57.0833333,59.625 L57.0833333,34.8333333 C57.0833333,34.0279181 57.7362514,33.375 58.5416667,33.375 C59.3470819,33.375 60,34.0279181 60,34.8333333 L60,59.625 C60,62.0412458 58.0412458,64 55.625,64 Z M54.1666667,31.9166667 L54.1666667,30.4583333 C54.1666667,29.6529181 53.5137486,29 52.7083333,29 C51.9029181,29 51.25,29.6529181 51.25,30.4583333 L51.25,31.9166667 C51.25,32.7220819 50.5970819,33.375 49.7916667,33.375 L38.125,33.375 C37.3195847,33.375 36.6666667,34.0279181 36.6666667,34.8333333 C36.6666667,35.6387486 37.3195847,36.2916667 38.125,36.2916667 L49.7916667,36.2916667 C52.2079124,36.2916667 54.1666667,34.3329124 54.1666667,31.9166667 Z M33.75,42.125 C32.9445847,42.125 32.2916667,42.7779181 32.2916667,43.5833333 C32.2916667,44.3887486 32.9445847,45.0416667 33.75,45.0416667 C34.5554153,45.0416667 35.2083333,44.3887486 35.2083333,43.5833333 C35.2083333,42.7779181 34.5554153,42.125 33.75,42.125 Z M39.5833333,42.125 C38.7779181,42.125 38.125,42.7779181 38.125,43.5833333 C38.125,44.3887486 38.7779181,45.0416667 39.5833333,45.0416667 C40.3887486,45.0416667 41.0416667,44.3887486 41.0416667,43.5833333 C41.0416667,42.7779181 40.3887486,42.125 39.5833333,42.125 Z M45.4166667,42.125 C44.6112514,42.125 43.9583333,42.7779181 43.9583333,43.5833333 C43.9583333,44.3887486 44.6112514,45.0416667 45.4166667,45.0416667 C46.2220819,45.0416667 46.875,44.3887486 46.875,43.5833333 C46.875,42.7779181 46.2220819,42.125 45.4166667,42.125 Z M51.25,42.125 C50.4445847,42.125 49.7916667,42.7779181 49.7916667,43.5833333 C49.7916667,44.3887486 50.4445847,45.0416667 51.25,45.0416667 C52.0554153,45.0416667 52.7083333,44.3887486 52.7083333,43.5833333 C52.7083333,42.7779181 52.0554153,42.125 51.25,42.125 Z M33.75,47.9583333 C32.9445847,47.9583333 32.2916667,48.6112514 32.2916667,49.4166667 C32.2916667,50.2220819 32.9445847,50.875 33.75,50.875 C34.5554153,50.875 35.2083333,50.2220819 35.2083333,49.4166667 C35.2083333,48.6112514 34.5554153,47.9583333 33.75,47.9583333 Z M45.4166667,47.9583333 C44.6112514,47.9583333 43.9583333,48.6112514 43.9583333,49.4166667 C43.9583333,50.2220819 44.6112514,50.875 45.4166667,50.875 C46.2220819,50.875 46.875,50.2220819 46.875,49.4166667 C46.875,48.6112514 46.2220819,47.9583333 45.4166667,47.9583333 Z M39.5833333,47.9583333 C38.7779181,47.9583333 38.125,48.6112514 38.125,49.4166667 C38.125,50.2220819 38.7779181,50.875 39.5833333,50.875 C40.3887486,50.875 41.0416667,50.2220819 41.0416667,49.4166667 C41.0416667,48.6112514 40.3887486,47.9583333 39.5833333,47.9583333 Z M51.25,47.9583333 C50.4445847,47.9583333 49.7916667,48.6112514 49.7916667,49.4166667 C49.7916667,50.2220819 50.4445847,50.875 51.25,50.875 C52.0554153,50.875 52.7083333,50.2220819 52.7083333,49.4166667 C52.7083333,48.6112514 52.0554153,47.9583333 51.25,47.9583333 Z M33.75,53.7916667 C32.9445847,53.7916667 32.2916667,54.4445847 32.2916667,55.25 C32.2916667,56.0554153 32.9445847,56.7083333 33.75,56.7083333 C34.5554153,56.7083333 35.2083333,56.0554153 35.2083333,55.25 C35.2083333,54.4445847 34.5554153,53.7916667 33.75,53.7916667 Z M39.5833333,53.7916667 C38.7779181,53.7916667 38.125,54.4445847 38.125,55.25 C38.125,56.0554153 38.7779181,56.7083333 39.5833333,56.7083333 C40.3887486,56.7083333 41.0416667,56.0554153 41.0416667,55.25 C41.0416667,54.4445847 40.3887486,53.7916667 39.5833333,53.7916667 Z M45.4166667,53.7916667 C44.6112514,53.7916667 43.9583333,54.4445847 43.9583333,55.25 C43.9583333,56.0554153 44.6112514,56.7083333 45.4166667,56.7083333 C46.2220819,56.7083333 46.875,56.0554153 46.875,55.25 C46.875,54.4445847 46.2220819,53.7916667 45.4166667,53.7916667 Z" id="Calendar"></path>
            </g>
        </g>
    </g>
</svg>