<svg id="Layer_1" data-name="Layer 1" xmlns="http://www.w3.org/2000/svg" xmlns:xlink="http://www.w3.org/1999/xlink" viewBox="0 0 335.64 240.4"><defs><style>.cls-1,.cls-2{fill:none;}.cls-2{clip-rule:evenodd;}.cls-3{clip-path:url(#clip-path);}.cls-4{fill:#211f52;}.cls-5{fill:#f0de88;}.cls-18,.cls-6{fill:#eed2b6;}.cls-15,.cls-7{fill:#d9a178;}.cls-22,.cls-8{fill:#fff;}.cls-9{fill:#53369d;}.cls-10{fill:#fd846a;}.cls-11{fill:#fd5722;}.cls-12,.cls-20{fill:#22d0bb;}.cls-13{fill:#edcfb1;}.cls-13,.cls-15,.cls-16,.cls-17,.cls-18,.cls-20,.cls-22,.cls-23,.cls-26,.cls-27{fill-rule:evenodd;}.cls-14{clip-path:url(#clip-path-2);}.cls-16,.cls-28{fill:#1ea38e;}.cls-17{fill:#2eab95;}.cls-19{clip-path:url(#clip-path-3);}.cls-21{clip-path:url(#clip-path-4);}.cls-23{fill:#d28d5a;}.cls-24{clip-path:url(#clip-path-5);}.cls-25{clip-path:url(#clip-path-6);}.cls-27{fill:#e4b697;}.cls-29{fill:#ffda60;}.cls-30{fill:#795187;}.cls-31{fill:#413951;}.cls-32{fill:#04d8be;}</style><clipPath id="clip-path"><rect class="cls-1" y="4.96" width="333.21" height="235.44"/></clipPath><clipPath id="clip-path-2"><path class="cls-2" d="M185,102.47c.88,0,8.76.15,9.15-.38s-2.6-3.89-2.83-4.23c-1.76-2.55-11.19-17.22-11.65-22.69-.32-4-.58-7.61-.58-7.61l-19,3.42s-.24,2.88-.54,6.16c-.28,3-.62,6.4-.89,8.19a34.54,34.54,0,0,1-5.81,15.09,49.68,49.68,0,0,1-4.87,5.42c-.11.12,28-2.84,37-3.37"/></clipPath><clipPath id="clip-path-3"><path class="cls-2" d="M198.16,213.05l-18-8.7a168.31,168.31,0,0,0-9.71,16.6c-5.22,10.71,6.71-.55,7.11,2,.52,3.18-6.1,11.65-3.11,13.42h0A10.35,10.35,0,0,0,189,231.91l9.14-18.86Z"/></clipPath><clipPath id="clip-path-4"><path class="cls-2" d="M234.51,127.93a58.09,58.09,0,0,1,1,5.73,57.28,57.28,0,1,1-85.08-43h0a43,43,0,0,1,2,38.37,28.64,28.64,0,1,0,54.67,8.09,27.74,27.74,0,0,0-.49-2.87l27.95-6.27Z"/></clipPath><clipPath id="clip-path-5"><path class="cls-2" d="M231.85,128.47l-19.41,4.7a52.57,52.57,0,0,1-5.29-13.7,10.64,10.64,0,0,0-.34-1.2l7.08-2.46s-3.55-14-.25-15.1h0a10.32,10.32,0,0,1,13.28,7.39c2.18,9,4.93,20.37,4.93,20.37Z"/></clipPath><clipPath id="clip-path-6"><path class="cls-2" d="M176.29,38.41l-22.81,5.46s1.92,12.29,3.46,22.18a12.42,12.42,0,0,0,14.24,10.31h0a12.86,12.86,0,0,0,8.65-5.49,12.68,12.68,0,0,0,1.83-10c-2.44-10.17-5.37-22.43-5.37-22.43Z"/></clipPath></defs><g class="cls-3"><path class="cls-4" d="M119.07,288.56c-.45,12.36-.3,41.26,4.08,57.64a25.45,25.45,0,0,1,8.31-4.36c1.55-23.33,6.95-40.29,6-52.64-1-13.39,6.6-47.06,6.63-64.62l-35.07-1.72s-1,4.28-.46,17.56C108.85,246.49,119.75,269.78,119.07,288.56Z"/><path d="M153.89,283.75c-.45,12.37-.3,41.26,4.08,57.64a25.45,25.45,0,0,1,8.31-4.36c1.55-23.33,16.39-39.38,15.5-51.73-1-13.4-2.85-48-2.82-65.53l-35.07-1.71s-1,4.28-.46,17.55C143.67,241.69,154.57,265,153.89,283.75Z"/><path d="M184.25,286.2c-.45,12.36,4.44,39.8,8.82,56.18a25.17,25.17,0,0,1,8.31-4.36c1.56-23.33,7-40.29,6.06-52.64-1-13.39,6.59-47.06,6.63-64.62L179,219s-.23,17,.3,30.28C179.54,255.4,184.93,267.43,184.25,286.2Z"/><path class="cls-4" d="M86.41,222.16c-7,15.35-5.67,35.89-10.39,61.27-2,10.55,13,73.53,19.9,76.38,4.49,1.86,5.57-1.49,5.82-4.07,1-10-6.92-51.05-8.37-70.95-.75-10.27,22.7-42.65,22.7-42.65l-.39-15.29-12.32-7.44Z"/><path d="M29.52,190.9l-4.91-6.21L20,178.5c-.4-.45-.74-.69-1-.69s-.63.06-1.2.39c-1.73,1.07-2.62,1.74-2.69,2-.38.49-.06,1.35,1,2.59l4.58,5.8,3,3.41a17,17,0,0,0,3,2.81c1.12.81,2.14.61,3-.6C30.75,192.58,30.7,191.48,29.52,190.9Z"/><path class="cls-5" d="M147.32,140.34q-4.75-9.08-19.34-17.2-12.66-6.24-33.47-10.38L80.37,127.23l-.65.86a.34.34,0,0,0-.28.1.34.34,0,0,0,0,.35A78.76,78.76,0,0,0,72,140a92.55,92.55,0,0,0-5.34,12.88l-8,26.1q-2.53,6.7-4.19,8.42a11.48,11.48,0,0,1-7.32,4.46q-4.28,1-14.95-.75l.35,6.49q.83,1.42,6.92,6.14,19,14.64,28,15,3.69.83,13.62-.1l2.67,9,60.29-3,2.62-17.74q1.28-7.76.55-27.31a36.08,36.08,0,0,0,5.26-19.19A41.13,41.13,0,0,0,147.32,140.34Z"/><path class="cls-6" d="M96.13,112.89a7.17,7.17,0,0,1-2.31-.52,9.75,9.75,0,0,1-1.68-.9,11.78,11.78,0,0,1-1.09-.84,110.42,110.42,0,0,1-9.13-9.46c-.07-.54-.15-1.07-.25-1.62a6.37,6.37,0,0,0-2.21-3.42l-.21-.19v-.09l.1,0s-.06,0-.08-.07c0-.4.08-.7.09-.87a12.23,12.23,0,0,0,0-1.37c0-.25,0-.5-.06-.73a8.87,8.87,0,0,0-.27-1.21,7,7,0,0,0-.57-1.39,3.32,3.32,0,0,0-.57-.81,1.88,1.88,0,0,0-1.65-.66l-.1,0a1.83,1.83,0,0,0-1.4,1,.36.36,0,0,0,0,.09h0l-.34.22a2.71,2.71,0,0,0-.55.57,3.12,3.12,0,0,0-.41.74l-.15.42-1.67-1a16.91,16.91,0,0,0-3.75-1.37A13.31,13.31,0,0,0,66,89.17a12.35,12.35,0,0,0-2.69.08l-1,.19a11.55,11.55,0,0,0-1.94.63,13.65,13.65,0,0,0-1.91,1l-.93.61a18.59,18.59,0,0,0-1.85,1.47l-.91.86c-.65.77-1.25,1.53-1.79,2.3a22.27,22.27,0,0,0-3.4,6.91,10.41,10.41,0,0,0-.4,2l0,.87a9.22,9.22,0,0,0,.23,1.74,10.48,10.48,0,0,0,1,2.6,14.23,14.23,0,0,0,1.15,1.71L54,113.31a34.93,34.93,0,0,0,4.14,3.91A19.27,19.27,0,0,0,60.73,119l1.26.6a10.16,10.16,0,0,0,2.42.68,21.83,21.83,0,0,0,6.13-.42,16.28,16.28,0,0,0,2.45-.73,13.09,13.09,0,0,0,3.13-1.73,12.59,12.59,0,0,0,3.32-3.77l-1.26,9.63a26.24,26.24,0,0,1,2.62,3.07c.09.17-.1.64-.55,1.44,0,.08,0,.15.13.21q5.13,1.38,7.65.35a15.55,15.55,0,0,0,2.78-1.83L92,125.36a14.79,14.79,0,0,0,2-2.56,17.9,17.9,0,0,0,2.26-6.59A8.57,8.57,0,0,0,96.13,112.89Z"/><path class="cls-6" d="M81.5,198.39a5,5,0,0,0,1.54-.83,4.78,4.78,0,0,0,.63-.6,4.66,4.66,0,0,0,.52-.75q.14-.26.24-.51a3.47,3.47,0,0,0,.22-.94l.12-.06s-.06-.07-.15-.1a11.59,11.59,0,0,1-1.47-.29,6.28,6.28,0,0,1-.81-.3,8.92,8.92,0,0,1-2-1.4.37.37,0,0,0-.24,0h0a45.27,45.27,0,0,0-3.83,2.72A14.84,14.84,0,0,0,74.3,197a16.84,16.84,0,0,0-2.36,2.78.36.36,0,0,0-.07.1l-.14.15-.68.76-.58.76-.29.34a11.54,11.54,0,0,0-1.56,4c-.14.51-.3,1.35-.5,2.53,0,.3.16.36.52.18A3.13,3.13,0,0,0,70,207.14l1.11-3.08c.24-.65.45-1.22.65-1.71l.35-.36a10.1,10.1,0,0,0-.91,2.13c-.29,1.14-.54,2.17-.72,3.09-.12.75-.18,1.17-.18,1.25a4.11,4.11,0,0,0,0,1c.06.32.19.45.39.37a2.76,2.76,0,0,0,1.08-.69,2.19,2.19,0,0,0,.54-1.11c.24-1.42.43-2.44.57-3.09l.47-1.06c.58-.95.94-1.59,1.08-1.9l.09-.19,0,.29c-.12.74-.24,1.52-.35,2.35-.21,1.77-.31,2.74-.29,2.89a4.66,4.66,0,0,0,0,1.2c.09.19.25.22.5.1a2.55,2.55,0,0,0,.9-.74,6,6,0,0,0,.83-2.55c.08-.38.13-.74.17-1.07.06-.57.12-1.34.17-2.31.19-.47.33-.78.41-.94l.32-.62.58-.69a.06.06,0,0,0,0,0,2.48,2.48,0,0,0-.24.68c0,.24-.07.62-.09,1.12-.06,1.57-.1,2.58-.14,3l-.16,1.86a.16.16,0,0,0,0,.11.81.81,0,0,0,.39,0l.15-.06a1.42,1.42,0,0,0,.28-.22,2.37,2.37,0,0,0,.48-.76,6.07,6.07,0,0,0,.27-.87c.13-.44.39-2,.77-4.77a2.29,2.29,0,0,1,.17-.58.75.75,0,0,1,.35-.39l.83-.4A3.24,3.24,0,0,0,81.5,198.39Z"/><path class="cls-6" d="M24.32,192.74l-.67-.32a2.22,2.22,0,0,0,1.1.13.89.89,0,0,0,.45-.25.38.38,0,0,0,.09-.18V192a1.31,1.31,0,0,0-.49-.75,16.85,16.85,0,0,0-2.22-1.54c-.48-.3-1-.61-1.64-1a.55.55,0,0,0-.28-.05h-.05a.59.59,0,0,0-.37.51,1.59,1.59,0,0,0,0,.31,2.08,2.08,0,0,0,.19.45l-.25-.39.13.33.18.32.23.31.29.31a5.64,5.64,0,0,0,.73.58l.44.28c.24.15.51.28.79.42a1.09,1.09,0,0,0-.43,0h0l-.42.08-.15.07a.48.48,0,0,0-.18.36,1.41,1.41,0,0,0,.27.7l.24.31a3.59,3.59,0,0,0,.37.39,8.24,8.24,0,0,0,1.94,1.25,12,12,0,0,0,1.26.49,3.94,3.94,0,0,0,.7.12.59.59,0,0,0,.37-.22.73.73,0,0,0,.11-.5,1.69,1.69,0,0,0-.63-1.09A14.51,14.51,0,0,0,24.32,192.74Z"/><path class="cls-6" d="M34,191.05a6.48,6.48,0,0,1-.72-.27,15.28,15.28,0,0,1-2.41-1.4,24,24,0,0,1-2-2.24c-2.11-2.82-3.35-4.45-3.74-4.89-.57-.66-.9-1-1-1.12a.4.4,0,0,0-.29-.14h0s-.1.06-.22.3l-.08.28a2.5,2.5,0,0,0,0,.67,4.24,4.24,0,0,0,.41,1.24l.61,1.13a25.31,25.31,0,0,0,2,2.52q1.07,1.68,2.75,3.94a3.67,3.67,0,0,1,.47,1.06c.09.39-.18,1.05-.79,2a4.75,4.75,0,0,1-.66.78,3.23,3.23,0,0,1-.8.53l-.13-.18a1.18,1.18,0,0,0,.07.2l0,0a.58.58,0,0,0,0,.16.68.68,0,0,0,.27.3l.06.08a3.25,3.25,0,0,0,.45.46,5.79,5.79,0,0,0,1.34.8c.63.18,1,.28,1.1.29s.47.08.69.1a5.54,5.54,0,0,0,1.34,0,4.15,4.15,0,0,0,.61-.14l.15-.15a2.92,2.92,0,0,0,.49-.77c.11-.23.22-.5.33-.8.23-.67.39-1.15.47-1.44a6.58,6.58,0,0,0,.52-2,5.65,5.65,0,0,0,0-.75.27.27,0,0,0-.11-.21A3.12,3.12,0,0,0,34,191.05Z"/><path class="cls-7" d="M77.75,122.74a5.46,5.46,0,0,0,1.63,2.12l.09,0,.28.41a4.3,4.3,0,0,1,.49,1,1,1,0,0,1,0,.52,2.56,2.56,0,0,1-.41.83l2.76.94c.23-.08.36-.17.37-.24a9.38,9.38,0,0,0,.38-1.06,7.44,7.44,0,0,0,.16-.92,3.56,3.56,0,0,0,0-.91l-.31-.85c-.2-.54-.41-1-.61-1.48s-.31-.63-.47-.91c.51-1.09,1-2.23,1.53-3.43a25,25,0,0,0,1.11-3.12,24.1,24.1,0,0,0,.65-5.65Z"/><path d="M43.16,111.43a6.73,6.73,0,0,0,3.24.48,3.92,3.92,0,0,0,1.45-.53,3.73,3.73,0,0,0,.46-.35l0,.16.29.74.44.72a4.82,4.82,0,0,0,3,2.3l.57.06a4.5,4.5,0,0,0,1-.11,3,3,0,0,0,1.41-.65.18.18,0,0,0,0-.1,19.36,19.36,0,0,1-1.53-2c-.49-.72-.91-1.4-1.27-2a.54.54,0,0,0,0-.11v0l0,0h0l-.1-.07,0-.06c0-.13-.07-.26-.1-.38a4.94,4.94,0,0,1-.11-1.79,5.44,5.44,0,0,1,.88-2.31A5.79,5.79,0,0,1,54.16,104,17.9,17.9,0,0,0,59,100.66a41.41,41.41,0,0,0,3.15-5.94,10.36,10.36,0,0,1,1.91-2.35A5.25,5.25,0,0,1,67.76,91q.85-.21,4,1.88a2.74,2.74,0,0,0,1.48.11c.11,0,.33-.1.67-.4a4.24,4.24,0,0,0,.7-1.42v0a4.21,4.21,0,0,0,.88-2l.07-.52a8.61,8.61,0,0,0,0-1.14,6.85,6.85,0,0,0-.47-2,5.51,5.51,0,0,0-1-1.62l0,0a.35.35,0,0,0,0-.08,4.14,4.14,0,0,0-1.22-1.06,3.86,3.86,0,0,0-2.36-.42l-.17,0c0-.1,0-.19,0-.29L70,81.11l-.26-.73-.34-.65-.4-.56-.47-.47L68,78.31,67.38,78l-.69-.21a5.12,5.12,0,0,0-1.56,0l-.47.1A4,4,0,0,0,62.79,79a7.61,7.61,0,0,0-.6-1.25l-.47-.68A5.38,5.38,0,0,0,60.6,76l-.65-.4a5.63,5.63,0,0,0-1.5-.5,7.25,7.25,0,0,0-1.33.07l-.77.16a6,6,0,0,0-1.44.58l-.67.42a8.84,8.84,0,0,0-2.31,2.55,6.35,6.35,0,0,0-.84,5.66,1.19,1.19,0,0,0,.07.23l-.6-.12a11.6,11.6,0,0,0-3,0l-.68.13a7.56,7.56,0,0,0-4.34,2.68,8.78,8.78,0,0,0-1,2l-.25.93-.08.9.09.86.26.84.42.8.1.13a8,8,0,0,0-2.71,2.44,11.29,11.29,0,0,0-1.17,2.06l-.47,1.2a13.22,13.22,0,0,0-.47,2.52l0,1.18a8.89,8.89,0,0,0,2.59,6.11A9.41,9.41,0,0,0,43.16,111.43Z"/><path d="M71.67,125c2,.51,3.2.68,3.6.49a8.13,8.13,0,0,0,4.58-2.23l1-1a21.32,21.32,0,0,0,2-2.65,36.79,36.79,0,0,0,1.95-3.43A15.24,15.24,0,0,0,86,111a21.24,21.24,0,0,0-.21-4.51,29.44,29.44,0,0,0-.67-3.31,10.82,10.82,0,0,0-1.69-3.71A15.43,15.43,0,0,0,82,97.71a22.26,22.26,0,0,0-3-2.58l-.21.48q2.19,6.87.06,9.7a17.28,17.28,0,0,1-2.5,2.47,40.2,40.2,0,0,0-4.82,3.49,15.35,15.35,0,0,0-3,4.83,4.14,4.14,0,0,1-1.17,1.16,8.63,8.63,0,0,1-3.36,1.3,18.47,18.47,0,0,1-4.17-.31c-.21,0-.29.09-.25.22a15.64,15.64,0,0,0,3.44,2.74,38.07,38.07,0,0,0,4.22,2.17A34.77,34.77,0,0,0,71.67,125Z"/><path class="cls-8" d="M95.91,178.63c-2.45,1.37-4.78,2.67-6.66,3.88-4.18,2.67-6.2,4.89-7.54,7a33.47,33.47,0,0,1-1.84-6.11c-.64-3-1.32-7.55-2-12.08a.35.35,0,0,0-.39-.29.34.34,0,0,0-.28.38c.68,4.53,1.36,9.08,2,12.13a34.65,34.65,0,0,0,1.88,6.22h0a.31.31,0,0,0,.34.2c-.46.76-.85,1.5-1.23,2.23a.33.33,0,0,0,.59.31c1.47-2.82,2.93-5.63,8.82-9.4,1.86-1.19,4.17-2.48,6.63-3.86,5.33-3,11.38-6.36,15-10,5.26-5.28,5.15-11,5-16.59h0v0h0v0h0a.34.34,0,0,0-.67.08v0h0c.11,5.59.19,11-4.85,16.1C107.23,172.3,101.27,175.63,95.91,178.63Zm-14.2,10.85Z"/><path class="cls-8" d="M147.29,179.5a.34.34,0,0,0-.48,0c-4.28,4.74-8.51,9.42-15.84,11.85a48.61,48.61,0,0,1-9.78,1.95c-5.72.63-12.16.74-18.63.85h0l-17.66.31h0a.34.34,0,0,0-.3.37h0a.33.33,0,0,0,.34.3l17.66-.3h0c6.46-.12,12.94-.23,18.69-.86a49.73,49.73,0,0,0,9.92-2c7.51-2.5,11.85-7.3,16.13-12A.32.32,0,0,0,147.29,179.5Z"/><polygon class="cls-9" points="81.09 189.73 81.09 189.73 81.09 189.73 81.09 189.73 81.09 189.73"/><path class="cls-8" d="M104.24,157.06a.91.91,0,0,0,.37.23,1.91,1.91,0,0,0,.47.11,5.76,5.76,0,0,0,.82.06,6.65,6.65,0,0,0,1-.07,8.76,8.76,0,0,0,1.08-.25,3.19,3.19,0,0,0,.41-.16,1.76,1.76,0,0,0,.45-.26,1.34,1.34,0,0,0,.21-.2l.09-.12c0-.08.09-.16.13-.24a1.81,1.81,0,0,0,.12-.58,10.94,10.94,0,0,0-.12-1.09c0-.22-.08-.42-.13-.61a3.5,3.5,0,0,0-.38-1,.63.63,0,0,0-.44-.2,8.2,8.2,0,0,0-1.2.11h0c-1.33.2-2.37.4-3.13.58a.77.77,0,0,0-.32.18.38.38,0,0,0-.09.13.66.66,0,0,0-.08.23,25.26,25.26,0,0,0,.47,2.59A1.13,1.13,0,0,0,104.24,157.06Z"/><path class="cls-8" d="M76.69,114.77l-.09-.35a4.39,4.39,0,0,0-.59-1.21l-.21.11a.45.45,0,0,0-.16.15,8.26,8.26,0,0,1-1.06,2,25.08,25.08,0,0,1-1.91,2.13.8.8,0,0,0-.17.43.63.63,0,0,0,.24.44,1.12,1.12,0,0,0,.28.18,1.76,1.76,0,0,0,.39.15l.23.06a3.35,3.35,0,0,0,2-.31,2.15,2.15,0,0,0,.74-.76l.13-.24a4.09,4.09,0,0,0,.18-.56,5.48,5.48,0,0,0,.09-.64,7.13,7.13,0,0,0,0-.81A5.88,5.88,0,0,0,76.69,114.77Z"/><path class="cls-10" d="M212.65,168.81q3.45-6.52,12.43-12.2,8.58-5,26.25-11l13.44,3.69,13.59,1.91a186.53,186.53,0,0,1,15.94,19.85,49.58,49.58,0,0,1,6.76,15,38.94,38.94,0,0,1,.81,14.88,56.15,56.15,0,0,1-5.73,17.86q-3.17,5.13-5.64,6-2.73,1.71-10.5,1.29a32.13,32.13,0,0,1-1.11,18.2L266,233.7l-5.84,2.59-2.92,1.65a5.83,5.83,0,0,1-2.14.64q-2,.39-3.68-4.57-18.21,8-22.4,9.34c-3.55,1.2-5.35,1.19-5.38,0l-1.06-1.05a27,27,0,0,1-5.58-7q-1.32-2.37-3.4-10.57-2.31-8.64,1.38-15-9.71-5.52-9.86-13.33Q203.26,184.69,212.65,168.81Z"/><path class="cls-7" d="M253.51,238a2.12,2.12,0,0,0,1.35.55c.77.1,2.35-.55,4.72-1.93l-4.83,11-2.49-11.22A7.43,7.43,0,0,0,253.51,238Z"/><path class="cls-8" d="M227.15,178.57a3.53,3.53,0,0,1,1.6-2.31,8.1,8.1,0,0,1,4.19-.54L284,181.43q4.06.94,4.57,2.6c.45,1.18.26,3.21-.58,6.07l-.17.65L282.16,217q-.6,2.69-2.34,3.36a9.57,9.57,0,0,1-2.2.51l-42.76-4.67a32.17,32.17,0,0,1-4.33-.4c-2.28-.26-3.47-1.49-3.55-3.67L226.52,185A26.67,26.67,0,0,1,227.15,178.57Z"/><polygon class="cls-8" points="224.69 213.21 224.72 213.34 224.71 213.27 224.69 213.21"/><path class="cls-8" d="M216.31,210.71a6.4,6.4,0,0,1,4.35-1.35l.14.73a5,5,0,0,1,3.09,2c.87,1.34,1,2.27.36,2.8-.12.18-1,.3-2.53.35a19.18,19.18,0,0,1-3.2,0c-2.54-.18-3.8-.54-3.77-1.09A4.11,4.11,0,0,1,216.31,210.71Z"/><path class="cls-6" d="M254.51,134.58q-8.4-9.45-2.79-18.63a15.79,15.79,0,0,1,8.7-6.22,13.73,13.73,0,0,1,10.16.45L283.4,121c-.1.19-.2.38-.31.57a8.66,8.66,0,0,1,7.63,3.13q3.13,3.88-3.29,17.56l-16.82,9.08q2.4,4.56-1.76,12.22-5,6.45-10,5.76-4.63,0-7.43-6.08a21.84,21.84,0,0,1-.92-13.39q1.81-7,8.73-13.38A7.85,7.85,0,0,1,254.51,134.58Z"/><path class="cls-6" d="M280.19,226.19l.15,0a6.54,6.54,0,0,1-1.91-2.61l-.42,0-.7-.06-.71-.08-8-.74a18,18,0,0,0-2.06,0,.36.36,0,0,0-.22.06l-.11,0a22.37,22.37,0,0,0-2.95,2.1c-.18.16-.37.35-.58.57a3.44,3.44,0,0,0-.87.88c-.08.11,0,.24.16.39a1.7,1.7,0,0,0,.71.24,1.4,1.4,0,0,0,.29,0h0a.68.68,0,0,0,.47-.14l.4-.27,0,0h0a23.15,23.15,0,0,1,3.25-2.08q1.1-.43,1.83-.66l.3.09A20.35,20.35,0,0,0,267,225a3,3,0,0,0-.65.43,5.78,5.78,0,0,0-1.48,1,26.16,26.16,0,0,0-3,3.53q-1,1.42-.78,1.71a.53.53,0,0,0,.86.1,2.86,2.86,0,0,0,.87-.52c.65-.6,1.24-1.14,1.78-1.61-.32.37-.66.79-1,1.25s-.51.86-.05.88a2.12,2.12,0,0,0,1.23-.43,26.17,26.17,0,0,0,2.23-1.65,5.73,5.73,0,0,1,.86-.51l.25-.1c-1.51,1.14-1.69,1.69-.55,1.64a55.61,55.61,0,0,1,6.24-1.08,7.59,7.59,0,0,0,1.17-.31A17.74,17.74,0,0,0,280.19,226.19Zm-12.3.87-.06,0,0,0Z"/><path class="cls-6" d="M217.28,208.21a5,5,0,0,1,1.86-.23,7.47,7.47,0,0,1,3.22,1,7.55,7.55,0,0,1,2.93,3.1c.45,1.07.41,1.87-.11,2.41a.23.23,0,0,1-.39,0l0-.05-.09.1c.06-.06.06-.19,0-.39l0-.07,0-.1h0a6.15,6.15,0,0,0-.28-.67,4.7,4.7,0,0,0-.94-1.2,5.42,5.42,0,0,0-2.88-1.38c-.33.27-.44.89-.31,1.85a.9.9,0,0,0,.17.35,10.54,10.54,0,0,1,1,1.37,2.09,2.09,0,0,1,.31.93c.11.74-.16.85-.79.34a16.46,16.46,0,0,1-2.23-2.18c.14.23.33.52.56.87a4.1,4.1,0,0,1,.31.68.94.94,0,0,1-.22,1c-.11.18-.28.2-.49.05a15,15,0,0,1-1.67-1.6,12.85,12.85,0,0,1-1.31-1.75c.08.41.21,1,.4,1.69a2.12,2.12,0,0,1,0,.42.75.75,0,0,1-.56.75c-.57-.19-1.3-1.29-2.19-3.31a2.32,2.32,0,0,1,.27-2.48A4.92,4.92,0,0,1,217.28,208.21Z"/><path class="cls-6" d="M231.88,240.91l2.7-4.95a11.31,11.31,0,0,1,2.37-2.55q4.32-3.25,8.57-2.44a12.11,12.11,0,0,1,6.13,3.24,70.2,70.2,0,0,1,3,13.45l.53-1.37q3-8,4.46-9.91c3.87-2.49,6.15-3.72,6.82-3.68,2.19-.71,4.74-.22,7.67,1.48q4,2.58,4.58,5.78,1.19,3.51-1.62,8.65a320.19,320.19,0,0,1-17.52,29.65q1.17,11.63,2.37,14.62.7,2.88,4.23,5.05c-1.14.86-2.12,3.18-2.94,6.94a22.53,22.53,0,0,0-8.79-3.85c-1.23-.24-1.56-2.18-1-5.84l-3.58-5.82-2.92,3a12,12,0,0,0-3.1,2.62,14.5,14.5,0,0,0-2,5q-3.21-5.76-10-2.75a58,58,0,0,0,5.34-8.86,137,137,0,0,0,5-13q-1.37-2.13-5.61-12.21a53.38,53.38,0,0,1-1.79-5.11q-1.25-3.85-.65-10.61c-2.46-1.4-4.09-2.78-4.87-4.14A11.42,11.42,0,0,0,231.88,240.91Z"/><path class="cls-7" d="M269.62,162.26a19.76,19.76,0,0,0,.6-2.66,8,8,0,0,0,0-2,9.5,9.5,0,0,0-.48-1.8q-1.35-3.37-1.72-4.5a4.29,4.29,0,0,1-.28-1.6,5,5,0,0,1,.08-.65c.25-1.17.4-1.91.44-2.21s.09-.56.17-1.13a.49.49,0,0,1,.12-.28,9.19,9.19,0,0,1,3.52.87l-.33,5.34a4.37,4.37,0,0,0-.31,1.35,5,5,0,0,0,0,.68c.06,1.31.08,2.17.06,2.6a11.07,11.07,0,0,1-.17,1.94A11,11,0,0,1,269.62,162.26Z"/><path class="cls-11" d="M267,222.71a1.44,1.44,0,0,1,.41,0c1.92.06,3,.1,3.22.13l.74.05c.58.07,1.42.15,2.53.22l2.66.13,1.14.07a8.46,8.46,0,0,1,1,.12l.44,1.65a.44.44,0,0,1-.2,0,33.14,33.14,0,0,0-3.56-.9l-3.1-.53c-1.64-.22-2.5-.34-2.57-.36s-.71-.14-1.76-.38Z"/><path class="cls-11" d="M220.92,210.14a3.42,3.42,0,0,1,2.93,1.18,4.37,4.37,0,0,1,.92,1.69,2.35,2.35,0,0,1,0,1.55l-.37.08a4.44,4.44,0,0,0-1.28-2.75,3.45,3.45,0,0,0-1.16-.73,6.56,6.56,0,0,0-1-.31,1.46,1.46,0,0,0-.6,0,.08.08,0,0,1-.07,0C220.29,210.46,220.48,210.24,220.92,210.14Z"/><path d="M222.32,153a7.67,7.67,0,0,0-1.69,3.27c-.18,1.42,0,2.41.59,3l0,0v.06a38.91,38.91,0,0,1,11.35-6.16,88.09,88.09,0,0,1,17.63-4.28l4.53-1.57A35.91,35.91,0,0,0,258.5,141a6.94,6.94,0,0,1,.86.4c-.86-.4-.33-1.3-.33-1.34s.56,1.28.55,1.24c-.3-.64-.49-1.05-.55-1.24s0-.13-.07-.19a9.8,9.8,0,0,0,.6-2.6,15.22,15.22,0,0,0,0-4.62A33.31,33.31,0,0,0,257,125a7.78,7.78,0,0,0,5.75-.76,8.85,8.85,0,0,0,3.2-3,7.5,7.5,0,0,0,1.38-3.83h0A5.28,5.28,0,0,0,269,120c1.61,1.2,2.87,1.51,3.79.91a1.81,1.81,0,0,0,1-1.5,3.9,3.9,0,0,0,.83,1.13,2.07,2.07,0,0,0,1.3.79,1.08,1.08,0,0,0,1-.39,1.81,1.81,0,0,0,.34-.28,1.3,1.3,0,0,0,.28-.41,6.72,6.72,0,0,0,.28,3.85,4.15,4.15,0,0,0,1.89,2,4,4,0,0,0,1,.36,2.77,2.77,0,0,0,2.27-.88l.26-.22.06-.08a6.06,6.06,0,0,0,0,1.7,3.71,3.71,0,0,0,.77,1.89,3.62,3.62,0,0,0,1.3,1.08q-1.53,6.92-4.45,10.74-2.51,3.59-8.83,4.87a.05.05,0,0,0,0,0,9.26,9.26,0,0,1-1.43-.07A20,20,0,0,1,268,145c-.09,0-.13,0-.12,0s.29.32.78.49a8.48,8.48,0,0,0,.82.26c1,.24,1.46.36,1.49.38a3,3,0,0,1,.36.12c-1,1.64-1.43,2.78-1.3,3.43a7.19,7.19,0,0,0,.47,2.2l3.32,2.34q7.86,4.4,9.61,5.63a27.38,27.38,0,0,1,4.36,3.47A51.72,51.72,0,0,1,297.19,176l.78,1.82a3.39,3.39,0,0,0,1.62-2.48,6.49,6.49,0,0,0-.39-3.77,6.31,6.31,0,0,0-.52-.89,11.92,11.92,0,0,0,6.19-4.43,14.3,14.3,0,0,0,2.93-10.1,18.73,18.73,0,0,0-4.27-10.5c-2.52-2.81-4.82-4.58-6.88-5.34a14.05,14.05,0,0,0,5.86-7.05c1.09-3.29.9-6-.57-8.06a7.94,7.94,0,0,0-3.71-3.14,11.63,11.63,0,0,0,3.37-1.44,10.88,10.88,0,0,0,3.91-6.28q2.36-11.4-4-16.47Q295,92.24,287.36,94.7a15.87,15.87,0,0,0-8.25,4.58A10.75,10.75,0,0,0,278.9,96q-1.31-5.72-8.27-6.68Q264.27,89,262,95.47a7.42,7.42,0,0,0,.2,3.59A19.6,19.6,0,0,0,252,96.82a14.44,14.44,0,0,0-11.28,7,17.23,17.23,0,0,0-2,14.94,14.79,14.79,0,0,0,2.45,4.43h-.1a3.78,3.78,0,0,0-3,2.9,5.76,5.76,0,0,0,.64,4,11.75,11.75,0,0,0-4.85,1.17,12,12,0,0,0-5.56,5.23,24.09,24.09,0,0,0-2.43,11,10.73,10.73,0,0,0,.61,3.66,4,4,0,0,0-1.37.08A5.48,5.48,0,0,0,222.32,153Zm42.38-49.67,0-.07.05,0Z"/><polygon class="cls-9" points="277.01 133.25 277.01 133.25 277.01 133.25 277.01 133.25"/><polygon class="cls-9" points="267.05 127.57 267.05 127.56 267.05 127.56 267.05 127.57"/><path class="cls-9" d="M266.51,127.28h0Z"/><path class="cls-9" d="M264,138.07h0Z"/><path class="cls-9" d="M270.7,228a1.91,1.91,0,0,1,.43,0c.12,0,.16.06.1.11a5.74,5.74,0,0,1-.76.3l-1.58.48a5,5,0,0,0-.81.37l-.78.31a8.12,8.12,0,0,1,2-1.14A6.53,6.53,0,0,1,270.7,228Z"/><path class="cls-9" d="M263.27,230.92a12.7,12.7,0,0,1,2.67-2.77,28.18,28.18,0,0,1,2.66-1.57c1-.46,1.45-.58,1.29-.37a2,2,0,0,1-.4.23l-1.43.61a7.89,7.89,0,0,0-.86.5,15.1,15.1,0,0,0-2.66,2.31Z"/><path class="cls-9" d="M217.78,210.28q.5-.53.54-.6l.1-.05a4.77,4.77,0,0,0-.58,1,1.4,1.4,0,0,0-.08.7,2,2,0,0,0,.2.59s.22.39.73,1.22a3.76,3.76,0,0,1,.4.84,5.65,5.65,0,0,1-1.59-2.67,1.17,1.17,0,0,1,.11-.8A1.58,1.58,0,0,1,217.78,210.28Z"/><path class="cls-9" d="M216.21,209.5l.12-.05,0,.08a4.55,4.55,0,0,0-.63.74,1.91,1.91,0,0,0-.25.73,1.2,1.2,0,0,0,.08.53c0,.08.07.17.1.26l.38.85a.65.65,0,0,1,.05.15s0,0,0,0-.09,0-.18-.2c-.2-.37-.36-.68-.47-.94a1.59,1.59,0,0,1-.18-.79,1.12,1.12,0,0,1,.22-.64A3.64,3.64,0,0,1,216.21,209.5Z"/><path class="cls-12" d="M226.21,200.27a.3.3,0,1,1,.54.26,19.73,19.73,0,0,0-1.72,4.34,28.07,28.07,0,0,0-.48,5.18.3.3,0,0,1-.31.29A.32.32,0,0,1,224,210a28.18,28.18,0,0,1,.5-5.29A20.61,20.61,0,0,1,226.21,200.27Z"/><path class="cls-13" d="M185,102.47c.88,0,8.76.15,9.15-.38s-2.6-3.89-2.83-4.23c-1.76-2.55-11.19-17.22-11.65-22.69-.32-4-.58-7.61-.58-7.61l-19,3.42s-.24,2.88-.54,6.16c-.28,3-.62,6.4-.89,8.19a34.54,34.54,0,0,1-5.81,15.09,49.68,49.68,0,0,1-4.87,5.42c-.11.12,28-2.84,37-3.37"/><g class="cls-14"><path class="cls-15" d="M173,75.12c-9.62,2.17-5.95,5.3-7.92,10.11-1.54,3.75-6.94,6.55-10.45,3.4-3.84-3.46-4.09-10.16-3.16-15.12,2.2-11.79,12.12-21,21.87-12.66"/></g><path class="cls-16" d="M216,222.07l-76.33,5.56L150.42,90.72c18.27,5,23.14,4.94,40.46-3l33.6,133.78Z"/><path class="cls-17" d="M174.17,206.58,200.1,218.5s32-49.14,29.73-80.67a57.26,57.26,0,0,0-39-50.16h0a43,43,0,0,0,5.39,38.05,27.93,27.93,0,0,1,1.89,3.15,28.62,28.62,0,0,1,3.11,11c1.15,15.77-27.1,66.67-27.1,66.67Z"/><path class="cls-18" d="M198.16,213.05l-18-8.7a168.31,168.31,0,0,0-9.71,16.6c-5.22,10.71,6.71-.55,7.11,2,.52,3.18-6.1,11.65-3.11,13.42h0A10.35,10.35,0,0,0,189,231.91l9.14-18.86Z"/><g class="cls-19"><path class="cls-15" d="M176.81,206c8.33,3.13,16,8.87,19.6,15.14L202,208.55,181.58,197.3,176.81,206Z"/></g><path class="cls-20" d="M234.51,127.93a58.09,58.09,0,0,1,1,5.73,57.28,57.28,0,1,1-85.08-43h0a43,43,0,0,1,2,38.37,28.64,28.64,0,1,0,54.67,8.09,27.74,27.74,0,0,0-.49-2.87l27.95-6.27Z"/><g class="cls-21"><path class="cls-20" d="M222.83,129a43.49,43.49,0,0,1,.78,4.54,45.43,45.43,0,1,1-67.47-34.13h0a34,34,0,0,1,1.56,30.42,22.72,22.72,0,1,0,43.36,6.41,22,22,0,0,0-.39-2.27l22.16-5Z"/><path class="cls-22" d="M223.29,128.94a.48.48,0,0,0-.56-.36l-22.16,5a.46.46,0,0,0-.36.55,21.19,21.19,0,0,1,.38,2.23,22.24,22.24,0,1,1-42.46-6.28,34.55,34.55,0,0,0-1.58-30.84h0a.47.47,0,0,0-.64-.18,45.89,45.89,0,1,0,68.16,34.48,44.23,44.23,0,0,0-.78-4.58ZM156,100.09a45,45,0,1,0,67.19,33.55c-.17-1.36-.39-2.71-.68-4l-21.25,4.77q.19.91.3,1.86a23.18,23.18,0,1,1-44.24-6.55A33.58,33.58,0,0,0,156,100.09Z"/></g><polygon class="cls-23" points="236.19 74.71 190.61 90.55 200.95 120.3 246.53 104.47 236.19 74.71 236.19 74.71"/><path class="cls-18" d="M231.85,128.47l-19.41,4.7a52.57,52.57,0,0,1-5.29-13.7,10.64,10.64,0,0,0-.34-1.2l7.08-2.46s-3.55-14-.25-15.1h0a10.32,10.32,0,0,1,13.28,7.39c2.18,9,4.93,20.37,4.93,20.37Z"/><g class="cls-24"><path class="cls-15" d="M233.18,124.87c-7.88,3.13-15.77,6.14-24.1,3.07L212.93,140l22.61-5.55-2.36-9.6Z"/></g><path class="cls-15" d="M155.69,57.48A1.44,1.44,0,0,0,154,56.32h0A1.42,1.42,0,0,0,152.88,58c.22,1.3.56,3.23.79,4.53a1.41,1.41,0,0,0,.58.92,1.45,1.45,0,0,0,1.07.24h0A1.43,1.43,0,0,0,156.48,62c-.23-1.3-.56-3.22-.79-4.52Z"/><path class="cls-18" d="M181.46,53a1.46,1.46,0,0,0-.59-.93,1.44,1.44,0,0,0-1.07-.23h0a1.43,1.43,0,0,0-1.16,1.65c.23,1.3.57,3.22.79,4.52a1.46,1.46,0,0,0,.59.93,1.44,1.44,0,0,0,1.07.23h0a1.43,1.43,0,0,0,1.16-1.65c-.23-1.3-.57-3.22-.79-4.52Z"/><path class="cls-18" d="M176.29,38.41l-22.81,5.46s1.92,12.29,3.46,22.18a12.42,12.42,0,0,0,14.24,10.31h0a12.86,12.86,0,0,0,8.65-5.49,12.68,12.68,0,0,0,1.83-10c-2.44-10.17-5.37-22.43-5.37-22.43Z"/><g class="cls-25"><path class="cls-15" d="M153.85,37.5A10,10,0,0,1,168,35,3.89,3.89,0,0,1,174,32.49a3.87,3.87,0,0,1,6.73.76,3.56,3.56,0,0,1,.24,1.1A5,5,0,0,1,182.64,44a5.13,5.13,0,0,1-3.32.14,7.64,7.64,0,0,1-9.23,4.24,10.07,10.07,0,0,1-10,4,3.9,3.9,0,0,1-4.26,1.91,8.65,8.65,0,0,1-1.11.52,9.12,9.12,0,1,1-.83-17.34Z"/><path class="cls-15" d="M178.69,73.87c-19.44,6.6-26.07-20.57-23.87-21.41,0,0-7.4,29.32,15.92,28.38,3.45-.13,7.14-1.52,9.09-4.5,1.33-2-1.14-2.47-1.14-2.47Z"/><path class="cls-15" d="M163.62,43l-20.49,4.49,12.79,37.54L186.3,72.63c-15.77-1.25-19.83-4.47-22.68-29.6Z"/><path class="cls-26" d="M153.48,35.38a10,10,0,0,1,14.1-2.52,3.89,3.89,0,0,1,6.07-2.49,3.87,3.87,0,0,1,6.73.76,3.56,3.56,0,0,1,.24,1.1,5,5,0,0,1,1.65,9.69,5.16,5.16,0,0,1-3.33.14,7.63,7.63,0,0,1-9.22,4.24,10.07,10.07,0,0,1-10,4,3.87,3.87,0,0,1-4.26,1.91,9.29,9.29,0,0,1-13.09-4.64,9.19,9.19,0,0,1,5.37-11.85,9.29,9.29,0,0,1,5.78-.33Z"/></g><path class="cls-27" d="M181.75,60.05l-2.14-8.9a.13.13,0,0,0-.16-.1.13.13,0,0,0-.09.16c.29,1.24,2.13,8.9,2.13,8.9a.13.13,0,0,0,.16.1.14.14,0,0,0,.1-.16Z"/><path class="cls-12" d="M162.12,29.22c.42-.08,1-.23,1.58-.4,0,0,0-.08,0-.12a.56.56,0,0,0-.67-.43,10,10,0,0,0-2,.42c-.31.1-.65.37-.46.74a.83.83,0,0,0,.08.12C161.2,29.43,161.73,29.33,162.12,29.22Z"/><path class="cls-8" d="M180,43.44a2.56,2.56,0,0,1,0,1.29.19.19,0,0,1,0,.08v0s0,0,0,.05v0l0,0v0l0,.05h0l0,.06h0l0,0,0,0,0,0,0,0,0,0,0,0,0,0h0l-.05,0h0l0,0h0l-.05,0h0l-.07,0h0l-.08,0h-1.13l-.21,0h-.16l-.08,0h0l-.09,0h0l-.12,0h0l-.09,0h0l-.09,0h0l-.09,0h0l-.13,0h0l-.1,0h-.05l-.08,0h-.05l-.09,0h0l-.26-.08h0l-.09,0,0,0-.09,0h0l-.11,0h0l-.13,0h0l-.1,0h0l-.09,0,0,0-.11,0h0l-.14,0h0l-.13,0h0l-.12,0h0l-.15,0-.07,0-.06,0-.2-.06h0l-.39-.12h-.05l-.38-.11h0l-.19-.06h0l-.19-.05h0l-.19,0c-2.29-.58-5.71,0-7,.27s-4.58,1.35-6.37,2.89c-2.26,2-5,5.27-6.25,3.85L153,51h0L153,51h0l0-.06h0a.43.43,0,0,0,0-.07h0a.25.25,0,0,0,0-.07v0l-.05-.09h0a1.24,1.24,0,0,1-.1-.2h0a.36.36,0,0,1,0-.09v0a.42.42,0,0,1,0-.1v0s0-.06,0-.09v0l0-.11a3.4,3.4,0,0,0,.68,1.58c1.26,1.42,4-1.88,6.26-3.85,1.79-1.55,5.12-2.56,6.37-2.9s4.69-.84,7-.26c2.91.74,6.83,2.47,7.32.63A3.26,3.26,0,0,0,180,43.44Z"/><path class="cls-28" d="M158,41.23c5-1.32,10.29-2.47,11.94-3.17l.06,0h0l0,0h0l0,0,0,0h0l0,0,0,0,0,0,0,0,0,0,0,0,0,0,0,0,0,0,0,0v0a.1.1,0,0,0,0,0h0l0-.05h0l0,0v0l0,0v0l0,0v0l0,0,0,0v-.06l0,0v0l0,0v0l0,0v0l0-.07h0l0-.06V34.44l0-.12v-.14l0-.06V34l0-.06v0l0-.06v0l0-.06v0l0-.06,0,0,0-.06v0l-.09-.27h0l0-.07v0l0-.07,0,0,0-.07,0,0,0-.06,0,0,0-.06v0l0-.07v0l0-.07v0l0-.08h0l-.18-.36v0l0-.07v0l0-.08v0l0-.07v0l0-.07,0,0,0-.08v0l0-.07h0l-.27-.43v0l0-.07v0l0-.07v0l0-.06,0,0,0-.07v0l0-.07h0l-.06-.07h0l-.33-.38h0l-.05-.07h0l0-.06,0,0-.06-.06h0l-.06-.06h0l-.07-.06h0a5.08,5.08,0,0,0-.43-.38h0l-.07-.05h0l-.07,0h0l-.06-.05h0l-.06,0h0l-.07-.05h0a2.3,2.3,0,0,0-.4-.23h0l-.07,0h0l-.07,0h0l-.07,0h0l-.07,0h0l-.07,0h0l-.07,0h0l-.08,0h0a6.31,6.31,0,0,1,6.83,2.68c1.89,2.72,2.41,6,3.62,8.11h0l.4.13h0l.07,0h0l.06,0h0l.07,0h0l.09,0h0c-.88-1.68-1.44-5.39-4.31-9.14-2.28-3-5.57-2.71-8.14-2.1-.51.11-1,.24-1.41.37-.62.17-1.16.32-1.58.4s-.92.21-1.52.33c-2.71.53-7,1.41-7.83,5.85a18.65,18.65,0,0,0-.33,3.88S153,42.55,158,41.23Zm-4.23-5.78c.42-3.13,4.31-4.71,8.19-5.58s4.37,1.59,4.94,2.9c1.24,2.9.32,4.63-3.49,5.53-1.91.45-5.27,1.31-7.26.88A3.11,3.11,0,0,1,153.73,35.45Z"/><path class="cls-28" d="M164.82,40.62l.09,0h0l.09,0h0l.09,0h0l.1,0h0l.11,0h0l.11,0h0l.26-.07h0l.13,0h0l.13,0h0l.14,0h0l.15,0h0l.49-.12h0l.17,0h0l.17,0h0l.17,0h0l.95-.2h0l.2,0h0c2.68-.54,6-1,8.26-.35h0c-1.21-2.1-1.73-5.39-3.62-8.11a6.31,6.31,0,0,0-6.83-2.68h0l.08,0h0l.07,0h0l.07,0h0l.07,0h0l.07,0h0l.07,0h0l.07,0h0a2.3,2.3,0,0,1,.4.23h0l.07.05h0l.06,0h0l.06.05h0l.07,0h0l.07.05h0a5.08,5.08,0,0,1,.43.38h0l.07.06h0l.06.06h0l.06.06,0,0,0,.06h0l.05.07h0l.33.38h0l.06.07h0l0,.07v0l0,.07,0,0,0,.06v0l0,.07v0l0,.07v0l.27.43h0l0,.07v0l0,.08,0,0,0,.07v0l0,.07v0l0,.08v0l0,.07v0l.18.36h0l0,.08v0l0,.07v0l0,.07v0l0,.06,0,0,0,.06,0,0,0,.07,0,0,0,.07v0l0,.07h0l.09.27v0l0,.06,0,0,0,.06v0l0,.06v0l0,.06v0l0,.06v.14l0,.06v.14l0,.12V37l0,.06h0l0,.07v0l0,0v0l0,0v0l0,0v.06l0,0,0,0v0l0,0v0l0,0v0l0,0h0l0,.05h0a.1.1,0,0,1,0,0v0l0,0,0,0,0,0,0,0,0,0,0,0,0,0,0,0,0,0,0,0h0l0,0,0,0h0l0,0h0l-.06,0c-1.65.7-7,1.85-11.94,3.17s-5.52-1.95-5.52-1.95c0,2.75.6,4.89.58,6.22h0C155.26,42.63,162.72,41.05,164.82,40.62Z"/><path class="cls-12" d="M177.56,39.69h0l-.09,0h0l-.07,0h0l-.06,0h0l-.07,0h0l-.4-.13h0c-2.22-.62-5.58-.19-8.26.35h0l-.2,0h0l-.95.2h0l-.17,0h0l-.17,0h0l-.17,0h0l-.49.12h0l-.15,0h0l-.14,0h0l-.13,0h0l-.13,0h0l-.26.07h0l-.11,0h0l-.11,0h0l-.1,0h0l-.09,0h0l-.09,0h0l-.09,0c-2.1.43-9.56,2-11.8,4.88h0A7.25,7.25,0,0,0,152.5,50l0,.11v0s0,.06,0,.09v0a.42.42,0,0,0,0,.1v0a.36.36,0,0,0,0,.09h0a1.24,1.24,0,0,0,.1.2h0l.05.09v0a.25.25,0,0,1,0,.07h0a.43.43,0,0,1,0,.07h0l0,.06h0L153,51h0l.06.07c1.25,1.42,4-1.88,6.25-3.85,1.79-1.54,5.12-2.55,6.37-2.89s4.69-.85,7-.27l.19,0h0l.19.05h0l.19.06h0l.38.11h.05l.39.12h0l.2.06.06,0,.07,0,.15,0h0l.12,0h0l.13,0h0l.14,0h0l.11,0,0,0,.09,0h0l.1,0h0l.13,0h0l.11,0h0l.09,0,0,0,.09,0h0l.26.08h0l.09,0h.05l.08,0h.05l.1,0h0l.13,0h0l.09,0h0l.09,0h0l.09,0h0l.12,0h0l.09,0h0l.08,0h.16l.21,0h1.13l.08,0h0l.07,0h0l.05,0h0l0,0h0l.05,0h0l0,0,0,0,0,0,0,0,0,0,0,0,0,0h0l0-.06h0l0-.05v0l0,0v0s0,0,0-.05v0a.19.19,0,0,0,0-.08,2.56,2.56,0,0,0,0-1.29A7.19,7.19,0,0,0,177.56,39.69Z"/><path class="cls-28" d="M156.11,39.18c2,.43,5.35-.43,7.26-.88,3.81-.9,4.73-2.63,3.49-5.53-.57-1.31-1.07-3.77-4.94-2.9s-7.77,2.45-8.19,5.58A3.11,3.11,0,0,0,156.11,39.18Z"/><path class="cls-8" d="M197.35,120.6a1.08,1.08,0,1,0-1.53.11A1.09,1.09,0,0,0,197.35,120.6Z"/><path class="cls-8" d="M190.38,125.32a1.08,1.08,0,0,0,1.64,1.41,1.08,1.08,0,1,0-1.64-1.41Z"/><path class="cls-8" d="M200.12,122l-1.41-.21a.54.54,0,0,0-.35.09.43.43,0,0,0-.19.32l-.21,1.41a.47.47,0,0,0,.4.54.44.44,0,0,0,.2,0,.47.47,0,0,0,.35-.39l.05-.33a3.72,3.72,0,0,1-5.08,4.64.48.48,0,1,0-.41.86,4.54,4.54,0,0,0,2.33.44,4.67,4.67,0,0,0,4-6.43l.18,0a.49.49,0,1,0,.14-1Z"/><polygon class="cls-29" points="128.61 133.98 128.61 133.98 128.61 133.98 128.61 133.98"/><path class="cls-30" d="M170.56,109.44h0Z"/><polygon class="cls-30" points="174.69 110.97 174.68 110.97 174.68 110.97 174.69 110.97"/><path class="cls-30" d="M59.87,89.19Z"/><polygon class="cls-30" points="55.12 60.47 55.12 60.47 55.12 60.47 55.12 60.47"/><path class="cls-30" d="M61.27,93.05h0Z"/><polygon class="cls-30" points="61.28 93.04 61.29 93.04 61.27 93.05 61.28 93.04 61.28 93.04"/><polygon class="cls-30" points="59.79 91.06 59.8 91.05 59.81 91.04 59.79 91.06"/><polygon class="cls-30" points="122.33 157.2 122.33 157.2 122.33 157.2 122.33 157.2"/><polygon class="cls-30" points="63.09 108.98 63.09 108.98 63.09 108.98 63.09 108.98"/><polygon class="cls-31" points="176.92 91.33 176.91 91.32 176.91 91.32 176.92 91.33"/><polygon class="cls-31" points="234.29 83.61 234.28 83.61 234.27 83.61 234.29 83.61"/><polygon class="cls-31" points="230.6 79.35 230.6 79.35 230.6 79.35 230.6 79.35"/><polygon class="cls-31" points="235.89 83.13 235.88 83.14 235.88 83.14 235.89 83.13"/><polygon class="cls-31" points="252.93 69.69 252.93 69.7 252.93 69.7 252.93 69.69"/><polygon class="cls-31" points="245.7 83.79 245.69 83.79 245.69 83.79 245.7 83.79"/><polygon class="cls-31" points="249.26 84.28 249.26 84.28 249.26 84.28 249.26 84.28"/><polygon class="cls-31" points="234.08 79.48 234.08 79.48 234.08 79.48 234.08 79.48"/></g><path class="cls-32" d="M250.81,201.11a1.39,1.39,0,1,0,2,0,1.4,1.4,0,0,0-2,0"/><path class="cls-32" d="M260.16,195.72a1.39,1.39,0,1,0-2,0,1.39,1.39,0,0,0,2,0"/><path class="cls-32" d="M263.57,197.78l-1.78-.4a.67.67,0,0,0-.46.08.6.6,0,0,0-.27.39l-.4,1.78a.63.63,0,0,0,.47.74.53.53,0,0,0,.25,0,.62.62,0,0,0,.49-.47l.09-.41a4.76,4.76,0,0,1-6.93,5.45.62.62,0,0,0-.84.23.61.61,0,0,0,.23.84,5.9,5.9,0,0,0,3,.78,6,6,0,0,0,5.7-7.86l.24.06a.62.62,0,0,0,.26-1.21"/></svg>