<svg xmlns="http://www.w3.org/2000/svg" width="51" height="51" viewBox="0 0 51 51">
    <g fill="none" fill-rule="evenodd">
        <g>
            <g>
                <g>
                    <g transform="translate(-37 -562) translate(0 52) translate(37 286) translate(0 224)">
                        <rect width="51" height="51" fill="#FFF" rx="7.5"/>
                        <path fill="#30D9C4" fill-rule="nonzero" d="M36.6 18.8c0-1.325-1.075-2.4-2.4-2.4H33v-1.8c0-.331-.269-.6-.6-.6h-1.2c-.331 0-.6.269-.6.6v1.8H21v-1.8c0-.331-.269-.6-.6-.6h-1.2c-.331 0-.6.269-.6.6v1.8h-1.2c-1.325 0-2.4 1.075-2.4 2.4v15.6c0 1.325 1.075 2.4 2.4 2.4h16.8c1.325 0 2.4-1.075 2.4-2.4V18.8zm-2.4 15.6H17.4V21.2h16.8v13.2zm-9-10.8c-.331 0-.6.269-.6.6v1.2c0 .331.269.6.6.6h6c.331 0 .6-.269.6-.6v-1.2c0-.331-.269-.6-.6-.6h-6zM20.4 26h1.2c.331 0 .6-.269.6-.6v-1.2c0-.331-.269-.6-.6-.6h-1.2c-.331 0-.6.269-.6.6v1.2c0 .331.269.6.6.6zm6 4.8c.331 0 .6-.269.6-.6V29c0-.331-.269-.6-.6-.6h-6c-.331 0-.6.269-.6.6v1.2c0 .331.269.6.6.6h6zm3-.6c0 .331.269.6.6.6h1.2c.331 0 .6-.269.6-.6V29c0-.331-.269-.6-.6-.6H30c-.331 0-.6.269-.6.6v1.2z"/>
                    </g>
                </g>
            </g>
        </g>
    </g>
</svg>
