<?xml version="1.0" encoding="UTF-8"?>
<svg width="14px" height="14px" viewBox="0 0 14 14" version="1.1" xmlns="http://www.w3.org/2000/svg" xmlns:xlink="http://www.w3.org/1999/xlink">
    <title>Cash Collected</title>
    <g id="Page-1" stroke="none" stroke-width="1" fill="none" fill-rule="evenodd" fill-opacity="0.472394">
        <path d="M5.83333333,11.0833333 C6.1425,11.0833333 6.43708333,11.07225 6.72583333,11.0559167 C6.87983333,11.0471667 7,10.9211667 7.00116667,10.7671667 C7.00525,10.192 7.13825,9.63608333 7.39666667,9.11516667 C7.44333333,9.02125 7.43516667,8.90925 7.37683333,8.82233333 C7.31791667,8.736 7.2275,8.68816667 7.112,8.69516667 C6.64708333,8.73191667 6.22883333,8.75 5.83333333,8.75 C3.62483333,8.75 1.61116667,8.31658333 0.44625,7.59033333 C0.356416667,7.53491667 0.242666667,7.53141667 0.1505,7.58275 C0.05775,7.63466667 0,7.73208333 0,7.83825 L0,9.04166667 C0,10.0275 2.34441667,11.0833333 5.83333333,11.0833333 Z M7.15108333,11.8410833 C7.11316667,11.7098333 7.00058333,11.6118333 6.85241667,11.6310833 C6.51466667,11.6520833 6.17458333,11.6666667 5.83333333,11.6666667 C3.62483333,11.6666667 1.61116667,11.23325 0.44625,10.507 C0.356416667,10.4515833 0.242666667,10.4480833 0.1505,10.4994167 C0.05775,10.5513333 0,10.64875 0,10.7549167 L0,11.4864167 C0,12.8566667 2.50775,13.8891667 5.83333333,13.8891667 C6.47966667,13.8891667 7.12658333,13.8454167 7.75658333,13.7585 C7.86275,13.7445 7.952,13.67275 7.98933333,13.5724167 C8.02666667,13.4720833 8.00683333,13.3589167 7.93625,13.2784167 C7.56933333,12.8560833 7.3045,12.3725 7.15108333,11.8410833 Z M5.83333333,5.25 C9.10408333,5.25 11.6666667,4.09675 11.6666667,2.625 C11.6666667,1.15325 9.10408333,0 5.83333333,0 C2.56258333,0 0,1.15325 0,2.625 C0,4.09675 2.56258333,5.25 5.83333333,5.25 Z M5.83333333,8.16666667 C6.6535,8.16666667 7.44216667,8.10658333 8.17716667,7.98933333 C8.23083333,7.98058333 8.28041667,7.95725 8.32125,7.92225 C9.01075,7.32783333 9.88808333,7 10.7916667,7 L10.948,7.00875 C11.0156667,7.00875 11.0815833,6.99066667 11.13525,6.94983333 C11.4875833,6.68441667 11.6666667,6.40675 11.6666667,6.125 L11.6666667,4.68066667 C11.6666667,4.57041667 11.6048333,4.4695 11.5056667,4.41991667 C11.40825,4.3715 11.2898333,4.38083333 11.2005833,4.44733333 C10.03975,5.31475 8.03308333,5.83333333 5.83333333,5.83333333 C3.63358333,5.83333333 1.62691667,5.31475 0.466666667,4.44733333 C0.378,4.38083333 0.260166667,4.3715 0.161583333,4.41991667 C0.0618333333,4.4695 0,4.57041667 0,4.68066667 L0,6.125 C0,7.11083333 2.34441667,8.16666667 5.83333333,8.16666667 Z M9.91666667,9.91666667 C9.91666667,10.1488333 10.1115,10.3104167 10.5,10.4224167 L10.5,9.37066667 C10.1645833,9.45291667 9.91666667,9.66875 9.91666667,9.91666667 Z M10.7916667,7.58333333 C9.023,7.58333333 7.58333333,9.023 7.58333333,10.7916667 C7.58333333,12.5603333 9.023,14 10.7916667,14 C12.5603333,14 14,12.5603333 14,10.7916667 C14,9.023 12.5603333,7.58333333 10.7916667,7.58333333 Z M10.79225,12.8333333 L10.79225,12.8333333 C10.7916667,12.8333333 10.7916667,12.8333333 10.7910833,12.8333333 L10.7905,12.8333333 C10.0129167,12.8333333 9.387,12.3660833 9.3345,11.7471667 C9.32108333,11.58675 9.44008333,11.4455833 9.6005,11.4321667 C9.74458333,11.4175833 9.90266667,11.53775 9.9155,11.6981667 C9.93533333,11.935 10.1785833,12.1356667 10.5,12.2138333 L10.5,11.0244167 C9.716,10.8325 9.33333333,10.4644167 9.33333333,9.91666667 C9.33333333,9.27383333 9.98666667,8.75116667 10.7910833,8.75 L10.7916667,8.75 C10.7916667,8.75 10.7916667,8.75 10.79225,8.75 L10.7928333,8.75 C11.5704167,8.75 12.1963333,9.21725 12.2488333,9.83616667 C12.26225,9.99658333 12.14325,10.13775 11.9828333,10.1511667 C11.83525,10.1610833 11.6806667,10.0455833 11.6678333,9.88516667 C11.648,9.64833333 11.40475,9.44766667 11.0833333,9.3695 L11.0833333,10.5583333 C11.8679167,10.752 12.25,11.1200833 12.25,11.6666667 C12.25,12.3095 11.5966667,12.8321667 10.79225,12.8333333 Z M11.0833333,11.1609167 L11.0833333,12.2126667 C11.41875,12.1304167 11.6666667,11.9145833 11.6666667,11.6666667 C11.6666667,11.4350833 11.4718333,11.2735 11.0833333,11.1609167 Z" id="Cash-Collected" fill="#7196B1" fill-rule="nonzero"></path>
    </g>
</svg>