<svg xmlns="http://www.w3.org/2000/svg" width="51" height="51" viewBox="0 0 51 51">
    <g fill="none" fill-rule="evenodd">
        <g fill="#FFF">
            <g>
                <g>
                    <g transform="translate(-37 -562) translate(0 52) translate(37 286) translate(0 224)">
                        <path fill-rule="nonzero" d="M38 18.263c0-1.453-1.194-2.631-2.667-2.631H34v-1.974c0-.363-.298-.658-.667-.658H32c-.368 0-.667.295-.667.658v1.974H20.667v-1.974c0-.363-.299-.658-.667-.658h-1.333c-.369 0-.667.295-.667.658v1.974h-1.333c-1.473 0-2.667 1.178-2.667 2.631v17.105C14 36.822 15.194 38 16.667 38h18.666C36.806 38 38 36.822 38 35.368V18.263zm-2.667 17.105H16.667V20.895h18.666v14.473zm-10-11.842c-.368 0-.666.295-.666.658V25.5c0 .363.298.658.666.658H32c.368 0 .667-.295.667-.658v-1.316c0-.363-.299-.658-.667-.658h-6.667zM20 26.158h1.333c.369 0 .667-.295.667-.658v-1.316c0-.363-.298-.658-.667-.658H20c-.368 0-.667.295-.667.658V25.5c0 .363.299.658.667.658zm6.667 5.263c.368 0 .666-.294.666-.658v-1.316c0-.363-.298-.658-.666-.658H20c-.368 0-.667.295-.667.658v1.316c0 .364.299.658.667.658h6.667zM30 30.763c0 .364.298.658.667.658H32c.368 0 .667-.294.667-.658v-1.316c0-.363-.299-.658-.667-.658h-1.333c-.369 0-.667.295-.667.658v1.316z"/>
                    </g>
                </g>
            </g>
        </g>
    </g>
</svg>
