<?xml version="1.0" encoding="utf-8"?>
<!-- Generator: Adobe Illustrator 27.0.0, SVG Export Plug-In . SVG Version: 6.00 Build 0)  -->
<svg version="1.1" id="Layer_1" xmlns="http://www.w3.org/2000/svg" xmlns:xlink="http://www.w3.org/1999/xlink" x="0px" y="0px"
	 viewBox="0 0 23.2 24.3" style="enable-background:new 0 0 23.2 24.3;" xml:space="preserve">
<style type="text/css">
	.st0{fill:#F0855E;}
	.st1{fill:#FFFFFF;}
	.st2{fill:#3E588B;}
	.st3{fill:#D30000;}
</style>
<g>
	<g>
		<g>
			<path class="st0" d="M19.2,11.9c0-4.2-3.5-7.7-7.8-7.6C7.3,4.4,4,7.8,4,11.9c0,3.2,2,6,4.8,7c0.7,0.3,1.4,0.8,1.7,1.4l0.7,0.9
				c0.2,0.3,0.6,0.3,0.8,0l0.7-0.9c0.5-0.6,1.1-1.1,1.7-1.4C17.2,17.9,19.2,15.1,19.2,11.9z"/>
			<circle class="st0" cx="11.6" cy="23.2" r="0.7"/>
		</g>
		<circle class="st1" cx="11.6" cy="12.1" r="0.9"/>
		<circle class="st1" cx="14.9" cy="12.1" r="0.9"/>
		<circle class="st1" cx="8.3" cy="12.1" r="0.9"/>
	</g>
	<g>
		<path class="st2" d="M14.4,21.2c0.5-0.1,1.2-0.2,1.6-0.3c0.3,0,0.4,0,0.6,0.2c0.1,0,0.2,0,0.3,0.1c0.3-0.1,0.6-0.2,0.8-0.3
			c0.6-0.3,1.1-0.6,1.4-1.1c0.4-0.4,0.6-0.8,0.7-1.2c0.1-0.2,0.1-0.5,0.1-0.7l0.3-0.1c0,0.3-0.1,0.6-0.2,0.8
			c-0.2,0.5-0.4,0.9-0.8,1.3c-0.4,0.5-1,0.9-1.5,1.2c-0.2,0.1-0.6,0.2-0.8,0.3c0,0.1-0.1,0.2-0.2,0.3c-0.1,0.2-0.2,0.4-0.5,0.4
			c-0.5,0.1-1.2,0.2-1.6,0.3c-0.2,0.1-0.5,0-0.6-0.2C13.7,21.9,13.9,21.3,14.4,21.2z"/>
		<path class="st2" d="M2,13c-0.2-0.7-0.2-1.4-0.2-2.2c0-0.6,0.1-1.1,0.2-1.5c0.3-1.1,0.7-2,1.3-3C4.4,4.5,6.1,3,8,2.3
			c1.1-0.4,2.1-0.6,3.2-0.7c1.2,0,2.2,0.1,3.4,0.4c1.1,0.3,2,0.8,2.9,1.4c0.2,0.2,0.4,0.3,0.6,0.5s0.4,0.4,0.6,0.6
			c0.4,0.4,0.7,0.8,1,1.2c1.4,1.8,1.9,4,1.7,6.3c0,0.4-0.1,0.8-0.2,1.1c0,0.2,0,0.3,0.2,0.4c0.2,0,0.4-0.1,0.4-0.2
			c0.5-2.4,0.1-5-1.3-7.1c-1.2-1.9-3-3.4-5.1-4.2c-2.2-0.9-4.6-1-7-0.3C6.2,2.2,4.4,3.5,3,5.3C1.8,7.2,1.1,9.6,1.3,12
			c0,0.4,0.1,0.8,0.2,1.2c0,0.2,0.2,0.3,0.4,0.2S2.1,13.2,2,13C2,13,2,13,2,13z"/>
		<path class="st2" d="M4,6.2C4.1,6,4.3,5.8,4.4,5.7L4.3,5.8C4.7,5.2,5.3,4.6,6,4.1c-0.1,0-0.1,0.1-0.2,0.1c0.7-0.5,1.4-1,2.2-1.4
			c-0.1,0-0.1,0.1-0.2,0.1c0.9-0.4,1.7-0.6,2.6-0.7h-0.3c1-0.1,1.8-0.1,2.8,0h-0.3c0.9,0.1,1.8,0.4,2.6,0.7c-0.1,0-0.1-0.1-0.2-0.1
			c0.8,0.4,1.5,0.8,2.2,1.4c-0.1,0-0.1-0.1-0.2-0.1c0.7,0.5,1.3,1.2,1.8,1.7c0-0.1-0.1-0.1-0.1-0.2c0.1,0.2,0.3,0.4,0.4,0.6
			c0.1,0.2,0.3,0.4,0.6,0.4c0.2,0.1,0.5,0,0.7-0.1c0.4-0.3,0.6-0.9,0.3-1.3c-0.8-1.2-1.8-2.2-3-3c-1.2-0.8-2.4-1.4-3.8-1.6
			c-1.4-0.3-3-0.4-4.5-0.1C8.1,0.7,6.8,1.3,5.6,2C4.4,2.7,3.4,3.7,2.5,4.9c0.1,0.2,0,0.3-0.1,0.5S2.2,5.8,2.3,6
			c0.1,0.2,0.2,0.4,0.4,0.5C3.2,6.8,3.7,6.6,4,6.2C4,6.2,4,6.2,4,6.2z"/>
		<g>
			<path class="st2" d="M21.4,17.4c-0.4-0.2-0.8-0.4-1.2-0.6c0.4-1.2,0.7-2.3,1-3.6c0.4,0.1,0.9,0.2,1.3,0.3
				c0.3,0.1,0.6,0.5,0.5,0.9c-0.1,1-0.4,1.9-0.7,2.8C22,17.4,21.6,17.5,21.4,17.4z"/>
			<path class="st2" d="M19.7,18.2c-0.1-0.1-0.3-0.2-0.4-0.3c0.8-1.8,1.3-3.9,1.6-5.9h0.5c0.7,0.1,1.3,0.8,1.2,1.6
				c-0.2,1.4-0.5,2.7-1.1,3.9C21.2,18.3,20.3,18.5,19.7,18.2z"/>
			<path class="st2" d="M19.1,18.2C19,18.1,18.8,18,18.7,18s-0.1-0.2-0.1-0.2c0.7-1.9,1.2-3.9,1.6-5.9c0-0.1,0.1-0.2,0.2-0.2H21
				c0.1,0,0.2,0.1,0.1,0.2c-0.4,2.2-0.9,4.3-1.7,6.3C19.3,18.2,19.2,18.3,19.1,18.2z"/>
		</g>
		<g>
			<path class="st2" d="M1.9,17.4c0.4-0.2,0.8-0.4,1.2-0.6c-0.4-1.2-0.7-2.3-1-3.6c-0.4,0.1-0.9,0.2-1.3,0.3c-0.3,0-0.5,0.4-0.5,0.8
				c0.1,1,0.4,1.9,0.7,2.8C1.2,17.4,1.7,17.5,1.9,17.4z"/>
			<path class="st2" d="M3.6,18.2C3.7,18.1,3.9,18,4,17.9C3.2,16.1,2.7,14,2.3,12H1.8c-0.7,0.1-1.3,0.8-1.2,1.6
				c0.2,1.4,0.5,2.7,1.1,3.9C2,18.3,2.9,18.5,3.6,18.2z"/>
			<path class="st2" d="M4.1,18.2C4.2,18.1,4.4,18,4.5,18c0.1,0,0.1-0.2,0.1-0.2c-0.7-1.9-1.2-3.9-1.6-5.9c0-0.1-0.1-0.2-0.2-0.2
				H2.2c-0.1,0-0.2,0.1-0.1,0.2c0.4,2.2,0.9,4.3,1.7,6.3C4,18.2,4.1,18.3,4.1,18.2z"/>
		</g>
	</g>
</g>
<path class="st3" d="M17.3,2.3c1.6,0,2.9,1.3,2.9,2.9s-1.3,2.9-2.9,2.9s-2.9-1.3-2.9-2.9S15.7,2.3,17.3,2.3
	C17.3,2.3,17.3,2.3,17.3,2.3z"/>
</svg>
