<?xml version="1.0" encoding="utf-8"?>
<svg viewBox="0 0 500 500" xmlns="http://www.w3.org/2000/svg">
  <g enable-background="new" transform="matrix(1.543276, 0, 0, 1.527691, 34.849766, 88.336632)" style="">
    <g>
      <g id="Layer-1" data-name="Layer 1">
        <clipPath id="cp0">
          <path transform="matrix(1,0,0,-1,0,261.311)" d="M 0 261.311 L 283.316 261.311 L 283.316 0 L 0 0 Z "/>
        </clipPath>
        <g clip-path="url(#cp0)">
          <path transform="matrix(1,0,0,-1,214.3216,133.1915)" d="M 0 0 C -.564 -11.149 -9.624 -20.209 -20.774 -20.773 C -33.795 -21.433 -44.491 -10.737 -43.832 2.284 C -43.268 13.433 -34.209 22.493 -23.06 23.058 C -10.037 23.719 .661 13.022 0 0 M -50.748 0 C -51.313 -11.149 -60.373 -20.209 -71.522 -20.773 C -84.543 -21.433 -95.24 -10.736 -94.58 2.285 C -94.015 13.435 -84.955 22.494 -73.805 23.059 C -60.783 23.718 -50.087 13.021 -50.748 0 M -101.496 .001 C -102.061 -11.148 -111.12 -20.208 -122.269 -20.773 C -135.291 -21.434 -145.987 -10.737 -145.328 2.284 C -144.763 13.434 -135.704 22.493 -124.554 23.059 C -111.532 23.719 -100.835 13.022 -101.496 .001 M 68.995 2.717 C 68.995 74.776 5.572 133.191 -72.664 133.191 C -150.899 133.191 -214.322 74.776 -214.322 2.717 C -214.322 -69.341 -150.899 -127.758 -72.664 -127.758 C -52.281 -127.758 -32.908 -123.784 -15.397 -116.643 C -8.106 -113.669 -.043 -113.171 7.562 -115.208 L 54.864 -127.883 C 59.881 -129.227 64.471 -124.637 63.127 -119.62 L 52.318 -79.283 C 49.967 -70.507 51.055 -61.191 55.237 -53.125 C 64.014 -36.198 68.995 -17.294 68.995 2.717 " style="fill: rgb(255, 142, 110);"/>
        </g>
      </g>
    </g>
  </g>
</svg>