<?xml version="1.0" encoding="UTF-8"?><svg id="Layer_1" xmlns="http://www.w3.org/2000/svg" viewBox="0 0 23.25 24.31"><defs><style>.cls-1{fill:#fff;}.cls-2{fill:#ff7e53;}.cls-3{fill:#36588f;}</style></defs><g><g><path class="cls-2" d="M19.5,11.88c0-4.42-3.63-7.98-8.07-7.88-4.26,.1-7.7,3.64-7.69,7.9,.01,3.32,2.08,6.16,4.99,7.31,.73,.29,1.36,.76,1.83,1.38l.67,.9c.19,.26,.59,.26,.78,0l.67-.9c.46-.63,1.1-1.1,1.83-1.38,2.92-1.15,4.99-4,4.99-7.33Z"/><circle class="cls-2" cx="11.62" cy="23.64" r=".67"/></g><circle class="cls-1" cx="11.62" cy="12.07" r=".93"/><circle class="cls-1" cx="15.02" cy="12.07" r=".93"/><circle class="cls-1" cx="8.23" cy="12.07" r=".93"/></g><g><path class="cls-3" d="M14.5,21.5c.53-.11,1.16-.21,1.69-.3,.27-.05,.39,.04,.6,.16,.1,0,.19,.02,.27,.08,.25-.09,.57-.21,.8-.32,.59-.28,1.13-.65,1.55-1.1,.35-.39,.58-.78,.74-1.25,.09-.24,.11-.46,.14-.71l.29-.05c-.03,.29-.06,.56-.16,.85-.17,.5-.41,.92-.79,1.33-.44,.47-1.01,.87-1.63,1.16-.24,.11-.56,.24-.82,.33-.02,.12-.08,.2-.19,.26-.11,.24-.19,.38-.51,.45-.52,.11-1.17,.19-1.69,.31-.21,.05-.46-.04-.61-.19-.35-.35-.17-.9,.31-1Z"/><path class="cls-3" d="M1.74,13c-.16-.75-.22-1.51-.2-2.28,.02-.58,.08-1.08,.2-1.64,.23-1.1,.63-2.09,1.22-3.04,1.14-1.84,2.92-3.31,4.93-4.08,1.08-.42,2.2-.65,3.33-.69,1.19-.05,2.32,.09,3.46,.43,1.07,.32,2.06,.8,2.99,1.46,.23,.16,.4,.3,.62,.48,.21,.18,.41,.36,.61,.55,.38,.37,.75,.8,1.04,1.2,1.37,1.88,2.02,4.14,1.83,6.46-.03,.38-.09,.75-.16,1.12-.03,.17,.05,.34,.22,.39,.16,.04,.35-.05,.39-.22,.52-2.52,.07-5.18-1.28-7.38-1.22-2-3.11-3.54-5.29-4.39-2.26-.88-4.83-.97-7.15-.28-2.25,.67-4.25,2.08-5.64,3.98-1.44,1.97-2.13,4.46-1.91,6.89,.04,.41,.1,.81,.18,1.21,.03,.17,.23,.26,.39,.22,.17-.05,.25-.22,.22-.39h0Z"/><path class="cls-3" d="M3.72,6.01c.13-.19,.26-.37,.4-.55-.05,.06-.1,.13-.15,.19,.54-.69,1.16-1.31,1.85-1.85-.06,.05-.13,.1-.19,.15,.71-.55,1.49-1,2.32-1.36-.07,.03-.15,.06-.22,.09,.88-.37,1.8-.62,2.75-.75-.08,.01-.17,.02-.25,.03,.95-.12,1.92-.12,2.87,0l-.25-.03c.95,.13,1.87,.38,2.75,.75l-.22-.09c.83,.35,1.61,.81,2.32,1.36-.06-.05-.13-.1-.19-.15,.69,.54,1.32,1.16,1.85,1.85-.05-.06-.1-.13-.15-.19,.14,.18,.27,.36,.4,.55,.14,.2,.32,.37,.56,.43,.23,.06,.53,.03,.73-.09,.41-.26,.63-.85,.34-1.29-.82-1.22-1.86-2.26-3.07-3.09-1.17-.8-2.52-1.38-3.91-1.69-1.54-.34-3.12-.37-4.68-.1-1.41,.24-2.78,.77-4,1.52-1.25,.77-2.32,1.78-3.2,2.96-.1,.13-.19,.27-.29,.4-.13,.19-.16,.5-.09,.73,.06,.22,.23,.45,.43,.56,.48,.25,.99,.1,1.29-.34h0Z"/><g><path class="cls-3" d="M21.66,17.57c-.41-.21-.81-.4-1.21-.6,.43-1.19,.73-2.44,.97-3.71,.43,.08,.86,.16,1.28,.25,.35,.07,.6,.45,.54,.86-.15,.99-.37,1.96-.7,2.86-.13,.36-.54,.5-.87,.33Z"/><path class="cls-3" d="M20,18.36c-.14-.08-.28-.17-.42-.25,.84-1.91,1.29-3.98,1.67-6.08,.16,.01,.33,.03,.49,.04,.73,.05,1.29,.82,1.18,1.69-.19,1.4-.51,2.77-1.06,4.01-.35,.76-1.26,.97-1.87,.59Z"/><path class="cls-3" d="M19.41,18.41c-.13-.08-.26-.17-.4-.25-.07-.05-.11-.15-.08-.24,.74-2,1.15-4.04,1.66-6.13,.02-.09,.11-.15,.21-.15,.16,0,.32,.02,.48,.03,.09,0,.15,.09,.14,.18-.38,2.25-.85,4.48-1.8,6.49-.04,.08-.13,.11-.21,.07Z"/></g><g><path class="cls-3" d="M1.58,17.57c.41-.21,.81-.4,1.21-.6-.43-1.19-.73-2.44-.97-3.71-.43,.08-.86,.16-1.28,.25-.35,.07-.6,.45-.54,.86,.15,.99,.37,1.96,.7,2.86,.13,.36,.54,.5,.87,.33Z"/><path class="cls-3" d="M3.25,18.36c.14-.08,.28-.17,.42-.25-.84-1.91-1.29-3.98-1.67-6.08-.16,.01-.33,.03-.49,.04-.73,.05-1.29,.82-1.18,1.69,.19,1.4,.51,2.77,1.06,4.01,.35,.76,1.26,.97,1.87,.59Z"/><path class="cls-3" d="M3.84,18.41c.13-.08,.26-.17,.4-.25,.07-.05,.11-.15,.08-.24-.74-2-1.15-4.04-1.66-6.13-.02-.09-.11-.15-.21-.15-.16,0-.32,.02-.48,.03-.09,0-.15,.09-.14,.18,.38,2.25,.85,4.48,1.8,6.49,.04,.08,.13,.11,.21,.07Z"/></g></g></svg>