<svg xmlns="http://www.w3.org/2000/svg" xmlns:xlink="http://www.w3.org/1999/xlink" width="20.795" height="20.797" viewBox="0 0 20.795 20.797">
  <defs>
    <linearGradient id="linear-gradient" x1="0.177" y1="0.177" x2="0.827" y2="0.827" gradientUnits="objectBoundingBox">
      <stop offset="0" stop-color="#f7bd4e"/>
      <stop offset="1" stop-color="#f26555"/>
    </linearGradient>
  </defs>
  <g id="Group_5" data-name="Group 5" transform="translate(-648.573 -246.745)">
    <g id="Group_4" data-name="Group 4">
      <g id="Group_2" data-name="Group 2" opacity="0.3">
        <g id="Group_1" data-name="Group 1">
          <path id="Path_1" data-name="Path 1" d="M669.368,257.144a10.4,10.4,0,1,0-10.4,10.4A10.4,10.4,0,0,0,669.368,257.144Z" fill="url(#linear-gradient)"/>
        </g>
      </g>
      <g id="Group_3" data-name="Group 3">
        <path id="Path_2" data-name="Path 2" d="M668.149,261.262a10.06,10.06,0,1,0-13.3,5.061A10.059,10.059,0,0,0,668.149,261.262Z" fill="#ff865f"/>
      </g>
    </g>
    <path id="Path_3" data-name="Path 3" d="M658.186,261.7a1.266,1.266,0,0,1-.866-.343l-4.034-3.776a1.27,1.27,0,0,1,1.736-1.853l3.028,2.833,4.743-5.977a1.269,1.269,0,0,1,1.988,1.578l-5.6,7.057a1.272,1.272,0,0,1-.9.478Z" fill="#fff"/>
  </g>
</svg>
