<svg id="Layer_1" data-name="Layer 1" xmlns="http://www.w3.org/2000/svg" viewBox="0 0 73.9 79.1"><defs><style>.cls-1{fill:#6ad6c4;}</style></defs><path class="cls-1" d="M37,46.35a9.71,9.71,0,1,0,9.71,9.71A9.71,9.71,0,0,0,37,46.35Zm0,18.27a8.56,8.56,0,1,1,8.56-8.56A8.57,8.57,0,0,1,37,64.62Zm0-18.27a9.71,9.71,0,1,0,9.71,9.71A9.71,9.71,0,0,0,37,46.35Zm0,18.27a8.56,8.56,0,1,1,8.56-8.56A8.57,8.57,0,0,1,37,64.62Zm16-12.2H50.54A14,14,0,0,0,49.13,49l1.7-1.69a1.73,1.73,0,0,0,0-2.42L48.1,42.18a1.71,1.71,0,0,0-2.42,0L44,43.87a14.18,14.18,0,0,0-3.39-1.4V40.08a1.72,1.72,0,0,0-1.71-1.72H35a1.72,1.72,0,0,0-1.71,1.72v2.39a14.18,14.18,0,0,0-3.39,1.4l-1.7-1.69a1.71,1.71,0,0,0-2.42,0l-2.73,2.73a1.73,1.73,0,0,0,0,2.42L24.77,49a14,14,0,0,0-1.41,3.4H21a1.72,1.72,0,0,0-1.72,1.71V58A1.72,1.72,0,0,0,21,59.7h2.39a13.81,13.81,0,0,0,1.41,3.39l-1.7,1.69a1.74,1.74,0,0,0,0,2.43l2.73,2.72a1.69,1.69,0,0,0,2.42,0l1.7-1.69a13.81,13.81,0,0,0,3.39,1.41V72A1.72,1.72,0,0,0,35,73.76h3.86A1.72,1.72,0,0,0,40.59,72V69.65A13.81,13.81,0,0,0,44,68.24l1.7,1.69a1.69,1.69,0,0,0,2.42,0l2.73-2.72a1.74,1.74,0,0,0,0-2.43l-1.7-1.69a13.81,13.81,0,0,0,1.41-3.39h2.39A1.72,1.72,0,0,0,54.65,58V54.13A1.72,1.72,0,0,0,52.93,52.42ZM53.5,58a.57.57,0,0,1-.57.56H50.09a.57.57,0,0,0-.56.45,12.71,12.71,0,0,1-1.61,3.88.57.57,0,0,0,.08.71l2,2a.57.57,0,0,1,0,.8l-2.72,2.72a.56.56,0,0,1-.8,0l-2-2a.57.57,0,0,0-.71-.08,12.71,12.71,0,0,1-3.88,1.61.58.58,0,0,0-.45.56V72a.56.56,0,0,1-.56.56H35a.56.56,0,0,1-.56-.56V69.2a.58.58,0,0,0-.45-.56A12.71,12.71,0,0,1,30.13,67a.55.55,0,0,0-.3-.09.58.58,0,0,0-.41.17l-2,2a.56.56,0,0,1-.8,0L23.89,66.4a.57.57,0,0,1,0-.8l2-2a.57.57,0,0,0,.08-.71A12.71,12.71,0,0,1,24.37,59a.57.57,0,0,0-.56-.45H21A.57.57,0,0,1,20.4,58V54.13a.57.57,0,0,1,.57-.56h2.84a.58.58,0,0,0,.56-.45A12.71,12.71,0,0,1,26,49.24a.57.57,0,0,0-.08-.71l-2-2a.57.57,0,0,1,0-.8L26.61,43a.56.56,0,0,1,.8,0l2,2a.59.59,0,0,0,.71.08A12.71,12.71,0,0,1,34,43.48a.58.58,0,0,0,.45-.56V40.08a.57.57,0,0,1,.56-.57h3.86a.57.57,0,0,1,.56.57v2.84a.58.58,0,0,0,.45.56,12.71,12.71,0,0,1,3.88,1.61.59.59,0,0,0,.71-.08l2-2a.56.56,0,0,1,.8,0L50,45.72a.57.57,0,0,1,0,.8l-2,2a.57.57,0,0,0-.08.71,12.71,12.71,0,0,1,1.61,3.88.58.58,0,0,0,.56.45h2.84a.57.57,0,0,1,.57.56ZM37,46.35a9.71,9.71,0,1,0,9.71,9.71A9.71,9.71,0,0,0,37,46.35Zm0,18.27a8.56,8.56,0,1,1,8.56-8.56A8.57,8.57,0,0,1,37,64.62Zm0-18.27a9.71,9.71,0,1,0,9.71,9.71A9.71,9.71,0,0,0,37,46.35Zm0,18.27a8.56,8.56,0,1,1,8.56-8.56A8.57,8.57,0,0,1,37,64.62Zm0-18.27a9.71,9.71,0,1,0,9.71,9.71A9.71,9.71,0,0,0,37,46.35Zm0,18.27a8.56,8.56,0,1,1,8.56-8.56A8.57,8.57,0,0,1,37,64.62Z"/><path class="cls-1" d="M41.81,16.7H32.09a.58.58,0,1,1,0-1.15h9.72a.58.58,0,1,1,0,1.15Z"/><path class="cls-1" d="M41.81,17.2H32.09a1.08,1.08,0,1,1,0-2.15h9.72a1.08,1.08,0,1,1,0,2.15Zm-9.72-1.15a.08.08,0,0,0-.08.07.09.09,0,0,0,.08.08h9.72a.08.08,0,0,0,.08-.08.08.08,0,0,0-.08-.07Z"/><path class="cls-1" d="M47.05,22.8H26.85a.58.58,0,1,1,0-1.15h20.2a.58.58,0,1,1,0,1.15Z"/><path class="cls-1" d="M47.05,23.3H26.85a1.08,1.08,0,1,1,0-2.15h20.2a1.08,1.08,0,0,1,0,2.15Zm-20.2-1.15a.08.08,0,0,0-.08.07.08.08,0,0,0,.08.08h20.2a.07.07,0,0,0,.07-.08.07.07,0,0,0-.07-.07Z"/><path class="cls-1" d="M47.05,28.23H34.39a.58.58,0,0,1,0-1.15H47.05a.58.58,0,1,1,0,1.15Z"/><path class="cls-1" d="M47.05,28.73H34.39a1.08,1.08,0,0,1,0-2.15H47.05a1.08,1.08,0,0,1,0,2.15ZM34.39,27.58a.07.07,0,0,0-.07.08.07.07,0,0,0,.07.07H47.05a.07.07,0,0,0,.07-.07.07.07,0,0,0-.07-.08Z"/><path class="cls-1" d="M31.36,28.23H26.85a.58.58,0,1,1,0-1.15h4.51a.58.58,0,0,1,0,1.15Z"/><path class="cls-1" d="M31.36,28.73H26.85a1.08,1.08,0,1,1,0-2.15h4.51a1.08,1.08,0,0,1,0,2.15Zm-4.51-1.15a.08.08,0,0,0-.08.08.08.08,0,0,0,.08.07h4.51a.07.07,0,0,0,.07-.07.07.07,0,0,0-.07-.08Z"/><path class="cls-1" d="M47.05,33.66H26.85a.57.57,0,0,1-.58-.57.58.58,0,0,1,.58-.58h20.2a.58.58,0,0,1,.58.58A.57.57,0,0,1,47.05,33.66Z"/><path class="cls-1" d="M47.05,34.16H26.85a1.08,1.08,0,1,1,0-2.15h20.2a1.08,1.08,0,0,1,0,2.15ZM26.85,33a.09.09,0,0,0-.08.08.08.08,0,0,0,.08.07h20.2a.07.07,0,0,0,.07-.07.08.08,0,0,0-.07-.08Z"/><path class="cls-1" d="M54.18,51.27a.58.58,0,0,1-.58-.58V9.9H20.3V50.69a.58.58,0,1,1-1.15,0V9.33a.58.58,0,0,1,.57-.58H54.18a.58.58,0,0,1,.57.58V50.69A.58.58,0,0,1,54.18,51.27Z"/><path class="cls-1" d="M54.18,51.77a1.08,1.08,0,0,1-1.08-1.08V10.4H20.8V50.69a1.08,1.08,0,1,1-2.15,0V9.33a1.07,1.07,0,0,1,1.07-1.08H54.18a1.07,1.07,0,0,1,1.07,1.08V50.69A1.08,1.08,0,0,1,54.18,51.77ZM19.8,9.4H54.1V50.69c0,.08.15.08.15,0V9.33a.08.08,0,0,0-.07-.08H19.72a.08.08,0,0,0-.07.08V50.69c0,.08.15.08.15,0Z"/><path class="cls-1" d="M51.39,9.69a.57.57,0,0,1-.58-.57V6.5H23.09V9.12a.57.57,0,0,1-.58.57.56.56,0,0,1-.57-.57V5.92a.57.57,0,0,1,.57-.58H51.39a.57.57,0,0,1,.57.58v3.2A.56.56,0,0,1,51.39,9.69Z"/><path class="cls-1" d="M51.39,10.19a1.08,1.08,0,0,1-1.08-1.07V7H23.59V9.12a1.08,1.08,0,0,1-2.15,0V5.92a1.08,1.08,0,0,1,1.07-1.08H51.39a1.08,1.08,0,0,1,1.07,1.08v3.2A1.07,1.07,0,0,1,51.39,10.19ZM22.59,6H51.31V9.12c0,.08.15.08.15,0V5.92a.08.08,0,0,0-.07-.08H22.51a.08.08,0,0,0-.07.08v3.2c0,.08.15.08.15,0Z"/><path class="cls-1" d="M36,58.93a.58.58,0,0,1-.4-.17l-2.43-2.43a.57.57,0,0,1,0-.82.58.58,0,0,1,.81,0l2,2,4.25-4.25a.57.57,0,0,1,.82,0,.58.58,0,0,1,0,.81L36.4,58.76A.58.58,0,0,1,36,58.93Z"/></svg>