<svg xmlns="http://www.w3.org/2000/svg" width="36" height="36" viewBox="0 0 36 36">
    <g fill="none" fill-rule="evenodd">
        <g fill="#30D9C4" fill-rule="nonzero">
            <path d="M235.079 116c-8.225.035-15.427-5.509-17.498-13.468-2.07-7.96 1.518-16.31 8.717-20.288 7.2-3.976 16.178-2.567 21.813 3.424 5.635 5.99 6.493 15.039 2.084 21.982-.286.45-.79.715-1.323.693-.534-.022-1.015-.326-1.263-.799-.247-.473-.224-1.042.061-1.493 4.076-6.478 2.596-14.988-3.427-19.71-6.023-4.722-14.64-4.128-19.958 1.377-5.317 5.504-5.614 14.137-.688 19.994 4.927 5.857 13.483 7.043 19.816 2.746.457-.302 1.04-.337 1.528-.092.49.244.811.73.844 1.277.033.546-.227 1.068-.684 1.37-2.97 1.97-6.459 3.01-10.022 2.987zm5.526-12.398c.58-.583.58-1.524 0-2.107l-4.033-4.033v-8.35c0-.825-.668-1.493-1.493-1.493-.825 0-1.494.668-1.494 1.493v9.575l4.914 4.915c.583.579 1.524.579 2.106 0z" transform="translate(-217 -80)"/>
        </g>
    </g>
</svg>
