<svg id="Layer_1" data-name="Layer 1" xmlns="http://www.w3.org/2000/svg" viewBox="0 0 25.27 17.29"><defs><style>.cls-1{fill:#dfe8ed;}</style></defs><path class="cls-1" d="M4.8,5.49c-.36,0-.72.06-1.09.06-.21,0-.43,0-.64,0a11.66,11.66,0,0,0,9.34,5.12,11.68,11.68,0,0,0,9.37-5.15c-.42,0-.84.07-1.27.07-.17,0-.34,0-.5,0a10,10,0,0,1-7.6,3.71A10,10,0,0,1,4.8,5.49Z"/><path class="cls-1" d="M11.72,12v2.1a.7.7,0,1,0,1.39,0V12a.7.7,0,0,0-1.39,0Z"/><path class="cls-1" d="M7.69,11.09,7,13a.71.71,0,0,0,.42.9.7.7,0,0,0,.89-.42L9,11.57a.7.7,0,0,0-.42-.9.67.67,0,0,0-.24,0A.71.71,0,0,0,7.69,11.09Z"/><path class="cls-1" d="M4.2,8.86,2.9,10.4A.7.7,0,1,0,4,11.3l1.3-1.54a.7.7,0,0,0-.09-1,.7.7,0,0,0-1,.09Z"/><path class="cls-1" d="M16.24,10.67a.7.7,0,0,0-.42.9l.72,1.95a.7.7,0,0,0,.89.42.71.71,0,0,0,.42-.9l-.72-1.95a.68.68,0,0,0-.65-.46A.67.67,0,0,0,16.24,10.67Z"/><path class="cls-1" d="M19.65,8.77a.7.7,0,0,0-.09,1l1.3,1.54a.7.7,0,1,0,1.07-.9l-1.3-1.54a.7.7,0,0,0-1-.09Z"/></svg>