<svg xmlns="http://www.w3.org/2000/svg" width="66" height="66" viewBox="0 0 66 66">
    <defs>
        <filter id="etg64pojva">
            <feColorMatrix in="SourceGraphic" values="0 0 0 0 0.188235 0 0 0 0 0.850980 0 0 0 0 0.768627 0 0 0 1.000000 0"/>
        </filter>
    </defs>
    <g fill="none" fill-rule="evenodd">
        <g>
            <g>
                <g filter="url(#etg64pojva)" transform="translate(-114 -550) translate(104 534) translate(10 16)">
                    <path stroke="#FFF" stroke-width="2.175" d="M29.608 31.381c.263 0 .501.107.673.279.172.172.279.41.279.673h0v13.51c0 .263-.107.501-.279.673-.172.173-.41.28-.673.28h0-9.452c-.262 0-.5-.107-.672-.28-.173-.172-.28-.41-.28-.672h0V32.333c0-.263.107-.5.28-.673.172-.172.41-.279.672-.279h0zM45.693 39.5c.263 0 .5.107.673.279.172.172.279.41.279.672h0v5.394c0 .262-.107.5-.279.672-.172.173-.41.28-.673.28h0-9.452c-.262 0-.5-.107-.672-.28-.173-.172-.28-.41-.28-.672h0V40.45c0-.262.107-.5.28-.672.172-.172.41-.279.672-.279h0zm0-20.294c.263 0 .5.106.673.279.172.172.279.41.279.672h0v13.511c0 .263-.107.5-.279.673-.172.172-.41.279-.673.279h0-9.452c-.262 0-.5-.107-.672-.279-.173-.172-.28-.41-.28-.673h0v-13.51c0-.263.107-.501.28-.673.172-.173.41-.28.672-.28h0zm-16.085 0c.263 0 .501.106.673.279.172.172.279.41.279.672h0v5.394c0 .262-.107.5-.279.672-.172.172-.41.279-.673.279h0-9.452c-.262 0-.5-.107-.672-.279-.173-.172-.28-.41-.28-.672h0v-5.394c0-.262.107-.5.28-.672.172-.173.41-.28.672-.28h0z"/>
                </g>
            </g>
        </g>
    </g>
</svg>
