<svg xmlns="http://www.w3.org/2000/svg" width="129" height="134" viewBox="0 0 129 134">
    <g fill="none" fill-rule="evenodd" opacity=".19">
        <g fill="#B9CBD7" fill-rule="nonzero">
            <path d="M287.066 214.11c1.613-.307 3.248.035 4.604.959l38.618 26.317c2.799 1.908 3.524 5.737 1.617 8.537l-5.692 8.35h1.488c3.544 0 6.427 2.884 6.427 6.428v2.443c2.16 1.529 3.573 4.044 3.573 6.885v17.943h1.992c2.352 0 4.265 1.913 4.265 4.265v20.245c0 2.35-1.913 4.264-4.265 4.264h-1.992v17.943c0 4.649-3.782 8.431-8.43 8.431H223.433c-4.649 0-8.43-3.782-8.43-8.43v-64.661c0-3.396 2.018-6.327 4.917-7.661V264.7c0-3.544 2.883-6.427 6.427-6.427h4.858l2.853-28.878c.333-3.372 3.347-5.843 6.718-5.51l29.4 2.904c1.042.103 1.803 1.031 1.7 2.074-.103 1.043-1.031 1.802-2.074 1.701l-29.399-2.904c-1.291-.13-2.442.818-2.57 2.108l-3.539 35.829h2.42l2.274-23.027c.168-1.706 1.264-3.139 2.86-3.74 2.12-.8 3.956-2.292 5.172-4.203.905-1.422 2.515-2.2 4.204-2.035l14.548 1.438c1.043.103 1.804 1.031 1.701 2.074-.102 1.042-1.03 1.802-2.074 1.7l-14.548-1.436c-.254-.026-.5.09-.63.295-1.654 2.6-4.152 4.63-7.035 5.717-.232.087-.398.308-.423.563l-2.238 22.654h9.276l33.332-48.912c.924-1.356 2.321-2.271 3.933-2.577zm46.842 68.976H218.796v46.546h10.229c1.047 0 1.896.85 1.896 1.897 0 1.048-.849 1.897-1.896 1.897h-10.23v5.263c0 2.557 2.081 4.637 4.638 4.637h105.838c2.557 0 4.637-2.08 4.637-4.637v-5.263H241.17c-1.047 0-1.896-.85-1.896-1.897 0-1.047.849-1.897 1.896-1.897h92.738v-8.886h-18.036c-7.933 0-14.386-6.454-14.386-14.387 0-1.486.226-2.919.646-4.268l.002-.005c.196-.632.438-1.243.716-1.834l.057-.125.024-.047c2.336-4.795 7.259-8.108 12.941-8.108h18.036v-8.886zm5.785 12.68h-23.82c-4.016 0-7.517 2.246-9.313 5.548-.082.15-.16.302-.234.457-.149.308-.283.625-.402.95-.417 1.135-.644 2.36-.644 3.638s.227 2.503.644 3.638c.118.325.253.642.402.95.074.155.152.307.234.457 1.796 3.302 5.297 5.548 9.313 5.548h23.82c.26 0 .471-.211.471-.47v-20.245c0-.26-.211-.47-.47-.47zm-23.376 2.897c4.244 0 7.696 3.453 7.696 7.696s-3.452 7.696-7.696 7.696-7.696-3.453-7.696-7.696 3.452-7.696 7.696-7.696zm0 3.794c-2.152 0-3.902 1.75-3.902 3.902s1.75 3.902 3.902 3.902 3.902-1.75 3.902-3.902-1.75-3.902-3.902-3.902zm12.954-33.066H223.433c-2.557 0-4.637 2.08-4.637 4.638v5.263h115.112v-5.263c0-2.557-2.08-4.638-4.637-4.638zm-1.57-7.323h-4.073l-2.406 3.53h8.049c.36 0 .715.026 1.063.07v-.967c0-1.452-1.18-2.633-2.633-2.633zm-39.486-44.273c-.147 0-.295.014-.443.042-.616.117-1.15.467-1.504.985l-31.876 46.776h2.913l23.841-34.986c.951-1.395 2.639-2.146 4.303-1.913 2.244.314 4.571-.115 6.554-1.21 1.475-.815 3.262-.727 4.665.229l20.019 13.642c1.402.956 2.137 2.587 1.919 4.258-.294 2.246.157 4.57 1.27 6.543.838 1.485.759 3.288-.206 4.704l-5.951 8.733h2.913l12.138-17.812c.73-1.07.452-2.536-.619-3.265l-38.618-26.318c-.395-.268-.851-.408-1.318-.408zm6.316 13.058c-.21-.143-.483-.16-.695-.043-2.697 1.49-5.862 2.073-8.914 1.646-.029-.004-.058-.006-.087-.006-.216 0-.427.112-.554.299l-22.386 32.849h9.614c.553-8.123 7.334-14.564 15.594-14.564 8.261 0 15.042 6.44 15.595 14.564h6.43l7.407-10.87c.144-.211.16-.488.038-.703-1.514-2.684-2.128-5.844-1.729-8.899.031-.24-.084-.487-.293-.63zm-7.428 23.975c-6.168 0-11.247 4.74-11.79 10.77h23.58c-.542-6.03-5.622-10.77-11.79-10.77zm-56.272 7.24h-4.484c-1.452 0-2.633 1.18-2.633 2.633v.897h6.768l.349-3.53z" transform="translate(-215 -214)"/>
        </g>
    </g>
</svg>
