<svg xmlns="http://www.w3.org/2000/svg" width="24" height="24" viewBox="0 0 24 24">
    <g fill="none" fill-rule="evenodd">
        <g fill="#E02020">
            <g>
                <g>
                    <path d="M36 46c-6.627 0-12-5.373-12-12s5.373-12 12-12 12 5.373 12 12-5.373 12-12 12zm4.243-6.258c-.4 0-.78-.158-1.065-.44L36 36.122l-3.18 3.18c-.585.585-1.538.585-2.123 0-.585-.585-.585-1.534 0-2.12L33.876 34l-3.18-3.18c-.381-.381-.528-.933-.39-1.45.14-.518.544-.923 1.062-1.061.517-.14 1.07.009 1.449.39L36 31.877l3.18-3.18c.381-.38.933-.529 1.45-.39.518.138.923.543 1.062 1.061.138.517-.009 1.07-.39 1.449L38.124 34l3.18 3.18c.285.285.441.664.441 1.065 0 .396-.159.777-.441 1.059-.282.28-.663.438-1.06.438h-.004.003z" transform="translate(-239 -759) translate(172 511) translate(43 226)"/>
                </g>
            </g>
        </g>
    </g>
</svg>
