<svg xmlns="http://www.w3.org/2000/svg" width="43" height="44" viewBox="0 0 43 44">
    <g fill="none" fill-rule="evenodd">
        <g fill="#2D5A76" fill-rule="nonzero">
            <g>
                <g>
                    <g>
                        <g>
                            <path d="M42.24 0v31.68L31.68 42.24H7.04v-17.6H0V8.8h7.04V0h35.2zm-1.76 1.76H8.8V8.8h21.12v15.84H8.8v15.84h21.12V29.92h10.56V1.76zm-.729 29.92H31.68v8.071l8.071-8.071zM28.16 10.56H1.76v12.32h26.4V10.56zM7.776 12.822c.544 0 .97.088 1.283.264.313.176.547.4.7.67.153.271.254.563.29.877.04.313.059.607.059.881h-1.52c0-.554-.064-.954-.193-1.202-.13-.251-.368-.376-.713-.376-.19 0-.346.05-.47.155-.123.102-.22.265-.29.494-.07.229-.12.528-.148.9-.03.37-.042.821-.042 1.356 0 .57.02 1.032.058 1.384.037.352.099.623.18.818.08.196.183.326.306.39.123.068.266.103.428.103.133 0 .258-.023.374-.069.117-.045.217-.137.301-.274.087-.137.153-.331.201-.581.05-.25.074-.579.074-.987h1.519c0 .406-.032.795-.095 1.161-.064.366-.183.687-.354.961-.174.273-.415.488-.729.643-.313.154-.72.234-1.22.234-.568 0-1.024-.094-1.36-.275-.338-.183-.596-.447-.776-.792-.18-.345-.296-.757-.348-1.235-.051-.477-.08-1.007-.08-1.583 0-.57.029-1.096.08-1.578.052-.48.17-.896.348-1.241.181-.343.438-.614.776-.808.336-.192.792-.29 1.36-.29zm6.46-.006c.339 0 .65.037.935.111.285.074.532.192.74.36.207.165.369.376.485.631.115.257.174.565.174.924v.211h-1.457c0-.359-.063-.635-.188-.83-.127-.192-.338-.29-.634-.29-.169 0-.31.026-.422.073-.111.05-.203.114-.27.195-.066.081-.112.178-.137.284-.026.105-.037.215-.037.327 0 .234.05.428.148.586.099.16.31.306.634.438l1.172.507c.289.127.524.26.706.398.183.137.33.285.438.444.109.158.185.33.227.522.042.189.063.402.063.632 0 .796-.23 1.375-.691 1.737-.462.363-1.104.546-1.928.546-.858 0-1.473-.187-1.844-.56-.37-.373-.553-.908-.553-1.605v-.306h1.52v.22c0 .176.017.336.043.479.03.144.081.265.159.364.077.1.183.178.313.234.128.055.294.084.49.084.233 0 .44-.075.627-.227.185-.15.28-.387.28-.702 0-.169-.024-.315-.068-.438-.046-.123-.122-.234-.227-.33-.108-.101-.247-.19-.418-.27-.17-.081-.385-.164-.638-.248-.337-.113-.629-.238-.877-.372-.246-.132-.452-.288-.618-.47-.165-.18-.287-.387-.364-.623-.077-.237-.116-.508-.116-.82 0-.746.208-1.3.623-1.667.414-.366.986-.549 1.71-.549zm5.53.148l1.062 5.576h.033l1.12-5.576h1.575l-1.732 7.54H19.87l-1.73-7.54h1.627z" transform="translate(-661 -634) translate(523 354) translate(50.3 149.9) translate(0 107.8) translate(88 23.1)"/>
                        </g>
                    </g>
                </g>
            </g>
        </g>
    </g>
</svg>
