<svg xmlns="http://www.w3.org/2000/svg" width="23" height="23" viewBox="0 0 23 23">
    <g fill="none" fill-rule="evenodd">
        <g stroke="#FFF" stroke-width="1.673">
            <g>
                <g>
                    <path d="M35.316 30.518c.202 0 .385.082.517.215.133.132.214.315.214.517h0v4.182c0 .202-.081.385-.214.517-.132.133-.315.215-.517.215h0-7.319c-.202 0-.385-.082-.517-.215-.132-.132-.214-.315-.214-.517h0V31.25c0-.202.082-.385.214-.517.132-.133.315-.215.517-.215h0zm-12.43-6.273c.202 0 .385.082.518.215.132.132.214.315.214.517h0v10.455c0 .202-.082.385-.214.517-.133.133-.316.215-.518.215h0-7.318c-.202 0-.385-.082-.517-.215-.133-.132-.215-.315-.215-.517h0V24.977c0-.202.082-.385.215-.517.132-.133.315-.215.517-.215h0zm12.43-9.409c.202 0 .385.082.517.215.133.132.214.315.214.517h0v10.455c0 .202-.081.385-.214.517-.132.133-.315.215-.517.215h0-7.319c-.202 0-.385-.082-.517-.215-.132-.132-.214-.315-.214-.517h0V15.568c0-.202.082-.385.214-.517.132-.133.315-.215.517-.215h0zm-12.43 0c.202 0 .385.082.518.215.132.132.214.315.214.517h0v4.182c0 .202-.082.385-.214.517-.133.133-.316.215-.518.215h0-7.318c-.202 0-.385-.082-.517-.215-.133-.132-.215-.315-.215-.517h0v-4.182c0-.202.082-.385.215-.517.132-.133.315-.215.517-.215h0z" transform="translate(-51 -352) translate(0 52) translate(37 286)"/>
                </g>
            </g>
        </g>
    </g>
</svg>
