<svg xmlns="http://www.w3.org/2000/svg" width="115" height="101" viewBox="0 0 115 101">
    <g fill="none" fill-opacity=".181" fill-rule="evenodd">
        <g fill="#FFF" fill-rule="nonzero">
            <g>
                <g>
                    <path d="M49 35H25v12h60V35H49zm6-54C21.88-19-5 7.88-5 41c0 33.12 26.88 60 60 60 33.12 0 60-26.88 60-60 0-33.12-26.88-60-60-60zm0 108C28.54 89 7 67.46 7 41S28.54-7 55-7s48 21.54 48 48-21.54 48-48 48z" transform="translate(-868 -411) translate(172 401) translate(696 10)"/>
                </g>
            </g>
        </g>
    </g>
</svg>
