<svg xmlns="http://www.w3.org/2000/svg" width="12" height="15" viewBox="0 0 12 15">
    <g fill="none" fill-rule="evenodd">
        <g fill="#E02020" fill-rule="nonzero">
            <g>
                <g>
                    <path d="M14.799 7.04c.542 0 1.03.31 1.272.81l.176.363h1.53c.785 0 1.423.659 1.423 1.467v.587c0 .162-.127.293-.284.293l-.285-.001v8.508c0 1.132-.893 2.053-1.991 2.053h-5.12c-1.098 0-1.991-.921-1.991-2.053l-.001-8.508-.284.001c-.157 0-.284-.131-.284-.293V9.68c0-.808.638-1.467 1.422-1.467h1.531l.176-.362c.243-.5.73-.811 1.272-.811h1.438zm3.263 3.52h-7.964v8.507c0 .808.638 1.466 1.422 1.466h5.12c.784 0 1.422-.658 1.422-1.466V10.56zm-6.542 1.173c.157 0 .284.132.284.294v7.04c0 .162-.127.293-.284.293-.157 0-.284-.131-.284-.293v-7.04c0-.162.127-.294.284-.294zm1.707 0c.157 0 .284.132.284.294v7.04c0 .162-.127.293-.284.293-.157 0-.285-.131-.285-.293v-7.04c0-.162.128-.294.285-.294zm1.706 0c.157 0 .285.132.285.294v7.04c0 .162-.128.293-.285.293-.157 0-.284-.131-.284-.293v-7.04c0-.162.127-.294.284-.294zm1.707 0c.157 0 .284.132.284.294v7.04c0 .162-.127.293-.284.293-.157 0-.284-.131-.284-.293v-7.04c0-.162.127-.294.284-.294zM14.8 7.627H13.36c-.325 0-.618.186-.763.486l-.255.525c-.048.1-.147.162-.254.162h-1.707c-.47 0-.853.395-.853.88v.293h9.102V9.68c0-.485-.383-.88-.853-.88H16.07c-.107 0-.206-.063-.254-.162l-.254-.525c-.146-.3-.439-.486-.764-.486z" transform="translate(-1466 -221) translate(1159 184) translate(299 30)"/>
                </g>
            </g>
        </g>
    </g>
</svg>
