<svg xmlns="http://www.w3.org/2000/svg" width="360" height="342" viewBox="0 0 360 342">
    <path data-name="Fill 3" d="M171.159 342a180.1 180.1 0 0 1-35.194-4.259 175.787 175.787 0 0 1-87.417-48.6 173.21 173.21 0 0 1-20.792-25.779 169.791 169.791 0 0 1-15.473-29.389A166.779 166.779 0 0 1 .044 167.2a169.965 169.965 0 0 1 4.1-33.447A168.374 168.374 0 0 1 30.31 74.5 172.331 172.331 0 0 1 51.1 49.947a174.532 174.532 0 0 1 53.825-35.873A176.867 176.867 0 0 1 136.689 4a180.577 180.577 0 0 1 34.146-4h.367a167.888 167.888 0 0 1 26.02 2.059 174.628 174.628 0 0 1 25.664 6.066 171.475 171.475 0 0 1 24.483 9.908 160.04 160.04 0 0 1 22.477 13.585 15.645 15.645 0 0 1 4.625 4.47 16.7 16.7 0 0 1 2.511 5.848 17.091 17.091 0 0 1-2.361 13.018 17.635 17.635 0 0 1-11.005 7.488 19.316 19.316 0 0 1-3.822.39 17.477 17.477 0 0 1-9.45-2.727A136.587 136.587 0 0 0 170.5 34.616c-36.6 0-72.358 14.474-98.11 39.712A134.388 134.388 0 0 0 31.523 171c.04 75.309 62.645 136.609 139.555 136.649 75.712-1.03 136.682-62.312 135.914-136.609a17.052 17.052 0 0 1 5.989-12.48 17.3 17.3 0 0 1 11.5-4.243c.425 0 .858.014 1.289.042a17.425 17.425 0 0 1 16.186 15.848l.04.674c.927 93.128-75.709 169.891-170.837 171.119zm8.408-110a17.505 17.505 0 0 1-11.989-5.115L95.033 154.4A16.643 16.643 0 0 1 90 142.412a16.846 16.846 0 0 1 5.114-12.124 17.543 17.543 0 0 1 12.354-5h.04a17.372 17.372 0 0 1 12.314 5.036l60.07 59.877L330.045 40.155A19.436 19.436 0 0 1 342.886 35a17.7 17.7 0 0 1 11.139 4.323l1.134 1.07a17.214 17.214 0 0 1 4.831 12.5 16.483 16.483 0 0 1-5.4 11.647l-162.184 162.3a16.561 16.561 0 0 1-12.149 5.16c-.083 0-.18-.009-.274-.018s-.18-.017-.254-.017a.24.24 0 0 0-.161.035z" transform="translate(-.001)" style="fill:#fff;opacity:.273;mix-blend-mode:overlay;isolation:isolate"/>
</svg>
