<?xml version="1.0" encoding="utf-8"?>
<!-- Generator: Adobe Illustrator 27.0.0, SVG Export Plug-In . SVG Version: 6.00 Build 0)  -->
<svg version="1.1" id="Layer_1" xmlns="http://www.w3.org/2000/svg" xmlns:xlink="http://www.w3.org/1999/xlink" x="0px" y="0px"
	 viewBox="0 0 156.5 216.4" style="enable-background:new 0 0 156.5 216.4;" xml:space="preserve">
<style type="text/css">
	.st0{fill:#FF865F;}
	.st1{fill:#FFFFFF;}
</style>
<g id="Red_point">
	<g>
		<path class="st0" d="M140.3,125.8c10.1-13.2,16.2-29.6,16.2-47.6C156.5,35,121.5,0,78.3,0S0,35,0,78.2c0,17.9,6.1,34.3,16.2,47.5
			l62.1,90.7L140.3,125.8L140.3,125.8z"/>
		
			<ellipse transform="matrix(3.839736e-03 -1 1 3.839736e-03 -0.2809 156.1799)" class="st1" cx="78.2" cy="78.2" rx="60.3" ry="60.4"/>
	</g>
</g>
<g>
	<path class="st0" d="M107.1,92.8H61.6l4.3-8h33.5l13.4-31h-55l-3.4-6.4c-0.4-0.7-1.1-1.1-1.9-1.1L40,46.2c0,0,0,0,0,0
		c-1.2,0-2.2,1-2.2,2.1c0,1.2,1,2.2,2.1,2.2l11.1,0.1l3.1,5.8l1.3,3.1l8.3,20.2L56,94c-0.4,0.7-0.3,1.5,0.1,2.1c0.4,0.7,1.1,1,1.9,1
		h49.1c1.2,0,2.2-1,2.2-2.2C109.2,93.8,108.3,92.8,107.1,92.8z"/>
	<circle class="st0" cx="70.5" cy="106.4" r="6.2"/>
	
		<ellipse transform="matrix(0.5257 -0.8507 0.8507 0.5257 -44.2468 133.4643)" class="st0" cx="97.6" cy="106.4" rx="6.2" ry="6.2"/>
</g>
</svg>
