<?xml version="1.0" encoding="UTF-8"?>
<svg width="52px" height="36px" viewBox="0 0 52 36" version="1.1" xmlns="http://www.w3.org/2000/svg" xmlns:xlink="http://www.w3.org/1999/xlink">
    <title>983B9E12-F3CD-4C93-B45E-C93352A2D333</title>
    <g id="Page-1" stroke="none" stroke-width="1" fill="none" fill-rule="evenodd">
        <g id="Dashboard_Order_Status" transform="translate(-917.000000, -392.000000)" fill="#2D5A76" fill-rule="nonzero">
            <g id="Group-11" transform="translate(878.000000, 355.000000)">
                <g id="Group-7" transform="translate(39.000000, 35.000000)">
                    <path d="M33.075698,2 C33.966798,2 34.6890979,2.71618159 34.6890979,3.59995483 L34.6890979,3.59995483 L34.689,5.2 L41.5730975,5.20000882 C42.1321725,5.20000882 42.647385,5.48640557 42.9406521,5.95027608 L43.0149974,6.08110456 L47.8552971,15.6276802 L47.852,15.629 L50.861197,19.4719748 C51.0492541,19.7124398 51.1638418,20.000699 51.1927433,20.3018436 L51.1999969,20.453328 L51.1999969,30.8531336 C51.1999969,31.7368077 50.477697,32.4530884 49.586497,32.4530884 L49.586497,32.4530884 L44.9042396,32.4540525 C44.167324,35.1839606 41.6515267,37.1999979 38.6688977,37.1999979 C35.6867715,37.1999979 33.1706343,35.1839606 32.4335954,32.4540525 L22.8538013,32.4540525 C22.1167624,35.1839606 19.6006252,37.1999979 16.618499,37.1999979 C13.6363728,37.1999979 11.1202356,35.1839606 10.3831967,32.4540525 L6.18489963,32.4532867 C5.29379968,32.4532867 4.57149973,31.7371052 4.57149973,30.8533319 C4.57149973,29.9696578 5.29369968,29.2533771 6.18489963,29.2533771 L6.18489963,29.2533771 L10.3552024,29.2533494 C11.0545198,26.4690628 13.5973824,24.3999626 16.618499,24.3999626 C19.6396156,24.3999626 22.1824782,26.4690628 22.8817957,29.2533494 L32.405601,29.2533494 C33.1049185,26.4690628 35.6477811,24.3999626 38.6688977,24.3999626 C41.6900143,24.3999626 44.2328769,26.4690628 44.9321943,29.2533494 L47.9730971,29.2531788 L47.9730971,21.0014221 L45.6233973,17.9998458 L33.075598,17.9998458 C32.1844981,17.9998458 31.4621981,17.2836642 31.4621981,16.399891 L31.4621981,16.399891 L31.4621981,5.19990966 L6.18489963,5.19990966 C5.29379968,5.19990966 4.57149973,4.4836289 4.57149973,3.59995483 C4.57149973,2.71628076 5.29369968,2 6.18489963,2 L6.18489963,2 Z M38.6688977,27.5999714 C36.8892978,27.5999714 35.4419979,29.0352104 35.4419979,30.7999803 C35.4419979,32.5647501 36.8892978,33.9999891 38.6688977,33.9999891 C40.4484976,33.9999891 41.8957975,32.5648492 41.8957975,30.7999803 C41.8957975,29.0352104 40.4484976,27.5999714 38.6688977,27.5999714 Z M16.618499,27.5999714 C14.8388991,27.5999714 13.3915992,29.0352104 13.3915992,30.7999803 C13.3915992,32.5647501 14.8388991,33.9999891 16.618499,33.9999891 C18.3980989,33.9999891 19.8453988,32.5648492 19.8453988,30.7999803 C19.8453988,29.0352104 18.3975989,27.5999714 16.618499,27.5999714 Z M11.6705993,21.1467013 C12.5616993,21.1467013 13.2838992,21.862982 13.2838992,22.7466561 C13.2838992,23.6303302 12.5616993,24.3466109 11.6704993,24.3466109 L11.6704993,24.3466109 L4.24869975,24.3466109 C3.3575998,24.3466109 2.63529984,23.6304294 2.63529984,22.7466561 C2.63529984,21.862982 3.3574998,21.1467013 4.24869975,21.1467013 L4.24869975,21.1467013 Z M15.3814991,14.8532878 C16.272699,14.8532878 16.994899,15.5696677 16.994899,16.4533418 C16.994899,17.3370159 16.272699,18.0532966 15.3814991,18.0532966 L15.3814991,18.0532966 L1.6133999,18.0532966 C0.722299957,18.0532966 -1.77635684e-15,17.337115 -1.77635684e-15,16.4533418 C-1.77635684e-15,15.5695685 0.722299957,14.8532878 1.6133999,14.8532878 L1.6133999,14.8532878 Z M40.5780976,8.40001765 L34.689,8.4 L34.6890979,14.7999361 L43.822,14.799 L40.5780976,8.40001765 Z M18.0167989,8.55997347 C18.9079989,8.55997347 19.6301988,9.27625422 19.6301988,10.1599283 C19.6301988,11.0436024 18.9079989,11.7598831 18.0167989,11.7598831 L18.0167989,11.7598831 L4.24869975,11.7598831 C3.3575998,11.7598831 2.63529984,11.0437015 2.63529984,10.1599283 C2.63529984,9.27625422 3.3574998,8.55997347 4.24869975,8.55997347 L4.24869975,8.55997347 Z" id="Combined-Shape-Copy"></path>
                </g>
            </g>
        </g>
    </g>
</svg>