<svg xmlns="http://www.w3.org/2000/svg" width="73" height="73" viewBox="0 0 73 73">
    <path d="M40.11 70.4a3.233 3.233 0 0 1 2.523-3.805l1.136-1.681a9.935 9.935 0 0 1 3.847-3.932 10.039 10.039 0 0 1 5.55-.381 17.813 17.813 0 0 0 1.86 0 15.824 15.824 0 0 0 .315-1.871 10.063 10.063 0 0 1 1.766-5.264 9.918 9.918 0 0 1 4.762-2.727 15.575 15.575 0 0 0 1.766-.7 16.259 16.259 0 0 0-.536-1.776 10.163 10.163 0 0 1-.725-5.549 9.888 9.888 0 0 1 3.153-4.567 9.508 9.508 0 0 0 1.451-1.681 13.093 13.093 0 0 0-1.7-2 11.812 11.812 0 0 1-3.154-4.694 12.215 12.215 0 0 1 .253-5.709 9.339 9.339 0 0 0 .347-2.663 11.437 11.437 0 0 0-2.46-.984 11.867 11.867 0 0 1-4.982-2.6 12.017 12.017 0 0 1-2.586-5.042 9.173 9.173 0 0 0-1.04-2.537 12.131 12.131 0 0 0-2.586.381 11.986 11.986 0 0 1-5.676.254A11.728 11.728 0 0 1 38.727 7.7a8.694 8.694 0 0 0-2.176-1.364 9.459 9.459 0 0 0-2.175 1.68 11.737 11.737 0 0 1-4.676 3.178 11.952 11.952 0 0 1-5.676-.254 8.789 8.789 0 0 0-2.649-.348 11.763 11.763 0 0 0-.977 2.473 11.976 11.976 0 0 1-2.586 5.042 11.88 11.88 0 0 1-5.014 2.6 9.02 9.02 0 0 0-2.523 1.047 11.87 11.87 0 0 0 .379 2.6 12.222 12.222 0 0 1 .252 5.708 11.812 11.812 0 0 1-3.154 4.694 8.877 8.877 0 0 0-1.671 2.251L7.5 38.466a9.9 9.9 0 0 1 3.154 4.567 10.17 10.17 0 0 1-.725 5.549 15.872 15.872 0 0 0-.529 1.776 15.575 15.575 0 0 0 1.766.7 9.924 9.924 0 0 1 4.793 2.791 10.061 10.061 0 0 1 1.766 5.3 15.825 15.825 0 0 0 .315 1.871h1.86a9.948 9.948 0 0 1 5.55.381 9.9 9.9 0 0 1 3.85 3.925 9.5 9.5 0 0 0 1.35 1.744 2.958 2.958 0 0 1-.725 5.867h-.662a8.593 8.593 0 0 1-5.109-4.377 9.671 9.671 0 0 0-1.292-1.966 15.205 15.205 0 0 0-2.081.19 8.444 8.444 0 0 1-6.559-1.014 8.586 8.586 0 0 1-2.649-6.152 9.6 9.6 0 0 0-.41-2.156 14.606 14.606 0 0 0-1.924-.762 8.548 8.548 0 0 1-5.487-3.837 8.577 8.577 0 0 1 .316-6.66 9.545 9.545 0 0 0 .567-2.156 15.266 15.266 0 0 0-1.481-1.331A8.672 8.672 0 0 1 0 36.786a9.912 9.912 0 0 1 3.154-6.342 9.532 9.532 0 0 0 1.576-2.062 9.164 9.164 0 0 0-.19-3.012 9.787 9.787 0 0 1 .347-6.977 9.742 9.742 0 0 1 6.023-3.9 9.441 9.441 0 0 0 2.49-1.047 9.293 9.293 0 0 0 1.04-2.506 9.836 9.836 0 0 1 3.85-6.025 9.634 9.634 0 0 1 6.937-.348 8.945 8.945 0 0 0 2.743.348 9.309 9.309 0 0 0 2.176-1.743A9.819 9.819 0 0 1 36.453 0a9.819 9.819 0 0 1 6.306 3.172 9.291 9.291 0 0 0 2.05 1.585 8.727 8.727 0 0 0 2.743-.348 9.628 9.628 0 0 1 7.063.348 9.8 9.8 0 0 1 3.879 6.057 9.537 9.537 0 0 0 1.04 2.506 9.172 9.172 0 0 0 2.491 1.046 9.778 9.778 0 0 1 6.244 4.028 9.821 9.821 0 0 1 .347 6.977 9.276 9.276 0 0 0-.346 2.729 9.5 9.5 0 0 0 1.576 2.062A9.912 9.912 0 0 1 73 36.5a8.672 8.672 0 0 1-3.154 5.93 9.459 9.459 0 0 0-1.387 1.585 14.458 14.458 0 0 0 .6 2.03 8.573 8.573 0 0 1 .316 6.66 8.548 8.548 0 0 1-5.487 3.837 9.649 9.649 0 0 0-1.986.824 15.077 15.077 0 0 0-.346 2.062 8.583 8.583 0 0 1-2.65 6.151 8.439 8.439 0 0 1-6.558 1.015 8.717 8.717 0 0 0-2.176 0 14.156 14.156 0 0 0-1.2 1.649 8.6 8.6 0 0 1-5.077 4.694A3.208 3.208 0 0 1 40.11 70.4zM28.968 46.717a3.177 3.177 0 0 1-1.313-5.492l13.338-13.414a3.177 3.177 0 0 1 4.51 0 3.221 3.221 0 0 1 0 4.535l-13.37 13.445-.033-.091a3.143 3.143 0 0 1-3.133 1.021zm10.764-3.589a3.153 3.153 0 1 1 3.154 3.172 3.163 3.163 0 0 1-3.154-3.172zM27.119 30.443a3.153 3.153 0 1 1 3.154 3.171 3.163 3.163 0 0 1-3.154-3.171z" style="fill:#fff"/>
</svg>
