<svg xmlns="http://www.w3.org/2000/svg" width="24" height="24" viewBox="0 0 24 24">
    <g fill="none" fill-rule="evenodd">
        <g fill="#30D9C4" fill-rule="nonzero">
            <g>
                <g>
                    <path d="M44.485 25.515C42.22 23.248 39.205 22 36 22c-3.205 0-6.219 1.248-8.485 3.515C25.248 27.78 24 30.795 24 34c0 3.205 1.248 6.219 3.515 8.485C29.78 44.752 32.795 46 36 46c3.205 0 6.219-1.248 8.485-3.515C46.752 40.22 48 37.205 48 34c0-3.205-1.248-6.219-3.515-8.485zM36 33.25c1.861 0 3.375 1.514 3.375 3.375 0 1.541-1.039 2.843-2.452 3.246-.102.029-.173.12-.173.226v.632c0 .404-.31.751-.714.77-.43.02-.786-.323-.786-.749v-.653c0-.106-.07-.197-.172-.226-1.408-.4-2.444-1.693-2.453-3.225-.002-.409.32-.759.728-.77.424-.013.772.327.772.749 0 1.078.915 1.947 2.009 1.87.924-.064 1.672-.812 1.736-1.736.077-1.094-.792-2.009-1.87-2.009-1.861 0-3.375-1.514-3.375-3.375 0-1.541 1.039-2.843 2.452-3.246.102-.029.173-.12.173-.226v-.632c0-.404.31-.751.714-.77.43-.02.786.323.786.749v.653c0 .106.07.197.172.226 1.408.4 2.444 1.693 2.453 3.225.002.409-.32.759-.728.77-.424.013-.772-.327-.772-.749 0-1.078-.915-1.947-2.009-1.87-.924.064-1.672.812-1.736 1.736-.077 1.094.792 2.009 1.87 2.009z" transform="translate(-239 -680) translate(172 511) translate(43 147)"/>
                </g>
            </g>
        </g>
    </g>
</svg>
