<svg id="Layer_1" data-name="Layer 1" xmlns="http://www.w3.org/2000/svg" viewBox="0 0 14 15"><defs><style>.cls-1{fill:#6ad6c4;}</style></defs><path class="cls-1" d="M11.15,7.9V.35H2.32V1.48H1.26V2.6H.06V14.83h8.8V13.71h1.2v-4h2.46a1.44,1.44,0,0,0,1.36-1.46V7.9Zm1.29,1.4H5.2a1.41,1.41,0,0,0,.4-.94h7.83a1,1,0,0,1-.93.94ZM10.7,7.9H5.15v.38a1,1,0,0,1-.63.93,1.17,1.17,0,0,1-.45.09A1.29,1.29,0,0,1,2.78,8V.8H10.7ZM8.41,14.38H.51V3.05h.75V13.71H8.41Zm1.2-1.12H1.71V1.93h.61V8A1.74,1.74,0,0,0,4.06,9.75H9.61Z"/><rect class="cls-1" x="4.29" y="2.61" width="4.95" height="0.45"/><rect class="cls-1" x="4.29" y="3.51" width="4.95" height="0.45"/><rect class="cls-1" x="4.29" y="4.42" width="4.95" height="0.45"/><rect class="cls-1" x="4.29" y="5.32" width="4.95" height="0.45"/><polygon class="cls-1" points="7.7 6.45 7.7 6.22 4.29 6.22 4.29 6.68 7.7 6.68 7.7 6.45"/><polygon class="cls-1" points="3.02 11.21 7.97 11.21 7.97 10.98 7.97 10.75 3.02 10.75 3.02 11.21"/><polygon class="cls-1" points="3.02 12.11 6.84 12.11 6.84 11.88 6.84 11.66 3.02 11.66 3.02 12.11"/></svg>