<?xml version="1.0" encoding="utf-8"?>
<!-- Generator: Adobe Illustrator 25.4.1, SVG Export Plug-In . SVG Version: 6.00 Build 0)  -->
<svg version="1.1" id="Layer_1" xmlns="http://www.w3.org/2000/svg" xmlns:xlink="http://www.w3.org/1999/xlink" x="0px" y="0px"
	 viewBox="0 0 14 15" style="enable-background:new 0 0 14 15;" xml:space="preserve">
<style type="text/css">
	.st0{fill:#BECAD5;}
</style>
<path class="st0" d="M11.1,7.9V0.3H2.3v1.1H1.3v1.1H0.1v12.2h8.8v-1.1h1.2v-4h2.5c0.8,0,1.4-0.7,1.4-1.5V7.9H11.1z M12.4,9.3H5.2
	C5.4,9,5.6,8.7,5.6,8.4h7.8C13.4,8.9,13,9.3,12.4,9.3L12.4,9.3z M10.7,7.9H5.2v0.4c0,0.4-0.2,0.8-0.6,0.9C4.4,9.3,4.2,9.3,4.1,9.3
	C3.4,9.3,2.8,8.7,2.8,8c0,0,0,0,0,0V0.8h7.9V7.9z M8.4,14.4H0.5V3h0.8v10.7h7.1V14.4z M9.6,13.3H1.7V1.9h0.6V8c0,1,0.8,1.7,1.7,1.7
	c0,0,0,0,0,0h5.5V13.3z"/>
<rect x="4.3" y="2.6" class="st0" width="4.9" height="0.5"/>
<rect x="4.3" y="3.5" class="st0" width="4.9" height="0.5"/>
<rect x="4.3" y="4.4" class="st0" width="4.9" height="0.4"/>
<rect x="4.3" y="5.3" class="st0" width="4.9" height="0.4"/>
<polygon class="st0" points="7.7,6.4 7.7,6.2 4.3,6.2 4.3,6.7 7.7,6.7 "/>
<polygon class="st0" points="3,11.2 8,11.2 8,11 8,10.8 3,10.8 "/>
<polygon class="st0" points="3,12.1 6.8,12.1 6.8,11.9 6.8,11.7 3,11.7 "/>
</svg>
