<?xml version="1.0" encoding="UTF-8"?>
<svg width="24px" height="21px" viewBox="0 0 24 21" version="1.1" xmlns="http://www.w3.org/2000/svg" xmlns:xlink="http://www.w3.org/1999/xlink">
    <title>AF35ED8F-EAE3-4D5D-BC3C-746FAD950BEC</title>
    <g id="Page-1" stroke="none" stroke-width="1" fill="none" fill-rule="evenodd">
        <g id="Order_status" transform="translate(-1393.000000, -197.000000)" fill="#30D9C4" fill-rule="nonzero">
            <g id="Group-5" transform="translate(172.000000, 52.000000)">
                <g id="Group-2" transform="translate(0.000000, 109.000000)">
                    <g id="export" transform="translate(1194.000000, 17.000000)">
                        <g id="download.2" transform="translate(27.000000, 19.000000)">
                            <path d="M21,21 L3,21 C1.34314575,21 0,19.6568542 0,18 L0,15.41 C0.0022327895,14.8804232 0.214412213,14.3733503 0.59,14 L2.3,12.29 C2.69676028,11.9502232 3.28819417,11.9730677 3.65756322,12.3424368 C4.02693227,12.7118058 4.0497768,13.3032397 3.71,13.7 L2,15.41 L2,18 C2,18.5522847 2.44771525,19 3,19 L21,19 C21.5522847,19 22,18.5522847 22,18 L22,15.41 L20.29,13.7 C19.9502232,13.3032397 19.9730677,12.7118058 20.3424368,12.3424368 C20.7118058,11.9730677 21.3032397,11.9502232 21.7,12.29 L23.41,14 C23.7855878,14.3733503 23.9977672,14.8804232 24,15.41 L24,18 C24,19.6568542 22.6568542,21 21,21 Z M13.05,14.71 L18.71,9 C19.0497768,8.60323972 19.0269323,8.01180583 18.6575632,7.64243678 C18.2881942,7.27306773 17.6967603,7.2502232 17.3,7.59 L13.35,11.59 L13.35,1 C13.35,0.44771525 12.9022847,0 12.35,0 C11.7977153,0 11.349983,0.44771525 11.349983,1 L11.349983,14 C11.3476374,14.4062651 11.5913038,14.77358 11.9665185,14.929371 C12.3417332,15.0851619 12.7739095,14.9984599 13.06,14.71 L13.05,14.71 Z M9.51,11.17 C9.89772359,10.7799625 9.89772359,10.1500375 9.51,9.76 L7.39,7.64 C6.99844443,7.39423339 6.48946483,7.44889643 6.15902622,7.77220327 C5.82858761,8.09551011 5.76283389,8.60317607 6,9 L8.1,11.17 C8.49003745,11.5577236 9.11996255,11.5577236 9.51,11.17 Z M10.22,11.88 C10.6077236,11.4899625 10.6077236,10.8600375 10.22,10.47 L8.1,8.34 C7.70787783,7.95063927 7.07436076,7.95287785 6.68500001,8.34500001 C6.29563927,8.73712218 6.29787784,9.37063925 6.69,9.76 L8.81,11.88 C9.20003745,12.2677236 9.82996255,12.2677236 10.22,11.88 Z" id="Download"></path>
                        </g>
                    </g>
                </g>
            </g>
        </g>
    </g>
</svg>