<svg xmlns="http://www.w3.org/2000/svg" width="31.998" height="165.178" viewBox="0 0 31.998 165.178">
  <g id="Group_18" data-name="Group 18" transform="translate(-397.793 -341.55)">
    <g id="Group_13" data-name="Group 13" transform="translate(406.751 402.579)">
      <g id="Group_12" data-name="Group 12">
        <g id="Group_8" data-name="Group 8" transform="translate(0 62.122)">
          <path id="Path_6" data-name="Path 6" d="M399.031,365.61a7.037,7.037,0,1,1,7.04,7.041A7.039,7.039,0,0,1,399.031,365.61Z" transform="translate(-399.031 -358.569)" fill="#3d588c"/>
        </g>
        <g id="Group_9" data-name="Group 9" transform="translate(0 31.057)">
          <path id="Path_7" data-name="Path 7" d="M399.031,361.317a7.037,7.037,0,1,1,7.04,7.041A7.039,7.039,0,0,1,399.031,361.317Z" transform="translate(-399.031 -354.276)" fill="#3d588c"/>
        </g>
        <g id="Group_10" data-name="Group 10">
          <path id="Path_8" data-name="Path 8" d="M399.031,357.017a7.037,7.037,0,1,1,7.04,7.04A7.033,7.033,0,0,1,399.031,357.017Z" transform="translate(-399.031 -349.984)" fill="#3d588c"/>
        </g>
        <g id="Group_11" data-name="Group 11" transform="translate(0 90.068)">
          <path id="Path_9" data-name="Path 9" d="M399.031,369.472a7.037,7.037,0,1,1,7.04,7.041A7.04,7.04,0,0,1,399.031,369.472Z" transform="translate(-399.031 -362.431)" fill="#3d588c"/>
        </g>
      </g>
    </g>
    <g id="Group_17" data-name="Group 17" transform="translate(397.793 341.55)">
      <g id="Group_16" data-name="Group 16">
        <g id="Group_15" data-name="Group 15">
          <g id="Group_14" data-name="Group 14">
            <path id="Path_10" data-name="Path 10" d="M429.791,357.542a16,16,0,1,0-30.558,6.635h-.044l.311.528a14.35,14.35,0,0,0,1.05,1.809l5.933,10.311,7.316,12.627,7.294-12.627,5.934-10.311a14.376,14.376,0,0,0,1.049-1.809l.319-.528h-.05A16.114,16.114,0,0,0,429.791,357.542ZM413.8,367.665a10.116,10.116,0,1,1,10.1-10.123A10.12,10.12,0,0,1,413.8,367.665Z" transform="translate(-397.793 -341.55)" fill="#ff865f"/>
          </g>
        </g>
      </g>
    </g>
  </g>
</svg>
