<?xml version="1.0" encoding="utf-8"?>
<!-- Generator: Adobe Illustrator 25.4.1, SVG Export Plug-In . SVG Version: 6.00 Build 0)  -->
<svg version="1.1" id="Layer_1" xmlns="http://www.w3.org/2000/svg" xmlns:xlink="http://www.w3.org/1999/xlink" x="0px" y="0px"
	 viewBox="0 0 14 15" style="enable-background:new 0 0 14 15;" xml:space="preserve">
<style type="text/css">
	.st0{fill:#BECAD5;}
	.st1{fill-rule:evenodd;clip-rule:evenodd;fill:#BECAD5;}
</style>
<path class="st0" d="M2.3,1.2h8.1l-1.1,1h-7c-0.7,0-1.2,0.5-1.3,1.2c0,0,0,0,0,0.1V12c0,0.7,0.6,1.2,1.2,1.2h8.6
	c0.7,0,1.2-0.6,1.2-1.2V5.7l1-1V12c0,0.6-0.2,1.2-0.7,1.6c-0.4,0.4-1,0.7-1.6,0.7H2.3c-0.6,0-1.2-0.2-1.6-0.7
	c-0.4-0.4-0.7-1-0.7-1.6V3.5C0.1,2.2,1.1,1.2,2.3,1.2C2.3,1.2,2.3,1.2,2.3,1.2"/>
<rect x="4.2" y="4.7" transform="matrix(0.7071 -0.7071 0.7071 0.7071 -1.7405 7.8812)" class="st0" width="8.9" height="2.7"/>
<path class="st1" d="M13.6,2.1l-1-1c-0.2-0.2-0.6-0.2-0.9,0l-0.4,0.5l1.9,1.9L13.6,3C13.9,2.8,13.9,2.4,13.6,2.1"/>
<polygon class="st1" points="3.7,11 3.9,9.9 4.1,8.7 5,9.6 6,10.6 4.8,10.8 "/>
</svg>
