<svg id="Layer_1" data-name="Layer 1" xmlns="http://www.w3.org/2000/svg" viewBox="0 0 14 15"><defs><style>.cls-1,.cls-2{fill:#6ad6c4;}.cls-2{fill-rule:evenodd;}</style></defs><path class="cls-1" d="M2.32,1.22h8.09l-1.06,1h-7A1.23,1.23,0,0,0,1.08,3.47V12a1.25,1.25,0,0,0,1.24,1.24h8.56A1.26,1.26,0,0,0,12.12,12V5.65l1-1V12a2.26,2.26,0,0,1-.66,1.6,2.3,2.3,0,0,1-1.6.66H2.32a2.29,2.29,0,0,1-1.6-.66A2.26,2.26,0,0,1,.06,12V3.47A2.25,2.25,0,0,1,2.32,1.22"/><rect class="cls-1" x="4.19" y="4.68" width="8.89" height="2.71" transform="translate(-1.73 7.88) rotate(-45)"/><path class="cls-2" d="M13.62,2.08l-1-1a.64.64,0,0,0-.89,0l-.44.45,1.91,1.91L13.62,3a.64.64,0,0,0,0-.89"/><polygon class="cls-2" points="3.66 11.01 3.89 9.86 4.11 8.71 5.04 9.63 5.96 10.56 4.81 10.78 3.66 11.01"/></svg>