<svg id="Layer_1" data-name="Layer 1" xmlns="http://www.w3.org/2000/svg" viewBox="0 0 26.16 25.27"><defs><style>.cls-1{fill:#ffeef5;}.cls-2{fill:#fff;}.cls-3{fill:#241b54;}</style></defs><polygon class="cls-1" points="3.91 10.01 12.64 15.25 21.37 10.01 3.91 10.01"/><polygon class="cls-2" points="21.37 10.01 12.64 4.77 3.91 10.01 21.37 10.01"/><path class="cls-3" d="M22,9.74a.75.75,0,0,0-.07-.12.38.38,0,0,0-.08-.11.39.39,0,0,0-.1-.08l0,0L13,4.17a.71.71,0,0,0-.72,0L3.55,9.41l-.16.13a1,1,0,0,0-.08.11l0,0,0,.1a.78.78,0,0,0,0,.22V20.48a.7.7,0,0,0,.7.7H21.37a.69.69,0,0,0,.69-.7V10A.76.76,0,0,0,22,9.74ZM12.64,5.58l6.2,3.73L20,10l-1.17.7-6.2,3.72-6.2-3.72L5.27,10l1.16-.7Z"/></svg>