<svg xmlns="http://www.w3.org/2000/svg" width="92" height="63" viewBox="0 0 92 63">
    <g fill="none" fill-rule="evenodd" opacity=".132">
        <g fill="#30D9C4" fill-rule="nonzero">
            <g>
                <g>
                    <path d="M80.433 21c1.601 0 2.899 1.282 2.899 2.864l-.001 2.863h12.37c1.032 0 1.98.54 2.5 1.41l.092.167 8.697 17.086-.006.002 5.407 6.879c.35.446.56.984.601 1.545l.008.211v18.614c0 1.581-1.298 2.863-2.9 2.863h-8.412C100.364 80.392 95.843 84 90.483 84c-5.359 0-9.88-3.609-11.204-8.495H62.066C60.742 80.39 56.22 84 50.86 84c-5.358 0-9.88-3.609-11.204-8.495h-7.544c-1.6 0-2.899-1.282-2.899-2.864 0-1.582 1.298-2.864 2.9-2.864h7.493c1.257-4.983 5.826-8.686 11.254-8.686 5.429 0 9.998 3.703 11.255 8.686h17.113c1.257-4.983 5.826-8.686 11.254-8.686s9.997 3.702 11.254 8.685l5.465.001V55.008l-4.222-5.372H80.433c-1.601 0-2.9-1.282-2.9-2.863V26.727h-45.42c-1.6 0-2.899-1.282-2.899-2.863 0-1.582 1.298-2.864 2.9-2.864zm10.05 45.818c-3.198 0-5.798 2.569-5.798 5.727 0 3.159 2.6 5.728 5.798 5.728s5.799-2.569 5.799-5.728c0-3.158-2.601-5.727-5.799-5.727zm-39.622 0c-3.197 0-5.798 2.569-5.798 5.727 0 3.159 2.6 5.728 5.798 5.728s5.799-2.569 5.799-5.728c0-3.158-2.602-5.727-5.799-5.727zm-8.89-11.55c1.6 0 2.899 1.282 2.899 2.864 0 1.581-1.298 2.863-2.9 2.863H28.634c-1.6 0-2.899-1.281-2.899-2.863s1.298-2.864 2.9-2.864zm6.668-11.264c1.601 0 2.899 1.283 2.899 2.864 0 1.582-1.298 2.864-2.9 2.864H23.9c-1.601 0-2.899-1.282-2.899-2.864 0-1.582 1.298-2.864 2.9-2.864zm45.275-11.55H83.33l.001 11.455 16.412-.001-5.83-11.453zm-40.54.287c1.601 0 2.899 1.282 2.899 2.863 0 1.582-1.298 2.864-2.9 2.864H28.635c-1.6 0-2.899-1.282-2.899-2.864 0-1.581 1.298-2.863 2.9-2.863z" transform="translate(-1171 -1562) translate(1150 1143) translate(0 398)"/>
                </g>
            </g>
        </g>
    </g>
</svg>
