<svg xmlns="http://www.w3.org/2000/svg" width="42" height="46" viewBox="0 0 42 46">
    <g fill="none" fill-rule="evenodd">
        <g fill="#2D5A76" fill-rule="nonzero">
            <g>
                <g>
                    <g>
                        <path d="M34.32 0c.233 0 .457.093.622.258l5.632 5.628c.165.165.258.39.258.623v12.067c0 .486-.394.88-.88.88s-.88-.394-.88-.88V7.389H34.32c-.486 0-.88-.394-.88-.88V1.76H9.152v27.453h18.48c2.426 0 4.4 1.973 4.4 4.4v7.04c0 .99-.329 1.904-.882 2.64h7.922V26.496c0-.486.394-.88.88-.88s.88.394.88.88v17.677c0 .486-.394.88-.88.88H4.4c-2.426 0-4.4-1.974-4.4-4.4v-7.04c0-2.427 1.974-4.4 4.4-4.4h2.992V.88c0-.486.394-.88.88-.88zm-6.688 30.973H4.4c-1.456 0-2.64 1.184-2.64 2.64v7.04c0 1.455 1.184 2.64 2.64 2.64h23.232c1.456 0 2.64-1.185 2.64-2.64v-7.04c0-1.456-1.184-2.64-2.64-2.64zm-2.684 1.76c.486 0 .88.394.88.88s-.394.88-.88.88h-1.012c-.485 0-.88.394-.88.88 0 .485.395.88.88.88h.352c1.456 0 2.64 1.184 2.64 2.64 0 1.455-1.184 2.64-2.64 2.64h-1.276c-.486 0-.88-.394-.88-.88s.394-.88.88-.88h1.276c.485 0 .88-.395.88-.88 0-.486-.395-.88-.88-.88h-.352c-1.456 0-2.64-1.185-2.64-2.64 0-1.456 1.184-2.64 2.64-2.64zm-14.02.33c.304-.38.858-.441 1.238-.138.38.304.44.858.137 1.237l-2.376 2.97 2.376 2.97c.304.38.242.934-.137 1.238-.163.13-.357.193-.55.193-.258 0-.513-.113-.687-.33l-2.13-2.662-2.128 2.661c-.174.218-.43.33-.688.33-.192 0-.386-.062-.549-.192-.38-.304-.44-.858-.137-1.237l2.376-2.97-2.376-2.97c-.304-.38-.242-.934.137-1.238.38-.303.933-.242 1.237.138L8.8 35.724zm4.208-.33c.486 0 .88.394.88.88v6.16h2.64c.486 0 .88.394.88.88s-.394.88-.88.88h-3.52c-.486 0-.88-.394-.88-.88v-7.04c0-.486.394-.88.88-.88zM34.672 9.677c.486 0 .88.394.88.88v15.482c0 .486-.394.88-.88.88H20.686c-.03.004-.062.006-.094.006s-.063-.002-.094-.006h-6.946c-.486 0-.88-.394-.88-.88V10.557c0-.486.394-.88.88-.88zm-14.96 12.082h-5.28v3.4h5.28v-3.4zm14.08 0h-12.32v3.4h12.32v-3.4zm6.16-.103c.231 0 .458.093.622.258.164.164.258.39.258.622 0 .232-.094.459-.258.622-.164.164-.39.258-.622.258-.231 0-.458-.094-.622-.258-.164-.163-.258-.39-.258-.622 0-.232.094-.458.258-.622.164-.165.39-.258.622-.258zm-20.24-5.058h-5.28v3.4h5.28v-3.4zm14.08 0h-12.32v3.4h12.32v-3.4zm0-5.161h-12.32v3.4h12.32v-3.4zm-14.08 0h-5.28v3.4h5.28v-3.4zM35.2 3.004v2.625h2.627L35.2 3.004z" transform="translate(-645 -525) translate(523 354) translate(50.3 149.9) translate(72.6 22)"/>
                    </g>
                </g>
            </g>
        </g>
    </g>
</svg>
