<svg xmlns="http://www.w3.org/2000/svg" width="27" height="18" viewBox="0 0 27 18">
    <g fill="none" fill-rule="evenodd" opacity=".581">
        <g fill="#C2D2ED">
            <g>
                <g>
                    <g>
                        <path d="M33 23c-5.91 0-10.955 3.732-13 9 2.045 5.268 7.09 9 13 9s10.955-3.732 13-9c-2.045-5.268-7.09-9-13-9zm0 15c-3.262 0-5.91-2.688-5.91-6s2.648-6 5.91-6 5.91 2.688 5.91 6-2.648 6-5.91 6zm0-9.6c-1.962 0-3.545 1.608-3.545 3.6s1.583 3.6 3.545 3.6 3.545-1.608 3.545-3.6-1.583-3.6-3.545-3.6z" transform="translate(-957 -565) translate(550 250) translate(0 136) matrix(-1 0 0 1 453.1 156)"/>
                    </g>
                </g>
            </g>
        </g>
    </g>
</svg>
