<?xml version="1.0" encoding="UTF-8"?>
<svg width="43px" height="42px" viewBox="0 0 43 42" version="1.1" xmlns="http://www.w3.org/2000/svg" xmlns:xlink="http://www.w3.org/1999/xlink">
    <title>F4C8AB4D-1948-4563-98A5-487ECB22F9E4</title>
    <g id="Page-1" stroke="none" stroke-width="1" fill="none" fill-rule="evenodd">
        <g id="Dashboard_Main" transform="translate(-1267.000000, -211.000000)" fill="#F8B300" fill-rule="nonzero">
            <g id="Status" transform="translate(172.000000, 174.000000)">
                <g id="Group-4-Copy-4" transform="translate(1054.000000, 0.000000)">
                    <g id="Group-5" transform="translate(41.580000, 37.125000)">
                        <path d="M20.240527,0.121847012 C20.5888407,-0.0405750627 20.9911597,-0.0406562737 21.3395546,0.121847012 L21.3395546,0.121847012 L40.8301798,9.2174832 C41.2455738,9.41141516 41.5235588,9.80731897 41.5720417,10.2547918 C41.572935,10.263725 41.5800004,10.3884652 41.5800004,10.394962 L41.5800004,10.394962 L41.5800004,32.4843642 C41.5800004,37.4997142 37.4997192,41.5800004 32.4843753,41.5800004 C30.2205392,41.5800004 28.1473864,40.7484806 26.5537841,39.3750395 L26.5537841,39.3750395 L21.2724744,41.487095 C21.1176051,41.549059 20.9538027,41.5800004 20.7900002,41.5800004 C20.6261977,41.5800004 20.4623953,41.5489778 20.3074448,41.4870138 L20.3074448,41.4870138 L0.816819617,33.6907542 C0.323463167,33.4934926 0,33.0156468 0,32.4843642 L0,32.4843642 L0,10.394962 L0,10.394962 L0.00362403812,10.325618 C0.00550204107,10.292494 0.00751201179,10.2590554 0.00803988289,10.2543857 C0.0566852349,9.80707533 0.334589066,9.41133395 0.749901804,9.2174832 L0.749901804,9.2174832 Z M32.4843753,25.9874812 C28.9019984,25.9874812 25.9875003,28.9019829 25.9875003,32.4843642 C25.9875003,36.0667455 28.9019984,38.9812472 32.4843753,38.9812472 C36.0667522,38.9812472 38.9812504,36.0667455 38.9812504,32.4843642 C38.9812504,28.9019829 36.0667522,25.9874812 32.4843753,25.9874812 Z M2.59875003,12.3141413 L2.59875003,31.604605 L19.4906252,38.3613634 L19.4906252,19.0708996 L2.59875003,12.3141413 Z M38.9812504,12.3141413 L22.0893752,19.0708996 L22.0893752,38.3615258 L24.7660877,37.2910831 C23.8938011,35.8954714 23.3887502,34.2479431 23.3887502,32.4843642 C23.3887502,27.4690142 27.4690314,23.388728 32.4843753,23.388728 C35.027171,23.388728 37.329095,24.4379746 38.9812504,26.1257024 L38.9812504,26.1257024 L38.9812504,12.3141413 Z M29.6164922,29.6163964 C30.1238982,29.1089899 30.9466462,29.1089899 31.4540521,29.6163964 L31.4540521,29.6163964 L32.4843753,30.6467209 L33.5146173,29.6164776 C34.0220232,29.1090711 34.8447712,29.1090711 35.3521772,29.6164776 C35.8596643,30.1239654 35.8596643,30.9466332 35.3521772,31.454121 L35.3521772,31.454121 L34.3219352,32.4843642 L35.3521772,33.5146074 C35.8596643,34.0220952 35.8596643,34.844763 35.3521772,35.3522508 C35.0984742,35.6059541 34.7659966,35.7328057 34.4334378,35.7328057 C34.100879,35.7328057 33.7684015,35.6059541 33.5146985,35.3522508 L33.5146985,35.3522508 L32.4843753,34.3219264 L31.4540521,35.3522508 C31.2003492,35.6059541 30.8678716,35.7328057 30.5353128,35.7328057 C30.202754,35.7328057 29.8702764,35.6059541 29.6165734,35.3522508 C29.1090863,34.844763 29.1090863,34.0220952 29.6165734,33.5146074 L29.6165734,33.5146074 L30.6468154,32.4843642 L29.6164922,31.4540398 C29.1090051,30.946552 29.1090051,30.1238842 29.6164922,29.6163964 Z M11.0697818,7.26931163 L4.56860254,10.3031936 L20.7900002,16.7917118 L27.3400684,14.1716813 L11.0697818,7.26931163 Z M20.7900002,2.73318792 L14.2384702,5.79053985 L30.7651397,12.8016511 L37.0113166,10.3031936 L20.7900002,2.73318792 Z" id="Combined-Shape"></path>
                    </g>
                </g>
            </g>
        </g>
    </g>
</svg>