<?xml version="1.0" encoding="UTF-8"?>
<svg width="26px" height="26px" viewBox="0 0 26 26" version="1.1" xmlns="http://www.w3.org/2000/svg" xmlns:xlink="http://www.w3.org/1999/xlink">
    <title>menu_icons/funnel/funnel_icon</title>
    <g id="menu_icons/funnel/funnel_icon" stroke="none" stroke-width="1" fill="none" fill-rule="evenodd">
        <g id="Group" transform="translate(1.000000, 0.000000)" fill="#FFFFFF" fill-rule="nonzero">
            <path d="M21.51,0.699 C22.1745978,0.699 22.780791,1.06591522 23.0904871,1.65529813 C23.3772144,2.20018981 23.3659254,2.84482376 23.0695141,3.37482797 L22.9816152,3.51637145 L20.877,6.592 L21.9614529,7.24281466 C22.3007476,7.44657843 22.5616277,7.75611184 22.7065379,8.11842239 L22.7614325,8.27677509 L22.8014699,8.44066332 C22.8878034,8.88405519 22.8037922,9.34340699 22.5704585,9.72621546 L22.476,9.866 L20.681557,12.2585891 C20.3363994,12.7164513 19.8035419,12.979 19.242,12.979 C18.9721318,12.979 18.7053372,12.9182137 18.459556,12.7994798 L18.3147524,12.7213085 L17.158,12.028 L15.3373803,14.6937144 L15.3165317,14.7310739 L15.3041125,14.7698795 L15.3,14.81 L15.3,21.696 C15.3,22.271743 15.0194273,22.8158188 14.5576931,23.1511134 L14.4273487,23.2372479 L11.4231347,25.0397747 C11.1394483,25.2111685 10.8213148,25.3 10.498,25.3 C10.1909088,25.3 9.88737828,25.2194465 9.61198559,25.0639439 C9.08962297,24.7676458 8.75860393,24.2500376 8.70706161,23.6620052 L8.7,23.5 L8.7,14.81 C8.7,14.7829802 8.69460413,14.7567968 8.68375138,14.7318338 L8.66337197,14.6953528 L1.01755274,3.51561678 C0.638424129,2.96252093 0.596823932,2.24832875 0.909653597,1.65503112 C1.19655728,1.11113264 1.73499523,0.756748033 2.33800933,0.705445658 L2.49,0.699 L21.51,0.699 Z M21.51,1.299 L2.49,1.299 C2.04941934,1.299 1.64748765,1.54228026 1.44037073,1.93492275 C1.25469408,2.28706813 1.25596325,2.70217304 1.43652709,3.04973322 L1.51262803,3.17664723 L9.15786907,14.3555428 C9.22736818,14.4561967 9.27256727,14.5699342 9.29082313,14.6891879 L9.3,14.81 L9.3,23.5 C9.3,23.9379671 9.52592131,24.3253226 9.90750585,24.5417683 C10.0928014,24.6463964 10.2947832,24.7 10.498,24.7 C10.6690644,24.7 10.8382285,24.662318 10.9968228,24.5881759 L11.1136513,24.5257521 L14.1188199,22.722651 C14.4369026,22.5320848 14.648709,22.1988946 14.6918501,21.8340737 L14.7,21.696 L14.7,14.81 C14.7,14.6878357 14.7278451,14.5689268 14.7809326,14.4600199 L14.842338,14.3546969 L16.9829266,11.2233752 L18.6231923,12.2066583 C18.8135132,12.3206936 19.0262805,12.379 19.242,12.379 C19.5694439,12.379 19.8822155,12.2450589 20.1098569,12.0065397 L20.202,11.898 L21.9955751,9.50656788 C22.1981114,9.23518536 22.2773285,8.88812848 22.2125301,8.55533668 C22.1559727,8.26486899 21.9921728,8.00526919 21.7574859,7.82802812 L21.6526717,7.75726016 L20.0226989,6.77945277 L22.4866313,3.17726866 C22.7407257,2.80694819 22.768608,2.33206267 22.5594307,1.93454556 C22.3738727,1.58140994 22.0298962,1.34912653 21.6411021,1.30620121 L21.51,1.299 Z M21.51,1.699 C21.8508788,1.699 22.0776395,1.88081718 22.2054414,2.12121134 C22.3286833,2.35523246 22.3303497,2.62407722 22.2144687,2.85495364 L22.1576204,2.95136387 L14.5128691,14.1284572 C14.4013853,14.2899165 14.3320394,14.4729497 14.3087603,14.6647275 L14.3,14.81 L14.3,21.696 C14.3,21.9401524 14.1867388,22.1708225 13.997831,22.3216763 L13.9123487,22.3812479 L10.9061616,24.1849564 C10.6193406,24.3552564 10.3328301,24.3234219 10.1027848,24.1932591 C9.90186091,24.0780628 9.74417172,23.8902976 9.70788885,23.6206189 L9.7,23.5 L9.7,14.81 C9.7,14.6147921 9.65301737,14.4250639 9.5629432,14.2539695 L9.48736871,14.129348 L1.84283337,2.95102545 C1.67162187,2.70213466 1.65363023,2.38881692 1.79445072,2.1214164 C1.90447414,1.91210356 2.09277061,1.74567563 2.36712701,1.70733917 L2.49,1.699 L21.51,1.699 Z M21.51,2.299 L2.49,2.299 C2.4078016,2.299 2.35784287,2.33914701 2.32544139,2.40078866 C2.29754296,2.45376433 2.29298005,2.50900708 2.31146896,2.56097751 L2.33763129,2.61165201 L9.98169318,13.7892883 C10.1548239,14.0394773 10.2604498,14.327401 10.2908493,14.6281852 L10.3,14.81 L10.3,23.5 C10.3,23.585369 10.3399556,23.6376187 10.3997304,23.6718952 C10.4440303,23.6969596 10.4929898,23.7074351 10.5452884,23.6929464 L10.5986513,23.6697521 L13.6028916,21.8672094 C13.6473959,21.8403277 13.6797672,21.7960634 13.6931714,21.7466612 L13.7,21.696 L13.7,14.81 C13.7,14.5049542 13.7768212,14.2079851 13.922658,13.943346 L14.0183796,13.7886361 L21.6623309,2.61270723 C21.7075195,2.54659809 21.711823,2.4715491 21.6751087,2.40182828 C21.6416569,2.33890693 21.5918853,2.299 21.51,2.299 Z M4.05684064,2.83321796 C4.39464513,2.60850454 4.84117196,2.67312034 5.10069241,2.97031751 L5.16661201,3.05709512 L11.165782,12.0558406 C11.4105507,12.4237935 11.3111083,12.920016 10.9420473,13.1655182 C10.8094173,13.252898 10.6562928,13.299 10.501,13.299 C10.2732478,13.299 10.0571452,13.2029069 9.90492792,13.0332591 L9.83438491,12.9424101 L3.83421796,3.94215936 C3.58944931,3.57420649 3.68889171,3.07798399 4.05684064,2.83321796 Z M4.66538799,3.38690488 C4.60546388,3.29583601 4.4817469,3.27119119 4.38915936,3.33278204 C4.31563262,3.3816933 4.28505831,3.47066248 4.30708327,3.5513666 L4.33361509,3.60958994 L10.3333502,12.6091933 C10.3717171,12.6665458 10.4337143,12.699 10.501,12.699 C10.5387072,12.699 10.5771075,12.6874386 10.6108406,12.665218 C10.6843674,12.6163067 10.7149417,12.5273375 10.6929167,12.4466334 L10.6663849,12.3884101 L4.66538799,3.38690488 Z M17.2086592,10.8925508 L19.7960604,7.10928232 L21.446656,8.09993671 C21.6420126,8.21746835 21.7747662,8.40753781 21.8192542,8.63156654 C21.8564415,8.81883095 21.8266662,9.00838237 21.7363808,9.17151808 L21.675,9.266 L19.8812796,11.6576265 C19.6575947,11.9568415 19.2625082,12.0573985 18.9280445,11.9145216 L18.8297561,11.8643108 L17.2086592,10.8925508 Z M19.971,7.914 L18.063,10.705 L19.1383487,11.3497521 C19.2090461,11.3921705 19.2951215,11.3865731 19.3584062,11.3402574 L19.401,11.298 L21.1955051,8.90532844 C21.2298744,8.85976917 21.2421367,8.80579489 21.2307458,8.74843346 C21.2229607,8.70922999 21.2062325,8.67592699 21.1812339,8.64923007 L21.1376173,8.61422747 L19.971,7.914 Z" id="Combined-Shape"></path>
        </g>
    </g>
</svg>