<?xml version="1.0" encoding="UTF-8"?>
<svg width="14px" height="14px" viewBox="0 0 14 14" version="1.1" xmlns="http://www.w3.org/2000/svg" xmlns:xlink="http://www.w3.org/1999/xlink">
    <title>History_fouces</title>
    <g id="Page-1" stroke="none" stroke-width="1" fill="none" fill-rule="evenodd">
        <path d="M10.5546875,0 C10.8567266,0 11.1015625,0.244835938 11.1015625,0.546875 L11.1015625,0.546875 L11.1015625,1.09375 L11.8125,1.09375 C13.0186875,1.09375 14,2.0750625 14,3.28125 L14,3.28125 L14,6.3984375 C14,6.70047656 13.7551641,6.9453125 13.453125,6.9453125 C13.1510859,6.9453125 12.90625,6.70047656 12.90625,6.3984375 L12.90625,6.3984375 L12.90625,3.28125 C12.90625,2.67815625 12.4155937,2.1875 11.8125,2.1875 L11.8125,2.1875 L11.1015625,2.1875 L11.1015625,2.734375 C11.1015625,3.03641406 10.8567266,3.28125 10.5546875,3.28125 C10.2526484,3.28125 10.0078125,3.03641406 10.0078125,2.734375 L10.0078125,2.734375 L10.0078125,2.1875 L7.51953125,2.1875 L7.51953125,2.734375 C7.51953125,3.03641406 7.27469531,3.28125 6.97265625,3.28125 C6.67061719,3.28125 6.42578125,3.03641406 6.42578125,2.734375 L6.42578125,2.734375 L6.42578125,2.1875 L3.96484375,2.1875 L3.96484375,2.734375 C3.96484375,3.03641406 3.72000781,3.28125 3.41796875,3.28125 C3.11592969,3.28125 2.87109375,3.03641406 2.87109375,2.734375 L2.87109375,2.734375 L2.87109375,2.1875 L2.1875,2.1875 C1.58440625,2.1875 1.09375,2.67815625 1.09375,3.28125 L1.09375,3.28125 L1.09375,11.8125 C1.09375,12.4155937 1.58440625,12.90625 2.1875,12.90625 L2.1875,12.90625 L6.37109375,12.90625 C6.67313281,12.90625 6.91796875,13.1510859 6.91796875,13.453125 C6.91796875,13.7551641 6.67313281,14 6.37109375,14 L6.37109375,14 L2.1875,14 C0.9813125,14 0,13.0186875 0,11.8125 L0,11.8125 L0,3.28125 C0,2.0750625 0.9813125,1.09375 2.1875,1.09375 L2.1875,1.09375 L2.87109375,1.09375 L2.87109375,0.546875 C2.87109375,0.244835938 3.11592969,0 3.41796875,0 C3.72000781,0 3.96484375,0.244835938 3.96484375,0.546875 L3.96484375,0.546875 L3.96484375,1.09375 L6.42578125,1.09375 L6.42578125,0.546875 C6.42578125,0.244835938 6.67061719,0 6.97265625,0 C7.27469531,0 7.51953125,0.244835938 7.51953125,0.546875 L7.51953125,0.546875 L7.51953125,1.09375 L10.0078125,1.09375 L10.0078125,0.546875 C10.0078125,0.244835938 10.2526484,0 10.5546875,0 Z M10.6914062,7.3828125 C12.5157812,7.3828125 14,8.86703125 14,10.6914062 C14,12.5157812 12.5157812,14 10.6914062,14 C8.86703125,14 7.3828125,12.5157812 7.3828125,10.6914062 C7.3828125,8.86703125 8.86703125,7.3828125 10.6914062,7.3828125 Z M10.6914062,8.4765625 C9.47015234,8.4765625 8.4765625,9.470125 8.4765625,10.6914062 C8.4765625,11.9126875 9.47015234,12.90625 10.6914062,12.90625 C11.9126602,12.90625 12.90625,11.9126875 12.90625,10.6914062 C12.90625,9.470125 11.9126602,8.4765625 10.6914062,8.4765625 Z M10.6914062,9.0234375 C10.9934453,9.0234375 11.2382812,9.26827344 11.2382812,9.5703125 L11.2382812,9.5703125 L11.2382812,10.1445312 L11.484375,10.1445312 C11.7864141,10.1445312 12.03125,10.3893672 12.03125,10.6914062 C12.03125,10.9934453 11.7864141,11.2382812 11.484375,11.2382812 L11.484375,11.2382812 L10.6914062,11.2382812 C10.3893672,11.2382812 10.1445312,10.9934453 10.1445312,10.6914062 L10.1445312,10.6914062 L10.1445312,9.5703125 C10.1445312,9.26827344 10.3893672,9.0234375 10.6914062,9.0234375 Z M3.41796875,9.953125 C3.71999947,9.953125 3.96484375,10.1979693 3.96484375,10.5 C3.96484375,10.8020307 3.71999947,11.046875 3.41796875,11.046875 C3.11593803,11.046875 2.87109375,10.8020307 2.87109375,10.5 C2.87109375,10.1979693 3.11593803,9.953125 3.41796875,9.953125 Z M5.796875,9.953125 C6.09890572,9.953125 6.34375,10.1979693 6.34375,10.5 C6.34375,10.8020307 6.09890572,11.046875 5.796875,11.046875 C5.49484428,11.046875 5.25,10.8020307 5.25,10.5 C5.25,10.1979693 5.49484428,9.953125 5.796875,9.953125 Z M5.796875,7.57421875 C6.09890572,7.57421875 6.34375,7.81906303 6.34375,8.12109375 C6.34375,8.42312447 6.09890572,8.66796875 5.796875,8.66796875 C5.49484428,8.66796875 5.25,8.42312447 5.25,8.12109375 C5.25,7.81906303 5.49484428,7.57421875 5.796875,7.57421875 Z M3.41796875,7.57421875 C3.71999947,7.57421875 3.96484375,7.81906303 3.96484375,8.12109375 C3.96484375,8.42312447 3.71999947,8.66796875 3.41796875,8.66796875 C3.11593803,8.66796875 2.87109375,8.42312447 2.87109375,8.12109375 C2.87109375,7.81906303 3.11593803,7.57421875 3.41796875,7.57421875 Z M10.5546875,5.1953125 C10.8567182,5.1953125 11.1015625,5.44015678 11.1015625,5.7421875 C11.1015625,6.04421822 10.8567182,6.2890625 10.5546875,6.2890625 C10.2526568,6.2890625 10.0078125,6.04421822 10.0078125,5.7421875 C10.0078125,5.44015678 10.2526568,5.1953125 10.5546875,5.1953125 Z M8.17578125,5.1953125 C8.47781197,5.1953125 8.72265625,5.44015678 8.72265625,5.7421875 C8.72265625,6.04421822 8.47781197,6.2890625 8.17578125,6.2890625 C7.87375053,6.2890625 7.62890625,6.04421822 7.62890625,5.7421875 C7.62890625,5.44015678 7.87375053,5.1953125 8.17578125,5.1953125 Z M3.41796875,5.1953125 C3.71999947,5.1953125 3.96484375,5.44015678 3.96484375,5.7421875 C3.96484375,6.04421822 3.71999947,6.2890625 3.41796875,6.2890625 C3.11593803,6.2890625 2.87109375,6.04421822 2.87109375,5.7421875 C2.87109375,5.44015678 3.11593803,5.1953125 3.41796875,5.1953125 Z M5.796875,5.1953125 C6.09890572,5.1953125 6.34375,5.44015678 6.34375,5.7421875 C6.34375,6.04421822 6.09890572,6.2890625 5.796875,6.2890625 C5.49484428,6.2890625 5.25,6.04421822 5.25,5.7421875 C5.25,5.44015678 5.49484428,5.1953125 5.796875,5.1953125 Z" id="History_fouces" fill="#30D9C4" fill-rule="nonzero"></path>
    </g>
</svg>