<?xml version="1.0" encoding="UTF-8"?>
<svg width="16px" height="16px" viewBox="0 0 16 16" version="1.1" xmlns="http://www.w3.org/2000/svg" xmlns:xlink="http://www.w3.org/1999/xlink">
    <title>History</title>
    <g id="Page-1" stroke="none" stroke-width="1" fill="none" fill-rule="evenodd" fill-opacity="0.472394" stroke-opacity="0.47">
        <path d="M11.5546875,1 C11.8567266,1 12.1015625,1.24483594 12.1015625,1.546875 L12.1015625,1.546875 L12.1015625,2.09375 L12.8125,2.09375 C14.0186875,2.09375 15,3.0750625 15,4.28125 L15,4.28125 L15,7.3984375 C15,7.70047656 14.7551641,7.9453125 14.453125,7.9453125 C14.1510859,7.9453125 13.90625,7.70047656 13.90625,7.3984375 L13.90625,7.3984375 L13.90625,4.28125 C13.90625,3.67815625 13.4155937,3.1875 12.8125,3.1875 L12.8125,3.1875 L12.1015625,3.1875 L12.1015625,3.734375 C12.1015625,4.03641406 11.8567266,4.28125 11.5546875,4.28125 C11.2526484,4.28125 11.0078125,4.03641406 11.0078125,3.734375 L11.0078125,3.734375 L11.0078125,3.1875 L8.51953125,3.1875 L8.51953125,3.734375 C8.51953125,4.03641406 8.27469531,4.28125 7.97265625,4.28125 C7.67061719,4.28125 7.42578125,4.03641406 7.42578125,3.734375 L7.42578125,3.734375 L7.42578125,3.1875 L4.96484375,3.1875 L4.96484375,3.734375 C4.96484375,4.03641406 4.72000781,4.28125 4.41796875,4.28125 C4.11592969,4.28125 3.87109375,4.03641406 3.87109375,3.734375 L3.87109375,3.734375 L3.87109375,3.1875 L3.1875,3.1875 C2.58440625,3.1875 2.09375,3.67815625 2.09375,4.28125 L2.09375,4.28125 L2.09375,12.8125 C2.09375,13.4155937 2.58440625,13.90625 3.1875,13.90625 L3.1875,13.90625 L7.37109375,13.90625 C7.67313281,13.90625 7.91796875,14.1510859 7.91796875,14.453125 C7.91796875,14.7551641 7.67313281,15 7.37109375,15 L7.37109375,15 L3.1875,15 C1.9813125,15 1,14.0186875 1,12.8125 L1,12.8125 L1,4.28125 C1,3.0750625 1.9813125,2.09375 3.1875,2.09375 L3.1875,2.09375 L3.87109375,2.09375 L3.87109375,1.546875 C3.87109375,1.24483594 4.11592969,1 4.41796875,1 C4.72000781,1 4.96484375,1.24483594 4.96484375,1.546875 L4.96484375,1.546875 L4.96484375,2.09375 L7.42578125,2.09375 L7.42578125,1.546875 C7.42578125,1.24483594 7.67061719,1 7.97265625,1 C8.27469531,1 8.51953125,1.24483594 8.51953125,1.546875 L8.51953125,1.546875 L8.51953125,2.09375 L11.0078125,2.09375 L11.0078125,1.546875 C11.0078125,1.24483594 11.2526484,1 11.5546875,1 Z M11.6914062,8.3828125 C13.5157812,8.3828125 15,9.86703125 15,11.6914062 C15,13.5157812 13.5157812,15 11.6914062,15 C9.86703125,15 8.3828125,13.5157812 8.3828125,11.6914062 C8.3828125,9.86703125 9.86703125,8.3828125 11.6914062,8.3828125 Z M11.6914062,9.4765625 C10.4701523,9.4765625 9.4765625,10.470125 9.4765625,11.6914062 C9.4765625,12.9126875 10.4701523,13.90625 11.6914062,13.90625 C12.9126602,13.90625 13.90625,12.9126875 13.90625,11.6914062 C13.90625,10.470125 12.9126602,9.4765625 11.6914062,9.4765625 Z M11.6914062,10.0234375 C11.9934453,10.0234375 12.2382812,10.2682734 12.2382812,10.5703125 L12.2382812,10.5703125 L12.2382812,11.1445312 L12.484375,11.1445312 C12.7864141,11.1445312 13.03125,11.3893672 13.03125,11.6914062 C13.03125,11.9934453 12.7864141,12.2382812 12.484375,12.2382812 L12.484375,12.2382812 L11.6914062,12.2382812 C11.3893672,12.2382812 11.1445312,11.9934453 11.1445312,11.6914062 L11.1445312,11.6914062 L11.1445312,10.5703125 C11.1445312,10.2682734 11.3893672,10.0234375 11.6914062,10.0234375 Z M4.41796875,10.953125 C4.71999947,10.953125 4.96484375,11.1979693 4.96484375,11.5 C4.96484375,11.8020307 4.71999947,12.046875 4.41796875,12.046875 C4.11593803,12.046875 3.87109375,11.8020307 3.87109375,11.5 C3.87109375,11.1979693 4.11593803,10.953125 4.41796875,10.953125 Z M6.796875,10.953125 C7.09890572,10.953125 7.34375,11.1979693 7.34375,11.5 C7.34375,11.8020307 7.09890572,12.046875 6.796875,12.046875 C6.49484428,12.046875 6.25,11.8020307 6.25,11.5 C6.25,11.1979693 6.49484428,10.953125 6.796875,10.953125 Z M6.796875,8.57421875 C7.09890572,8.57421875 7.34375,8.81906303 7.34375,9.12109375 C7.34375,9.42312447 7.09890572,9.66796875 6.796875,9.66796875 C6.49484428,9.66796875 6.25,9.42312447 6.25,9.12109375 C6.25,8.81906303 6.49484428,8.57421875 6.796875,8.57421875 Z M4.41796875,8.57421875 C4.71999947,8.57421875 4.96484375,8.81906303 4.96484375,9.12109375 C4.96484375,9.42312447 4.71999947,9.66796875 4.41796875,9.66796875 C4.11593803,9.66796875 3.87109375,9.42312447 3.87109375,9.12109375 C3.87109375,8.81906303 4.11593803,8.57421875 4.41796875,8.57421875 Z M11.5546875,6.1953125 C11.8567182,6.1953125 12.1015625,6.44015678 12.1015625,6.7421875 C12.1015625,7.04421822 11.8567182,7.2890625 11.5546875,7.2890625 C11.2526568,7.2890625 11.0078125,7.04421822 11.0078125,6.7421875 C11.0078125,6.44015678 11.2526568,6.1953125 11.5546875,6.1953125 Z M9.17578125,6.1953125 C9.47781197,6.1953125 9.72265625,6.44015678 9.72265625,6.7421875 C9.72265625,7.04421822 9.47781197,7.2890625 9.17578125,7.2890625 C8.87375053,7.2890625 8.62890625,7.04421822 8.62890625,6.7421875 C8.62890625,6.44015678 8.87375053,6.1953125 9.17578125,6.1953125 Z M4.41796875,6.1953125 C4.71999947,6.1953125 4.96484375,6.44015678 4.96484375,6.7421875 C4.96484375,7.04421822 4.71999947,7.2890625 4.41796875,7.2890625 C4.11593803,7.2890625 3.87109375,7.04421822 3.87109375,6.7421875 C3.87109375,6.44015678 4.11593803,6.1953125 4.41796875,6.1953125 Z M6.796875,6.1953125 C7.09890572,6.1953125 7.34375,6.44015678 7.34375,6.7421875 C7.34375,7.04421822 7.09890572,7.2890625 6.796875,7.2890625 C6.49484428,7.2890625 6.25,7.04421822 6.25,6.7421875 C6.25,6.44015678 6.49484428,6.1953125 6.796875,6.1953125 Z" id="History" stroke="#7196B1" stroke-width="0.7" fill="#7196B1"></path>
    </g>
</svg>