<svg xmlns="http://www.w3.org/2000/svg" width="18.116" height="21.924" viewBox="0 0 18.116 21.924">
    <path d="M9.058 21.924a8.837 8.837 0 0 1-6.409-2.752A9.516 9.516 0 0 1 0 12.528a9.242 9.242 0 0 1 9.059-9.4A8.774 8.774 0 0 1 14.714 5.2l1.429-1.482a11.6 11.6 0 0 1 1.421 1.472l-1.432 1.48a9.649 9.649 0 0 1-.666 12.5 8.836 8.836 0 0 1-6.408 2.754zm0-16.7a7.188 7.188 0 0 0-7.044 7.307 7.188 7.188 0 0 0 7.044 7.307 7.188 7.188 0 0 0 7.042-7.31 7.188 7.188 0 0 0-7.042-7.307zm1.007 8.35H8.053V7.307h2.012v6.263zm2.011-11.487H6.039V0h6.037v2.086z" transform="translate(.001 .001)" style="fill:#fff"/>
</svg>
