<svg xmlns="http://www.w3.org/2000/svg" width="32.245" height="32.245" viewBox="0 0 32.245 32.245">
    <path data-name="Combined Shape" d="M0 16.047A15.906 15.906 0 0 1 4.724 4.7a16.178 16.178 0 0 1 22.8 0 16 16 0 0 1 2.355 19.727l2.248 6.173a1.151 1.151 0 0 1-1.07 1.546l-1.613.016h-.1c-4.34.042-8.829.086-13.268.086A16.155 16.155 0 0 1 0 16.047zm2.3 0a13.849 13.849 0 0 0 13.775 13.894c4.408 0 8.874-.044 13.191-.086h.14l-1.889-5.176a1.147 1.147 0 0 1 .124-1.034 13.632 13.632 0 0 0 2.3-7.6 13.819 13.819 0 0 0-27.638 0zm12.667 6.985a1.152 1.152 0 1 1 1.152 1.152 1.152 1.152 0 0 1-1.148-1.152zm0-4.222v-9.6a1.152 1.152 0 0 1 2.3 0v9.6a1.152 1.152 0 0 1-2.3 0z" style="fill:#f8b300"/>
</svg>
