<?xml version="1.0" encoding="UTF-8"?>
<svg width="26px" height="26px" viewBox="0 0 26 26" version="1.1" xmlns="http://www.w3.org/2000/svg" xmlns:xlink="http://www.w3.org/1999/xlink">
    <title>menu_icons/Insights/Insights_icon</title>
    <g id="menu_icons/Insights/Insights_icon" stroke="none" stroke-width="1" fill="none" fill-rule="evenodd">
        <path d="M25.9681503,6.15679082 C25.9678903,6.87476068 25.3856261,7.4565959 24.6676432,7.4563619 C23.9496604,7.4561279 23.3679162,6.87391569 23.3681762,6.15595882 L23.3686961,4.44525383 L13.92078,13.9177917 C13.4370548,14.4028169 12.6597926,14.4292066 12.1443477,13.9781111 L7.85960327,10.2290263 L2.21918032,15.8690723 C1.71148337,16.3767173 0.888383547,16.3767173 0.380725592,15.8689423 C-0.126932363,15.3612973 -0.126906363,14.5381455 0.380790592,14.0305006 L6.88120699,7.53057816 C7.36515318,7.04667097 8.14140147,7.02084023 8.65644335,7.47149375 L12.9399398,11.2195385 L21.5370144,2.59997416 L19.5014946,2.59997416 C18.7835117,2.59997416 18.2015075,2.01795695 18.2015075,1.29998708 C18.2015075,0.582030216 18.7835117,-3.90798505e-14 19.5014946,-3.90798505e-14 L24.6697232,-3.90798505e-14 C25.0144798,-3.90798505e-14 25.3451965,0.137018638 25.5890741,0.380909215 C25.8328217,0.624786791 25.9697103,0.955555504 25.9697103,1.30040308 L25.9681503,6.15679082 Z M19.5000646,14.2998579 C19.5000646,13.581875 20.0821988,12.9998708 20.8000517,12.9998708 L24.7000129,12.9998708 C25.4179958,12.9998708 26,13.581875 26,14.2998579 C26,15.0178408 25.4179958,15.599845 24.7000129,15.599845 L20.8000517,15.599845 C20.0821988,15.599845 19.5000646,15.0178408 19.5000646,14.2998579 Z M11.0501486,18.1998191 C10.3322437,18.1998191 9.75021348,18.7818234 9.75021348,19.4998062 C9.75021348,20.2177891 10.3322437,20.7997933 11.0501486,20.7997933 L14.9501098,20.7997933 C15.6680927,20.7997933 16.2500969,20.2177891 16.2500969,19.4998062 C16.2500969,18.7818234 15.6680927,18.1998191 14.9501098,18.1998191 L11.0501486,18.1998191 Z M0.00031037268,24.6997545 C0.00031037268,23.9817717 0.582340589,23.3997675 1.30029745,23.3997675 L5.2002587,23.3997675 C5.91822856,23.3997675 6.50024578,23.9817717 6.50024578,24.6997545 C6.50024578,25.4177374 5.91822856,25.9997416 5.2002587,25.9997416 L1.30029745,25.9997416 C0.582340589,25.9997416 0.00031037268,25.4177374 0.00031037268,24.6997545 Z M9.75021348,24.6997545 C9.75021348,23.9817717 10.3322437,23.3997675 11.0501486,23.3997675 L14.9501098,23.3997675 C15.6680927,23.3997675 16.2500969,23.9817717 16.2500969,24.6997545 C16.2500969,25.4177374 15.6680927,25.9997416 14.9501098,25.9997416 L11.0501486,25.9997416 C10.3322437,25.9997416 9.75021348,25.4177374 9.75021348,24.6997545 Z M19.5000646,24.6997545 C19.5000646,23.9817717 20.0821988,23.3997675 20.8000517,23.3997675 L24.7000129,23.3997675 C25.4179958,23.3997675 26,23.9817717 26,24.6997545 C26,25.4177374 25.4179958,25.9997416 24.7000129,25.9997416 L20.8000517,25.9997416 C20.0821988,25.9997416 19.5000646,25.4177374 19.5000646,24.6997545 Z M20.8000517,18.1998191 C20.0821988,18.1998191 19.5000646,18.7818234 19.5000646,19.4998062 C19.5000646,20.2177891 20.0821988,20.7997933 20.8000517,20.7997933 L24.7000129,20.7997933 C25.4179958,20.7997933 26,20.2177891 26,19.4998062 C26,18.7818234 25.4179958,18.1998191 24.7000129,18.1998191 L20.8000517,18.1998191 Z" id="Shape" fill="#FFFFFF"></path>
    </g>
</svg>