<?xml version="1.0" encoding="UTF-8"?>
<svg width="14px" height="14px" viewBox="0 0 14 14" version="1.1" xmlns="http://www.w3.org/2000/svg" xmlns:xlink="http://www.w3.org/1999/xlink">
    <title>live</title>
    <g id="Page-1" stroke="none" stroke-width="1" fill="none" fill-rule="evenodd" fill-opacity="0.472394">
        <g id="Dashboard_Bulk_Upload" transform="translate(-139.000000, -587.000000)" fill="#7196B1">
            <path d="M151.717924,595.121041 C151.777995,594.794941 152.07549,594.586122 152.40159,594.674799 C152.730551,594.73487 152.939369,595.032365 152.850693,595.361326 C152.804924,595.587307 152.67048,596.210903 152.641874,596.285276 C151.749389,598.842589 149.455245,600.664746 146.749185,600.95652 C144.066009,601.245433 141.674607,599.918148 140.350182,598.124596 L140.350182,598.124596 L140.17283,598.931265 C140.081293,599.22876 139.820984,599.4433 139.457697,599.406113 C139.131597,599.346042 138.951384,599.019942 139.011455,598.722447 L139.011455,598.722447 L139.517768,596.371092 C139.620747,595.92485 140.084153,595.896244 140.232901,595.92485 L140.232901,595.92485 L142.552789,596.431163 C142.87889,596.491234 143.059103,596.817335 142.999032,597.11483 C142.938961,597.44093 142.612861,597.621143 142.315366,597.561072 L142.315366,597.561072 L141.214062,597.317927 C142.418345,599.051408 144.495088,600.015406 146.629043,599.792285 C148.797324,599.560582 150.685273,598.121736 151.471918,596.076458 C151.474779,596.016387 151.657852,595.389931 151.717924,595.121041 Z M146.45169,589.32847 C146.77779,589.32847 147.04668,589.59736 147.04668,589.92346 L147.04668,589.92346 L147.04668,593.991132 C147.018075,594.317233 146.77779,594.586122 146.45169,594.586122 L146.45169,594.586122 L143.708443,594.586122 C143.379482,594.586122 143.113453,594.317233 143.113453,593.991132 C143.113453,593.665032 143.382343,593.396142 143.708443,593.396142 L143.708443,593.396142 L145.8567,593.396142 L145.8567,589.92346 C145.8567,589.59736 146.12559,589.32847 146.45169,589.32847 Z M151.749389,591.016182 C152.046884,590.89604 152.372985,591.044788 152.521732,591.342283 C152.759156,591.937273 152.936509,592.592334 152.99658,593.247395 C152.99658,593.247395 153.076675,593.850966 152.461661,593.931061 C151.840926,594.028319 151.8066,593.364676 151.8066,593.364676 C151.746529,592.829758 151.629247,592.294839 151.420429,591.788525 C151.300286,591.49103 151.449034,591.16493 151.749389,591.016182 Z M140.733493,589.38282 C140.942312,589.145397 141.328483,589.113931 141.565907,589.322749 C141.803331,589.531568 141.834797,589.917739 141.625978,590.155163 C141.448625,590.361121 141.299878,590.56994 141.15113,590.778758 C140.779262,591.196396 140.438859,591.016182 140.318716,590.956111 C140.052687,590.775898 139.964011,590.421192 140.138503,590.155163 C140.315856,589.889134 140.524675,589.620244 140.733493,589.38282 Z M149.129145,588.367333 C149.309358,588.098443 149.664064,588.041232 149.932954,588.218585 C150.496478,588.607617 151.002791,589.082465 151.420429,589.588779 C151.629247,589.826202 151.569176,590.212374 151.331752,590.421192 C151.243076,590.527032 150.793973,590.664337 150.527944,590.332516 C150.170377,589.886274 149.75274,589.497242 149.277893,589.171141 C149.009003,588.990928 148.948932,588.636222 149.129145,588.367333 Z M144.100335,587.263169 C144.39783,587.174492 144.726791,587.354706 144.815468,587.680806 C144.904144,587.978301 144.723931,588.307262 144.39783,588.395938 C143.862912,588.544686 143.325132,588.782109 142.850284,589.079604 C142.44695,589.228352 142.195223,589.050999 142.077942,588.870786 C141.897728,588.601896 141.986405,588.24433 142.255294,588.066977 C142.821679,587.709411 143.445274,587.440521 144.100335,587.263169 Z M146.154195,587 C146.837861,587 147.492923,587.117282 148.147984,587.3261 C148.445479,587.414777 148.622831,587.743737 148.534155,588.069838 C148.414013,588.307262 148.150844,588.533243 147.790418,588.427404 C147.252638,588.247191 146.689114,588.158514 146.122729,588.158514 C145.796629,588.158514 145.559205,587.895345 145.559205,587.566385 C145.559205,587.237424 145.828095,587 146.154195,587 Z" id="live"></path>
        </g>
    </g>
</svg>