<?xml version="1.0" encoding="UTF-8"?>
<svg width="14px" height="14px" viewBox="0 0 14 14" version="1.1" xmlns="http://www.w3.org/2000/svg" xmlns:xlink="http://www.w3.org/1999/xlink">
    <title>live</title>
    <g id="Page-1" stroke="none" stroke-width="1" fill="none" fill-rule="evenodd">
        <g id="Dashboard_Bulk_Upload_menu_hover" transform="translate(-141.000000, -588.000000)" fill="#30D9C4" fill-rule="nonzero">
            <path d="M153.717924,596.121041 C153.777995,595.794941 154.07549,595.586122 154.40159,595.674799 C154.730551,595.73487 154.939369,596.032365 154.850693,596.361326 C154.804924,596.587307 154.67048,597.210903 154.641874,597.285276 C153.749389,599.842589 151.455245,601.664746 148.749185,601.95652 C146.066009,602.245433 143.674607,600.918148 142.350182,599.124596 L142.350182,599.124596 L142.17283,599.931265 C142.081293,600.22876 141.820984,600.4433 141.457697,600.406113 C141.131597,600.346042 140.951384,600.019942 141.011455,599.722447 L141.011455,599.722447 L141.517768,597.371092 C141.620747,596.92485 142.084153,596.896244 142.232901,596.92485 L142.232901,596.92485 L144.552789,597.431163 C144.87889,597.491234 145.059103,597.817335 144.999032,598.11483 C144.938961,598.44093 144.612861,598.621143 144.315366,598.561072 L144.315366,598.561072 L143.214062,598.317927 C144.418345,600.051408 146.495088,601.015406 148.629043,600.792285 C150.797324,600.560582 152.685273,599.121736 153.471918,597.076458 C153.474779,597.016387 153.657852,596.389931 153.717924,596.121041 Z M148.45169,590.32847 C148.77779,590.32847 149.04668,590.59736 149.04668,590.92346 L149.04668,590.92346 L149.04668,594.991132 C149.018075,595.317233 148.77779,595.586122 148.45169,595.586122 L148.45169,595.586122 L145.708443,595.586122 C145.379482,595.586122 145.113453,595.317233 145.113453,594.991132 C145.113453,594.665032 145.382343,594.396142 145.708443,594.396142 L145.708443,594.396142 L147.8567,594.396142 L147.8567,590.92346 C147.8567,590.59736 148.12559,590.32847 148.45169,590.32847 Z M153.749389,592.016182 C154.046884,591.89604 154.372985,592.044788 154.521732,592.342283 C154.759156,592.937273 154.936509,593.592334 154.99658,594.247395 C154.99658,594.247395 155.076675,594.850966 154.461661,594.931061 C153.840926,595.028319 153.8066,594.364676 153.8066,594.364676 C153.746529,593.829758 153.629247,593.294839 153.420429,592.788525 C153.300286,592.49103 153.449034,592.16493 153.749389,592.016182 Z M142.733493,590.38282 C142.942312,590.145397 143.328483,590.113931 143.565907,590.322749 C143.803331,590.531568 143.834797,590.917739 143.625978,591.155163 C143.448625,591.361121 143.299878,591.56994 143.15113,591.778758 C142.779262,592.196396 142.438859,592.016182 142.318716,591.956111 C142.052687,591.775898 141.964011,591.421192 142.138503,591.155163 C142.315856,590.889134 142.524675,590.620244 142.733493,590.38282 Z M151.129145,589.367333 C151.309358,589.098443 151.664064,589.041232 151.932954,589.218585 C152.496478,589.607617 153.002791,590.082465 153.420429,590.588779 C153.629247,590.826202 153.569176,591.212374 153.331752,591.421192 C153.243076,591.527032 152.793973,591.664337 152.527944,591.332516 C152.170377,590.886274 151.75274,590.497242 151.277893,590.171141 C151.009003,589.990928 150.948932,589.636222 151.129145,589.367333 Z M146.100335,588.263169 C146.39783,588.174492 146.726791,588.354706 146.815468,588.680806 C146.904144,588.978301 146.723931,589.307262 146.39783,589.395938 C145.862912,589.544686 145.325132,589.782109 144.850284,590.079604 C144.44695,590.228352 144.195223,590.050999 144.077942,589.870786 C143.897728,589.601896 143.986405,589.24433 144.255294,589.066977 C144.821679,588.709411 145.445274,588.440521 146.100335,588.263169 Z M148.154195,588 C148.837861,588 149.492923,588.117282 150.147984,588.3261 C150.445479,588.414777 150.622831,588.743737 150.534155,589.069838 C150.414013,589.307262 150.150844,589.533243 149.790418,589.427404 C149.252638,589.247191 148.689114,589.158514 148.122729,589.158514 C147.796629,589.158514 147.559205,588.895345 147.559205,588.566385 C147.559205,588.237424 147.828095,588 148.154195,588 Z" id="live"></path>
        </g>
    </g>
</svg>