<svg xmlns="http://www.w3.org/2000/svg" width="14" height="17" viewBox="0 0 14 17">
    <defs>
        <filter id="3b7nrwaiba">
            <feColorMatrix in="SourceGraphic" values="0 0 0 0 0.443137 0 0 0 0 0.588235 0 0 0 0 0.694118 0 0 0 1.000000 0"/>
        </filter>
    </defs>
    <g fill="none" fill-rule="evenodd">
        <g>
            <g filter="url(#3b7nrwaiba)" transform="translate(-1359 -275) translate(1159 173)">
                <g>
                    <g fill="#2D5A76" fill-rule="nonzero">
                        <path d="M6.628 0c2.205 0 4.187 1.038 5.438 2.849 1.245 1.8 1.532 4.081.769 6.1-.202.545-.526 1.079-.96 1.583l-4.811 5.65c-.109.128-.268.202-.436.202-.168 0-.327-.074-.436-.202L1.38 10.53c-.433-.5-.757-1.035-.96-1.585-.762-2.015-.475-4.295.77-6.096C2.44 1.039 4.423 0 6.628 0zm0 1.146c-1.823 0-3.462.858-4.496 2.354-1.03 1.492-1.27 3.377-.64 5.043.158.425.412.842.757 1.242l4.379 5.143 4.376-5.14.002-.003c.346-.4.6-.817.756-1.238.632-1.67.392-3.555-.638-5.047C10.09 2.004 8.45 1.146 6.628 1.146zm0 2.253c1.769 0 3.208 1.44 3.208 3.208 0 1.77-1.44 3.208-3.208 3.208-1.77 0-3.208-1.439-3.208-3.208C3.42 4.838 4.859 3.4 6.628 3.4zm0 1.146c-1.137 0-2.062.925-2.062 2.062 0 1.137.925 2.062 2.062 2.062 1.137 0 2.062-.925 2.062-2.062 0-1.137-.925-2.062-2.062-2.062z" transform="translate(27 100) translate(173 2)"/>
                    </g>
                </g>
            </g>
        </g>
    </g>
</svg>
