<?xml version="1.0" encoding="UTF-8"?>
<svg width="21px" height="29px" viewBox="0 0 21 29" version="1.1" xmlns="http://www.w3.org/2000/svg" xmlns:xlink="http://www.w3.org/1999/xlink">
    <title>5E888E4D-2587-40E3-A5DE-45C223211B74</title>
    <g id="Page-1" stroke="none" stroke-width="1" fill="none" fill-rule="evenodd" opacity="0.5">
        <g id="Dashboard_drop_off_Select_name" transform="translate(-215.000000, -1169.000000)" fill="#30D9C4" fill-rule="nonzero">
            <g id="Group" transform="translate(172.000000, 478.000000)">
                <g id="Group-15" transform="translate(43.000000, 672.000000)">
                    <g id="Group-4" transform="translate(0.000000, 19.000000)">
                        <path d="M10.2000004,0 C15.8244006,0 20.4000008,4.57560018 20.4000008,10.2000004 C20.4000008,20.0604008 10.9932004,28.3068011 10.5924004,28.6536011 C10.4796004,28.7508011 10.3392004,28.8000011 10.2000004,28.8000011 C10.0608004,28.8000011 9.92040039,28.7508011 9.80760039,28.6536011 C9.40680037,28.3080011 0,20.0616008 0,10.2000004 C0,4.57560018 4.57560018,0 10.2000004,0 Z M10.2000004,3.60000014 C6.56160026,3.60000014 3.60000014,6.56040026 3.60000014,10.2000004 C3.60000014,13.8396005 6.56160026,16.8000007 10.2000004,16.8000007 C13.8384005,16.8000007 16.8000007,13.8396005 16.8000007,10.2000004 C16.8000007,6.56040026 13.8384005,3.60000014 10.2000004,3.60000014 Z M10.2000004,7.20000029 C10.5312004,7.20000029 10.8000004,7.4688003 10.8000004,7.80000031 L10.8,9.6 L12.6000005,9.60000038 C12.9312005,9.60000038 13.2000003,9.86880039 13.2000003,10.2000004 C13.2000003,10.5312004 12.9312005,10.8000004 12.6000005,10.8000004 L10.8,10.8 L10.8000004,12.6000005 C10.8000004,12.9312005 10.5312004,13.2000003 10.2000004,13.2000003 C9.86880039,13.2000003 9.60000038,12.9312005 9.60000038,12.6000005 L9.6,10.8 L7.80000031,10.8000004 C7.4688003,10.8000004 7.20000029,10.5312004 7.20000029,10.2000004 C7.20000029,9.86880039 7.4688003,9.60000038 7.80000031,9.60000038 L9.6,9.6 L9.60000038,7.80000031 C9.60000038,7.4688003 9.86880039,7.20000029 10.2000004,7.20000029 Z" id="Combined-Shape"></path>
                    </g>
                </g>
            </g>
        </g>
    </g>
</svg>