<svg xmlns="http://www.w3.org/2000/svg" width="13" height="17" viewBox="0 0 13 17">
    <g fill="none" fill-rule="evenodd">
        <g fill="#FFF" fill-rule="nonzero">
            <g>
                <g>
                    <path d="M6.24 0C2.8 0 0 2.884 0 6.43c0 6.253 5.8 9.997 6.048 10.154.058.037.125.056.192.056s.134-.019.192-.056c.248-.157 6.048-3.901 6.048-10.155C12.48 2.884 9.68 0 6.24 0zm0 9.833c-1.821 0-3.304-1.527-3.304-3.404 0-1.876 1.483-3.404 3.304-3.404 1.821 0 3.304 1.528 3.304 3.404 0 1.877-1.483 3.404-3.304 3.404z" transform="translate(-1348 -209) translate(1159 173) translate(189 36)"/>
                </g>
            </g>
        </g>
    </g>
</svg>
