<?xml version="1.0" encoding="UTF-8"?>
<svg width="19px" height="24px" viewBox="0 0 19 24" version="1.1" xmlns="http://www.w3.org/2000/svg" xmlns:xlink="http://www.w3.org/1999/xlink">
    <title>7B8DB64F-DDFC-4D21-B252-EA10F8AD0301</title>
    <g id="Page-1" stroke="none" stroke-width="1" fill="none" fill-rule="evenodd">
        <g id="Dashboard_full_distance_price_info" transform="translate(-310.000000, -1352.000000)" fill-rule="nonzero" stroke="#FFFFFF" stroke-width="2">
            <g id="Group-33" transform="translate(172.000000, 766.000000)">
                <g id="Group-23" transform="translate(43.000000, 557.000000)">
                    <g id="Group-31" transform="translate(82.000000, 19.000000)">
                        <path d="M22.5,11 C17.813,11 14,14.813 14,19.5 C14,27.768 21.901,32.719 22.238,32.926 C22.318,32.975 22.409,33 22.5,33 C22.591,33 22.682,32.975 22.762,32.926 C23.099,32.719 31,27.768 31,19.5 C31,14.813 27.187,11 22.5,11 Z M22.5,24 C20.019,24 18,21.981 18,19.5 C18,17.019 20.019,15 22.5,15 C24.981,15 27,17.019 27,19.5 C27,21.981 24.981,24 22.5,24 Z" id="Shape"></path>
                    </g>
                </g>
            </g>
        </g>
    </g>
</svg>