<?xml version="1.0" standalone="no"?>
<!DOCTYPE svg PUBLIC "-//W3C//DTD SVG 1.0//EN" "http://www.w3.org/TR/2001/REC-SVG-20010904/DTD/svg10.dtd">
<svg xmlns="http://www.w3.org/2000/svg" xmlns:xlink="http://www.w3.org/1999/xlink" id="body_1" width="51" height="38">

<g transform="matrix(0.04980469 0 0 0.04947917 0 0)">
	<g transform="matrix(5.804988 0 0 5.804988 244.0998 0)">
	</g>
    <path transform="matrix(5.804988 0 0 5.804988 244.0998 0)"  d="M60.201 2.309C 55.801 0.909 51.001 0.109 46.101 0.109C 32.001 0.109 19.301 6.509 10.801 16.609L10.801 16.609L32.601 34.909L60.201 2.309z" stroke="none" fill="#FF8E6E" fill-rule="nonzero" />
	<g transform="matrix(5.804988 0 0 5.804988 244.0998 0)">
	</g>
    <path transform="matrix(5.804988 0 0 5.804988 244.0998 0)"  d="M10.845 16.499C 4.145 24.499 0.045 34.899 0.045 46.099C 0.045 54.799 1.745 61.799 4.645 68.099L4.645 68.099L32.645 34.799L10.845 16.499z" stroke="none" fill="#FF8E6E" fill-rule="nonzero" />
	<g transform="matrix(5.804988 0 0 5.804988 244.0998 0)">
	</g>
    <path transform="matrix(5.804988 0 0 5.804988 244.0998 0)"  d="M46.079 28.556C 55.879 28.556 63.779 36.456 63.779 46.256C 63.779 50.556 62.179 54.556 59.579 57.656C 59.579 57.656 73.479 41.056 87.079 24.956C 81.479 14.156 71.779 5.956 60.079 2.256L60.079 2.256L32.479 34.856C 35.779 31.056 40.579 28.556 46.079 28.556" stroke="none" fill="#FF8E6E" fill-rule="nonzero" />
	<g transform="matrix(5.804988 0 0 5.804988 244.0998 0)">
	</g>
    <path transform="matrix(5.804988 0 0 5.804988 244.0998 0)"  d="M46.2 63.8C 36.4 63.8 28.5 55.9 28.5 46.1C 28.5 41.8 30 37.8 32.6 34.8L32.6 34.8L4.599998 68.1C 9.399999 78.7 17.4 87.3 25.6 98L25.6 98L59.7 57.5C 56.4 61.4 51.6 63.8 46.2 63.8" stroke="none" fill="#FF8E6E" fill-rule="nonzero" />
	<g transform="matrix(5.804988 0 0 5.804988 244.0998 0)">
	</g>
    <path transform="matrix(5.804988 0 0 5.804988 244.0998 0)"  d="M58.937 109.146C 74.337 85.046 92.237 74.146 92.237 46.146C 92.237 38.446 90.337 31.246 87.037 24.846L87.037 24.846L25.437 97.946C 28.037 101.346 30.737 105.246 33.337 109.246C 42.737 123.746 40.137 132.346 46.137 132.346C 52.137 132.346 49.537 123.646 58.937 109.146" stroke="none" fill="#FF8E6E" fill-rule="nonzero" />
</g>
</svg>