<svg xmlns="http://www.w3.org/2000/svg" width="31" height="37" viewBox="0 0 31 37">
    <g fill="none" fill-rule="evenodd">
        <g fill="#30D9C4" fill-rule="nonzero">
            <g>
                <g>
                    <path d="M19.509 3c1.723 0 3.121 1.38 3.121 3.083v5.066c.714.185 1.331.696 1.665 1.406.223.4 2.023 3.83 3.806 13.048l.35-.153L31 31.08l-8.37 3.697v2.14c0 1.702-1.398 3.083-3.121 3.083H3.122C1.398 40 0 38.619 0 36.916V6.083C0 4.38 1.398 3 3.122 3zm-2.757 30.833H1.56v3.083c0 .85.7 1.542 1.56 1.542h7.804c-1.293 0-2.341-1.035-2.341-2.313 0-1.276 1.048-2.312 2.34-2.312 1.294 0 2.342 1.036 2.342 2.312 0 1.278-1.048 2.313-2.341 2.313h8.584c.86 0 1.56-.691 1.56-1.542v-1.45l-2.981 1.318-1.336-2.951zm-5.827 1.542c-.43 0-.78.346-.78.77 0 .426.35.771.78.771.43 0 .78-.345.78-.77 0-.425-.35-.771-.78-.771zm16.737-7.888l-10.061 4.445 1.273 2.815 10.064-4.446-1.276-2.814zM19.51 4.54H3.122c-.861 0-1.561.692-1.561 1.542v26.208h14.492l-.514-1.137.134-.058-.647-.346h-2.54c-.431 0-.781-.346-.781-.771v-1.006l-.78-.418v1.424c0 .425-.35.771-.78.771H3.902c-.431 0-.78-.346-.78-.771v-6.166c0-.426.349-.772.78-.772h1.92c.043-.105.092-.209.149-.31.092-.166.2-.32.32-.46H3.9c-.43 0-.78-.345-.78-.771v-6.167c0-.426.35-.77.78-.77h2.592l-.349-.772H3.902c-.431 0-.78-.345-.78-.77V6.854c0-.426.349-.77.78-.77h6.243c.43 0 .78.344.78.77v4.589l.81 1.79c-.02-.068-.03-.139-.03-.212V6.854c0-.426.35-.77.78-.77h6.243c.432 0 .78.344.78.77v5.404c.082.045.16.094.235.146.322-.488.783-.891 1.294-1.117l.032-.013v-5.19c0-.851-.7-1.543-1.56-1.543zM7.596 9.443c-.166 0-.329.034-.471.096-.255.113-.466.328-.58.592-.064.146-.151.436-.017.732l6.426 14.194-3.896-2.087c-.187-.1-.388-.149-.6-.149-.466 0-.896.25-1.12.653-.162.291-.2.625-.105.941.094.317.307.576.602.734l8.888 4.755.473.518 9.442-4.17c-1.272-6.686-2.555-10.312-3.23-11.922l-.086-.203c-.248-.573-.395-.83-.4-.84l-.02-.033-.016-.035c-.169-.373-.493-.604-.849-.604-.121 0-.243.026-.362.08-.572.252-.99.99-.8 1.412l.44.97.006.012c.176.39 0 .845-.394 1.019-.394.174-.855 0-1.03-.39-.003-.003-.005-.008-.006-.012h-.002l-.439-.97-.352-.78c-.157-.347-.605-.503-.978-.503-.183 0-.359.035-.51.102-.548.242-.89.918-.688 1.363l.792 1.75.006.012c.176.39 0 .845-.393 1.019-.394.174-.856 0-1.032-.39l-.004-.012h-.001l-1.328-2.932c-.156-.346-.607-.5-.983-.5-.177 0-.348.032-.495.094l-.037.015c-.023.008-.047.017-.07.027-.263.116-.499.352-.63.63-.073.153-.174.45-.048.73l1.33 2.936c0 .004.003.007.005.012.176.388 0 .845-.394 1.018-.394.174-.855 0-1.03-.389l-.006-.013v.001l-1.314-2.9L8.548 9.97c-.164-.364-.597-.528-.952-.528zM5.67 24.583h-.988v4.625h4.682V27.72l-2.272-1.216c-.663-.353-1.145-.941-1.357-1.653-.026-.089-.048-.178-.065-.268zm1.521-8.48H4.682v4.626h4.603l-2.094-4.625zm2.173-8.478H4.682v4.625h.764l-.343-.757c-.28-.618-.277-1.318.007-1.971.268-.615.77-1.121 1.378-1.39.34-.15.724-.23 1.108-.23.675 0 1.302.234 1.768.634v-.911zm8.584 0h-4.682v4.625h3.502c.067-.037.135-.072.204-.103.3-.132.635-.21.976-.23V7.625z" transform="translate(-613 -565) translate(583 534) translate(30 28)"/>
                </g>
            </g>
        </g>
    </g>
</svg>
