<svg xmlns="http://www.w3.org/2000/svg" width="13" height="17" viewBox="0 0 13 17">
    <g fill="none" fill-rule="evenodd">
        <g fill="#FFF" fill-rule="nonzero">
            <g>
                <g>
                    <path d="M9.165 5.414c.068 0 .204.068.272.136.136.136 3.462 3.666 3.462 5.635 0 2.784-2.919 5.092-6.45 5.092C2.92 16.277 0 13.969 0 11.185c0-1.969 3.327-5.5 3.462-5.635.068-.068.204-.136.272-.136zM6.45 8.266c-.204 0-.34.136-.34.34v.339c-.747.135-1.358.679-1.358 1.357 0 .612.476 1.087 1.358 1.29v1.358c-.34-.068-.679-.34-.679-.61 0-.204-.135-.34-.34-.34-.203 0-.339.136-.339.34.068.61.611 1.085 1.358 1.221v.34c0 .203.136.34.34.34.203 0 .34-.137.34-.34v-.34c.746-.136 1.357-.679 1.357-1.493 0-.611-.475-1.087-1.358-1.29V9.42c.34.068.679.34.679.61 0 .205.136.34.34.34.203 0 .339-.135.339-.34-.068-.61-.611-1.085-1.358-1.221v-.204c0-.203-.136-.34-.34-.34zm.34 3.326c.474.136.678.34.678.611 0 .272-.272.544-.679.611zm-.68-2.036v1.222c-.475-.136-.679-.34-.679-.611 0-.272.272-.543.68-.611zm3.055-5.5c.204 0 .34.136.34.34 0 .204-.136.34-.34.34H3.734c-.204 0-.34-.136-.34-.34 0-.204.136-.34.34-.34zM2.105.051c.135-.068.271-.068.407 0l2.512 1.222L6.246.119c.136-.136.34-.136.475 0l1.154 1.154L10.387.051c.136-.068.272-.068.34 0 .136.136.136.271.068.407L9.437 3.174c0 .136-.136.204-.272.204H3.734c-.136 0-.272-.068-.272-.204L2.105.458c-.068-.136-.136-.34 0-.407z" transform="translate(-1264 -220) translate(1159 184) translate(105 36)"/>
                </g>
            </g>
        </g>
    </g>
</svg>
