<?xml version="1.0" encoding="UTF-8"?>
<svg width="23px" height="30px" viewBox="0 0 23 30" version="1.1" xmlns="http://www.w3.org/2000/svg" xmlns:xlink="http://www.w3.org/1999/xlink">
    <title>82B4CC6C-12D7-40BA-8DEA-1C24AB12332E</title>
    <g id="Page-1" stroke="none" stroke-width="1" fill="none" fill-rule="evenodd">
        <g id="Dashboard_full_distance_price_info" transform="translate(-822.000000, -1349.000000)" fill="#FFFFFF" fill-rule="nonzero">
            <g id="Group-33" transform="translate(172.000000, 766.000000)">
                <g id="Group-23" transform="translate(43.000000, 557.000000)">
                    <g id="Group-29-Copy" transform="translate(596.000000, 18.000000)">
                        <path d="M22.4950004,8 C23.3637804,8 24.3862304,9.20032004 25.0759304,10.1804201 C26.0100505,9.56090005 27.9436305,8.38478001 29.1596806,8.38478001 C29.7162806,8.38478001 30.0381406,8.61589002 30.2087506,8.80949003 C30.4834206,9.12046004 30.6080506,9.52460005 30.5681206,9.97835006 C30.4298576,11.5688047 28.0919014,13.8961473 26.5607087,15.2611893 L27.3350005,15.2600002 C27.6689605,15.2600002 27.9400005,15.5310402 27.9400005,15.8650002 C27.9400005,16.1989603 27.6689605,16.4700003 27.3350005,16.4700003 L26.3158376,16.4693857 C28.6327868,18.9754863 33.9900007,25.0826737 33.9900007,27.9650006 C33.9900007,32.9695608 28.8329806,37.0400009 22.4950004,37.0400009 C16.1570202,37.0400009 11,32.9695608 11,27.9650006 C11,25.0826737 16.3572139,18.9754863 18.6741632,16.4693857 L17.6550002,16.4700003 C17.3210402,16.4700003 17.0500002,16.1989603 17.0500002,15.8650002 C17.0500002,15.5310402 17.3210402,15.2600002 17.6550002,15.2600002 L18.429292,15.2616515 C16.8980993,13.8962492 14.5601432,11.5691559 14.4218801,9.97956006 C14.3819501,9.52460005 14.5065801,9.12046004 14.7812501,8.80949003 C14.9518601,8.61589002 15.2725101,8.38478001 15.8303202,8.38478001 C17.0463702,8.38478001 18.9799503,9.56090005 19.9140703,10.1804201 C20.6037703,9.20032004 21.6262203,8 22.4950004,8 Z M24.6572704,16.4700003 L20.3327303,16.4700003 C17.9091002,19.0085803 12.21,25.5014406 12.21,27.9650006 C12.21,32.3016408 16.8237302,35.8300009 22.4950004,35.8300009 C28.1662705,35.8300009 32.7800007,32.3016408 32.7800007,27.9650006 C32.7800007,25.5014406 27.0809005,19.0085803 24.6572704,16.4700003 Z M22.4950004,22.5200005 C22.8289604,22.5200005 23.1000004,22.7910405 23.1000004,23.1250005 L23.1004978,23.7764978 C24.4241469,23.983805 25.422663,24.8629943 25.5175805,25.9830206 C25.5454105,26.3157706 25.2985705,26.6085906 24.9658204,26.6364206 C24.6427504,26.6787706 24.3402504,26.4174106 24.3124204,26.0846606 C24.2709911,25.5931577 23.7686939,25.1734594 23.1008713,25.0114373 L23.1007255,27.4759216 C24.7339268,27.8756973 25.5200005,28.6437236 25.5200005,29.7800007 C25.5200005,30.9484412 24.4794344,31.925833 23.1006282,32.1511275 L23.1000004,32.8050008 C23.1000004,33.1389608 22.8289604,33.4100008 22.4950004,33.4100008 C22.1610404,33.4100008 21.8900003,33.1389608 21.8900003,32.8050008 L21.8904578,32.153609 C20.5660898,31.9463716 19.5663069,31.0662361 19.4724203,29.9469807 C19.4445903,29.6142307 19.6914303,29.3214107 20.0241803,29.2935807 C20.3617703,29.2609107 20.6497503,29.5125907 20.6775803,29.8453407 C20.719035,30.3371439 21.2219209,30.7570548 21.8897827,30.9188607 L21.8900084,28.454765 C20.2554198,28.0546755 19.4700003,27.2858048 19.4700003,26.1500006 C19.4700003,24.981276 20.5110723,24.003693 21.8903783,23.7787096 L21.8900003,23.1250005 C21.8900003,22.7910405 22.1610404,22.5200005 22.4950004,22.5200005 Z M23.1004252,28.7185649 L23.1003153,30.9175265 C23.7967827,30.7467917 24.3087904,30.294698 24.3087904,29.7800007 C24.3087904,29.2947446 23.9214478,28.9516776 23.1004252,28.7185649 Z M20.6800003,26.1500006 C20.6800003,26.6352566 21.0681601,26.9783237 21.8901455,27.2114363 L21.890448,25.0119921 C21.192975,25.1823562 20.6800003,25.6348175 20.6800003,26.1500006 Z M22.4768504,9.20879004 C22.1864504,9.26808004 21.2668503,10.2905301 20.5807803,11.3529101 C20.4912403,11.4920601 20.3484603,11.5876501 20.1851103,11.6191101 C20.0241803,11.6493601 19.8572003,11.6130601 19.7216803,11.5162601 C18.6859202,10.7733201 16.7124102,9.59478005 15.8303202,9.59478005 C15.7371501,9.59478005 15.6911701,9.61051005 15.6814901,9.61656005 C15.6657601,9.63713005 15.6125201,9.69763005 15.6270401,9.87429006 C15.7371501,11.1363201 18.4765902,13.7850102 20.2879603,15.2600002 L24.7008304,15.2600002 C26.5134105,13.7850102 29.2516406,11.1363201 29.3617506,9.87429006 C29.3748589,9.72707339 29.3392311,9.66052339 29.3136867,9.62702431 L29.3000406,9.61051005 C29.2964106,9.61051005 29.2492206,9.59478005 29.1584706,9.59478005 C28.2763805,9.59478005 26.3028705,10.7733201 25.2659004,11.5162601 C25.1303804,11.6130601 24.9646104,11.6481501 24.8000504,11.6191101 C24.6379104,11.5888601 24.4951304,11.4920601 24.4043804,11.3529101 C23.7171004,10.2905301 22.7975004,9.26808004 22.4768504,9.20879004 Z" id="Combined-Shape"></path>
                    </g>
                </g>
            </g>
        </g>
    </g>
</svg>