<?xml version="1.0" encoding="UTF-8"?>
<svg width="31px" height="30px" viewBox="0 0 31 30" version="1.1" xmlns="http://www.w3.org/2000/svg" xmlns:xlink="http://www.w3.org/1999/xlink">
    <title>ABB71330-F388-434E-A227-9E954A435451</title>
    <g id="Page-1" stroke="none" stroke-width="1" fill="none" fill-rule="evenodd">
        <g id="Dashboard_full_distance_price_info" transform="translate(-590.000000, -1349.000000)" fill="#FFFFFF" fill-rule="nonzero">
            <g id="Group-33" transform="translate(172.000000, 766.000000)">
                <g id="Group-23" transform="translate(43.000000, 557.000000)">
                    <g id="Group-29-Copy" transform="translate(368.000000, 18.000000)">
                        <path d="M36.5199993,35.5988594 C37.1827079,35.5988594 37.7199393,36.1360908 37.7199393,36.7987994 C37.7199393,37.4615079 37.1827079,37.9987393 36.5199993,37.9987393 C35.8572908,37.9987393 35.3200594,37.4615079 35.3200594,36.7987994 C35.3200594,36.1360908 35.8572908,35.5988594 36.5199993,35.5988594 Z M32.3201794,35.5988594 C32.982888,35.5988594 33.5201194,36.1360908 33.5201194,36.7987994 C33.5201194,37.4615079 32.982888,37.9987393 32.3201794,37.9987393 C31.6574709,37.9987393 31.1202395,37.4615079 31.1202395,36.7987994 C31.1202395,36.1360908 31.6574709,35.5988594 32.3201794,35.5988594 Z M28.1203595,35.5988594 C28.7830681,35.5988594 29.3202995,36.1360908 29.3202995,36.7987994 C29.3202995,37.4615079 28.7830681,37.9987393 28.1203595,37.9987393 C27.457651,37.9987393 26.9204196,37.4615079 26.9204196,36.7987994 C26.9204196,36.1360908 27.457651,35.5988594 28.1203595,35.5988594 Z M23.9204796,35.5988594 C24.5831882,35.5988594 25.1204196,36.1360908 25.1204196,36.7987994 C25.1204196,37.4615079 24.5831882,37.9987393 23.9204796,37.9987393 C23.2577711,37.9987393 22.7205396,37.4615079 22.7205396,36.7987994 C22.7205396,36.1360908 23.2577711,35.5988594 23.9204796,35.5988594 Z M19.7206597,35.5988594 C20.3833683,35.5988594 20.9205997,36.1360908 20.9205997,36.7987994 C20.9205997,37.4615079 20.3833683,37.9987393 19.7206597,37.9987393 C19.0579512,37.9987393 18.5207197,37.4615079 18.5207197,36.7987994 C18.5207197,36.1360908 19.0579512,35.5988594 19.7206597,35.5988594 Z M15.5208398,35.5988594 C16.1835484,35.5988594 16.7207798,36.1360908 16.7207798,36.7987994 C16.7207798,37.4615079 16.1835484,37.9987393 15.5208398,37.9987393 C14.8581313,37.9987393 14.3208998,37.4615079 14.3208998,36.7987994 C14.3208998,36.1360908 14.8581313,35.5988594 15.5208398,35.5988594 Z M36.5199993,31.4589795 C37.1827079,31.4589795 37.7199393,31.9962109 37.7199393,32.6589194 C37.7199393,33.321628 37.1827079,33.8588594 36.5199993,33.8588594 C35.8572908,33.8588594 35.3200594,33.321628 35.3200594,32.6589194 C35.3200594,31.9962109 35.8572908,31.4589795 36.5199993,31.4589795 Z M15.5208398,31.4589795 C16.1835484,31.4589795 16.7207798,31.9962109 16.7207798,32.6589194 C16.7207798,33.321628 16.1835484,33.8588594 15.5208398,33.8588594 C14.8581313,33.8588594 14.3208998,33.321628 14.3208998,32.6589194 C14.3208998,31.9962109 14.8581313,31.4589795 15.5208398,31.4589795 Z M36.5199993,27.3191596 C37.1827079,27.3191596 37.7199393,27.856391 37.7199393,28.5190995 C37.7199393,29.1818081 37.1827079,29.7190395 36.5199993,29.7190395 C35.8572908,29.7190395 35.3200594,29.1818081 35.3200594,28.5190995 C35.3200594,27.856391 35.8572908,27.3191596 36.5199993,27.3191596 Z M32.3201794,27.3191596 C32.982888,27.3191596 33.5201194,27.856391 33.5201194,28.5190995 C33.5201194,29.1818081 32.982888,29.7190395 32.3201794,29.7190395 C31.6574709,29.7190395 31.1202395,29.1818081 31.1202395,28.5190995 C31.1202395,27.856391 31.6574709,27.3191596 32.3201794,27.3191596 Z M28.1203595,27.3191596 C28.7830681,27.3191596 29.3202995,27.856391 29.3202995,28.5190995 C29.3202995,29.1818081 28.7830681,29.7190395 28.1203595,29.7190395 C27.457651,29.7190395 26.9204196,29.1818081 26.9204196,28.5190995 C26.9204196,27.856391 27.457651,27.3191596 28.1203595,27.3191596 Z M15.3996398,8.77705998 C20.0312197,8.77705998 23.7992196,12.5432599 23.7992196,17.1726198 L23.7992196,17.1726198 L23.7992196,17.3929998 C23.7992196,19.7215997 22.4886997,22.4060597 19.9040197,25.3717996 C18.0563798,27.4919596 16.2302798,28.9736595 16.1534198,29.0356995 L16.1534198,29.0356995 L15.3996398,29.6444595 L14.6457398,29.0356995 C14.5688798,28.9737195 12.7428399,27.4919596 10.8951399,25.3717996 C8.31051997,22.4060597 7,19.7215397 7,17.3929998 L7,17.3929998 L7,17.1726198 C7,12.5432599 10.7680599,8.77705998 15.3996398,8.77705998 Z M15.3996398,11.1769399 C12.0913599,11.1769399 9.39987995,13.8665599 9.39987995,17.1726198 L9.39987995,17.1726198 L9.39987995,17.3929998 C9.39987995,19.1006598 10.5425799,21.3144797 12.7044399,23.7950596 C13.7201798,24.9605596 14.7393398,25.9262596 15.4035398,26.5215196 C17.5841198,24.5758996 21.3993997,20.5221797 21.3993997,17.3929998 L21.3993997,17.3929998 L21.3993997,17.1726198 C21.3993997,13.8665599 18.7079197,11.1769399 15.3996398,11.1769399 Z M28.1203595,23.1793397 C28.7830681,23.1793397 29.3202995,23.7165711 29.3202995,24.3792796 C29.3202995,25.0419882 28.7830681,25.5792196 28.1203595,25.5792196 C27.457651,25.5792196 26.9204196,25.0419882 26.9204196,24.3792796 C26.9204196,23.7165711 27.457651,23.1793397 28.1203595,23.1793397 Z M28.1203595,19.0395198 C28.7830681,19.0395198 29.3202995,19.5767512 29.3202995,20.2394597 C29.3202995,20.9021683 28.7830681,21.4393997 28.1203595,21.4393997 C27.457651,21.4393997 26.9204196,20.9021683 26.9204196,20.2394597 C26.9204196,19.5767512 27.457651,19.0395198 28.1203595,19.0395198 Z M32.3201794,19.0395198 C32.982888,19.0395198 33.5201194,19.5767512 33.5201194,20.2394597 C33.5201194,20.9021683 32.982888,21.4393997 32.3201794,21.4393997 C31.6574709,21.4393997 31.1202395,20.9021683 31.1202395,20.2394597 C31.1202395,19.5767512 31.6574709,19.0395198 32.3201794,19.0395198 Z M15.3996398,13.6948399 C17.3846198,13.6948399 18.9995197,15.3097998 18.9995197,17.2947198 C18.9995197,19.2796397 17.3846198,20.8945397 15.3996398,20.8945397 C13.4146599,20.8945397 11.7997599,19.2796997 11.7997599,17.2947198 C11.7997599,15.3097398 13.4146599,13.6948399 15.3996398,13.6948399 Z M15.3996398,16.0947798 C14.7380198,16.0947798 14.1996998,16.6330398 14.1996998,17.2947198 C14.1996998,17.9563398 14.7379598,18.4946598 15.3996398,18.4946598 C16.0613198,18.4946598 16.5995798,17.9563398 16.5995798,17.2947198 C16.5995798,16.6330998 16.0612598,16.0947798 15.3996398,16.0947798 Z M32.3202394,8 C34.6359994,8 36.5201193,9.88555996 36.5201193,12.2031799 L36.5201193,12.2031799 L36.5201193,12.2951599 C36.5201193,13.4403799 35.9163394,14.7150798 34.7255194,16.0837998 C33.9158794,17.0143398 33.1088794,17.6702598 33.0749194,17.6977398 L33.0749194,17.6977398 L32.3202394,18.3081198 L31.5656195,17.6977398 C31.5316595,17.6702598 30.7246595,17.0143398 29.9150195,16.0837998 C28.7241995,14.7150798 28.1204195,13.4404399 28.1204195,12.2951599 L28.1204195,12.2951599 L28.1204195,12.2031799 C28.1204195,9.88555996 30.0044795,8 32.3202394,8 Z M32.3201794,10.3998799 C31.3276595,10.3998799 30.5202395,11.2088599 30.5202395,12.2031799 L30.5202395,12.2031799 L30.5202395,12.2951599 C30.5202395,13.0705999 31.4313395,14.2628599 32.3207794,15.1489398 C33.2196394,14.2572199 34.1201194,13.0773199 34.1201194,12.2951599 L34.1201194,12.2951599 L34.1201194,12.2031799 C34.1201194,11.2087999 33.3126394,10.3998799 32.3201794,10.3998799 Z" id="Combined-Shape"></path>
                    </g>
                </g>
            </g>
        </g>
    </g>
</svg>