<?xml version="1.0" encoding="UTF-8"?>
<svg width="16px" height="15px" viewBox="0 0 16 15" version="1.1" xmlns="http://www.w3.org/2000/svg" xmlns:xlink="http://www.w3.org/1999/xlink">
    <title>My_wallet_fouces</title>
    <g id="Page-1" stroke="none" stroke-width="1" fill="none" fill-rule="evenodd">
        <path d="M8.69634436,0.988631328 C9.22066359,0.70263902 9.87177248,0.627084734 10.4658672,0.771205844 L10.661535,0.827395011 L10.8548809,0.905205907 C11.2951368,1.10038419 11.657519,1.39014238 11.9067124,1.75858889 L12.0064766,1.92126586 L12.185,2.312 L12.3513755,2.32622385 C13.9329055,2.49961772 15.1165732,3.73293623 15.2805381,5.34547356 L15.2952795,5.54075472 L15.3,5.732 L15.3,12.2186667 C15.3,13.4426785 14.3271456,14.4819755 13.1482128,14.5664586 L12.9933333,14.572 L3.00666667,14.572 C1.78255341,14.572 0.786208154,13.6419069 0.70530458,12.466631 L0.7,12.312 L0.7,5.91866667 C0.7,4.00723909 2.08220813,2.45838631 3.84920847,2.35725327 L4.03333333,2.352 L6.13333333,2.352 L6.16,2.354 L8.69634436,0.988631328 Z M12.9,5.23866667 L3.1,5.23866667 C2.40751701,5.23866667 1.84156463,5.71009649 1.77352559,6.31033613 L1.76666667,6.432 L1.76666667,12.312 C1.76666667,12.9441699 2.26385112,13.480865 2.88161727,13.5454825 L3.00666667,13.552 L12.9933333,13.552 C13.5929057,13.552 14.1581236,13.0027148 14.2264338,12.3504866 L14.2333334,12.2188006 L14.234,11.772 L12.4333333,11.772 C11.2012181,11.772 10.1264904,10.7486104 10.0390688,9.53174991 L10.0333333,9.372 C10.0333333,8.1398848 11.0567229,7.06515707 12.2735834,6.97773551 L12.4333333,6.972 L14.234,6.972 L14.2333333,6.33866667 C14.2333333,5.74479258 13.7032817,5.29763553 13.0353158,5.24406072 L12.9,5.23866667 Z M14.234,8.038 L12.4333333,8.03866667 C11.7986843,8.03866667 11.1775845,8.62243415 11.10671,9.25329311 L11.1,9.372 C11.1,10.006649 11.6837675,10.6277488 12.3146264,10.6986233 L12.4333333,10.7053333 L14.234,10.705 L14.234,8.038 Z M12.4333333,8.372 C12.9723521,8.372 13.4333333,8.83298124 13.4333333,9.372 C13.4333333,9.91101876 12.9723521,10.372 12.4333333,10.372 C11.8943146,10.372 11.4333333,9.91101876 11.4333333,9.372 C11.4333333,8.83298124 11.8943146,8.372 12.4333333,8.372 Z M12.747,3.551 L13.053,4.224 L13.1040871,4.22637876 C13.3064983,4.24173314 13.503461,4.27980501 13.6911857,4.33870985 L13.826,4.386 L13.7508613,4.28138806 C13.517973,3.97602671 13.2111987,3.73894329 12.8544116,3.59125172 L12.747,3.551 Z M4.269,3.372 L4.03333333,3.372 C3.31306912,3.372 2.67571979,3.71607109 2.26154351,4.28298858 L2.196,4.379 L2.32181613,4.33505418 C2.38408438,4.3157597 2.4473902,4.29876819 2.51159848,4.2841542 L2.62,4.263 L2.63106823,4.25454427 L4.269,3.372 Z M9.16083075,1.89366149 L4.845,4.218 L7.052,4.217 L7.06091703,4.20978436 L10.824,2.118 L10.7976978,2.09264899 C10.7039714,2.00981403 10.5843842,1.93655222 10.4427025,1.87580907 L10.2937956,1.81934789 C9.91009437,1.70423751 9.47431124,1.73692124 9.16083075,1.89366149 Z M11.322,3.078 L9.27,4.218 L11.84,4.218 L11.322,3.078 Z" id="My_wallet_fouces" fill="#30D9C4" fill-rule="nonzero"></path>
    </g>
</svg>