<?xml version="1.0" encoding="UTF-8"?>
<svg width="16px" height="15px" viewBox="0 0 16 15" version="1.1" xmlns="http://www.w3.org/2000/svg" xmlns:xlink="http://www.w3.org/1999/xlink">
    <title>My_wallet</title>
    <g id="Page-1" stroke="none" stroke-width="1" fill="none" fill-rule="evenodd" fill-opacity="0.472394" stroke-opacity="0.47">
        <path d="M10.5666667,1.112 C11.08,1.29866667 11.5,1.62533333 11.7333333,2.04533333 L11.988,2.606 L12.1500191,2.61046939 C13.785,2.70253571 15,4.022 15,5.732 L15,6.33866667 L14.9996343,6.35015587 C14.9998777,6.36185659 15,6.37358273 15,6.38533333 L15,12.2186667 C15,13.3386667 14.0666667,14.272 12.9933333,14.272 L3.00666667,14.272 C1.88666667,14.272 1,13.3853333 1,12.312 L1,5.91866667 C1,4.09866667 2.35333333,2.652 4.03333333,2.652 L6.13333333,2.652 C6.16321637,2.652 6.19097323,2.65625236 6.21615008,2.66430325 L8.84,1.252 C9.35333333,0.972 10.0066667,0.925333333 10.5666667,1.112 Z M12.9,4.93866667 L3.1,4.93866667 C2.21333333,4.93866667 1.46666667,5.592 1.46666667,6.432 L1.46666667,12.312 C1.46666667,13.152 2.16666667,13.852 3.00666667,13.852 L12.9933333,13.852 C13.7866667,13.852 14.5333333,13.1053333 14.5333333,12.2186667 L14.533,11.472 L12.4333333,11.472 C11.3133333,11.472 10.3333333,10.492 10.3333333,9.372 C10.3333333,8.252 11.3133333,7.272 12.4333333,7.272 L14.533,7.272 L14.5333333,6.33866667 C14.5333333,5.452 13.6933333,4.93866667 12.9,4.93866667 Z M14.5333333,7.73866667 L12.4333333,7.73866667 C11.5933333,7.73866667 10.8,8.532 10.8,9.372 C10.8,10.212 11.5933333,11.0053333 12.4333333,11.0053333 L14.5333333,11.0053333 L14.5333333,7.73866667 Z M12.4333333,8.672 C12.8066667,8.672 13.1333333,8.99866667 13.1333333,9.372 C13.1333333,9.74533333 12.8066667,10.072 12.4333333,10.072 C12.06,10.072 11.7333333,9.74533333 11.7333333,9.372 C11.7333333,8.99866667 12.06,8.672 12.4333333,8.672 Z M12.4333333,9.13866667 C12.2933333,9.13866667 12.2,9.232 12.2,9.372 C12.2,9.512 12.2933333,9.60533333 12.4333333,9.60533333 C12.5733333,9.60533333 12.6666667,9.512 12.6666667,9.372 C12.6666667,9.232 12.5733333,9.13866667 12.4333333,9.13866667 Z M12.2266481,3.13092152 L12.856,4.518 L12.9,4.51866667 C13.5241667,4.51866667 14.0815475,4.75909567 14.4649512,5.13990849 C14.2217026,4.02388877 13.3425879,3.23707564 12.2266481,3.13092152 Z M5.461,3.071 L4.03333333,3.072 C2.8227195,3.072 1.84086517,3.92167813 1.5526785,5.1287787 C1.8613749,4.82493328 2.27862739,4.61440299 2.75086902,4.5442642 C2.75717445,4.53555696 2.76507104,4.52692896 2.77333333,4.51866667 L5.461,3.071 Z M9.02666667,1.62533333 L3.654,4.518 L7.16719312,4.51788842 C7.17914163,4.50171941 7.19235556,4.48631111 7.20666667,4.472 L11.26,2.219 L11.205599,2.113875 C11.0435417,1.84845833 10.7475,1.6545 10.38,1.532 C9.91333333,1.392 9.4,1.43866667 9.02666667,1.62533333 Z M11.46,2.658 L8.112,4.518 L12.306,4.518 L11.46,2.658 Z" id="My_wallet" stroke="#7196B1" stroke-width="0.7" fill="#7196B1"></path>
    </g>
</svg>