<svg xmlns="http://www.w3.org/2000/svg" width="32" height="30" viewBox="0 0 32 30">
    <g fill="none" fill-opacity=".472" fill-rule="evenodd" stroke-opacity=".47">
        <g fill="#7196B1" stroke="#7196B1" stroke-width=".7">
            <g>
                <g>
                    <path d="M20.5.24c1.1.4 2 1.1 2.5 2l.545 1.201.19.003C27.318 3.564 30 6.42 30 10.14v13.9c0 2.4-2 4.4-4.3 4.4H4.3c-2.4 0-4.3-1.9-4.3-4.2v-13.7c0-3.9 2.9-7 6.5-7H11c.064 0 .124.01.178.027L16.8.54c1.1-.6 2.5-.7 3.7-.3zm5 8.2h-21c-1.9 0-3.5 1.4-3.5 3.2v12.6c0 1.8 1.5 3.3 3.3 3.3h21.4c1.7 0 3.3-1.6 3.3-3.5v-1.6h-4.5c-2.4 0-4.5-2.1-4.5-4.5s2.1-4.5 4.5-4.5H29v-2c0-1.9-1.8-3-3.5-3zm3.5 6h-4.5c-1.8 0-3.5 1.7-3.5 3.5s1.7 3.5 3.5 3.5H29v-7zm-4.5 2c.8 0 1.5.7 1.5 1.5s-.7 1.5-1.5 1.5-1.5-.7-1.5-1.5.7-1.5 1.5-1.5zm0 1c-.3 0-.5.2-.5.5s.2.5.5.5.5-.2.5-.5-.2-.5-.5-.5zm-.442-12.874l1.35 2.974h.092c1.34 0 2.535.516 3.356 1.334-.522-2.392-2.406-4.08-4.798-4.308zm-14.5-.127L6.5 4.44c-2.595 0-4.7 1.822-5.316 4.41.66-.653 1.554-1.104 2.566-1.255.015-.019.032-.037.05-.055l5.758-3.101zM17.2 1.34L5.685 7.54h7.53c.025-.035.054-.069.085-.1l8.686-4.826-.062-.132c-.333-.618-.993-1.065-1.824-1.342-1-.3-2.1-.2-2.9.2zm5.214 2.214L15.239 7.54h8.987l-1.812-3.986z" transform="translate(-163 -672) translate(114 629) translate(50 44)"/>
                </g>
            </g>
        </g>
    </g>
</svg>
