<svg xmlns="http://www.w3.org/2000/svg" width="29.2" height="29.27" viewBox="0 0 29.2 29.27">
  <g id="Group_9" data-name="Group 9" transform="translate(-278.525 -356.737)">
    <g id="Group_8" data-name="Group 8" transform="translate(278.525 356.737)">
      <circle id="Ellipse_2" data-name="Ellipse 2" cx="14.6" cy="14.6" r="14.6" fill="#ff865f"/>
      <g id="Group_7" data-name="Group 7" transform="translate(4.023 7.617)">
        <g id="Group_6" data-name="Group 6">
          <g id="Group_5" data-name="Group 5">
            <g id="Group_4" data-name="Group 4">
              <g id="Group_3" data-name="Group 3">
                <g id="Group_2" data-name="Group 2">
                  <path id="Path_2" data-name="Path 2" d="M293.431,371.9v-3.1l1.1-1.016a3.619,3.619,0,0,0,1.06-1.8l.012,0,.147,0a.514.514,0,0,0,.52-.5v-1.365a.514.514,0,0,0-.52-.508H295.7v-2.715a3.688,3.688,0,0,0-3.723-3.648h-2.62a3.684,3.684,0,0,0-3.719,3.648V363.6a.514.514,0,0,0-.52.508v1.365a.517.517,0,0,0,.52.508h.075a3.632,3.632,0,0,0,.917,1.766l.98,1.04v3.152c-2.54.746-6.045,1.778-8.07,2.39a14.865,14.865,0,0,0,21.474-.048Z" transform="translate(-279.538 -357.235)" fill="#fff"/>
                </g>
              </g>
            </g>
          </g>
        </g>
      </g>
    </g>
  </g>
</svg>
