<?xml version="1.0" encoding="UTF-8"?>
<svg width="14px" height="15px" viewBox="0 0 14 15" version="1.1" xmlns="http://www.w3.org/2000/svg" xmlns:xlink="http://www.w3.org/1999/xlink">
    <title>order</title>
    <g id="Page-1" stroke="none" stroke-width="1" fill="none" fill-rule="evenodd" fill-opacity="0.472394">
        <g id="Dashboard_Bulk_Upload" transform="translate(-140.000000, -464.000000)" fill="#7196B1">
            <path d="M153.018086,464 C153.244482,464 153.428025,464.196423 153.428025,464.438704 L153.428025,464.438704 L153.428025,473.647252 C153.788225,474.196334 154,474.864627 154,475.584979 C154,477.449004 152.582922,478.965517 150.841117,478.965517 C149.861444,478.965517 148.98453,478.48578 148.404657,477.734338 L148.404657,477.734338 L140.409939,477.734338 C140.183543,477.734338 140,477.537915 140,477.295633 L140,477.295633 L140,464.438704 C140,464.196423 140.183543,464 140.409939,464 L140.409939,464 Z M150.84109,473.081792 C149.551366,473.081792 148.502058,474.204728 148.502058,475.58495 C148.502058,476.965172 149.551366,478.08808 150.84109,478.08808 C152.130814,478.08808 153.180094,476.965172 153.180094,475.58495 C153.180094,474.204728 152.130814,473.081792 150.84109,473.081792 Z M150.431657,474.079601 C150.449648,473.528439 151.220338,473.483335 151.251528,474.079601 L151.251528,474.079601 L151.251528,475.146105 L152.248104,475.146105 C152.474493,475.146126 152.658039,475.342552 152.658039,475.584806 C152.658058,475.827121 152.474512,476.023547 152.248104,476.023506 L152.248104,476.023506 L151.251528,476.023506 L151.251528,477.09001 C151.237208,477.638607 150.458905,477.68822 150.431657,477.09001 L150.431657,477.09001 L150.431657,476.023506 L149.435081,476.023506 C148.894008,475.993084 148.900057,475.17146 149.435081,475.146105 L149.435081,475.146105 L150.431657,475.146105 Z M144.792299,467.850858 L140.819879,467.850858 L140.819879,476.8569 L147.914534,476.8569 C147.764906,476.464055 147.682207,476.034681 147.682207,475.58495 C147.682207,473.720925 149.099313,472.204383 150.841117,472.204383 C151.495216,472.204383 152.103512,472.418295 152.608174,472.784116 L152.608174,472.784116 L152.608174,467.850858 L148.581669,467.850858 L148.581669,469.651183 C148.581669,469.893465 148.398125,470.089887 148.171729,470.089887 L148.171729,470.089887 L145.202239,470.089887 C144.975843,470.089887 144.792299,469.893465 144.792299,469.651183 L144.792299,469.651183 L144.792299,467.850858 Z M145.692635,472.862615 C145.919031,472.862615 146.102575,473.059038 146.102575,473.301319 L146.102575,473.301319 L146.102575,475.525842 C146.102575,475.768124 145.919031,475.964546 145.692635,475.964546 L145.692635,475.964546 L142.044832,475.964546 C141.818436,475.964546 141.634892,475.768124 141.634892,475.525842 L141.634892,475.525842 L141.634892,473.301319 C141.634892,473.059038 141.818436,472.862615 142.044832,472.862615 L142.044832,472.862615 Z M145.282696,473.740023 L142.454771,473.740023 L142.454771,475.087138 L145.282696,475.087138 L145.282696,473.740023 Z M142.058496,471.146755 C142.284892,471.146755 142.468436,471.343178 142.468436,471.585459 C142.468436,471.827741 142.284892,472.024164 142.058496,472.024164 L142.058496,472.024164 L142.044832,472.024164 C141.818436,472.024164 141.634892,471.827741 141.634892,471.585459 C141.634892,471.343178 141.818436,471.146755 142.044832,471.146755 L142.044832,471.146755 Z M143.27771,471.146755 C143.504106,471.146755 143.68765,471.343178 143.68765,471.585459 C143.68765,471.827741 143.504106,472.024164 143.27771,472.024164 L143.27771,472.024164 L143.247976,472.024164 C143.02158,472.024164 142.838037,471.827741 142.838037,471.585459 C142.838037,471.343178 143.02158,471.146755 143.247976,471.146755 L143.247976,471.146755 Z M144.496952,471.146755 C144.723348,471.146755 144.906891,471.343178 144.906891,471.585459 C144.906891,471.827741 144.723348,472.024164 144.496952,472.024164 L144.496952,472.024164 L144.467218,472.024164 C144.240822,472.024164 144.057278,471.827741 144.057278,471.585459 C144.057278,471.343178 144.240822,471.146755 144.467218,471.146755 L144.467218,471.146755 Z M145.700124,471.146755 C145.926519,471.146755 146.110063,471.343178 146.110063,471.585459 C146.110063,471.827741 145.926519,472.024164 145.700124,472.024164 L145.700124,472.024164 L145.686459,472.024164 C145.460063,472.024164 145.27652,471.827741 145.27652,471.585459 C145.27652,471.343178 145.460063,471.146755 145.686459,471.146755 L145.686459,471.146755 Z M147.76179,467.850858 L145.612178,467.850858 L145.612178,469.212479 L147.76179,469.212479 L147.76179,467.850858 Z M152.608147,464.877408 L148.581641,464.877408 L148.581641,466.973449 L152.608147,466.973449 L152.608147,464.877408 Z M147.761763,464.877408 L145.612151,464.877408 L145.612151,466.973449 L147.761763,466.973449 L147.761763,464.877408 Z M144.792299,464.877408 L140.819879,464.877408 L140.819879,466.973449 L144.792299,466.973449 L144.792299,464.877408 Z" id="order"></path>
        </g>
    </g>
</svg>