<?xml version="1.0" encoding="UTF-8"?>
<svg width="14px" height="15px" viewBox="0 0 14 15" version="1.1" xmlns="http://www.w3.org/2000/svg" xmlns:xlink="http://www.w3.org/1999/xlink">
    <title>order</title>
    <g id="Page-1" stroke="none" stroke-width="1" fill="none" fill-rule="evenodd">
        <g id="Dashboard_Bulk_Upload_menu_hover" transform="translate(-141.000000, -464.000000)" fill="#30D9C4" fill-rule="nonzero">
            <path d="M154.018086,464 C154.244482,464 154.428025,464.196423 154.428025,464.438704 L154.428025,464.438704 L154.428025,473.647252 C154.788225,474.196334 155,474.864627 155,475.584979 C155,477.449004 153.582922,478.965517 151.841117,478.965517 C150.861444,478.965517 149.98453,478.48578 149.404657,477.734338 L149.404657,477.734338 L141.409939,477.734338 C141.183543,477.734338 141,477.537915 141,477.295633 L141,477.295633 L141,464.438704 C141,464.196423 141.183543,464 141.409939,464 L141.409939,464 Z M151.84109,473.081792 C150.551366,473.081792 149.502058,474.204728 149.502058,475.58495 C149.502058,476.965172 150.551366,478.08808 151.84109,478.08808 C153.130814,478.08808 154.180094,476.965172 154.180094,475.58495 C154.180094,474.204728 153.130814,473.081792 151.84109,473.081792 Z M151.431657,474.079601 C151.449648,473.528439 152.220338,473.483335 152.251528,474.079601 L152.251528,474.079601 L152.251528,475.146105 L153.248104,475.146105 C153.474493,475.146126 153.658039,475.342552 153.658039,475.584806 C153.658058,475.827121 153.474512,476.023547 153.248104,476.023506 L153.248104,476.023506 L152.251528,476.023506 L152.251528,477.09001 C152.237208,477.638607 151.458905,477.68822 151.431657,477.09001 L151.431657,477.09001 L151.431657,476.023506 L150.435081,476.023506 C149.894008,475.993084 149.900057,475.17146 150.435081,475.146105 L150.435081,475.146105 L151.431657,475.146105 Z M145.792299,467.850858 L141.819879,467.850858 L141.819879,476.8569 L148.914534,476.8569 C148.764906,476.464055 148.682207,476.034681 148.682207,475.58495 C148.682207,473.720925 150.099313,472.204383 151.841117,472.204383 C152.495216,472.204383 153.103512,472.418295 153.608174,472.784116 L153.608174,472.784116 L153.608174,467.850858 L149.581669,467.850858 L149.581669,469.651183 C149.581669,469.893465 149.398125,470.089887 149.171729,470.089887 L149.171729,470.089887 L146.202239,470.089887 C145.975843,470.089887 145.792299,469.893465 145.792299,469.651183 L145.792299,469.651183 L145.792299,467.850858 Z M146.692635,472.862615 C146.919031,472.862615 147.102575,473.059038 147.102575,473.301319 L147.102575,473.301319 L147.102575,475.525842 C147.102575,475.768124 146.919031,475.964546 146.692635,475.964546 L146.692635,475.964546 L143.044832,475.964546 C142.818436,475.964546 142.634892,475.768124 142.634892,475.525842 L142.634892,475.525842 L142.634892,473.301319 C142.634892,473.059038 142.818436,472.862615 143.044832,472.862615 L143.044832,472.862615 Z M146.282696,473.740023 L143.454771,473.740023 L143.454771,475.087138 L146.282696,475.087138 L146.282696,473.740023 Z M143.058496,471.146755 C143.284892,471.146755 143.468436,471.343178 143.468436,471.585459 C143.468436,471.827741 143.284892,472.024164 143.058496,472.024164 L143.058496,472.024164 L143.044832,472.024164 C142.818436,472.024164 142.634892,471.827741 142.634892,471.585459 C142.634892,471.343178 142.818436,471.146755 143.044832,471.146755 L143.044832,471.146755 Z M144.27771,471.146755 C144.504106,471.146755 144.68765,471.343178 144.68765,471.585459 C144.68765,471.827741 144.504106,472.024164 144.27771,472.024164 L144.27771,472.024164 L144.247976,472.024164 C144.02158,472.024164 143.838037,471.827741 143.838037,471.585459 C143.838037,471.343178 144.02158,471.146755 144.247976,471.146755 L144.247976,471.146755 Z M145.496952,471.146755 C145.723348,471.146755 145.906891,471.343178 145.906891,471.585459 C145.906891,471.827741 145.723348,472.024164 145.496952,472.024164 L145.496952,472.024164 L145.467218,472.024164 C145.240822,472.024164 145.057278,471.827741 145.057278,471.585459 C145.057278,471.343178 145.240822,471.146755 145.467218,471.146755 L145.467218,471.146755 Z M146.700124,471.146755 C146.926519,471.146755 147.110063,471.343178 147.110063,471.585459 C147.110063,471.827741 146.926519,472.024164 146.700124,472.024164 L146.700124,472.024164 L146.686459,472.024164 C146.460063,472.024164 146.27652,471.827741 146.27652,471.585459 C146.27652,471.343178 146.460063,471.146755 146.686459,471.146755 L146.686459,471.146755 Z M148.76179,467.850858 L146.612178,467.850858 L146.612178,469.212479 L148.76179,469.212479 L148.76179,467.850858 Z M153.608147,464.877408 L149.581641,464.877408 L149.581641,466.973449 L153.608147,466.973449 L153.608147,464.877408 Z M148.761763,464.877408 L146.612151,464.877408 L146.612151,466.973449 L148.761763,466.973449 L148.761763,464.877408 Z M145.792299,464.877408 L141.819879,464.877408 L141.819879,466.973449 L145.792299,466.973449 L145.792299,464.877408 Z" id="order"></path>
        </g>
    </g>
</svg>