<svg id="Layer_1" data-name="Layer 1" xmlns="http://www.w3.org/2000/svg" xmlns:xlink="http://www.w3.org/1999/xlink" viewBox="0 0 24.94 21.95"><defs><style>.cls-1{fill:url(#linear-gradient);}.cls-2{fill:#ff8666;}.cls-3{fill:#fff;}</style><linearGradient id="linear-gradient" x1="12.08" y1="10.2" x2="12.08" y2="17.18" gradientUnits="userSpaceOnUse"><stop offset="0" stop-color="#ffae46"/><stop offset="0.19" stop-color="#ff9755"/><stop offset="0.74" stop-color="#ff5a7d"/><stop offset="1" stop-color="#ff428d"/></linearGradient></defs><circle class="cls-1" cx="12.08" cy="13.69" r="3.49"/><circle class="cls-1" cx="12.08" cy="13.69" r="3.49"/><path class="cls-2" d="M12.08,8.45a11.69,11.69,0,0,0-9.42,5.24,11.69,11.69,0,0,0,9.42,5.24c6,0,9.24-4.94,9.43-5.24C21.32,13.39,18.13,8.45,12.08,8.45Zm0,9.08a10,10,0,0,1-7.7-3.84,10,10,0,0,1,7.7-3.84,10,10,0,0,1,7.7,3.84A10,10,0,0,1,12.08,17.53Z"/><circle class="cls-2" cx="12.08" cy="13.69" r="3.49"/><path class="cls-2" d="M12.78,7.06V5a.7.7,0,1,0-1.4,0v2.1a.7.7,0,0,0,1.4,0Z"/><path class="cls-2" d="M16.8,8,17.51,6a.7.7,0,0,0-.41-.9.71.71,0,0,0-.9.42l-.71,2a.7.7,0,0,0,.42.9.67.67,0,0,0,.24,0A.68.68,0,0,0,16.8,8Z"/><path class="cls-2" d="M20.3,10.22l1.3-1.54a.71.71,0,0,0-.09-1,.7.7,0,0,0-1,.09l-1.3,1.54a.71.71,0,0,0,.08,1,.71.71,0,0,0,1-.09Z"/><path class="cls-2" d="M8.26,8.41a.69.69,0,0,0,.41-.9L8,5.56A.7.7,0,1,0,6.65,6l.71,2A.7.7,0,0,0,8,8.45.67.67,0,0,0,8.26,8.41Z"/><path class="cls-2" d="M4.85,10.31a.71.71,0,0,0,.09-1L3.64,7.78a.7.7,0,1,0-1.07.9l1.3,1.54a.66.66,0,0,0,.53.25A.69.69,0,0,0,4.85,10.31Z"/><circle class="cls-3" cx="11.03" cy="12.64" r="1.05"/></svg>