<svg xmlns="http://www.w3.org/2000/svg" width="29" height="20" viewBox="0 0 29 20">
    <g fill="none" fill-rule="evenodd">
        <g fill="#FFF" fill-rule="nonzero">
            <g>
                <g>
                    <g>
                        <path d="M29.734 16c.505 0 .914.407.914.91v.908h3.9c.306 0 .59.153.758.403l.058.098 2.742 5.424-.003.001 1.705 2.183c.1.128.163.279.184.438l.008.12v5.909c0 .502-.41.909-.914.909h-2.652C36.017 34.853 34.592 36 32.902 36c-1.689 0-3.114-1.145-3.531-2.697h-5.426C23.527 34.855 22.102 36 20.413 36c-1.69 0-3.114-1.145-3.532-2.697h-2.378c-.505 0-.914-.407-.914-.91 0-.501.41-.908.914-.908h2.362c.397-1.582 1.837-2.758 3.548-2.758 1.71 0 3.151 1.176 3.547 2.757h5.395c.396-1.581 1.836-2.757 3.547-2.757s3.152 1.176 3.548 2.757h1.722v-4.688l-1.33-1.705h-7.108c-.504 0-.914-.407-.914-.91v-6.363H14.503c-.505 0-.914-.407-.914-.909S14 16 14.503 16zm3.168 14.545c-1.008 0-1.827.816-1.827 1.819 0 1.002.82 1.818 1.827 1.818 1.008 0 1.828-.816 1.828-1.818 0-1.003-.82-1.819-1.828-1.819zm-12.49 0c-1.007 0-1.827.816-1.827 1.819 0 1.002.82 1.818 1.828 1.818s1.828-.816 1.828-1.818c0-1.003-.82-1.819-1.828-1.819zM17.61 26.88c.505 0 .914.407.914.909s-.409.909-.914.909h-4.204c-.504 0-.913-.407-.913-.91 0-.501.409-.908.913-.908zm2.102-3.576c.505 0 .914.407.914.91 0 .501-.409.908-.914.908h-7.798c-.505 0-.914-.407-.914-.909s.41-.909.914-.909zm14.272-3.667h-3.336v3.637l5.173-.001-1.837-3.636zm-12.78.091c.506 0 .915.407.915.91 0 .501-.41.908-.914.908h-7.799c-.504 0-.913-.407-.913-.909s.409-.909.913-.909z" transform="translate(-48 -429) translate(0 52) translate(37 286) translate(0 75)"/>
                    </g>
                </g>
            </g>
        </g>
    </g>
</svg>
