<svg id="Layer_1" data-name="Layer 1" xmlns="http://www.w3.org/2000/svg" viewBox="0 0 73.9 79.1"><defs><style>.cls-1{fill:#6ad6c4;}</style></defs><path class="cls-1" d="M22.58,56.33l-1.25-1.56L27,50.21l2,2a1.63,1.63,0,0,0,2.43-2.18l-2.1-2.63-6.19-1.76-5.87,4.89H7v-2h9.64l6.13-5.11,7.81,2.24L33,48.8A3.64,3.64,0,0,1,32.38,54a3.65,3.65,0,0,1-4.75-.34l-.75-.75Z"/><path class="cls-1" d="M35,52.55H32.83v-2H35a1,1,0,0,0,0-2H31v-2h4a3,3,0,0,1,0,6Z"/><path class="cls-1" d="M35,56.55H31a3,3,0,0,1-3-3h2a1,1,0,0,0,1,1h4a1,1,0,0,0,0-2H33v-2h2a3,3,0,0,1,0,6Z"/><path class="cls-1" d="M35,60.55H31a3,3,0,0,1,0-6h4a3,3,0,0,1,0,6Zm-4-4a1,1,0,0,0,0,2h4a1,1,0,0,0,0-2Z"/><path class="cls-1" d="M35,64.55H31a3,3,0,0,1,0-6h4a3,3,0,0,1,0,6Zm-4-4a1,1,0,0,0,0,2h4a1,1,0,0,0,0-2Z"/><polygon class="cls-1" points="25.95 64.55 17.71 64.55 15.71 63.55 6.95 63.55 6.95 61.55 16.19 61.55 18.19 62.55 25.95 62.55 25.95 64.55"/><rect class="cls-1" x="49" y="34.05" width="9.98" height="2" transform="translate(-3.22 5.55) rotate(-5.72)"/><rect class="cls-1" x="52.95" y="17.03" width="2" height="10.05" transform="translate(26.64 73.54) rotate(-84.29)"/><path class="cls-1" d="M52.63,48.5l-8.11-2.71a24.39,24.39,0,0,0-7.67-1.24H27a16,16,0,0,1,0-32h9.9a24.39,24.39,0,0,0,7.67-1.24L52.63,8.6l.64,1.9-8.12,2.7a26,26,0,0,1-8.3,1.35H27a14,14,0,0,0,0,28h9.9a26,26,0,0,1,8.3,1.35l8.12,2.7Z"/><path class="cls-1" d="M59,35.55c-2.07,0-3-3.52-3-7s.93-7,3-7,3,3.52,3,7S61,35.55,59,35.55Zm0-11.91c-.37.47-1,2.15-1,4.91s.63,4.44,1,4.91c.37-.47,1-2.15,1-4.91S59.32,24.11,59,23.64Z"/><path class="cls-1" d="M53,48.55c-4,0-5-12.57-5-20s1-20,5-20c3.32,0,4.43,8.73,4.79,13.93l-2,.14c-.6-8.5-2.2-11.85-2.83-12.07-1,.37-3,6.87-3,18s2,17.63,3,18c.57-.22,2.17-3.57,2.77-12.07l2,.14C57.38,39.82,56.27,48.55,53,48.55Z"/><path class="cls-1" d="M30,70.55a5,5,0,0,1-5-5v-13h2v13a3,3,0,0,0,6,0v-2h2v2A5,5,0,0,1,30,70.55Z"/><rect class="cls-1" x="32.95" y="43.55" width="2" height="4"/><rect class="cls-1" x="63.95" y="27.55" width="3" height="2"/><rect class="cls-1" x="62.87" y="16.05" width="3.16" height="2" transform="translate(-2.08 21.28) rotate(-18.45)"/><rect class="cls-1" x="63.45" y="38.47" width="2" height="3.16" transform="translate(6.07 88.53) rotate(-71.57)"/></svg>