<svg id="Layer_1" data-name="Layer 1" xmlns="http://www.w3.org/2000/svg" viewBox="0 0 21.28 24.83"><defs><style>.cls-1{fill:none;}.cls-2{fill:#241b54;}.cls-3{fill:#fff;}</style></defs><path class="cls-1" d="M15.4,11v1.38H6.32V11a4.54,4.54,0,1,1,9.08,0Z"/><path class="cls-2" d="M17.85,12.35H16.8V11A5.94,5.94,0,1,0,4.93,11v1.38h-1a.7.7,0,0,0-.7.7v8.39a.7.7,0,0,0,.7.7h14a.69.69,0,0,0,.69-.7V13.05A.69.69,0,0,0,17.85,12.35ZM6.32,11a4.54,4.54,0,1,1,9.08,0v1.38H6.32Zm5.33,6a.56.56,0,0,0-.23.45v2a.55.55,0,0,1-.56.56.57.57,0,0,1-.56-.56v-2a.53.53,0,0,0-.23-.45,1.4,1.4,0,0,1,1.19-2.49,1.34,1.34,0,0,1,.94.93A1.38,1.38,0,0,1,11.65,17Z"/><path class="cls-3" d="M10.07,17a.54.54,0,0,1,.24.45v2a.56.56,0,1,0,1.11,0v-2a.56.56,0,0,1,.23-.45,1.41,1.41,0,0,0,.56-1.55,1.38,1.38,0,0,0-1-.94A1.4,1.4,0,0,0,10.07,17Z"/></svg>