<?xml version="1.0" encoding="UTF-8"?>
<svg width="42px" height="42px" viewBox="0 0 42 42" version="1.1" xmlns="http://www.w3.org/2000/svg" xmlns:xlink="http://www.w3.org/1999/xlink">
    <title>EEBDD706-71A1-4DCD-9898-E195BBA3186E</title>
    <g id="Page-1" stroke="none" stroke-width="1" fill="none" fill-rule="evenodd">
        <g id="Dashboard_Order_Status" transform="translate(-215.000000, -392.000000)" fill="#2D5A76" fill-rule="nonzero">
            <g id="Payment-methods" transform="translate(172.000000, 355.000000)">
                <g id="Group-8" transform="translate(43.000000, 37.000000)">
                    <path d="M37.5999978,16.799999 C38.0418255,16.799999 38.3999977,17.1581712 38.3999977,17.599999 L38.399,25.599 L39.1999977,25.5999985 C40.525481,25.5999985 41.5999975,26.674515 41.5999975,27.9999983 L41.5999975,39.1999977 C41.5999975,40.525481 40.525481,41.5999985 39.1999977,41.5999985 L28.7999988,41.5999985 C28.3581705,41.5999985 27.9999983,41.2418253 27.9999983,40.7999976 C27.9999983,40.3581698 28.3581705,39.9999976 28.7999988,39.9999976 L39.1999977,39.9999976 C39.6418254,39.9999976 39.9999976,39.6418254 39.9999976,39.1999977 L39.9999976,27.9999983 C39.9999976,27.5581706 39.6418254,27.1999984 39.1999977,27.1999984 L23.1999986,27.1999984 C22.7581708,27.1999984 22.3999987,27.5581706 22.3999987,27.9999983 L22.3999987,39.1999977 C22.3999987,39.6418254 22.7581708,39.9999976 23.1999986,39.9999976 L25.5999985,39.9999976 C26.0418262,39.9999976 26.3999984,40.3581698 26.3999984,40.7999976 C26.3999984,41.2418253 26.0418262,41.5999985 25.5999985,41.5999985 L23.1999986,41.5999985 C21.8745153,41.5999985 20.7999988,40.525481 20.7999988,39.1999977 L20.799,31.999 L7.99999952,31.9999981 C7.55817175,31.9999981 7.19999957,31.6418259 7.19999957,31.1999981 C7.19999957,30.7581704 7.55817175,30.3999982 7.99999952,30.3999982 L20.7999988,30.3999982 L20.7999988,27.9999983 C20.7999988,26.674515 21.8745153,25.5999985 23.1999986,25.5999985 L36.7999978,25.5999985 L36.7999978,17.599999 C36.7999978,17.1581712 37.15817,16.799999 37.5999978,16.799999 Z M36.3999979,34.3999979 C37.5045673,34.3999979 38.3999979,35.2954284 38.3999979,36.3999979 C38.3999979,37.5045673 37.5045673,38.3999979 36.3999979,38.3999979 C35.9490094,38.3999979 35.5328851,38.2507265 35.1983368,37.9988953 C34.8554475,38.2582642 34.4350293,38.3999979 33.9999981,38.3999979 C32.8954285,38.3999979 31.9999981,37.5045673 31.9999981,36.3999979 C31.9999981,35.2954284 32.8954285,34.3999979 33.9999981,34.3999979 C34.4505461,34.3999979 34.866298,34.548978 35.2006788,34.800363 C35.5345107,34.5486869 35.9498903,34.3999979 36.3999979,34.3999979 Z M29.5999982,35.9999979 C30.041826,35.9999979 30.3999982,36.35817 30.3999982,36.7999978 C30.3999982,37.2418256 30.041826,37.5999978 29.5999982,37.5999978 L24.7999985,37.5999978 C24.3581707,37.5999978 23.9999986,37.2418256 23.9999986,36.7999978 C23.9999986,36.35817 24.3581707,35.9999979 24.7999985,35.9999979 L29.5999982,35.9999979 Z M33.999998,35.9999979 C33.7790841,35.9999979 33.599998,36.1790839 33.599998,36.3999978 C33.599998,36.6209117 33.7790841,36.7999978 33.999998,36.7999978 C34.2209119,36.7999978 34.3999979,36.6209117 34.3999979,36.3999978 C34.3999979,36.1790839 34.2209119,35.9999979 33.999998,35.9999979 Z M36.3999978,35.9999979 C36.1790839,35.9999979 35.9999979,36.1790839 35.9999979,36.3999978 C35.9999979,36.6209117 36.1790839,36.7999978 36.3999978,36.7999978 C36.6209117,36.7999978 36.7999978,36.6209117 36.7999978,36.3999978 C36.7999978,36.1790839 36.6209117,35.9999979 36.3999978,35.9999979 Z M27.1999984,29.5999982 C27.6418262,29.5999982 27.9999986,29.9581704 27.9999986,30.3999982 L27.9999986,32.799998 C27.9999986,33.2418258 27.6418262,33.5999982 27.1999984,33.5999982 L24.7999985,33.5999982 C24.3581707,33.5999982 23.9999986,33.2418258 23.9999986,32.799998 L23.9999986,30.3999982 C23.9999986,29.9581704 24.3581707,29.5999982 24.7999985,29.5999982 L27.1999984,29.5999982 Z M35.1999979,0 C36.967309,0 38.3999977,1.43268872 38.3999977,3.19999981 L38.3999977,10.3999994 C38.3999977,10.8418272 38.0418255,11.1999993 37.5999978,11.1999993 C37.15817,11.1999993 36.7999978,10.8418272 36.7999978,10.3999994 L36.799,7.999 L1.599,7.999 L1.5999999,28.7999983 C1.5999999,29.6836538 2.31634426,30.3999982 3.19999981,30.3999982 L4.79999971,30.3999982 C5.24182749,30.3999982 5.59999967,30.7581704 5.59999967,31.1999981 C5.59999967,31.6418259 5.24182749,32 4.79999971,32 L3.19999981,32 C1.43268872,32 0,30.5673094 0,28.7999983 L0,3.19999981 C0,1.43268872 1.43268872,0 3.19999981,0 L35.1999979,0 Z M26.3999984,31.1999981 L25.5999985,31.1999981 L25.5999985,31.9999981 L26.3999984,31.9999981 L26.3999984,31.1999981 Z M37.5999978,29.5999982 C38.0418255,29.5999982 38.3999979,29.9581704 38.3999979,30.3999982 C38.3999979,30.841826 38.0418255,31.1999981 37.5999978,31.1999981 L35.1999979,31.1999981 C34.7581701,31.1999981 34.3999979,30.841826 34.3999979,30.3999982 C34.3999979,29.9581704 34.7581701,29.5999982 35.1999979,29.5999982 L37.5999978,29.5999982 Z M12.7999992,23.1999986 C14.1254826,23.1999986 15.1999991,24.2745152 15.1999991,25.5999985 C15.1999991,26.9254818 14.1254826,27.9999983 12.7999992,27.9999983 L7.99999952,27.9999983 C6.6745162,27.9999983 5.59999967,26.9254818 5.59999967,25.5999985 C5.59999967,24.2745152 6.6745162,23.1999986 7.99999952,23.1999986 L12.7999992,23.1999986 Z M12.7999992,24.7999985 L7.99999952,24.7999985 C7.55817175,24.7999985 7.19999957,25.1581707 7.19999957,25.5999985 C7.19999957,26.0418262 7.55817175,26.3999984 7.99999952,26.3999984 L12.7999992,26.3999984 C13.241827,26.3999984 13.5999992,26.0418262 13.5999992,25.5999985 C13.5999992,25.1581707 13.241827,24.7999985 12.7999992,24.7999985 Z M26.3999984,20.7999988 C26.8418262,20.7999988 27.1999989,21.1581709 27.1999989,21.5999987 C27.1999989,22.0418265 26.8418262,22.3999987 26.3999984,22.3999987 L19.9999988,22.3999987 C19.558171,22.3999987 19.1999989,22.0418265 19.1999989,21.5999987 C19.1999989,21.1581709 19.558171,20.7999988 19.9999988,20.7999988 L26.3999984,20.7999988 Z M13.5999992,11.8079993 L14.247,14.399 L15.9999998,14.3999991 C16.4418268,14.3999991 16.799999,14.7581713 16.799999,15.1999991 C16.799999,15.6418269 16.4418268,15.999999 15.9999998,15.999999 L15.892,15.999 L15.3839991,19.5359988 C15.2170566,20.7167538 14.2084902,21.595842 13.0159992,21.5999987 L7.78399954,21.5999987 C6.57936274,21.6118549 5.55259865,20.7288378 5.38399968,19.5359988 L4.894,15.999 L4.79999971,15.999999 C4.35817194,15.999999 3.99999976,15.6418269 3.99999976,15.1999991 C3.99999976,14.7581713 4.35817194,14.3999991 4.79999971,14.3999991 L6.551,14.399 L7.19999957,11.8079993 C7.31930284,11.3951175 7.74350936,11.1502707 8.16070196,11.2534936 C8.57789457,11.3567165 8.83898714,11.7711219 8.75199948,12.1919993 L8.199,14.399 L12.551,14.399 L11.9999993,12.1919993 C11.8939606,11.7501715 12.1661715,11.306038 12.6079992,11.1999993 C13.049827,11.0939607 13.4939605,11.3661715 13.5999992,11.8079993 Z M7.00799958,15.999999 L6.51999961,15.999999 L6.99199958,19.3119988 C7.04819924,19.7096118 7.39045394,20.0039509 7.79199954,20.0000381 L13.0239992,20.0000381 C13.4255448,20.0039509 13.7677995,19.7096118 13.8239992,19.3119988 L14.2799991,15.999999 L13.7919992,15.999999 L13.7919992,15.999999 C13.7282313,16.0077069 13.6637671,16.0077069 13.5999992,15.999999 L7.19999957,15.999999 L7.19999957,15.999999 C7.13623165,16.0077069 7.0717675,16.0077069 7.00799958,15.999999 Z M33.599998,16.799999 C34.0418258,16.799999 34.3999979,17.1581712 34.3999979,17.599999 C34.3999979,18.0418267 34.0418258,18.3999989 33.599998,18.3999989 L19.9999988,18.3999989 C19.558171,18.3999989 19.1999989,18.0418267 19.1999989,17.599999 C19.1999989,17.1581712 19.558171,16.799999 19.9999988,16.799999 L33.599998,16.799999 Z M37.5999978,12.7999992 C38.0418255,12.7999992 38.3999977,13.1581714 38.3999977,13.5999992 L38.3999977,14.3999991 C38.3999977,14.8418269 38.0418255,15.1999991 37.5999978,15.1999991 C37.15817,15.1999991 36.7999978,14.8418269 36.7999978,14.3999991 L36.7999978,13.5999992 C36.7999978,13.1581714 37.15817,12.7999992 37.5999978,12.7999992 Z M33.599998,12.7999992 C34.0418258,12.7999992 34.3999979,13.1581714 34.3999979,13.5999992 C34.3999979,14.041827 34.0418258,14.3999991 33.599998,14.3999991 L19.9999988,14.3999991 C19.558171,14.3999991 19.1999989,14.041827 19.1999989,13.5999992 C19.1999989,13.1581714 19.558171,12.7999992 19.9999988,12.7999992 L33.599998,12.7999992 Z M35.1999979,1.5999999 L3.19999981,1.5999999 C2.31634426,1.5999999 1.5999999,2.31634426 1.5999999,3.19999981 L1.599,6.399 L36.799,6.399 L36.7999978,3.19999981 C36.7999978,2.31634426 36.0836534,1.5999999 35.1999979,1.5999999 Z M4.79999971,3.19999981 C5.24182749,3.19999981 5.59999967,3.55817199 5.59999967,3.99999976 C5.59999967,4.44182754 5.24182749,4.79999971 4.79999971,4.79999971 C4.35817194,4.79999971 3.99999976,4.44182754 3.99999976,3.99999976 C3.99999976,3.55817199 4.35817194,3.19999981 4.79999971,3.19999981 Z M8.79999948,3.19999981 C9.24182725,3.19999981 9.59999943,3.55817199 9.59999943,3.99999976 C9.59999943,4.44182754 9.24182725,4.79999971 8.79999948,4.79999971 C8.3581717,4.79999971 7.99999952,4.44182754 7.99999952,3.99999976 C7.99999952,3.55817199 8.3581717,3.19999981 8.79999948,3.19999981 Z M12.7999992,3.19999981 C13.241827,3.19999981 13.5999992,3.55817199 13.5999992,3.99999976 C13.5999992,4.44182754 13.241827,4.79999971 12.7999992,4.79999971 C12.3581715,4.79999971 11.9999993,4.44182754 11.9999993,3.99999976 C11.9999993,3.55817199 12.3581715,3.19999981 12.7999992,3.19999981 Z" id="Combined-Shape"></path>
                </g>
            </g>
        </g>
    </g>
</svg>