<svg xmlns="http://www.w3.org/2000/svg" xmlns:xlink="http://www.w3.org/1999/xlink" width="67.85" height="67.857" viewBox="0 0 67.85 67.857">
  <defs>
    <linearGradient id="linear-gradient" x1="0.177" y1="0.177" x2="0.827" y2="0.827" gradientUnits="objectBoundingBox">
      <stop offset="0" stop-color="#fff"/>
      <stop offset="0.304" stop-color="#fafbfd"/>
      <stop offset="0.621" stop-color="#eef1f8"/>
      <stop offset="0.943" stop-color="#d9e0f0"/>
      <stop offset="1" stop-color="#d5ddef"/>
    </linearGradient>
    <radialGradient id="radial-gradient" cx="-0.126" cy="-0.506" r="1.668" gradientTransform="translate(-0.005)" gradientUnits="objectBoundingBox">
      <stop offset="0" stop-color="#d5ddef"/>
      <stop offset="0.057" stop-color="#d9e0f0"/>
      <stop offset="0.379" stop-color="#eef1f8"/>
      <stop offset="0.696" stop-color="#fafbfd"/>
      <stop offset="1" stop-color="#fff"/>
    </radialGradient>
  </defs>
  <g id="Group_11" data-name="Group 11" transform="translate(-646.856 -192.122)">
    <g id="Group_4" data-name="Group 4" transform="translate(646.856 192.122)">
      <g id="Group_2" data-name="Group 2">
        <g id="Group_1" data-name="Group 1">
          <path id="Path_1" data-name="Path 1" d="M714.706,226.051a33.925,33.925,0,1,0-33.921,33.929A33.926,33.926,0,0,0,714.706,226.051Z" transform="translate(-646.856 -192.122)" fill="url(#linear-gradient)"/>
        </g>
      </g>
      <g id="Group_3" data-name="Group 3" transform="translate(1.096 1.095)">
        <path id="Path_2" data-name="Path 2" d="M709.932,238.688a32.823,32.823,0,1,0-43.38,16.514A32.818,32.818,0,0,0,709.932,238.688Z" transform="translate(-647.155 -192.421)" fill="url(#radial-gradient)"/>
      </g>
    </g>
    <g id="Group_10" data-name="Group 10" transform="translate(663.617 207.498)">
      <g id="Group_9" data-name="Group 9">
        <g id="Group_5" data-name="Group 5">
          <path id="Path_3" data-name="Path 3" d="M678.671,232.177h-20.4a6.833,6.833,0,0,1-6.766-7.827l3.26-22.186a6.874,6.874,0,0,1,6.766-5.84h13.814a6.877,6.877,0,0,1,6.759,5.822l3.323,22.186a6.831,6.831,0,0,1-6.759,7.845Zm-17.136-33.416a4.427,4.427,0,0,0-4.354,3.758l-3.257,22.186a4.394,4.394,0,0,0,4.351,5.035h20.4a4.4,4.4,0,0,0,4.351-5.046L679.7,202.508a4.428,4.428,0,0,0-4.351-3.747Z" transform="translate(-651.437 -196.324)" fill="#ff865f"/>
        </g>
        <g id="Group_6" data-name="Group 6" transform="translate(7.895 7.304)">
          <path id="Path_4" data-name="Path 4" d="M668.461,210.037H657.026a3.438,3.438,0,0,1-3.432-3.436v-4.848a3.435,3.435,0,0,1,3.432-3.432h11.435a3.432,3.432,0,0,1,3.429,3.432V206.6A3.435,3.435,0,0,1,668.461,210.037Zm-11.435-9.28a1,1,0,0,0-1,1V206.6a1,1,0,0,0,1,1h11.435a1,1,0,0,0,.992-1v-4.848a1,1,0,0,0-.992-1Z" transform="translate(-653.594 -198.32)" fill="#ff865f"/>
        </g>
        <g id="Group_7" data-name="Group 7" transform="translate(19.696 26.314)">
          <path id="Path_5" data-name="Path 5" d="M662.1,205.952h-4.058a1.219,1.219,0,0,1,0-2.437H662.1a1.219,1.219,0,0,1,0,2.437Z" transform="translate(-656.819 -203.515)" fill="#ff865f"/>
        </g>
        <g id="Group_8" data-name="Group 8" transform="translate(7.895 26.314)">
          <path id="Path_6" data-name="Path 6" d="M658.874,205.952h-4.062a1.219,1.219,0,0,1,0-2.437h4.062a1.219,1.219,0,0,1,0,2.437Z" transform="translate(-653.594 -203.515)" fill="#ff865f"/>
        </g>
      </g>
    </g>
  </g>
</svg>
