<svg id="Group_10" data-name="Group 10" xmlns="http://www.w3.org/2000/svg" width="28.507" height="28.507" viewBox="0 0 28.507 28.507">
  <circle id="Ellipse_1" data-name="Ellipse 1" cx="14.253" cy="14.253" r="14.253" fill="#ff865f"/>
  <path id="Path_1" data-name="Path 1" d="M322.754,356.34s-3.937,2.274-2.278,5.966,8.618,11.325,12.865,10.646c0,0,4.061-1.969,2.215-4.243s-3.263-2.338-3.632-1.6-1.54,3.259-5.168-1.048l-2.04-2.33a1.453,1.453,0,0,1-.131-1.766.86.86,0,0,1,.385-.333,3.129,3.129,0,0,0,.905-.7,1.157,1.157,0,0,0,.171-1.389C325.361,358.353,323.925,356.157,322.754,356.34Z" transform="translate(-313.798 -350.408)" fill="#fff"/>
</svg>
