<svg xmlns="http://www.w3.org/2000/svg" width="22" height="24" viewBox="0 0 22 24">
    <g fill="none" fill-rule="evenodd">
        <g fill="#30D9C4">
            <g>
                <g>
                    <g>
                        <g>
                            <path d="M6.485 1.795l2.27 3.611c.459.73.49 1.797-.256 2.528-.32.314-.764.699-1.178 1.057-.227.197-.445.386-.628.55 2.157 3.755 5.04 5.493 6.352 6.128l1.46-1.858c.689-.877 1.916-1.082 2.85-.506.865.534 2.06 1.252 3.143 1.852.723.4 1.24 1.233 1.093 2.175-.263 1.69-.95 2.922-1.928 3.753-.963.817-2.11 1.163-3.16 1.28-2.065.232-4.04-.394-4.402-.515-.091-.03-.167-.062-.248-.104-.388-.196-2.67-1.387-5.12-3.342-2.423-1.935-5.157-4.735-6.241-8.186-.797-2.535-.561-4.59.243-6.17.79-1.553 2.07-2.531 3.178-3.057 1.023-.485 2.08.02 2.572.804zM4.698 3.034c-.743.382-1.54 1.04-2.033 2.008-.51 1.002-.754 2.454-.106 4.518.888 2.824 3.208 5.287 5.522 7.134 2.245 1.792 4.345 2.898 4.728 3.094.347.114 1.913.582 3.455.41.772-.087 1.465-.326 2-.781.51-.433.973-1.141 1.174-2.357-1.12-.62-2.341-1.355-3.216-1.894l-.007-.003-.01.001-1.5 1.911c-.558.71-1.56 1.052-2.48.618-1.53-.72-4.948-2.727-7.454-7.137-.474-.835-.332-1.906.4-2.573.296-.268.576-.51.84-.738.308-.265.594-.51.857-.76zm6.627 1.427c.271-.54.932-.758 1.475-.488 1.166.578 2.1 1.187 2.898 1.978.797.792 1.41 1.72 1.993 2.877.271.539.051 1.195-.492 1.464-.543.27-1.204.051-1.476-.488-.516-1.026-1.003-1.736-1.58-2.309-.578-.573-1.293-1.057-2.327-1.57-.543-.27-.763-.925-.491-1.464zm.831-3.824c.253-.548.906-.789 1.458-.537 2.829 1.288 6.277 3.788 7.909 7.474.244.552-.009 1.197-.565 1.439-.556.243-1.204-.008-1.449-.56-1.335-3.018-4.258-5.206-6.812-6.369-.552-.251-.794-.9-.54-1.447z" transform="translate(-527 -259) translate(177 177) translate(323 8.73) translate(26.19 34.92) translate(.8 39.23)"/>
                        </g>
                    </g>
                </g>
            </g>
        </g>
    </g>
</svg>
