<?xml version="1.0" encoding="utf-8"?>
<!-- Generator: Adobe Illustrator 27.0.0, SVG Export Plug-In . SVG Version: 6.00 Build 0)  -->
<svg version="1.1" id="Layer_1" xmlns="http://www.w3.org/2000/svg" xmlns:xlink="http://www.w3.org/1999/xlink" x="0px" y="0px"
	 viewBox="0 0 156.5 216.4" style="enable-background:new 0 0 156.5 216.4;" xml:space="preserve">
<style type="text/css">
	.st0{fill:#FF865F;}
	.st1{fill:#FFFFFF;}
</style>
<g id="Red_point">
	<g>
		<path class="st0" d="M140.3,125.8c10.1-13.2,16.2-29.6,16.2-47.6C156.5,35,121.5,0,78.3,0S0,35,0,78.2c0,17.9,6.1,34.3,16.2,47.5
			l62.1,90.7L140.3,125.8L140.3,125.8z"/>
		
			<ellipse transform="matrix(3.839736e-03 -1 1 3.839736e-03 -0.2809 156.1799)" class="st1" cx="78.2" cy="78.2" rx="60.3" ry="60.4"/>
	</g>
</g>
<g>
	<g>
		<polygon class="st0" points="61.8,65.1 72,65.1 73.6,51.4 66.6,51.4 		"/>
		<polygon class="st0" points="73.3,65.1 83.2,65.1 81.6,51.4 74.9,51.4 		"/>
		<polygon class="st0" points="107.1,65.1 99.1,51.4 91.3,51.4 96,65.1 		"/>
		<polygon class="st0" points="84.5,65.1 94.7,65.1 89.9,51.4 82.9,51.4 		"/>
		<polygon class="st0" points="65.2,51.4 57.4,51.4 49.4,65.1 60.5,65.1 		"/>
		<rect x="59.9" y="78.4" class="st1" width="15.7" height="21.2"/>
		<path class="st1" d="M85.5,90.8c-0.7,0-1.2,0.5-1.2,1.2c0,0.7,0.5,1.2,1.2,1.2c0.7,0,1.2-0.5,1.2-1.2
			C86.7,91.3,86.1,90.8,85.5,90.8z"/>
		<path class="st0" d="M96.2,72.1c1,1.9,3,3.1,5.3,3.1c2.8,0,5.2-1.9,5.8-4.5v-4.4H96.2V72.1z"/>
		<path class="st0" d="M55,75.3c2.3,0,4.3-1.3,5.3-3.1v-5.7H49.2v4.4C49.8,73.4,52.2,75.3,55,75.3z"/>
		<path class="st0" d="M72,72v-5.6H61.5v6.1c1.1,1.7,2.9,2.8,5.1,2.8C69,75.3,71,73.9,72,72z"/>
		<path class="st0" d="M95,66.4H84.5V72c1,2,3,3.3,5.4,3.3c2.1,0,4-1.1,5.1-2.8V66.4z"/>
		<path class="st0" d="M83.2,66.4h-10v6.2c1.1,1.6,2.9,2.7,5,2.7c2.1,0,3.9-1.1,5-2.7V66.4z"/>
		<path class="st0" d="M81.6,47.2c0.6,0,1-0.2,1.4-0.6c0.4-0.4,0.5-1,0.5-1.7c0-0.5-0.1-0.9-0.2-1.3c-0.2-0.3-0.4-0.6-0.7-0.8
			c-0.3-0.2-0.6-0.3-1-0.3c-0.5,0-1,0.2-1.4,0.5c-0.4,0.4-0.6,1-0.6,1.9c0,0.7,0.2,1.3,0.5,1.6C80.6,47.1,81.1,47.2,81.6,47.2z"/>
		<path class="st0" d="M73.7,50.5h0.6h7.8h0.6h7.5H91h8v-9.4c0-1.2-1-2.2-2.2-2.2H59.6c-1.2,0-2.2,1-2.2,2.2v9.4h8h0.7H73.7z
			 M85.6,41.2h2.9c0.5,0,0.8,0,1.1,0.1c0.4,0.1,0.7,0.2,1,0.4c0.3,0.2,0.5,0.5,0.7,0.8c0.2,0.3,0.2,0.7,0.2,1.1
			c0,0.7-0.2,1.2-0.6,1.7c-0.4,0.5-1.2,0.7-2.3,0.7h-1.3v2.7h-1.7V41.2z M79.1,42.1c0.7-0.7,1.5-1.1,2.6-1.1c0.7,0,1.3,0.2,1.9,0.5
			c0.6,0.3,1,0.8,1.3,1.4c0.3,0.6,0.4,1.2,0.4,2c0,0.7-0.2,1.4-0.5,2c-0.3,0.6-0.8,1.1-1.3,1.4c-0.6,0.3-1.2,0.5-1.8,0.5
			c-0.7,0-1.3-0.2-1.9-0.5c-0.6-0.3-1-0.8-1.3-1.4c-0.3-0.6-0.4-1.2-0.4-1.8C78.1,43.8,78.4,42.8,79.1,42.1z M71.6,41.2h1.7v2.8H76
			v-2.8h1.7v7.5H76v-3.2h-2.7v3.2h-1.7V41.2z M65,46.1l0-0.4l1.6-0.1l0,0.4c0,0.3,0.1,0.5,0.2,0.7c0.1,0.2,0.3,0.3,0.5,0.4
			c0.3,0.1,0.5,0.2,0.9,0.2c0.3,0,0.5,0,0.8-0.1c0.2-0.1,0.3-0.2,0.4-0.3c0.1-0.1,0.1-0.2,0.1-0.3c0-0.1,0-0.2-0.1-0.3
			c-0.1-0.1-0.2-0.2-0.4-0.3c-0.1,0-0.4-0.1-1.1-0.3c-0.7-0.2-1.1-0.3-1.4-0.5c-0.4-0.2-0.7-0.5-0.9-0.8c-0.2-0.3-0.3-0.7-0.3-1
			c0-0.4,0.1-0.8,0.4-1.2c0.2-0.4,0.6-0.6,1-0.8c0.4-0.2,0.9-0.3,1.4-0.3c0.5,0,1,0.1,1.5,0.3c0.4,0.2,0.8,0.5,1,0.8
			c0.2,0.4,0.4,0.8,0.4,1.3l0,0.4l-1.6,0.1l0-0.4c0-0.3-0.1-0.6-0.3-0.7c-0.2-0.2-0.5-0.2-0.9-0.2c-0.6,0-0.8,0.1-0.9,0.2
			c-0.2,0.2-0.2,0.3-0.2,0.4c0,0.1,0,0.2,0.1,0.3c0,0,0.2,0.2,1.2,0.4c0.8,0.2,1.3,0.3,1.6,0.5c0.5,0.2,0.8,0.5,1,0.8
			c0.2,0.3,0.3,0.7,0.3,1.2c0,0.4-0.1,0.8-0.4,1.2c-0.2,0.4-0.6,0.7-1,0.9c-0.4,0.2-0.9,0.3-1.5,0.3c-0.7,0-1.2-0.1-1.7-0.3
			c-0.5-0.2-0.9-0.5-1.1-0.9C65.2,47.1,65,46.7,65,46.1z"/>
		<path class="st0" d="M89.6,44.2c0.2-0.1,0.2-0.3,0.2-0.6c0-0.2,0-0.4-0.1-0.5c-0.1-0.1-0.2-0.2-0.3-0.2c-0.1,0-0.2,0-0.7,0h-1.3
			v1.6h1.3C89.2,44.4,89.5,44.3,89.6,44.2z"/>
		<path class="st1" d="M66.6,48.5c0.5,0.2,1,0.3,1.7,0.3c0.5,0,1-0.1,1.5-0.3c0.4-0.2,0.8-0.5,1-0.9c0.2-0.4,0.4-0.8,0.4-1.2
			c0-0.4-0.1-0.8-0.3-1.2c-0.2-0.3-0.6-0.6-1-0.8c-0.3-0.1-0.8-0.3-1.6-0.5c-0.9-0.2-1.1-0.4-1.2-0.4c-0.1-0.1-0.1-0.2-0.1-0.3
			c0-0.1,0-0.3,0.2-0.4c0.1-0.1,0.4-0.2,0.9-0.2c0.4,0,0.7,0.1,0.9,0.2c0.2,0.2,0.3,0.4,0.3,0.7l0,0.4l1.6-0.1l0-0.4
			c0-0.5-0.2-0.9-0.4-1.3c-0.2-0.4-0.6-0.7-1-0.8c-0.4-0.2-0.9-0.3-1.5-0.3c-0.5,0-1,0.1-1.4,0.3c-0.4,0.2-0.8,0.5-1,0.8
			c-0.2,0.4-0.4,0.7-0.4,1.2c0,0.4,0.1,0.7,0.3,1c0.2,0.3,0.5,0.6,0.9,0.8c0.3,0.1,0.7,0.3,1.4,0.5c0.7,0.2,1,0.3,1.1,0.3
			c0.3,0.1,0.4,0.2,0.4,0.3c0.1,0.1,0.1,0.2,0.1,0.3c0,0.1,0,0.2-0.1,0.3c-0.1,0.1-0.2,0.2-0.4,0.3c-0.2,0.1-0.5,0.1-0.8,0.1
			c-0.3,0-0.6-0.1-0.9-0.2c-0.2-0.1-0.4-0.2-0.5-0.4c-0.1-0.2-0.2-0.4-0.2-0.7l0-0.4L65,45.8l0,0.4c0,0.5,0.2,1,0.4,1.4
			C65.7,48,66.1,48.3,66.6,48.5z"/>
		<polygon class="st1" points="73.2,45.5 76,45.5 76,48.7 77.6,48.7 77.6,41.2 76,41.2 76,43.9 73.2,43.9 73.2,41.2 71.6,41.2 
			71.6,48.7 73.2,48.7 		"/>
		<path class="st1" d="M79.8,48.3c0.6,0.3,1.2,0.5,1.9,0.5c0.6,0,1.3-0.2,1.8-0.5c0.6-0.3,1-0.8,1.3-1.4c0.3-0.6,0.5-1.3,0.5-2
			c0-0.7-0.1-1.4-0.4-2c-0.3-0.6-0.7-1.1-1.3-1.4c-0.6-0.3-1.2-0.5-1.9-0.5c-1.1,0-1.9,0.4-2.6,1.1c-0.7,0.7-1,1.7-1,2.9
			c0,0.6,0.1,1.3,0.4,1.8C78.8,47.4,79.2,47.9,79.8,48.3z M80.3,43.1c0.4-0.4,0.8-0.5,1.4-0.5c0.4,0,0.7,0.1,1,0.3
			c0.3,0.2,0.5,0.4,0.7,0.8c0.2,0.4,0.2,0.8,0.2,1.3c0,0.8-0.2,1.3-0.5,1.7c-0.4,0.4-0.8,0.6-1.4,0.6c-0.5,0-1-0.2-1.4-0.6
			c-0.4-0.4-0.5-0.9-0.5-1.6C79.7,44.1,79.9,43.5,80.3,43.1z"/>
		<path class="st1" d="M87.3,45.9h1.3c1.1,0,1.8-0.2,2.3-0.7c0.4-0.5,0.6-1,0.6-1.7c0-0.4-0.1-0.8-0.2-1.1c-0.2-0.3-0.4-0.6-0.7-0.8
			c-0.3-0.2-0.6-0.3-1-0.4c-0.3,0-0.6-0.1-1.1-0.1h-2.9v7.5h1.7V45.9z M87.3,42.7h1.3c0.5,0,0.7,0,0.7,0c0.1,0,0.3,0.1,0.3,0.2
			c0.1,0.1,0.1,0.3,0.1,0.5c0,0.3-0.1,0.5-0.2,0.6c-0.1,0.1-0.4,0.2-1,0.2h-1.3V42.7z"/>
	</g>
	<path class="st0" d="M103.1,105.2V76.4c-0.5,0.1-1,0.2-1.6,0.2c-2.3,0-4.5-1.1-5.8-2.9c-1.3,1.8-3.5,2.9-5.8,2.9
		c-2.3,0-4.5-1.1-5.8-2.9c-1.3,1.8-3.5,2.9-5.8,2.9c-2.3,0-4.5-1.1-5.8-2.9c-1.3,1.8-3.5,2.9-5.8,2.9s-4.5-1.1-5.8-2.9
		c-1.3,1.8-3.5,2.9-5.8,2.9c-0.5,0-1.1-0.1-1.6-0.2v28.8h-5.6v4.1h60.9v-4.1H103.1z M75.6,99.6H59.9V78.4h15.7V99.6z M85.5,93.2
		c-0.7,0-1.2-0.5-1.2-1.2c0-0.7,0.5-1.2,1.2-1.2c0.7,0,1.2,0.5,1.2,1.2C86.7,92.6,86.1,93.2,85.5,93.2z M99.7,105.2h-1.7V86.7
		c0-4.1-3.3-7.4-7.4-7.4c-4.1,0-7.4,3.3-7.4,7.4v18.5h-1.7V86.7c0-5,4.1-9.1,9.1-9.1c5,0,9.1,4.1,9.1,9.1V105.2z"/>
	<path class="st1" d="M99.7,86.7v18.5h-1.7V86.7c0-4.1-3.3-7.4-7.4-7.4c-4.1,0-7.4,3.3-7.4,7.4v18.5h-1.7V86.7c0-5,4.1-9.1,9.1-9.1
		C95.6,77.6,99.7,81.7,99.7,86.7z"/>
</g>
</svg>
