<svg xmlns="http://www.w3.org/2000/svg" width="40.378" height="165.178" viewBox="0 0 40.378 165.178">
  <g id="Group_7" data-name="Group 7" transform="translate(-267.156 -341.868)">
    <path id="Path_1" data-name="Path 1" d="M287.342,341.868a20.2,20.2,0,1,0,20.192,20.215A20.193,20.193,0,0,0,287.342,341.868Zm0,33.371A13.153,13.153,0,1,1,300.5,362.083,13.151,13.151,0,0,1,287.342,375.239Z" transform="translate(0 0)" fill="#00dfc9"/>
    <g id="Group_6" data-name="Group 6" transform="translate(280.306 402.91)">
      <g id="Group_5" data-name="Group 5">
        <g id="Group_1" data-name="Group 1" transform="translate(0 62.121)">
          <path id="Path_2" data-name="Path 2" d="M269.412,370.033a7.039,7.039,0,1,1,7.036,7.036A7.036,7.036,0,0,1,269.412,370.033Z" transform="translate(-269.412 -362.997)" fill="#3d588c"/>
        </g>
        <g id="Group_2" data-name="Group 2" transform="translate(0 31.057)">
          <path id="Path_3" data-name="Path 3" d="M269.412,364.71a7.039,7.039,0,1,1,7.036,7.036A7.042,7.042,0,0,1,269.412,364.71Z" transform="translate(-269.412 -357.668)" fill="#3d588c"/>
        </g>
        <g id="Group_3" data-name="Group 3">
          <path id="Path_4" data-name="Path 4" d="M269.412,359.376a7.039,7.039,0,1,1,7.036,7.042A7.037,7.037,0,0,1,269.412,359.376Z" transform="translate(-269.412 -352.34)" fill="#3d588c"/>
        </g>
        <g id="Group_4" data-name="Group 4" transform="translate(0 90.059)">
          <path id="Path_5" data-name="Path 5" d="M269.412,374.832a7.039,7.039,0,1,1,7.036,7.036A7.042,7.042,0,0,1,269.412,374.832Z" transform="translate(-269.412 -367.79)" fill="#3d588c"/>
        </g>
      </g>
    </g>
  </g>
</svg>
