<svg xmlns="http://www.w3.org/2000/svg" width="41" height="41" viewBox="0 0 41 41">
    <g fill="none" fill-rule="evenodd">
        <g fill="#30D9C4" fill-rule="nonzero">
            <g>
                <g>
                    <path d="M13.667 19.54c0 .229-.09.447-.25.608l-1.708 1.717c-.168.166-.386.25-.605.25-.218 0-.437-.084-.605-.25l-1.103-1.11-1.104 1.11c-.333.335-.874.335-1.208 0l-1.708-1.717c-.16-.161-.251-.38-.251-.608V3.746L.63 4.979c-.372.103-.63.44-.63.827v29.185c0 .388.258.726.63.828l18.162 4.978V0l-5.125 1.404V19.54zm2.313 11.767c-.168.168-.386.25-.605.25-.219 0-.437-.083-.605-.25l-1.103-1.11v3.078c0 .473-.383.858-.854.858-.472 0-.855-.385-.855-.858v-3.079l-1.103 1.11c-.333.334-.875.334-1.208 0-.333-.335-.333-.88 0-1.214l2.56-2.574c.08-.079.175-.142.28-.187.208-.088.443-.088.652 0 .106.043.2.106.278.187l2.561 2.574c.335.336.335.879.002 1.215zM31.604 41C36.784 41 41 36.765 41 31.558s-4.216-9.443-9.396-9.443c-5.18 0-9.396 4.236-9.396 9.443S26.424 41 31.604 41zm-4.023-11.765l3.415-3.432c.079-.079.174-.142.278-.187.105-.043.216-.065.327-.065.11 0 .222.022.326.065.106.043.2.106.279.187l3.414 3.432c.334.335.334.879 0 1.214-.333.334-.874.334-1.207 0l-1.958-1.968v8.229c0 .474-.383.858-.854.858-.472 0-.854-.384-.854-.858V28.48l-1.958 1.968c-.333.334-.875.334-1.208 0-.333-.335-.335-.88 0-1.214zm4.023-8.836c2.276 0 4.47.697 6.343 2.013.262.184.603.208.885.059.284-.148.46-.441.46-.76V5.805c0-.388-.258-.726-.63-.827L20.5 0v31.558c0-6.153 4.982-11.16 11.104-11.16z" transform="translate(-215 -210) translate(172 173) translate(43 37)"/>
                </g>
            </g>
        </g>
    </g>
</svg>
