<svg xmlns="http://www.w3.org/2000/svg" width="35" height="43" viewBox="0 0 35 43">
    <g fill="none" fill-rule="evenodd">
        <g fill="#30D941" fill-rule="nonzero" stroke="#30D941" stroke-width=".743">
            <g>
                <g>
                    <g>
                        <path d="M23.155 14.464c.235 0 .46.096.62.266.36.377 8.813 9.315 8.813 14.313 0 7.094-7.31 12.864-16.294 12.864C7.31 41.907 0 36.137 0 29.043c0-4.998 8.452-13.936 8.813-14.313.16-.17.385-.266.62-.266h13.722zm-.37 1.715H9.803c-2.475 2.656-8.089 9.407-8.089 12.864 0 6.147 6.54 11.149 14.58 11.149 8.038 0 14.578-5.002 14.578-11.149 0-3.46-5.614-10.21-8.089-12.864zm-6.49 5.146c.473 0 .857.384.857.858v.923c1.876.293 3.292 1.54 3.427 3.126.04.472-.31.889-.782.928-.441.045-.889-.309-.927-.782-.058-.696-.771-1.292-1.718-1.522v3.494c2.316.567 3.428 1.657 3.428 3.268.002 1.654-1.473 3.04-3.428 3.36v.926c0 .475-.384.858-.858.858-.473 0-.857-.385-.857-.858v-.923c-1.876-.294-3.293-1.54-3.427-3.128-.04-.472.31-.887.782-.926.432-.059.887.308.926.782.059.696.772 1.292 1.718 1.521v-3.493c-2.316-.567-3.43-1.657-3.43-3.266 0-1.657 1.475-3.042 3.43-3.362v-.926c0-.474.385-.858.858-.858zm.857 8.787v3.117c.988-.242 1.715-.883 1.715-1.613 0-.688-.55-1.175-1.715-1.504zm-3.43-3.641c0 .687.55 1.173 1.714 1.504v-3.117c-.987.242-1.715.883-1.715 1.613zm9.433-15.437c.473 0 .857.384.857.858 0 .473-.384.857-.857.857H9.433c-.473 0-.857-.382-.857-.857 0-.476.384-.858.857-.858h13.722zM27.192.995c.261.26.326.66.162.99l-3.43 6.86c-.148.29-.445.474-.77.474H9.435c-.325 0-.621-.184-.767-.474l-3.43-6.86c-.167-.331-.102-.73.159-.99.26-.26.659-.328.991-.161l6.309 3.154L15.689.995c.334-.334.878-.334 1.212 0l2.993 2.993L26.203.834c.329-.167.73-.101.99.161zM16.294 2.813l-2.823 2.823c-.26.261-.659.326-.99.162l-4.56-2.28 2.042 4.086h12.664l2.04-4.086-4.558 2.28c-.33.166-.731.1-.99-.162l-2.825-2.823z" transform="translate(-916 -210) translate(172 174) translate(703) translate(42.322 36.383)"/>
                    </g>
                </g>
            </g>
        </g>
    </g>
</svg>
