<?xml version="1.0" encoding="UTF-8"?>
<svg width="46px" height="57px" viewBox="0 0 46 57" version="1.1" xmlns="http://www.w3.org/2000/svg" xmlns:xlink="http://www.w3.org/1999/xlink">
    <title>5D67B712-8754-45EF-80AA-549399C144A0</title>
    <g id="Page-1" stroke="none" stroke-width="1" fill="none" fill-rule="evenodd">
        <g id="Dashboard_Order_Status" transform="translate(-1169.000000, -222.000000)" fill="#E02020" fill-rule="nonzero" stroke="#E02020">
            <g id="Status" transform="translate(172.000000, 173.000000)">
                <g id="Group-4-Copy-3" transform="translate(941.000000, 0.000000)">
                    <g id="Group-5" transform="translate(57.000000, 49.000000)">
                        <path d="M31.1849993,19.480551 C31.5014693,19.480551 31.8040792,19.609911 32.0212192,19.838601 C32.5063192,20.346801 43.889999,32.3842107 43.889999,39.1155505 C43.889999,48.6697103 34.0447792,56.4405501 21.9449995,56.4405501 C9.84521977,56.4405501 8.52651283e-14,48.6697103 8.52651283e-14,39.1155505 C8.52651283e-14,32.3842107 11.3836797,20.346801 11.8687797,19.838601 C12.0859197,19.609911 12.3885297,19.480551 12.7049997,19.480551 L31.1849993,19.480551 Z M30.6860393,21.7905509 L13.2039597,21.7905509 C9.87062977,25.3664309 2.30999995,34.4585906 2.30999995,39.1155505 C2.30999995,47.3945903 11.1180297,54.1305502 21.9449995,54.1305502 C32.7719692,54.1305502 41.579999,47.3945903 41.579999,39.1155505 C41.579999,34.4539706 34.0193692,25.3641209 30.6860393,21.7905509 Z M21.9449995,28.7205508 C22.5825595,28.7205508 23.0999995,29.2379908 23.0999995,29.8755507 L23.0998828,31.1189072 C25.626609,31.5138986 27.5341112,33.1925102 27.7153793,35.3294606 C27.7685093,35.9647106 27.2972694,36.5260406 26.6620194,36.5791706 C26.0683494,36.6392306 25.4654394,36.1633706 25.4146194,35.5258106 C25.3354638,34.588536 24.3750627,33.78576 23.0996955,33.4764534 L23.0995184,38.1814572 C26.2183523,38.9448704 27.7176893,40.4131829 27.7176893,42.5828604 C27.7197116,44.8113993 25.7336028,46.6770113 23.09999,47.1071947 L23.0999995,48.3555503 C23.0999995,48.9954203 22.5825595,49.5105503 21.9449995,49.5105503 C21.3074395,49.5105503 20.7899995,48.9931103 20.7899995,48.3555503 L20.7891183,47.1120329 C18.2628878,46.7167225 16.3558639,45.0380133 16.1746196,42.8993304 C16.1214896,42.2640805 16.5927296,41.7050605 17.2279796,41.6519305 C17.8100996,41.5733905 18.4222496,42.0677305 18.4753796,42.7052904 C18.5545147,43.6423228 19.5144399,44.4449261 20.7893146,44.7544077 L20.7892457,40.0502449 C17.67096,39.2863505 16.1699996,37.8186103 16.1699996,35.6505506 C16.1699996,33.4202701 18.1558606,31.5545951 20.7890106,31.1240733 L20.7899995,29.8755507 C20.7899995,29.2379908 21.3074395,28.7205508 21.9449995,28.7205508 Z M23.1008607,40.5544524 L23.0993453,44.7525652 C24.4303566,44.426904 25.4099994,43.563531 25.4099994,42.5805504 C25.4099994,41.6534545 24.6694123,40.9982195 23.1008607,40.5544524 Z M18.4799996,35.6505506 C18.4799996,36.5762795 19.2199619,37.2309485 20.7881574,37.6759634 L20.789639,33.4787842 C19.4591445,33.8046359 18.4799996,34.6678198 18.4799996,35.6505506 Z M31.1849993,14.8605511 C31.8225592,14.8605511 32.3399992,15.3779911 32.3399992,16.0155511 C32.3399992,16.6531111 31.8225592,17.170551 31.1849993,17.170551 L12.7049997,17.170551 C12.0674397,17.170551 11.5499997,16.6554211 11.5499997,16.0155511 C11.5499997,15.3756811 12.0674397,14.8605511 12.7049997,14.8605511 L31.1849993,14.8605511 Z M36.6227391,1.34012142 C36.9738591,1.69124141 37.0616391,2.2294714 36.8398791,2.67299139 L32.2198792,11.9129912 C32.0212192,12.3033812 31.6215892,12.5505512 31.1849993,12.5505512 L12.7049997,12.5505512 C12.2684097,12.5505512 11.8687797,12.3033812 11.6724297,11.9129912 L7.05242983,2.67299139 C6.82835984,2.2271614 6.91613984,1.69124141 7.26725983,1.34012142 C7.61837982,0.98900143 8.15429981,0.898911432 8.6024398,1.12298143 L17.0986196,5.37107133 L21.1295695,1.34012142 C21.5800195,0.889671433 22.3122895,0.889671433 22.7627395,1.34012142 L26.7936894,5.37107133 L35.2898692,1.12298143 C35.7333892,0.898911432 36.2739291,0.98669143 36.6227391,1.34012142 Z M21.9449995,3.78872136 L18.1427396,7.59098127 C17.7916196,7.94210127 17.2556996,8.02988126 16.8098696,7.80812127 L10.6675797,4.73813134 L13.4187897,10.2405512 L30.4735193,10.2405512 L33.2224192,4.73813134 L27.0824394,7.80812127 C26.6389194,8.03219126 26.0983794,7.94441127 25.7495694,7.59098127 L21.9449995,3.78872136 Z" id="Combined-Shape"></path>
                    </g>
                </g>
            </g>
        </g>
    </g>
</svg>