<?xml version="1.0" encoding="utf-8"?>
<!-- Generator: Adobe Illustrator 26.3.1, SVG Export Plug-In . SVG Version: 6.00 Build 0)  -->
<svg version="1.1" id="Layer_1" xmlns="http://www.w3.org/2000/svg" xmlns:xlink="http://www.w3.org/1999/xlink" x="0px" y="0px"
	 viewBox="0 0 500 500" style="enable-background:new 0 0 500 500;" xml:space="preserve">
<style type="text/css">
	.st0{fill:#FFFFFF;stroke:#FFFFFF;stroke-width:6;stroke-miterlimit:10;}
</style>
<g>
	<g>
		<g>
			<g>
				<path class="st0" d="M250,465.5c-118.8,0-215.5-96.7-215.5-215.5c0-4.8,3.9-8.7,8.7-8.7s8.7,3.9,8.7,8.7
					c0,109.3,88.9,198.2,198.2,198.2S448.2,359.3,448.2,250S359.3,51.8,250,51.8c-40.6,0-79.6,12.2-112.8,35.2
					c-3.9,2.7-9.3,1.7-12.1-2.2c-2.7-3.9-1.8-9.3,2.2-12.1c36.1-25.1,78.5-38.3,122.7-38.3c118.8,0,215.5,96.7,215.5,215.5
					S368.8,465.5,250,465.5z"/>
			</g>
		</g>
	</g>
	<g>
		<g>
			<g>
				<path class="st0" d="M167,113.1l-73.6,17.6c-6.6,1.6-12.5-4.6-10.5-11.1L104.4,47c1.9-6.5,10.2-8.5,14.9-3.6l52.1,55
					C176.1,103.4,173.6,111.6,167,113.1z"/>
			</g>
		</g>
	</g>
</g>
<g>
	<g>
		<g>
			<g>
				<g>
					<path class="st0" d="M354.3,304.2H178.7c-2.9,0-5.5-2-6.1-4.9l-24-109.7c-0.4-1.8,0.1-3.8,1.2-5.2c1.2-1.5,3-2.3,4.9-2.3h223.5
						c1.9,0,3.7,0.9,4.9,2.3c1.2,1.5,1.6,3.4,1.2,5.2l-24,109.7C359.7,302.2,357.2,304.2,354.3,304.2z"/>
				</g>
			</g>
		</g>
		<g>
			<g>
				<g>
					<path class="st0" d="M316.6,363.7h-104c-3.4,0-6.2-2.8-6.2-6.2c0-3.4,2.8-6.2,6.2-6.2h104c3.4,0,6.2,2.8,6.2,6.2
						C322.9,360.9,320.1,363.7,316.6,363.7z"/>
				</g>
			</g>
		</g>
		<g>
			<g>
				<g>
					<path class="st0" d="M183.8,341.8c-2.9,0-5.5-2-6.1-5l-34.2-167H95.7c-3.4,0-6.2-2.8-6.2-6.2s2.8-6.2,6.2-6.2h52.8
						c3,0,5.5,2.1,6.1,5l35.2,172c0.7,3.4-1.5,6.7-4.9,7.3C184.6,341.8,184.2,341.8,183.8,341.8z"/>
				</g>
			</g>
		</g>
		<g>
			<g>
				<g>
					<path class="st0" d="M191.7,382.6c-15.1,0-27.3-12.3-27.3-27.4c0-11.2,6.7-21.2,17.2-25.3c3-1.3,6.5-2,10.2-2
						c15.1,0,27.3,12.3,27.3,27.3c0,1-0.1,1.9-0.2,2.8C217.3,372.1,205.6,382.6,191.7,382.6z M191.7,340.3c-2,0-3.8,0.3-5.4,1
						c-5.7,2.3-9.5,7.8-9.5,13.8c0,8.2,6.7,15,14.9,15c7.6,0,14-5.7,14.8-13.4c0-0.4,0.1-1,0.1-1.6
						C206.5,347,199.9,340.3,191.7,340.3z"/>
				</g>
			</g>
		</g>
		<g>
			<g>
				<g>
					<path class="st0" d="M339.4,382.6c-15.1,0-27.3-12.3-27.3-27.4c0-11.2,6.7-21.2,17.2-25.3c3-1.3,6.5-2,10.2-2
						c15.1,0,27.3,12.3,27.3,27.3c0,1-0.1,1.9-0.2,2.8C365,372.1,353.4,382.6,339.4,382.6z M339.4,340.3c-2,0-3.8,0.3-5.4,1
						c-5.7,2.3-9.5,7.8-9.5,13.8c0,8.2,6.7,15,14.9,15c7.6,0,14-5.7,14.8-13.4c0-0.4,0.1-1,0.1-1.6
						C354.3,347,347.6,340.3,339.4,340.3z"/>
				</g>
			</g>
		</g>
	</g>
</g>
</svg>
