<svg xmlns="http://www.w3.org/2000/svg" width="100" height="88" viewBox="0 0 100 88">
    <g fill="none" fill-rule="evenodd" opacity=".205">
        <g fill="#30D9C4" fill-rule="nonzero">
            <g>
                <path d="M30.462 17.051c1.277-3.819 5.353-5.963 9.224-4.677l56.887 18.3c7.041 2.777 4.653 9.374 4.653 9.374h6.506c4.077 0 7.288 3.186 7.268 7.23v57.267c0 4.269-3.212 7.455-7.289 7.455H22.288c-4.076 0-7.288-3.186-7.288-7.23V47.278c.631-6.617 5.7-7.232 7.42-7.249h.166c.255.004.402.02.402.02zm76.179 31.29H23.359v55.367h83.282V48.34zM84.869 90c2.389 0 4.113 1.899 4.113 4 .228 2.101-1.724 4-4.113 4H33.112C30.724 98 29 96.121 29 94c0-2.323 1.952-4 4.112-4zM55.007 69C57.327 69 59 70.899 59 73s-1.674 4-3.993 4H33.993C31.673 77 30 75.101 30 73c0-2.323 1.896-4 3.993-4zm0-14C57.327 55 59 56.899 59 59c0 2.323-1.674 4-3.993 4H33.993C31.673 63 30 61.101 30 59c0-2.323 1.896-4 3.993-4zm-17.05-34.538l-6.404 19.586h61.19l.597-1.695-55.383-17.89z" transform="translate(-670 -188) translate(655 176)"/>
            </g>
        </g>
    </g>
</svg>
