<svg xmlns="http://www.w3.org/2000/svg" width="17" height="19" viewBox="0 0 17 19">
    <g fill="none" fill-rule="evenodd">
        <g fill="#FFF" fill-rule="nonzero">
            <g>
                <g>
                    <g>
                        <path d="M29.487 31.05c-.245 0-.477-.105-.638-.288l-3.281-3.715c-2.024 1.275-4.548 1.47-6.744.52-2.196-.95-3.782-2.923-4.238-5.271-.428-2.165.149-4.407 1.568-6.097 1.419-1.69 3.527-2.646 5.734-2.599 3.732.108 6.787 3.003 7.097 6.724.083 1.06-.068 2.124-.442 3.119-.167.439-.658.66-1.096.493-.44-.167-.66-.658-.493-1.096.633-1.694.407-3.589-.605-5.086-1.013-1.497-2.688-2.412-4.495-2.454-1.69-.05-3.307.68-4.386 1.98-1.76 2.103-1.732 5.172.064 7.242 1.797 2.071 4.83 2.532 7.16 1.089.698-.423 1.596-.29 2.143.314l3.28 3.715c.22.25.274.606.137.91-.138.305-.44.5-.774.5h.009z" transform="translate(-734 -88) translate(172 52) translate(25 23) translate(523)"/>
                    </g>
                </g>
            </g>
        </g>
    </g>
</svg>
