<svg xmlns="http://www.w3.org/2000/svg" width="65" height="54" viewBox="0 0 65 54">
    <g fill="none" fill-rule="evenodd">
        <g fill="#30D941" fill-rule="nonzero">
            <g>
                <g>
                    <g>
                        <path d="M61.573 22.329L50.24 12.884c-1.61-1.342-3.65-2.081-5.748-2.081H29.125C27.356 4.579 21.632 0 14.85 0 6.658 0 0 6.664 0 14.85c0 4.439 1.968 8.421 5.068 11.146L.834 34.46C.29 35.554 0 36.777 0 37.997 0 42.355 3.545 45.9 7.903 45.9h.332c.661 4.568 4.566 8.1 9.312 8.1 4.747 0 8.651-3.532 9.313-8.1h11.072c.662 4.568 4.566 8.1 9.313 8.1 4.757 0 8.664-3.545 9.315-8.124 1.468-.068 2.775-.889 3.44-2.214l2.63-5.257c1.417-2.835 2.167-6.01 2.167-9.18.006-2.676-1.172-5.187-3.224-6.896zM2.7 14.85C2.7 8.151 8.149 2.7 14.85 2.7 21.551 2.7 27 8.151 27 14.85 27 21.549 21.549 27 14.85 27 8.151 27 2.7 21.549 2.7 14.85zM17.55 51.3c-3.72 0-6.75-3.027-6.75-6.75s3.03-6.75 6.75-6.75 6.75 3.027 6.75 6.75-3.03 6.75-6.75 6.75zm29.7 0c-3.72 0-6.75-3.027-6.75-6.75s3.03-6.75 6.75-6.75S54 40.827 54 44.55s-3.03 6.75-6.75 6.75zm12.968-14.102l-2.63 5.257c-.2.405-.594.634-1.028.696-.686-4.544-4.58-8.051-9.31-8.051-4.75 0-8.65 3.532-9.312 8.1H26.862c-.661-4.568-4.565-8.1-9.312-8.1-4.747 0-8.65 3.532-9.312 8.097h-.335c-2.868 0-5.203-2.333-5.203-5.203 0-.804.192-1.606.55-2.327l4.032-8.062c2.22 1.32 4.8 2.095 7.568 2.095 8.19 0 14.85-6.664 14.85-14.85 0-.454-.027-.902-.068-1.347h14.859c1.466 0 2.891.515 4.017 1.455l11.335 9.447c1.433 1.194 2.257 2.951 2.257 4.82 0 2.751-.65 5.51-1.882 7.973zM13.5 15.93v5.503c-1.49-.362-2.614-1.294-2.708-2.387-.062-.743-.71-1.277-1.458-1.231-.743.062-1.293.715-1.231 1.458.243 2.864 3.14 5.027 6.744 5.027h.006c3.718-.003 6.747-2.422 6.747-5.4 0-2.53-1.769-4.234-5.4-5.127V8.27c1.485.365 2.608 1.293 2.703 2.387.062.742.734 1.299 1.458 1.231.742-.062 1.293-.715 1.23-1.458-.242-2.86-3.128-5.017-6.72-5.025-.008-.002-.016-.005-.021-.005-.008 0-.016.005-.024.005-3.713.008-6.729 2.425-6.729 5.398 0 2.535 1.771 4.239 5.403 5.127zm2.7.63c1.795.517 2.697 1.268 2.697 2.34 0 1.147-1.145 2.146-2.697 2.527V16.56zm-2.7-8.285v4.871c-1.8-.518-2.7-1.269-2.7-2.34 0-1.15 1.145-2.15 2.7-2.53zm31.892 8.22c-.359-.287-.845-.373-1.274-.225-.435.149-.767.508-.878.953l-2.7 10.8c-.1.405-.01.832.246 1.159.257.326.648.518 1.064.518h16.2c.572 0 1.083-.362 1.272-.905.189-.542.019-1.142-.43-1.5l-13.5-10.8zM43.581 27l1.768-7.082L54.202 27H43.581z" transform="translate(-699 -454) translate(172 404) translate(470) translate(57 50)"/>
                    </g>
                </g>
            </g>
        </g>
    </g>
</svg>
