<svg xmlns="http://www.w3.org/2000/svg" width="27" height="29" viewBox="0 0 27 29">
    <g fill="none" fill-rule="evenodd">
        <g fill="#30D9C4" fill-rule="nonzero" stroke="#30D9C4" stroke-width=".672">
            <g>
                <g>
                    <path d="M62.308 14c.628 0 1.201.343 1.494.895.297.558.257 1.227-.103 1.746l-2.595 3.756 1.542.916c.412.246.703.655.795 1.123.092.468-.02.955-.308 1.336l-2.039 2.691c-.334.44-.843.676-1.364.676-.3 0-.603-.078-.878-.241l-1.589-.944-2.251 3.261c-.067.097-.103.207-.103.322v7.746c0 .587-.315 1.142-.826 1.445l-3.415 2.028c-.273.163-.574.244-.875.244-.287 0-.575-.074-.839-.222-.54-.303-.863-.851-.863-1.465v-9.776c0-.115-.036-.225-.102-.32L39.3 16.64c-.358-.518-.398-1.188-.101-1.745.294-.552.867-.895 1.494-.895h21.616zm0 1.125H40.692c-.3 0-.442.207-.489.295-.1.19-.088.408.035.585l8.688 12.576c.197.28.301.613.301.956v9.776c0 .294.201.438.286.487.087.048.315.143.57-.007l3.415-2.028c.17-.102.275-.286.275-.482v-7.746c0-.343.105-.675.302-.959l8.688-12.572c.122-.178.135-.396.034-.586-.048-.09-.19-.295-.489-.295zm-18.859 1.376l6.82 10.124c.173.26.103.608-.159.78-.096.063-.206.094-.314.094-.184 0-.363-.087-.473-.25l-6.82-10.125c-.173-.259-.103-.607.159-.78.261-.172.614-.103.787.157zm17.012 4.826l-2.555 3.697 1.531.91c.25.148.572.086.747-.146l2.039-2.69c.097-.129.134-.287.102-.446-.032-.159-.125-.291-.265-.375l-1.599-.95z" transform="translate(-646 -84) translate(172 52) translate(436 19)"/>
                </g>
            </g>
        </g>
    </g>
</svg>
