<svg xmlns="http://www.w3.org/2000/svg" width="100" height="100" viewBox="0 0 100 100">
    <g fill="none" fill-rule="evenodd" opacity=".19">
        <g fill="#B9CBD7" fill-rule="nonzero">
            <g>
                <g>
                    <path d="M150.6 13c7.058 0 12.8 5.742 12.8 12.8 0 6.515-4.896 11.898-11.2 12.69V57.8h14.4V32.2c0-2.646 2.154-4.8 4.8-4.8h3.31c.792-6.304 6.175-11.2 12.69-11.2 7.058 0 12.8 5.742 12.8 12.8 0 7.058-5.742 12.8-12.8 12.8-6.515 0-11.898-4.896-12.69-11.2h-3.31c-.883 0-1.6.718-1.6 1.6v25.6h3.2v22.4h3.2V54.6H173v-3.2h3.2c1.765 0 3.2 1.435 3.2 3.2v25.6h3.2V53c0-2.646-2.154-4.8-4.8-4.8H173V45h4.8c4.411 0 8 3.589 8 8v35.2c0 4.411-3.589 8-8 8h-14.4v3.2h4.8c2.646 0 4.8 2.154 4.8 4.8v3.2c0 2.646-2.154 4.8-4.8 4.8H133c-2.646 0-4.8-2.154-4.8-4.8v-3.2c0-2.646 2.154-4.8 4.8-4.8h4.8v-3.2h-14.4c-4.411 0-8-3.589-8-8V53c0-4.411 3.589-8 8-8h4.8v3.2h-4.8c-2.646 0-4.8 2.154-4.8 4.8v35.2c0 2.646 2.154 4.8 4.8 4.8H157v-3.2h-32c-1.765 0-3.2-1.435-3.2-3.2v-32c0-1.765 1.435-3.2 3.2-3.2h3.2v3.2H125v32h3.2V68.338l3.2-3.2V32.2c0-.882-.717-1.6-1.6-1.6h-3.31c-.792 6.304-6.175 11.2-12.69 11.2-7.058 0-12.8-5.742-12.8-12.8 0-7.058 5.742-12.8 12.8-12.8 6.515 0 11.898 4.896 12.69 11.2h3.31c2.646 0 4.8 2.154 4.8 4.8v29.738l4.138-4.138H149V38.49c-6.304-.792-11.2-6.175-11.2-12.69 0-7.058 5.742-12.8 12.8-12.8zm-12.8 89.6H133c-.883 0-1.6.717-1.6 1.6v3.2c0 .883.717 1.6 1.6 1.6h35.2c.883 0 1.6-.717 1.6-1.6v-3.2c0-.883-.717-1.6-1.6-1.6h-4.8c0 1.765-1.555 3.2-3.467 3.2h-18.666c-1.912 0-3.467-1.435-3.467-3.2zm22.405-6.4H141v6.38c.013-.04.104.022.267.02h18.666c.18 0 .278-.077.293-.096l-.021-6.304zM182.6 83.4h-22.4V93h17.6c2.646 0 4.8-2.154 4.8-4.8v-4.8zm-16 3.2v3.2h-3.2v-3.2h3.2zm6.4 0v3.2h-3.2v-3.2h3.2zm6.4 0v3.2h-3.2v-3.2h3.2zM169.8 61H141v9.6h-9.6v16H157v-3.2c0-1.765 1.435-3.2 3.2-3.2h9.6V61zm-19.2 19.2v3.2h-3.2v-3.2h3.2zm-6.4 0v3.2H141v-3.2h3.2zm-6.4 0v3.2h-3.2v-3.2h3.2zm28.8-6.4V77h-32v-3.2h32zm0-6.4v3.2h-22.4v-3.2h22.4zm-28.8-4.138l-4.138 4.138h4.138v-4.138zm8-11.862v3.2h-8v-3.2h8zm17.6 0v3.2h-8v-3.2h8zm0-6.4v3.2h-8V45h8zm-17.6 0v3.2h-8V45h8zm36.589-9.6h-2.125c.93 1.034 2.07 1.872 3.365 2.427-.43-.718-.856-1.534-1.24-2.427zm12.145 0h-2.124c-.384.894-.81 1.71-1.24 2.427 1.296-.555 2.436-1.393 3.364-2.427zm-85.745 0h-2.125c.93 1.034 2.07 1.872 3.365 2.427-.43-.718-.856-1.534-1.24-2.427zm12.145 0h-2.124c-.384.894-.81 1.71-1.24 2.427 1.296-.555 2.436-1.393 3.364-2.427zm67.928 0h-2.932c.494.926 1.017 1.704 1.467 2.306.448-.604.971-1.38 1.465-2.306zm-73.6 0h-2.932c.494.926 1.017 1.704 1.467 2.306.448-.604.971-1.38 1.465-2.306zm42.472-3.2H155.6c-.384.891-.805 1.714-1.235 2.429 1.297-.555 2.441-1.394 3.37-2.429zm-12.145 0h-2.125c.93 1.034 2.07 1.872 3.365 2.427-.43-.718-.856-1.534-1.24-2.427zm6.473 0h-2.932c.494.926 1.017 1.704 1.467 2.306.448-.604.971-1.38 1.465-2.306zm-29.222-6.4h-3c.22 1.013.36 2.078.36 3.2 0 1.122-.14 2.187-.36 3.2h3c.355-1.003.56-2.077.56-3.2 0-1.123-.205-2.197-.56-3.2zm-6.285 0h-5.504c-.275 1.002-.451 2.075-.451 3.2 0 1.128.174 2.2.446 3.2h5.504c.274-1.002.45-2.075.45-3.2 0-1.128-.174-2.2-.445-3.2zm-8.795 0h-3c-.355 1.003-.56 2.077-.56 3.2 0 1.123.205 2.197.56 3.2h3c-.22-1.013-.36-2.078-.36-3.2 0-1.122.14-2.187.36-3.2zm73.6 0h-3c-.355 1.003-.56 2.077-.56 3.2 0 1.123.205 2.197.56 3.2h3c-.22-1.013-.36-2.078-.36-3.2 0-1.122.14-2.187.36-3.2zm15.08 0h-3c.22 1.013.36 2.078.36 3.2 0 1.122-.14 2.187-.36 3.2h3c.355-1.003.56-2.077.56-3.2 0-1.123-.205-2.197-.56-3.2zm-6.285 0h-5.504c-.275 1.002-.451 2.075-.451 3.2 0 1.128.174 2.2.446 3.2h5.504c.274-1.002.45-2.075.45-3.2 0-1.128-.174-2.2-.445-3.2zm-30.515-3.2h-3c.22 1.013.36 2.078.36 3.2 0 1.125-.16 2.184-.38 3.2h3.02c.355-1.003.56-2.077.56-3.2 0-1.123-.205-2.197-.56-3.2zm-6.285 0h-5.504c-.275 1.002-.451 2.075-.451 3.2 0 1.128.174 2.2.446 3.2h5.504c.274-1.002.45-2.075.45-3.2 0-1.128-.174-2.2-.445-3.2zm-8.795 0h-3c-.355 1.003-.56 2.077-.56 3.2 0 1.123.205 2.197.56 3.2h3c-.22-1.013-.36-2.078-.36-3.2 0-1.122.14-2.187.36-3.2zm-26.989-2.427c.43.718.856 1.534 1.24 2.427h2.125c-.93-1.034-2.07-1.872-3.365-2.427zm-3.768.121c-.448.604-.971 1.38-1.465 2.306h2.932c-.494-.926-1.017-1.704-1.467-2.306zm-3.773-.121c-1.296.555-2.436 1.393-3.366 2.427h2.125c.384-.893.81-1.709 1.241-2.427zm81.141 0c.43.718.856 1.534 1.24 2.427h2.125c-.93-1.034-2.07-1.872-3.365-2.427zm-3.768.121c-.448.604-.971 1.38-1.465 2.306h2.932c-.494-.926-1.017-1.704-1.467-2.306zm-3.773-.121c-1.296.555-2.436 1.393-3.366 2.427h2.125c.384-.893.81-1.709 1.241-2.427zm-36.8-3.2c-1.296.555-2.436 1.393-3.366 2.427h2.125c.384-.893.81-1.709 1.241-2.427zm7.541 0c.43.718.856 1.534 1.24 2.427h2.125c-.93-1.034-2.07-1.872-3.365-2.427zm-3.768.121c-.448.604-.971 1.38-1.465 2.306h2.932c-.494-.926-1.017-1.704-1.467-2.306z" transform="translate(-1424 -423) translate(172 401) translate(1151 9)"/>
                </g>
            </g>
        </g>
    </g>
</svg>
