<svg xmlns="http://www.w3.org/2000/svg" width="21" height="22" viewBox="0 0 21 22">
    <g fill="none" fill-rule="evenodd">
        <g fill="#30D9C4" fill-rule="nonzero">
            <g>
                <g>
                    <g>
                        <g>
                            <path d="M11.044.544l2.407 5.224c.133.288.396.49.703.54l5.452.857c.348.056.636.306.746.65.111.343.025.722-.221.98l-4 4.211c-.21.222-.305.534-.253.839l.974 5.417c.063.353-.07.714-.346.935-.276.22-.648.265-.966.115l-4.918-2.303c-.247-.116-.53-.116-.777 0l-4.956 2.294c-.316.148-.685.104-.96-.114-.275-.218-.41-.575-.351-.927l.936-5.36c.052-.304-.042-.616-.252-.838l-4-4.231C.02 8.575-.063 8.2.047 7.86c.11-.34.394-.589.738-.646l5.452-.858c.317-.059.582-.281.703-.588L9.358.544C9.514.21 9.842 0 10.2 0s.686.211.843.544z" transform="translate(-432 -572) translate(104 534) translate(10 16) translate(293 12) translate(25.2 10.8)"/>
                        </g>
                    </g>
                </g>
            </g>
        </g>
    </g>
</svg>
