<svg xmlns="http://www.w3.org/2000/svg" width="313" height="323" viewBox="0 0 313 323">
    <g fill="none" fill-rule="evenodd" opacity=".129">
        <g fill="#FFF" fill-rule="nonzero">
            <g>
                <path d="M134.25-39.459l45.79 99.36c2.527 5.489 7.53 9.333 13.363 10.267l103.696 16.315c6.61 1.05 12.092 5.82 14.196 12.352 2.104 6.532.475 13.727-4.218 18.63l-76.08 80.111c-4 4.213-5.79 10.147-4.81 15.95l18.53 103.026c1.201 6.725-1.334 13.58-6.578 17.78-5.244 4.201-12.325 5.05-18.367 2.202l-93.54-43.814c-4.697-2.204-10.092-2.204-14.789 0L17.19 336.35c-6.01 2.818-13.04 1.983-18.269-2.167-5.228-4.15-7.797-10.935-6.675-17.63l17.817-101.928c.98-5.803-.81-11.736-4.81-15.949l-76.08-80.478c-4.59-4.912-6.152-12.038-4.058-18.502 2.094-6.464 7.5-11.2 14.036-12.296L42.847 71.084c6.026-1.117 11.072-5.34 13.363-11.182l45.968-99.36c2.977-6.325 9.206-10.342 16.036-10.342 6.83 0 13.058 4.017 16.035 10.341z" transform="translate(-1061 -181) translate(1061 181)"/>
            </g>
        </g>
    </g>
</svg>
