<svg xmlns="http://www.w3.org/2000/svg" width="63" height="63" viewBox="0 0 63 63">
    <g fill="none" fill-rule="evenodd">
        <g fill="#FFF" fill-rule="nonzero">
            <g>
                <g>
                    <path d="M33.781 13.663l7.364 15.98c.407.882 1.212 1.5 2.15 1.65l16.676 2.625c1.063.168 1.945.936 2.283 1.986.339 1.05.077 2.208-.678 2.996L49.341 51.784c-.644.678-.932 1.632-.774 2.565l2.98 16.57c.193 1.081-.215 2.183-1.058 2.859-.843.676-1.982.812-2.954.354l-15.043-7.046c-.756-.355-1.623-.355-2.379 0l-15.158 7.017c-.966.453-2.097.318-2.938-.349-.84-.667-1.254-1.759-1.074-2.836l2.866-16.392c.157-.933-.13-1.887-.774-2.565L.8 39.018c-.738-.79-.99-1.936-.653-2.975.337-1.04 1.206-1.802 2.257-1.978l16.677-2.624c.97-.18 1.781-.859 2.15-1.798l7.392-15.98c.48-1.017 1.48-1.663 2.58-1.663 1.098 0 2.1.646 2.578 1.663z" transform="translate(-1128 -263) translate(1061 181) translate(67 70)"/>
                </g>
            </g>
        </g>
    </g>
</svg>
