<?xml version="1.0" encoding="UTF-8"?>
<svg width="14px" height="16px" viewBox="0 0 14 16" version="1.1" xmlns="http://www.w3.org/2000/svg" xmlns:xlink="http://www.w3.org/1999/xlink">
    <title>Status</title>
    <g id="Page-1" stroke="none" stroke-width="1" fill="none" fill-rule="evenodd" fill-opacity="0.472394">
        <g id="Dashboard_Bulk_Upload" transform="translate(-139.000000, -647.000000)" fill="#7196B1">
            <path d="M146.019178,647 C146.383562,647 146.684018,647.300457 146.684018,647.66484 L146.684018,647.66484 L146.684018,648.03242 L148.943836,648.03242 C149.308219,648.03242 149.608676,648.332877 149.608676,648.69726 L149.608676,648.69726 L149.608676,649.394064 L152.33516,649.394064 C152.699543,649.394064 153,649.694521 153,650.058904 L153,650.058904 L153,661.958904 C153,662.323288 152.699543,662.623744 152.367123,662.623744 L152.367123,662.623744 L139.66484,662.623744 C139.300457,662.623744 139,662.323288 139,661.958904 L139,661.958904 L139,650.055708 C139,649.691324 139.300457,649.390868 139.66484,649.390868 L139.66484,649.390868 L142.426484,649.390868 L142.426484,648.694064 C142.426484,648.32968 142.726941,648.029224 143.091324,648.029224 L143.091324,648.029224 L145.354338,648.029224 L145.354338,647.66484 C145.354338,647.300457 145.654795,647 146.019178,647 Z M142.423288,650.723744 L140.32968,650.723744 L140.32968,661.33242 L151.699087,661.33242 L151.699087,650.723744 L149.605479,650.723744 L149.605479,651.452511 C149.605479,651.784932 149.305023,652.085388 148.940639,652.085388 L148.940639,652.085388 L143.088128,652.085388 C142.723744,652.085388 142.423288,651.784932 142.423288,651.420548 L142.423288,651.420548 L142.423288,650.723744 Z M148.943836,658.107306 C149.308219,658.107306 149.608676,658.407763 149.608676,658.772146 C149.608676,659.13653 149.308219,659.436986 148.943836,659.436986 L148.943836,659.436986 L143.091324,659.436986 C142.726941,659.436986 142.426484,659.13653 142.426484,658.772146 C142.426484,658.407763 142.726941,658.107306 143.091324,658.107306 L143.091324,658.107306 Z M148.943836,654.415525 C149.308219,654.415525 149.608676,654.715982 149.608676,655.080365 C149.608676,655.444749 149.308219,655.745205 148.943836,655.745205 L148.943836,655.745205 L143.091324,655.745205 C142.726941,655.745205 142.426484,655.444749 142.426484,655.080365 C142.426484,654.715982 142.726941,654.415525 143.091324,654.415525 L143.091324,654.415525 Z M148.310959,649.326941 L143.756164,649.326941 L143.756164,650.790868 L148.310959,650.790868 L148.310959,649.326941 Z" id="Status"></path>
        </g>
    </g>
</svg>