<?xml version="1.0" encoding="UTF-8"?>
<svg width="14px" height="16px" viewBox="0 0 14 16" version="1.1" xmlns="http://www.w3.org/2000/svg" xmlns:xlink="http://www.w3.org/1999/xlink">
    <title>status</title>
    <g id="Page-1" stroke="none" stroke-width="1" fill="none" fill-rule="evenodd">
        <g id="Dashboard_Bulk_Upload_menu_hover" transform="translate(-141.000000, -647.000000)" fill="#30D9C4" fill-rule="nonzero">
            <path d="M148.019178,647 C148.383562,647 148.684018,647.300457 148.684018,647.66484 L148.684018,647.66484 L148.684018,648.03242 L150.943836,648.03242 C151.308219,648.03242 151.608676,648.332877 151.608676,648.69726 L151.608676,648.69726 L151.608676,649.394064 L154.33516,649.394064 C154.699543,649.394064 155,649.694521 155,650.058904 L155,650.058904 L155,661.958904 C155,662.323288 154.699543,662.623744 154.367123,662.623744 L154.367123,662.623744 L141.66484,662.623744 C141.300457,662.623744 141,662.323288 141,661.958904 L141,661.958904 L141,650.055708 C141,649.691324 141.300457,649.390868 141.66484,649.390868 L141.66484,649.390868 L144.426484,649.390868 L144.426484,648.694064 C144.426484,648.32968 144.726941,648.029224 145.091324,648.029224 L145.091324,648.029224 L147.354338,648.029224 L147.354338,647.66484 C147.354338,647.300457 147.654795,647 148.019178,647 Z M144.423288,650.723744 L142.32968,650.723744 L142.32968,661.33242 L153.699087,661.33242 L153.699087,650.723744 L151.605479,650.723744 L151.605479,651.452511 C151.605479,651.784932 151.305023,652.085388 150.940639,652.085388 L150.940639,652.085388 L145.088128,652.085388 C144.723744,652.085388 144.423288,651.784932 144.423288,651.420548 L144.423288,651.420548 L144.423288,650.723744 Z M150.943836,658.107306 C151.308219,658.107306 151.608676,658.407763 151.608676,658.772146 C151.608676,659.13653 151.308219,659.436986 150.943836,659.436986 L150.943836,659.436986 L145.091324,659.436986 C144.726941,659.436986 144.426484,659.13653 144.426484,658.772146 C144.426484,658.407763 144.726941,658.107306 145.091324,658.107306 L145.091324,658.107306 Z M150.943836,654.415525 C151.308219,654.415525 151.608676,654.715982 151.608676,655.080365 C151.608676,655.444749 151.308219,655.745205 150.943836,655.745205 L150.943836,655.745205 L145.091324,655.745205 C144.726941,655.745205 144.426484,655.444749 144.426484,655.080365 C144.426484,654.715982 144.726941,654.415525 145.091324,654.415525 L145.091324,654.415525 Z M150.310959,649.326941 L145.756164,649.326941 L145.756164,650.790868 L150.310959,650.790868 L150.310959,649.326941 Z" id="status"></path>
        </g>
    </g>
</svg>