<svg xmlns="http://www.w3.org/2000/svg" width="27.612" height="26.538" viewBox="0 0 27.612 26.538">
    <path data-name="Fill 3" d="M13.125 26.538a13.409 13.409 0 0 1-9.4-4.1A13.1 13.1 0 0 1 0 12.974 13.311 13.311 0 0 1 13.1 0h.029a13.048 13.048 0 0 1 7.564 2.453 1.252 1.252 0 0 1 .546.8 1.332 1.332 0 0 1-.18 1.013 1.359 1.359 0 0 1-.844.581 1.459 1.459 0 0 1-.292.03 1.332 1.332 0 0 1-.726-.212 10.388 10.388 0 0 0-6.122-1.978 10.751 10.751 0 0 0-7.524 3.081 10.488 10.488 0 0 0-3.134 7.5 10.671 10.671 0 0 0 10.7 10.6 10.55 10.55 0 0 0 10.422-10.6 1.339 1.339 0 0 1 1.341-1.3h.1a1.344 1.344 0 0 1 1.241 1.229v.052a13.233 13.233 0 0 1-13.096 13.289zm.667-8.513a1.337 1.337 0 0 1-.918-.4l-5.558-5.616a1.3 1.3 0 0 1-.385-.929 1.314 1.314 0 0 1 .392-.94 1.346 1.346 0 0 1 1.893 0l4.6 4.642 11.5-11.634a1.483 1.483 0 0 1 .984-.4 1.348 1.348 0 0 1 .853.336l.086.083a1.343 1.343 0 0 1 .37.97 1.284 1.284 0 0 1-.413.9L14.775 17.626a1.263 1.263 0 0 1-.931.4H13.8a.018.018 0 0 0-.012 0z" style="fill:#fff"/>
</svg>
