<?xml version="1.0" encoding="utf-8"?>
<!-- Generator: Adobe Illustrator 25.3.1, SVG Export Plug-In . SVG Version: 6.00 Build 0)  -->
<svg version="1.1" xmlns="http://www.w3.org/2000/svg" xmlns:xlink="http://www.w3.org/1999/xlink" x="0px" y="0px"
	 viewBox="0 0 2500 2500" style="enable-background:new 0 0 2500 2500;" xml:space="preserve">
<style type="text/css">
	.st0{opacity:0.33;fill:#83E9CF;}
	.st1{fill:#FFFFFF;}
	.st2{fill:#83E9CF;}
	.st3{fill:url(#SVGID_1_);}
	.st4{fill:url(#SVGID_2_);}
	.st5{fill:url(#SVGID_3_);}
	.st6{fill:url(#SVGID_4_);}
	.st7{fill:#E27F6E;}
	.st8{fill:url(#SVGID_5_);}
	.st9{fill:url(#SVGID_6_);}
	.st10{fill:url(#SVGID_7_);}
	.st11{fill:url(#SVGID_8_);}
	.st12{fill:#DBDA83;}
	.st13{fill:#272151;}
	.st14{fill:url(#SVGID_9_);}
	.st15{fill:url(#SVGID_10_);}
	.st16{fill:url(#SVGID_11_);}
	.st17{fill:url(#SVGID_12_);}
	.st18{fill:#EDBEAB;}
	.st19{fill:#6EBAAD;}
	.st20{fill:url(#SVGID_13_);}
	.st21{fill:#2E2A5B;}
	.st22{fill:#7ADDC0;}
	.st23{fill:none;stroke:#231F20;stroke-width:4.782;stroke-miterlimit:10;}
	.st24{opacity:0.2;fill:#D3DEE5;}
	.st25{fill:url(#SVGID_14_);}
	.st26{fill:#D69F80;}
	.st27{fill:#D67569;}
	.st28{fill:#9FBCCC;}
	.st29{fill:#F9FBFC;}
</style>
<g id="bg">
</g>
<g id="obj">
	<g id="Layer_3">
	</g>
	<g>
		<path class="st0" d="M397.96,1729.97c-39.62-155.16-179.47-287.2-141.48-456.81c23.58-105.27,119.81-174.54,149.8-277.14
			c34.69-118.66-53.87-228.5-24.96-345.6c20.31-82.29,90.97-137.34,171.35-155.54c126.87-28.72,252.44,14.16,375.87,39.4
			c130.77,26.74,242.4,11.42,369.3-24.52c143.87-40.74,292.97-101.28,445.35-87.74c192.61,17.11,296.95,183.51,264.25,365.71
			c-16.81,93.69-57.2,181.32-83.61,272.76c-26.41,91.44-37.98,192.95,1.83,279.41c16.13,35.03,50.92,54.24,85.87,66.92
			c51.96,18.86,110.14,24.36,156.93,55.84c144.75,97.38,102.6,304.46,64.56,445.61c-4.25,15.75-8.12,31.39-11.87,47.26
			c-2.64,11.18-7.09,22.88-19.12,26.19c-10.58,2.91-21.93,0.77-32.69,0.52c-37.97-0.9-68.98-2.78-106.96-2.78
			c-506.86,0.06-1013.72,0.11-1520.58,0.17c-40.41,0-150.26,20.68-157.85-28.86c-5.76-37.9,21.13-87.57,23.62-125.54
			C409.71,1792.26,405.79,1760.66,397.96,1729.97z"/>
		<g>
			<path class="st1" d="M1752.32,1986.01H749.89c-21.38,0-38.72-17.33-38.72-38.72V595.92c0-21.38,17.33-38.72,38.72-38.72h1002.43
				c21.38,0,38.72,17.33,38.72,38.72v1351.37C1791.03,1968.68,1773.7,1986.01,1752.32,1986.01z"/>
			<g>
				<path class="st2" d="M1646.91,1087.09H855.29c-11.48,0-20.79-9.31-20.79-20.79v-0.45c0-11.48,9.31-20.79,20.79-20.79h791.62
					c11.48,0,20.79,9.31,20.79,20.79v0.45C1667.7,1077.78,1658.39,1087.09,1646.91,1087.09z"/>
				<path class="st2" d="M1646.91,1244.68H855.29c-11.48,0-20.79-9.31-20.79-20.79v-0.45c0-11.48,9.31-20.79,20.79-20.79h791.62
					c11.48,0,20.79,9.31,20.79,20.79v0.45C1667.7,1235.38,1658.39,1244.68,1646.91,1244.68z"/>
				<path class="st2" d="M1646.91,1402.28H855.29c-11.48,0-20.79-9.31-20.79-20.79v-0.45c0-11.48,9.31-20.79,20.79-20.79h791.62
					c11.48,0,20.79,9.31,20.79,20.79v0.45C1667.7,1392.97,1658.39,1402.28,1646.91,1402.28z"/>
				<path class="st0" d="M1646.91,1559.87H855.29c-11.48,0-20.79-9.31-20.79-20.79v-0.45c0-11.48,9.31-20.79,20.79-20.79h791.62
					c11.48,0,20.79,9.31,20.79,20.79v0.45C1667.7,1550.56,1658.39,1559.87,1646.91,1559.87z"/>
				<path class="st0" d="M1646.91,1717.46H855.29c-11.48,0-20.79-9.31-20.79-20.79v-0.45c0-11.48,9.31-20.79,20.79-20.79h791.62
					c11.48,0,20.79,9.31,20.79,20.79v0.45C1667.7,1708.16,1658.39,1717.46,1646.91,1717.46z"/>
			</g>
		</g>
		<g>
			<g>
				<path class="st2" d="M967.54,1770.66H549.36l99.28-53.15l-99.28-57.16h418.18c30.46,0,55.15,24.69,55.15,55.16l0,0
					C1022.69,1745.96,998,1770.66,967.54,1770.66z"/>
				<path class="st1" d="M1007.97,1715.5c0,1.85-0.12,3.65-0.36,5.42c-0.12,1-0.28,2.01-0.44,3.01c-1.08,5.38-3.21,10.39-6.14,14.8
					c-0.64,1.04-1.36,2.05-2.17,3.01c-1,1.32-2.13,2.57-3.33,3.77c-7.66,7.7-18.25,12.44-30,12.44H572.1v-84.88h393.43
					c11.63,0,22.14,4.65,29.76,12.19c1,0.96,1.93,1.97,2.77,3.01c3.61,4.29,6.38,9.31,8.06,14.8c0.32,1,0.56,2.01,0.8,3.01
					C1007.61,1709.12,1007.97,1712.25,1007.97,1715.5z"/>
				<g>
					<g>
						
							<linearGradient id="SVGID_1_" gradientUnits="userSpaceOnUse" x1="1850.7378" y1="1686.7618" x2="2276.698" y2="1686.7618" gradientTransform="matrix(-1 0 0 1 2848.8003 0)">
							<stop  offset="0" style="stop-color:#E2F4FF"/>
							<stop  offset="1" style="stop-color:#D7ECFF"/>
						</linearGradient>
						<path class="st3" d="M998.06,1688.27H572.1v-3.01h423.19C996.3,1686.22,997.22,1687.22,998.06,1688.27z"/>
					</g>
					<g>
						
							<linearGradient id="SVGID_2_" gradientUnits="userSpaceOnUse" x1="1841.8729" y1="1704.5719" x2="2276.698" y2="1704.5719" gradientTransform="matrix(-1 0 0 1 2848.8003 0)">
							<stop  offset="0" style="stop-color:#E2F4FF"/>
							<stop  offset="1" style="stop-color:#D7ECFF"/>
						</linearGradient>
						<path class="st4" d="M1006.93,1706.08H572.1v-3.01h434.02C1006.45,1704.07,1006.69,1705.07,1006.93,1706.08z"/>
					</g>
					<g>
						
							<linearGradient id="SVGID_3_" gradientUnits="userSpaceOnUse" x1="1841.191" y1="1722.4221" x2="2276.698" y2="1722.4221" gradientTransform="matrix(-1 0 0 1 2848.8003 0)">
							<stop  offset="0" style="stop-color:#E2F4FF"/>
							<stop  offset="1" style="stop-color:#D7ECFF"/>
						</linearGradient>
						<path class="st5" d="M1007.61,1720.92c-0.12,1-0.28,2.01-0.44,3.01H572.1v-3.01H1007.61z"/>
					</g>
					<g>
						
							<linearGradient id="SVGID_4_" gradientUnits="userSpaceOnUse" x1="1847.7697" y1="1740.2323" x2="2276.698" y2="1740.2323" gradientTransform="matrix(-1 0 0 1 2848.8003 0)">
							<stop  offset="0" style="stop-color:#E2F4FF"/>
							<stop  offset="1" style="stop-color:#D7ECFF"/>
						</linearGradient>
						<path class="st6" d="M1001.03,1738.73c-0.64,1.04-1.36,2.05-2.17,3.01H572.1v-3.01H1001.03z"/>
					</g>
				</g>
				<polygon class="st2" points="964.03,1719.51 953,1709.15 943.13,1719.51 943.13,1687.09 964.03,1687.09 				"/>
			</g>
			<g>
				<path class="st7" d="M1029.94,1878.96H611.76l99.28-53.15l-99.28-57.16h418.18c30.46,0,55.16,24.69,55.16,55.16l0,0
					C1085.1,1854.27,1060.4,1878.96,1029.94,1878.96z"/>
				<path class="st1" d="M1070.38,1823.81c0,1.85-0.12,3.65-0.36,5.41c-0.12,1-0.28,2.01-0.44,3.01c-1.08,5.38-3.21,10.39-6.14,14.8
					c-0.64,1.04-1.36,2.05-2.17,3.01c-1,1.32-2.13,2.57-3.33,3.77c-7.66,7.7-18.25,12.44-30,12.44H634.51v-84.88h393.43
					c11.63,0,22.14,4.65,29.76,12.19c1,0.96,1.93,1.97,2.77,3.01c3.61,4.29,6.38,9.31,8.06,14.8c0.32,1,0.56,2.01,0.8,3.01
					C1070.01,1817.43,1070.38,1820.56,1070.38,1823.81z"/>
				<g>
					<g>
						
							<linearGradient id="SVGID_5_" gradientUnits="userSpaceOnUse" x1="1788.3329" y1="1795.067" x2="2214.293" y2="1795.067" gradientTransform="matrix(-1 0 0 1 2848.8003 0)">
							<stop  offset="0" style="stop-color:#E2F4FF"/>
							<stop  offset="1" style="stop-color:#D7ECFF"/>
						</linearGradient>
						<path class="st8" d="M1060.47,1796.57H634.51v-3.01h423.19C1058.7,1794.53,1059.62,1795.53,1060.47,1796.57z"/>
					</g>
					<g>
						
							<linearGradient id="SVGID_6_" gradientUnits="userSpaceOnUse" x1="1779.4677" y1="1812.8772" x2="2214.293" y2="1812.8772" gradientTransform="matrix(-1 0 0 1 2848.8003 0)">
							<stop  offset="0" style="stop-color:#E2F4FF"/>
							<stop  offset="1" style="stop-color:#D7ECFF"/>
						</linearGradient>
						<path class="st9" d="M1069.33,1814.38H634.51v-3.01h434.02C1068.85,1812.38,1069.09,1813.38,1069.33,1814.38z"/>
					</g>
					<g>
						
							<linearGradient id="SVGID_7_" gradientUnits="userSpaceOnUse" x1="1778.7858" y1="1830.7271" x2="2214.293" y2="1830.7271" gradientTransform="matrix(-1 0 0 1 2848.8003 0)">
							<stop  offset="0" style="stop-color:#E2F4FF"/>
							<stop  offset="1" style="stop-color:#D7ECFF"/>
						</linearGradient>
						<path class="st10" d="M1070.01,1829.22c-0.12,1-0.28,2.01-0.44,3.01H634.51v-3.01H1070.01z"/>
					</g>
					<g>
						
							<linearGradient id="SVGID_8_" gradientUnits="userSpaceOnUse" x1="1785.3643" y1="1848.5374" x2="2214.293" y2="1848.5374" gradientTransform="matrix(-1 0 0 1 2848.8003 0)">
							<stop  offset="0" style="stop-color:#E2F4FF"/>
							<stop  offset="1" style="stop-color:#D7ECFF"/>
						</linearGradient>
						<path class="st11" d="M1063.44,1847.03c-0.64,1.04-1.36,2.05-2.17,3.01H634.51v-3.01H1063.44z"/>
					</g>
				</g>
				<polygon class="st12" points="1026.43,1827.82 1015.4,1817.46 1005.54,1827.82 1005.54,1795.39 1026.43,1795.39 				"/>
			</g>
			<g>
				<path class="st13" d="M925.72,1986.27H507.55l99.28-53.15l-99.28-57.16h418.18c30.46,0,55.15,24.69,55.15,55.16l0,0
					C980.88,1961.57,956.19,1986.27,925.72,1986.27z"/>
				<path class="st1" d="M966.16,1931.11c0,1.85-0.12,3.65-0.36,5.41c-0.12,1-0.28,2.01-0.44,3.01c-1.08,5.38-3.21,10.39-6.14,14.8
					c-0.64,1.04-1.36,2.05-2.17,3.01c-1,1.32-2.13,2.57-3.33,3.77c-7.66,7.7-18.25,12.44-30.01,12.44H530.29v-84.88h393.43
					c11.63,0,22.14,4.65,29.76,12.19c1,0.96,1.93,1.97,2.77,3.01c3.61,4.29,6.38,9.31,8.06,14.8c0.32,1,0.56,2.01,0.8,3.01
					C965.8,1924.73,966.16,1927.86,966.16,1931.11z"/>
				<g>
					<g>
						
							<linearGradient id="SVGID_9_" gradientUnits="userSpaceOnUse" x1="1892.5507" y1="1902.3695" x2="2318.5105" y2="1902.3695" gradientTransform="matrix(-1 0 0 1 2848.8003 0)">
							<stop  offset="0" style="stop-color:#E2F4FF"/>
							<stop  offset="1" style="stop-color:#D7ECFF"/>
						</linearGradient>
						<path class="st14" d="M956.25,1903.87H530.29v-3.01h423.19C954.48,1901.83,955.41,1902.83,956.25,1903.87z"/>
					</g>
					<g>
						
							<linearGradient id="SVGID_10_" gradientUnits="userSpaceOnUse" x1="1883.6854" y1="1920.1796" x2="2318.5105" y2="1920.1796" gradientTransform="matrix(-1 0 0 1 2848.8003 0)">
							<stop  offset="0" style="stop-color:#E2F4FF"/>
							<stop  offset="1" style="stop-color:#D7ECFF"/>
						</linearGradient>
						<path class="st15" d="M965.11,1921.68H530.29v-3.01h434.02C964.63,1919.68,964.87,1920.68,965.11,1921.68z"/>
					</g>
					<g>
						
							<linearGradient id="SVGID_11_" gradientUnits="userSpaceOnUse" x1="1883.0038" y1="1938.0294" x2="2318.5105" y2="1938.0294" gradientTransform="matrix(-1 0 0 1 2848.8003 0)">
							<stop  offset="0" style="stop-color:#E2F4FF"/>
							<stop  offset="1" style="stop-color:#D7ECFF"/>
						</linearGradient>
						<path class="st16" d="M965.8,1936.53c-0.12,1-0.28,2.01-0.44,3.01H530.29v-3.01H965.8z"/>
					</g>
					<g>
						
							<linearGradient id="SVGID_12_" gradientUnits="userSpaceOnUse" x1="1889.582" y1="1955.8397" x2="2318.5105" y2="1955.8397" gradientTransform="matrix(-1 0 0 1 2848.8003 0)">
							<stop  offset="0" style="stop-color:#E2F4FF"/>
							<stop  offset="1" style="stop-color:#D7ECFF"/>
						</linearGradient>
						<path class="st17" d="M959.22,1954.34c-0.64,1.04-1.36,2.05-2.17,3.01H530.29v-3.01H959.22z"/>
					</g>
				</g>
				<polygon class="st7" points="922.21,1935.12 911.18,1924.76 901.32,1935.12 901.32,1902.7 922.21,1902.7 				"/>
			</g>
		</g>
		<g>
			<g>
				<path class="st18" d="M434.53,1486.86l98.6-18.93l-11.04-175.49l-15.24-48.67l-56.43-11.93l-33.55,11.59
					c-19.07,6.59-30.48,26.09-26.89,45.95l32.95,138.6L434.53,1486.86z"/>
				<path class="st18" d="M433.95,1209.28l5.78,39.87c0,0,9.16,3.81,28.87,0.95c10.63-1.54,12.29-6.92,12.29-6.92l-2.14-14.74
					L433.95,1209.28z"/>
				<path class="st18" d="M424.99,1180.19c0.3,1.43,0.54,2.77,0.83,4.07c0.07,0.47,0.09,0.94,0.16,1.45
					c2.45,23.81,21.32,46.95,44.7,47.08c0,0,0.19,0.02,0.53,0.02c0.19-0.03,0.47-0.02,0.8-0.07c4.98-0.1,22.89-1.23,28.33-9.3
					c6.38-9.49,10.9-25.84,9.38-36.34c-1.52-10.5-3.79-12.71-4.41-16.95c-0.48-3.31-0.21-13.92-0.82-18.41
					c-2.91-21.14-20.17-40.04-45.42-36.38C421.18,1120.85,420.23,1154.91,424.99,1180.19z"/>
				<path class="st19" d="M480.68,1241.83"/>
				<g>
					<path class="st18" d="M346.46,1403.35c11.46,7.13,59.06-55.58,77.29-83.69c18.23-28.12,27.57-53.53,13.58-62.24
						c-13.99-8.71-32.67,10.88-49.86,39.64C370.28,1325.83,335,1396.22,346.46,1403.35z"/>
					<g>
						<path class="st18" d="M433.79,1528.76c10.24-6.2-32.57-83.24-45.45-104.51c-12.88-21.27-28.05-42.77-39.52-35.82
							c-11.48,6.95,0.55,30.35,13.43,51.63C375.12,1461.32,423.55,1534.96,433.79,1528.76z"/>
					</g>
					<path class="st18" d="M412.17,1342.6c0,0-35.72,47.92-35.79,48.87c-0.07,0.95,54.25,111.65,54.25,111.65l-17.92,11.4
						c0,0-74.15-87.7-71.78-116.56c2.37-28.86,31.89-83.17,31.89-83.17L412.17,1342.6z"/>
					<g>
						<path class="st18" d="M428.42,1504.17l2.2-1.06l0.02-0.03l0.03,0.02l8.92,3.9c2.28,1.02,4.28,2.54,5.82,4.5l4.53,10.06
							c0,0-1.17,3.19-5.11-1.69c-1.03-1.27-3.5-2.14-5.55-2.73l3.23,5.31l6.92,13.59c1.8,3.47,1.23,9.17-2.79,11.47
							c0,0-5.9,2.76-11.55-1.96l-8.43-5.89c-3.83-3.81-7.5-6.05-9.55-11.05l-4.4-14.09L428.42,1504.17z"/>
					</g>
					
						<linearGradient id="SVGID_13_" gradientUnits="userSpaceOnUse" x1="521.6656" y1="1391.9454" x2="623.3734" y2="1391.9454" gradientTransform="matrix(-0.0755 0.9971 -0.9971 -0.0755 1846.7653 827.8194)">
						<stop  offset="0.0628" style="stop-color:#678AFF"/>
						<stop  offset="0.9975" style="stop-color:#5A57FF"/>
					</linearGradient>
					<path class="st20" d="M413.56,1344.43l-43.86-28.73c0,0,49.28-88.35,85.18-67.86C484.86,1264.95,413.56,1344.43,413.56,1344.43
						z"/>
				</g>
				<g>
					<path class="st18" d="M455.58,1502.89c-11.64,4.55-17.96,23.15-13.84,40.36c3.28,13.69,8.99,31.25,18.92,51.76
						c24.78,51.2,44.24,119.8,61.46,119.38c17.21-0.42,22.49-43.14,5.07-98.55c-15.75-50.08-30.37-115.82-43.08-118.97
						C477.67,1495.28,465.77,1498.92,455.58,1502.89z"/>
					<g>
						<path class="st18" d="M368.42,1850.26c-0.07,0.88-38.55,49.28-38.55,49.28s20.87,21.38,22.28,19.79
							c1.41-1.59,38.72-40.12,38.72-40.12L368.42,1850.26z"/>
						<g>
							<path class="st18" d="M543.4,1696.8c-23.32-42.99-187.11,160.74-204.08,200.41c-16.97,39.67,82.69-60.17,133.32-107.67
								C523.26,1742.04,552.57,1713.72,543.4,1696.8z"/>
						</g>
						<path class="st7" d="M357.16,1914.06c0,0-2.4,8.12-1.06,25.88c1.18,15.68,10.2,20.56,6.92,22.88
							c-3.15,2.23-51.7-44.16-51.7-44.16l22.5-25.34C333.82,1893.32,357.16,1914.08,357.16,1914.06z"/>
					</g>
					<path class="st13" d="M534.8,1481.52c0,0,28.41,166.17,24.89,217.91c-2.67,39.24-180.32,203.69-180.32,203.69l-32-31.24
						c0.38-8,33.9-56.13,72.38-99.05c39.62-44.19,65.53-75.81,65.53-75.81s-61.72-139.31-60.25-199.57"/>
				</g>
				<path class="st18" d="M513.78,1486.95c-10.69,6.47-13.74,25.88-6.74,42.13c5.57,12.93,14.19,29.26,27.48,47.77
					c33.16,46.22,64.06,110.48,80.95,107.13c16.89-3.35,14.79-46.35-11.84-97.97c-24.07-46.66-49.71-108.93-62.76-109.86
					C534.24,1475.68,523.13,1481.29,513.78,1486.95z"/>
				<g>
					<g>
						<path class="st18" d="M621.54,1653.64c-46.18-16.11-35.03,244.75-20.88,285.51c14.14,40.76,25.46-100.09,30.94-169.29
							C637.08,1700.66,639.71,1659.98,621.54,1653.64z"/>
					</g>
					<path class="st18" d="M590.43,1888.4c0.5,0.73,1.5,62.55,1.5,62.55s29.7,3.27,29.78,1.15c0.08-2.13,4.44-55.58,4.44-55.58
						L590.43,1888.4z"/>
					<path class="st7" d="M622.19,1945.83c0,0,2.79,9.24,21.31,21.84c18.52,12.6,23.6,10.2,23.86,14.66
						c0.26,4.46-78.92-2.25-78.92-2.25l2.64-36.46C591.08,1943.62,622.22,1944.88,622.19,1945.83z"/>
				</g>
				<path class="st21" d="M552.07,1478.72c0,0,78.73,134.48,85.59,180.2c6.86,45.72-11.05,259.06-11.05,259.06
					s-35.05,6.1-41.53-5.33c-6.48-11.43-8.38-236.58-8.38-236.58s-107.68-106-135.88-144.77c-12.19-16.76-15.81-33.85-15.81-33.85
					L552.07,1478.72z"/>
				<path class="st2" d="M509.72,1490.35c0,0-84.43,11.11-84.7,7.1c-1.71-26.95-15.84-119.14-22.49-140.53
					c-23.64-75.73-14.76-102.53,5.97-111.68c31.05-13.79,92.65-9.62,101.77-3.34c9.13,6.36,17.31,18.49,22.71,45.05
					c1.1,5.4,6,17.33,5.98,33.65c0.04,3.34-0.14,6.85-0.62,10.48c0,0,0,0,0.01,0.08c-0.17,1.34-0.34,2.68-0.67,4.03
					c-0.5,2.62-0.84,4.59-1.07,5.4c-9.9,40.9,9.47,118.8,16.28,137.22C553.64,1479.83,509.72,1490.35,509.72,1490.35z"/>
				<g>
					<path class="st12" d="M961.94,989.93c-37.2-35.73-96.36-34.54-132.09,2.67c-35.73,37.2-34.51,96.33,2.69,132.06
						c37.2,35.73,96.3,34.54,132.03-2.66C1000.31,1084.79,999.14,1025.66,961.94,989.93z M848.58,1107.97
						c-27.99-26.89-28.89-71.37-2.03-99.33c26.89-27.99,71.37-28.89,99.36-2c27.96,26.86,28.86,71.34,1.97,99.33
						C921.02,1133.92,876.54,1134.82,848.58,1107.97z"/>
					<g>
						
							<rect x="647.42" y="1184.22" transform="matrix(0.6927 -0.7212 0.7212 0.6927 -628.9785 918.1041)" class="st12" width="230.94" height="25.85"/>
					</g>
					<g>
						<path class="st13" d="M668.58,1295.34c-8.24-7.91-8.5-21-0.59-29.24l67.34-70.11c7.91-8.24,21-8.5,29.24-0.59
							c8.24,7.91,8.5,21,0.59,29.24l-67.34,70.11C689.91,1302.99,676.82,1303.25,668.58,1295.34z"/>
					</g>
				</g>
				<g>
					<path class="st18" d="M770.57,1242.09l-5.26,8.84c-3.51,4.09-5.45,7.94-10.28,10.36l-10.44,4.13l-3.31,1.32l-11.49-14.92
						l-1.21-2.1h-0.04v-0.04l0.04-0.08l2.69-7.67l0.51-1.44c0.04-0.04,0.04-0.12,0.08-0.16c0.86-2.3,2.18-4.36,3.97-6l9.7-5.26
						c0,0,3.27,0.9-1.32,5.22c-1.17,1.13-1.87,3.66-2.3,5.72l0.82-0.58l4.24-3.04l13.01-7.91c3.35-2.06,9.07-1.91,11.64,1.91
						C771.62,1230.4,774.85,1236.09,770.57,1242.09z"/>
				</g>
				<g>
					<path class="st18" d="M635.45,1341.18c6.25-11.96-59.88-54.7-89.29-70.76c-29.41-16.05-55.46-23.45-63.09-8.85
						c-7.63,14.6,13.32,31.76,43.29,46.73C556.35,1323.28,629.2,1353.14,635.45,1341.18z"/>
					<g>
						<path class="st18" d="M753.91,1244.64c-6.95-9.74-80.54,38.76-100.78,53.21c-20.24,14.45-40.54,31.19-32.74,42.11
							c7.8,10.92,30.23-2.84,50.47-17.29C691.09,1308.23,760.86,1254.38,753.91,1244.64z"/>
					</g>
					<path class="st18" d="M569.91,1280.24c0,0,50.48,32,51.43,32c0.95,0,107.23-62.52,107.23-62.52l12.72,17.01
						c0,0-81.86,80.56-110.81,80.37c-28.95-0.19-85.34-25.52-85.34-25.52L569.91,1280.24z"/>
					<path class="st22" d="M571.63,1278.72l-25.33,45.91c0,0-91.81-42.48-74.1-79.81C487,1213.62,571.63,1278.72,571.63,1278.72z"/>
				</g>
				<path class="st13" d="M483.02,1261.87c-12.28,46.82-33.07,105.86-88.93,111.55c-25.13,2.56-79.55,10-89.85-22.3
					c-7.2-22.58-2.14-49.16,13.71-66.95c21-23.57,39.48-27.91,64.45-46.44c12.74-9.45,21.69-21.84,23.15-37.98
					c2.82-31.09-6.63-59.67,22.52-81.97c15.62-11.95,37.26-15.55,55.91-9.31c11.99,4.01,23.57,13.5,24.38,26.12
					c0.26,4.01-0.59,7.99-1.44,11.92C498.7,1184.79,492.98,1223.92,483.02,1261.87z"/>
				<polygon class="st18" points="742.29,1240.1 741.9,1240.02 742.72,1239.44 				"/>
				<path class="st18" d="M770.57,1242.09l-5.26,8.84c-3.51,4.09-5.45,7.94-10.28,10.36l-10.44,4.13l-16.01-15.81l2.69-7.67
					l0.51-1.44c0.04-0.04,0.04-0.12,0.08-0.16l10.05-0.31l0.82-0.58l4.24-3.04l13.01-7.91c3.35-2.06,9.07-1.91,11.64,1.91
					C771.62,1230.4,774.85,1236.09,770.57,1242.09z"/>
			</g>
			<path class="st23" d="M521.85,1482.53"/>
		</g>
		<rect x="235.87" y="1979.28" class="st13" width="2028.26" height="12.92"/>
		<g>
			<g>
				<path class="st12" d="M2094.35,1805.17c-54.44,63.85-29.76,112.49-53.17,114.96c-1.21,0.13-2.31,0.14-3.36-0.01
					c-18.21-2.34-11.77-44.37-70.23-99.21c-36.96-34.73-107.13-97.01-88.57-129.64c15.91-27.91,64.13,32.45,89.03-5.28
					c18.11-27.42-54.27-36.69-42.86-65.5c12.63-31.91,56.86,10.89,63.04-20.31c6.14-31.15-27.25-74.48,0.18-82.03
					c0.43-0.12,0.86-0.2,1.25-0.28c26.43-5.94,35.98,35.24,40.92,62.54c5.02,27.73,4.7,36.46,13.09,34.23
					c8.39-2.22,32.65-37.02,50.35-16.75c17.7,20.3-34.56,68.84-29.17,104.47c5.4,35.67,42.51-24.16,55.98,8.7
					C2128.54,1729.96,2121.41,1773.48,2094.35,1805.17z"/>
				<polygon class="st1" points="2097.35,1731.63 2033.8,1790.4 2022.12,1696.47 2022.2,1696.53 2061.64,1637.67 2021.13,1688.5 
					2007.49,1578.79 2012.34,1643.4 1970.05,1631.43 2012.8,1649.47 2020.2,1748.03 1929.34,1726.65 2020.64,1753.79 
					2030.41,1877.89 2042.05,1876.73 2034.65,1797.26 				"/>
			</g>
			<g>
				<path class="st13" d="M2090.33,1872.67l-0.88,10.2l-7.9,89.25c-0.39,4.86-4.4,8.61-9.31,8.65l-75.8,0.66
					c-4.91,0.04-8.98-3.64-9.46-8.49l-8.52-80.26l0-0.16l-2-18.85L2090.33,1872.67z"/>
				<path class="st24" d="M2089.45,1882.87l-7.9,89.25c-0.39,4.86-4.4,8.61-9.31,8.65l-36.07,0.32
					c32.78-13.07,40.77-42.14,34.1-64.46c-7.22-24.15-83.68-24.02-91.82-23.94c-0.43,0-0.7,0.01-0.7,0.01l0.7-0.17l72.49-15.25
					L2089.45,1882.87z"/>
				<linearGradient id="SVGID_14_" gradientUnits="userSpaceOnUse" x1="1969.551" y1="1882.8252" x2="2097.4119" y2="1882.8252">
					<stop  offset="0" style="stop-color:#8AD3FF"/>
					<stop  offset="1" style="stop-color:#5F9CFF"/>
				</linearGradient>
				<path class="st25" d="M2093.72,1891.95l-120.3,1.05c-2.06,0.02-3.74-1.64-3.76-3.7l-0.1-11.86c-0.02-2.06,1.64-3.74,3.7-3.76
					l120.3-1.05c2.06-0.02,3.74,1.64,3.76,3.7l0.1,11.86C2097.43,1890.25,2095.77,1891.94,2093.72,1891.95z"/>
			</g>
		</g>
	</g>
	<g>
		<g>
			<g>
				<g>
					<path class="st26" d="M1781.06,1435.68c18.69,1.99,31.6,19.54,28.21,38.02c-2.69,14.71-8.46,33.92-20.21,57.09
						c-29.32,57.85-47.48,132.24-74.03,135.72c-26.55,3.48-42-38.9-24.72-99.37c15.62-54.66,26.82-125.03,45.83-131.12
						C1745.77,1432.93,1764.71,1433.93,1781.06,1435.68z"/>
					<g>
						<path class="st26" d="M1694.63,1649.51c47.57-33.52,41.79,192.88,28.61,256.42c-13.18,63.54-26.19,20.24-34.59-81.52
							C1680.24,1722.65,1675.92,1662.7,1694.63,1649.51z"/>
						<polygon class="st18" points="1730.49,1899.62 1731.8,1923.38 1692.88,1924.32 1694,1901.3 						"/>
						<path class="st13" d="M1692.04,1923.83c0,0-7.4,14.29-31.87,32.92c-24.48,18.63-30.89,14.6-31.45,21.55
							c-0.56,6.94,107.01,0.91,107.01,0.91l-3.37-57.06C1732.36,1922.14,1692.05,1922.34,1692.04,1923.83z"/>
					</g>
				</g>
				<g>
					<path class="st26" d="M1835.47,1434.45c18.31-4.22,36.25,8.14,39.09,26.71c2.26,14.78,3.09,34.82-0.44,60.56
						c-8.81,64.26-1.66,140.49-25.61,152.46c-23.95,11.96-52.41-23.04-55.84-85.84c-3.1-56.76-15.51-126.93,0.46-138.9
						C1801.22,1443.39,1819.45,1438.15,1835.47,1434.45z"/>
					<g>
						<path class="st26" d="M1825.12,1649.51c47.57-33.52,41.79,192.88,28.61,256.42c-13.18,63.54-26.19,20.24-34.59-81.52
							C1810.72,1722.65,1806.4,1662.7,1825.12,1649.51z"/>
						<polygon class="st18" points="1859.62,1906.77 1859.74,1930.07 1822.41,1930.35 1822.97,1907.47 						"/>
					</g>
					<path class="st13" d="M1860.1,1929.74c0,0,0.56,13.1,1.5,18.15c0.94,5.05,10.67,28.63,8.79,30.5c-1.87,1.87-48.28,1.5-52.02,0
						s3.93-48.46,3.93-48.46L1860.1,1929.74z"/>
				</g>
			</g>
			<path class="st13" d="M1868.58,1434.25c0,0,15.72,19.65,10.1,106.66c-6.38,98.9-8.98,133.6-8.98,140.9s-6.55,229.41-6.55,229.41
				s-37.56,4.22-46.5-3.46c-4.68-4.02-30.59-350.75-30.59-350.75s-39.63,81.12-43.41,113.02c-2.37,20.01-2.14,72.1-1.5,122.38
				c0.73,56.91,6.74,103.29-1.12,109.65c-10.33,8.36-56.51,4.12-53.89,6.74c2.62,2.62-19.65-189.74-12.35-273.94
				c8.58-98.99,47.9-195.35,47.9-195.35L1868.58,1434.25z"/>
			<path class="st18" d="M1751.83,1214.79c6.58,4.9,9.2,13.57,7.7,21.59c-6.7,36.01-31.15,156.28-57.89,152.73
				c-31.43-4.18-3.44-109.45,8.51-138.83C1720.11,1225.8,1735.93,1202.94,1751.83,1214.79z"/>
			<path class="st27" d="M1785.22,1193.43c0,0-53.67,3.88-65.21,25.64c-9.73,18.34-27.41,84.67-27.41,84.67l50.8,13.47
				L1785.22,1193.43z"/>
			<g>
				<g>
					<path class="st18" d="M1707.87,1414.78c-5.27,5.44-13.06,7.5-20.42,6.35c-36.32-5.64-167.7-27.09-171.36-42.73
						c-4.24-18.16,186.86,4.04,191.05,12.96C1710.41,1398.31,1716.35,1406.03,1707.87,1414.78z"/>
				</g>
				<g>
					<path class="st18" d="M1543.41,1373.99l-0.47-2.36l0.01-0.03l-0.04-0.01l-8.36-4.73c-2.16-1.2-4.54-1.87-7-1.92l-10.62,2.39
						c0,0-1.82,2.81,4.36,3.03c1.61,0.06,3.76,1.49,5.44,2.76l-6.1,0.6l-14.82,2.6c-3.8,0.63-7.96,4.47-7.39,9
						c0,0,1.32,6.29,8.4,7.95l9.65,3.16c5.28,0.76,9.22,2.33,14.38,0.98l13.72-4.88L1543.41,1373.99z"/>
				</g>
			</g>
			<path class="st7" d="M1832.65,1188.94c0,0,11.73,1.61,24.22,5.65c13.62,4.41,28.13,11.71,29.3,22.98
				c2.25,21.61-14.22,74.93-14.22,218.65c0,12.63-152.23,17.15-151.38,4.02c6.36-98.05-8.42-207.24,7.11-222.67
				c14.88-14.78,31.44-23.02,58.66-24.42"/>
			<g>
				<g>
					<path class="st12" d="M1731.15,1443.37l-21.53,0.83l244.01,71.02c7.54,2.19,15.45-2.15,17.65-9.69l2.23-7.68l-6.54-1.9
						l-2.23,7.68c-1.14,3.93-5.27,6.2-9.2,5.05L1731.15,1443.37z"/>
				</g>
				<path class="st2" d="M1983.28,1442.24l-596.05-173.49l-45.42-11.45l-16.93,58.17l44.46,14.72l596.05,173.49
					c3.27,0.95,6.69-0.93,7.64-4.2l14.44-49.6C1988.43,1446.62,1986.55,1443.2,1983.28,1442.24z"/>
				<path class="st13" d="M2013.05,1465.37l-10.12,34.79c-0.5,1.7-2.28,2.68-3.98,2.19l-24.65-7.17l11.92-40.96l24.65,7.17
					C2012.56,1461.88,2013.54,1463.66,2013.05,1465.37z"/>
				<polygon class="st28" points="1239.21,1255.78 1224.06,1254.59 1237.49,1261.72 				"/>
				<polygon class="st13" points="1341.96,1257.67 1239.45,1254.99 1237.26,1262.51 1325.2,1315.25 				"/>
			</g>
			<path class="st18" d="M1786.25,1180.25v26.28c0,0,0.75,10.67,10.67,10.67c9.92,0,30.69-15.72,33.68-22.08
				c2.99-6.36-1.31-9.63-1.31-23.1c0-13.47,0-14.96,0-14.96s25.26-40.04,8.42-63.81c-16.84-23.76-65.59-5.47-66.99,13.1
				c-2.64,35.15-3.81,68.89,2.37,72.82C1779.26,1183.1,1786.25,1180.25,1786.25,1180.25z"/>
			<path class="st13" d="M1829.3,1157.04c-1.04-0.27,6.26-26.01,0.54-26.28c-4.5-0.23-6.49,7.11-7.34,14.06
				c-2.31-0.65-5.11-1.34-6.38-1.65c2.92-12.26,3.73-28.32,0.27-32.35c-2.64-3.08-7.4-2.82-11.05-2.41
				c-6.55,0.74-12.81,3.01-19.31,4.02c-7.12,1.1-14.63-0.37-20.04-5.36c-11.69-10.79-11.75-32.22-5.07-45.56
				c3.78-7.56,9.68-9.52,16.85-5.05c6.18,3.86,10.83,9.46,16.66,13.73c4.89,3.58,10.49,6.2,16.38,7.62
				c5.99,1.45,12.57,0.22,18.26,2.94c4.45,2.13,8.31,4.99,11.11,9.29c0.88,1.53,1.62,3.2,2.24,4.98c1.87,5.36,2.72,11.8,3.44,18.99
				C1847.82,1133.95,1830.3,1157.35,1829.3,1157.04z"/>
			<path class="st18" d="M1881.48,1219.46c7.72,2.06,13.21,8.95,14.75,16.73c6.93,34.97,28.22,152.51,2.77,158.94
				c-29.92,7.57-42.6-97.7-42.39-128.57C1856.78,1240.85,1862.82,1214.49,1881.48,1219.46z"/>
			<g>
				<path class="st18" d="M1905.91,1385.42c-2.38,7.58-8.82,13.13-16.42,15.46c-37.49,11.5-179.34,55.4-183.42,38.71
					c-3.37-13.75,179.32-82.43,187.7-75.95C1900.28,1368.68,1909.74,1373.23,1905.91,1385.42z"/>
			</g>
			<path class="st18" d="M1911.24,1300.93c0,0,9.17,81.3-6.92,94.59c-17.38,14.35-170.34,45.93-170.34,45.93l-8.04-19.4
				c0,0,134.5-56.84,136.18-59.09c1.68-2.25-4.21-56.98-4.21-56.98L1911.24,1300.93z"/>
			<g>
				<path class="st18" d="M1727.16,1424.19l-1.18-2.1l0-0.04l-0.04,0l-9.41-1.91c-2.42-0.47-4.9-0.38-7.25,0.34l-9.36,5.55
					c0,0-0.87,3.24,5.09,1.53c1.55-0.45,4.04,0.26,6.03,0.94l-5.62,2.46l-13.29,7.04c-3.42,1.78-6.19,6.71-4.25,10.85
					c0,0,3.19,5.57,10.44,4.97l10.15,0.03c5.25-0.91,9.49-0.63,13.98-3.51l11.54-8.88L1727.16,1424.19z"/>
			</g>
			<path class="st27" d="M1831.72,1188.92c0,0,53.37,2.77,63.75,19.97c10.38,17.21,19.33,92.88,19.33,92.88l-58.01,5.89l-5.61-33.68
				"/>
		</g>
	</g>
	<g>
		<circle class="st27" cx="1870.63" cy="792.87" r="130.25"/>
		<g>
			<path class="st1" d="M1820.66,833.05c-1.24,0-2.49-0.25-3.65-0.75c-2.32-0.99-4.13-2.88-5.03-5.24l-17.28-45.44
				c-1.82-4.79,0.59-10.16,5.38-11.98c4.81-1.82,10.16,0.59,11.98,5.38l13.85,36.44l132.58-55.96c4.72-1.99,10.18,0.22,12.17,4.95
				c1.99,4.73-0.22,10.18-4.95,12.17l-141.45,59.7C1823.12,832.81,1821.89,833.05,1820.66,833.05z"/>
		</g>
	</g>
	<g>
		<g>
			<polygon class="st0" points="2102.91,1006.93 2189.52,1132.85 2075.55,1211.25 1962.48,1046.86 2037.99,994.92 			"/>
			<polygon class="st29" points="2064.45,1033.39 2102.91,1006.93 2037.99,994.92 			"/>
		</g>
		<g>
			
				<rect x="2007.93" y="1067.9" transform="matrix(0.8239 -0.5667 0.5667 0.8239 -243.5538 1357.5867)" class="st1" width="109.81" height="5.63"/>
			
				<rect x="2021.1" y="1087.04" transform="matrix(0.8239 -0.5667 0.5667 0.8239 -252.0814 1368.4204)" class="st1" width="109.81" height="5.63"/>
			
				<rect x="2034.26" y="1106.18" transform="matrix(0.8239 -0.5667 0.5667 0.8239 -260.6096 1379.2484)" class="st1" width="109.81" height="5.63"/>
		</g>
	</g>
	<path class="st0" d="M753.6,433.81c26.21-30.41,22.79-76.48-7.62-102.69c-30.41-26.21-76.48-22.79-102.69,7.62
		c-23.79,27.61-23.09,68.06-0.03,94.91l-64.69,75.06c-3.92,4.55-3.41,11.42,1.14,15.34c4.55,3.92,11.42,3.41,15.34-1.14l64.69-75.06
		C689.69,466.69,729.81,461.41,753.6,433.81z M665.11,424.95c-21.33-18.38-23.73-50.69-5.35-72.02
		c18.38-21.33,50.69-23.73,72.02-5.35c21.33,18.38,23.73,50.69,5.35,72.02C718.75,440.94,686.44,443.33,665.11,424.95z"/>
	<g>
		<g>
			<path class="st13" d="M1021.48,786.91c-1.41-1.37-2.11-3.17-2.11-5.39v-52.96h-16.2c-1.69,0-3.03-0.55-4.02-1.66
				c-0.99-1.11-1.49-2.43-1.49-3.95c0-1.52,0.5-2.86,1.52-4c1.01-1.14,2.34-1.71,4-1.71h46.6c1.62,0,2.94,0.57,3.95,1.71
				c1.01,1.14,1.52,2.46,1.52,3.95c0,1.52-0.5,2.85-1.49,3.97c-0.99,1.13-2.32,1.69-3.97,1.69h-16.15v52.96
				c0,2.22-0.7,4.02-2.11,5.39c-1.41,1.38-3.09,2.06-5.04,2.06C1024.55,788.98,1022.89,788.29,1021.48,786.91z"/>
			<path class="st13" d="M1063.16,751.04c1.9-3.76,4.74-6.8,8.52-9.12c3.78-2.32,8.16-3.48,13.17-3.48c3.84,0,7.25,0.64,10.21,1.91
				c2.96,1.28,5.35,3.04,7.15,5.29c1.8,2.25,3.17,4.79,4.1,7.6c0.93,2.82,1.41,5.86,1.44,9.14c0,1.29-0.3,2.33-0.89,3.13
				s-1.49,1.19-2.68,1.19h-31.4c0.53,9.34,5.32,14.01,14.36,14.01c4.11,0,8.5-1.67,13.17-5.02c0.6-0.46,1.24-0.7,1.94-0.7
				c1.03,0,1.94,0.46,2.73,1.39c0.79,0.93,1.19,1.97,1.19,3.13c0,1.33-0.53,2.45-1.59,3.38c-5.23,4.41-11.34,6.61-18.33,6.61
				c-7.85,0-14.13-2.29-18.85-6.86c-4.72-4.57-7.08-10.95-7.08-19.13C1060.31,758.97,1061.26,754.8,1063.16,751.04z M1097.12,759.71
				c-0.27-3.81-1.37-6.94-3.3-9.39c-1.94-2.45-4.81-3.68-8.62-3.68c-3.71,0-6.62,1.28-8.72,3.83c-2.1,2.55-3.3,5.63-3.6,9.24
				H1097.12z"/>
			<path class="st13" d="M1119.3,787.16c-1.18-1.18-1.76-2.86-1.76-5.04v-37.06c0-1.89,0.62-3.35,1.86-4.4
				c1.24-1.04,2.72-1.56,4.45-1.56c1.69,0,3.15,0.51,4.4,1.52c1.24,1.01,1.85,2.39,1.81,4.15l-0.15,5.12
				c0.89-2.98,2.59-5.54,5.09-7.68c2.5-2.14,5.31-3.2,8.42-3.2c1.52,0,2.7,0.51,3.53,1.54c0.83,1.03,1.24,2.27,1.24,3.73
				c0,1.39-0.38,2.62-1.14,3.68c-0.76,1.06-1.79,1.59-3.08,1.59c-1.95,0-3.68,0.16-5.19,0.47c-1.51,0.32-2.96,0.87-4.35,1.66
				s-2.47,2-3.23,3.63c-0.76,1.62-1.14,3.61-1.14,5.96v20.96c0,2.15-0.59,3.81-1.76,4.97c-1.18,1.16-2.69,1.74-4.55,1.74
				C1121.96,788.93,1120.48,788.34,1119.3,787.16z"/>
			<path class="st13" d="M1157.78,787.14c-1.16-1.19-1.74-2.88-1.74-5.07v-36.32c0-2.12,0.58-3.76,1.74-4.92
				c1.16-1.16,2.67-1.74,4.52-1.74c1.75,0,3.24,0.52,4.45,1.56c1.21,1.04,1.81,2.49,1.81,4.35v2.48c3.08-6.03,8.4-9.04,15.95-9.04
				c4.14,0,7.62,0.97,10.43,2.91c2.81,1.94,4.75,4.6,5.81,7.97c3.08-7.25,8.91-10.88,17.49-10.88c5.43,0,9.8,1.59,13.12,4.77
				c3.31,3.18,4.97,7.88,4.97,14.11v24.74c0,2.19-0.59,3.88-1.76,5.07c-1.18,1.19-2.69,1.79-4.55,1.79c-1.79,0-3.26-0.6-4.42-1.79
				c-1.16-1.19-1.74-2.88-1.74-5.07v-24.64c0-3.44-0.83-6.06-2.48-7.85c-1.66-1.79-3.94-2.68-6.86-2.68c-3.58,0-6.49,1.29-8.74,3.88
				c-2.25,2.58-3.38,6.14-3.38,10.68v20.62c0,2.15-0.59,3.83-1.76,5.04c-1.18,1.21-2.69,1.81-4.55,1.81c-1.76,0-3.22-0.6-4.4-1.81
				c-1.18-1.21-1.76-2.89-1.76-5.04v-24.34c0-3.58-0.82-6.28-2.46-8.1c-1.64-1.82-3.93-2.73-6.88-2.73c-3.64,0-6.56,1.19-8.74,3.58
				c-2.19,2.38-3.28,5.63-3.28,9.74v21.86c0,2.19-0.6,3.88-1.81,5.07c-1.21,1.19-2.74,1.79-4.6,1.79
				C1160.39,788.93,1158.94,788.33,1157.78,787.14z"/>
			<path class="st13" d="M1247.5,780.58c0-1.09,0.37-2.05,1.12-2.88c0.75-0.83,1.7-1.24,2.86-1.24c0.83,0,1.69,0.25,2.58,0.75
				c1.46,0.83,2.62,1.46,3.5,1.89c0.88,0.43,2.29,0.92,4.25,1.47c1.95,0.55,3.91,0.82,5.86,0.82c1.92,0,3.63-0.19,5.14-0.57
				c1.51-0.38,2.8-1.08,3.88-2.09c1.08-1.01,1.61-2.31,1.61-3.9c0-2.81-2.3-4.79-6.9-5.91l-7.75-1.99
				c-2.35-0.63-4.26-1.19-5.71-1.69c-1.46-0.5-2.93-1.13-4.42-1.91c-1.49-0.78-2.63-1.64-3.43-2.58s-1.44-2.12-1.94-3.53
				c-0.5-1.41-0.75-3.06-0.75-4.94c0-4.54,1.82-8.02,5.46-10.46c3.64-2.43,8.43-3.65,14.36-3.65c5.73,0,11.16,1.24,16.29,3.73
				c1.79,0.86,2.68,2.19,2.68,3.97c0,1.06-0.34,1.96-1.02,2.71c-0.68,0.75-1.58,1.12-2.71,1.12c-0.56,0-1.21-0.13-1.94-0.4
				c-0.03,0-0.4-0.13-1.09-0.4c-0.7-0.26-1.18-0.44-1.46-0.52c-0.28-0.08-0.8-0.25-1.56-0.5s-1.42-0.43-1.96-0.55
				c-0.55-0.12-1.2-0.25-1.96-0.4s-1.51-0.26-2.26-0.32c-0.75-0.07-1.5-0.1-2.26-0.1c-2.55,0-4.72,0.42-6.51,1.27
				c-1.79,0.84-2.68,2.14-2.68,3.9c0,1.56,0.49,2.71,1.46,3.45s2.84,1.43,5.59,2.06l7.65,1.94c5.33,1.33,9.23,3.13,11.7,5.42
				c2.47,2.29,3.7,5.45,3.7,9.49c0,5.07-1.86,8.94-5.59,11.62c-3.73,2.68-8.57,4.02-14.53,4.02c-7.72,0-14.21-1.92-19.48-5.76
				C1248.1,783.05,1247.5,781.94,1247.5,780.58z"/>
			<path class="st13" d="M1329.1,785.72c-3.23-2.5-4.84-5.99-4.84-10.46c0-1.99,0.21-3.73,0.62-5.24c0.41-1.51,0.99-2.81,1.74-3.9
				c0.75-1.09,1.8-2.02,3.16-2.78c1.36-0.76,2.8-1.38,4.32-1.86c1.52-0.48,3.45-0.85,5.79-1.12c2.33-0.26,4.7-0.44,7.08-0.52
				c2.38-0.08,5.27-0.12,8.64-0.12v-3.83c0-3.11-0.74-5.39-2.21-6.83c-1.47-1.44-3.67-2.16-6.58-2.16c-0.63,0-1.27,0.02-1.91,0.07
				c-0.65,0.05-1.3,0.13-1.96,0.25c-0.66,0.12-1.24,0.22-1.74,0.3c-0.5,0.08-1.09,0.22-1.79,0.42s-1.23,0.35-1.59,0.45
				c-0.36,0.1-0.89,0.27-1.59,0.52s-1.14,0.41-1.34,0.47c-0.2,0.07-0.65,0.24-1.34,0.52c-0.7,0.28-1.06,0.42-1.09,0.42
				c-0.37,0.17-0.83,0.25-1.39,0.25c-1.16,0-2.15-0.49-2.96-1.47c-0.81-0.98-1.22-2.08-1.22-3.3c0-1.62,0.73-2.78,2.19-3.48
				c5.5-2.58,11.61-3.88,18.33-3.88c3.05,0,5.78,0.35,8.2,1.04c2.42,0.7,4.55,1.77,6.41,3.23c1.85,1.46,3.29,3.43,4.3,5.91
				s1.52,5.42,1.52,8.79v25.24c0,1.99-0.58,3.53-1.74,4.62c-1.16,1.09-2.55,1.64-4.17,1.64s-3.02-0.55-4.2-1.64
				c-1.18-1.09-1.76-2.63-1.76-4.62v-1.64c-1.06,2.52-2.77,4.56-5.14,6.14c-2.37,1.57-5.47,2.36-9.31,2.36
				C1336.46,789.49,1332.33,788.22,1329.1,785.72z M1351.73,777.75c2.55-2.62,3.83-5.93,3.83-9.94v-1.44
				c-3.31,0-5.94,0.05-7.88,0.15c-1.94,0.1-3.78,0.29-5.51,0.57c-1.74,0.28-3.02,0.73-3.85,1.34c-0.83,0.61-1.47,1.41-1.94,2.38
				c-0.46,0.98-0.7,2.23-0.7,3.75c0,2.32,0.67,4.08,2.01,5.29s3.12,1.81,5.34,1.81C1346.28,781.67,1349.18,780.36,1351.73,777.75z"
				/>
			<path class="st13" d="M1382.63,787.11c-1.16-1.21-1.74-2.89-1.74-5.04v-36.71c0-1.99,0.6-3.53,1.79-4.62
				c1.19-1.09,2.7-1.64,4.52-1.64c1.79,0,3.26,0.54,4.42,1.61c1.16,1.08,1.74,2.59,1.74,4.55V747c1.46-2.81,3.58-4.95,6.38-6.41
				c2.8-1.46,6.14-2.19,10.01-2.19c2.38,0,4.63,0.39,6.73,1.17c2.1,0.78,3.98,1.92,5.64,3.43c1.66,1.51,2.96,3.5,3.92,5.99
				c0.96,2.48,1.44,5.32,1.44,8.5v24.59c0,2.15-0.6,3.83-1.79,5.04c-1.19,1.21-2.72,1.81-4.57,1.81c-1.76,0-3.21-0.6-4.37-1.81
				c-1.16-1.21-1.74-2.89-1.74-5.04v-24.64c0-3.41-0.89-6.02-2.66-7.82c-1.77-1.8-4.03-2.71-6.78-2.71c-3.31,0-6.18,1.31-8.59,3.92
				c-2.42,2.62-3.63,6.03-3.63,10.23v21.01c0,2.15-0.59,3.83-1.76,5.04c-1.18,1.21-2.67,1.81-4.5,1.81
				S1383.79,788.32,1382.63,787.11z"/>
			<path class="st13" d="M1447.59,786.19c-3.3-2.29-5.78-5.37-7.45-9.27c-1.67-3.89-2.51-8.27-2.51-13.14
				c0-7.82,2.02-13.98,6.06-18.48c4.04-4.5,9.42-6.76,16.15-6.76c7.25,0,12.49,2.65,15.7,7.95v-22.5c0-2.15,0.59-3.82,1.76-4.99
				c1.18-1.18,2.69-1.76,4.55-1.76c1.82,0,3.3,0.59,4.45,1.76c1.14,1.18,1.71,2.84,1.71,4.99v57.88c0,2.15-0.6,3.87-1.81,5.14
				c-1.21,1.28-2.71,1.91-4.5,1.91c-1.89,0-3.38-0.52-4.47-1.56s-1.64-2.57-1.64-4.6v-1.74c-3.18,5.73-8.66,8.59-16.44,8.59
				C1454.73,789.62,1450.88,788.48,1447.59,786.19z M1472.48,776.9c2-2.91,3-7.22,3-12.92c0-3.21-0.42-6.05-1.27-8.52
				c-0.84-2.47-2.27-4.5-4.27-6.09c-2-1.59-4.5-2.38-7.48-2.38c-2.25,0-4.21,0.48-5.89,1.44c-1.67,0.96-2.97,2.26-3.9,3.9
				c-0.93,1.64-1.61,3.42-2.06,5.34c-0.45,1.92-0.67,3.99-0.67,6.21c0,2.05,0.21,4.03,0.62,5.94c0.41,1.91,1.07,3.75,1.96,5.54
				c0.89,1.79,2.19,3.22,3.88,4.3c1.69,1.08,3.68,1.61,5.96,1.61C1467.1,781.27,1470.47,779.82,1472.48,776.9z"/>
			<path class="st13" d="M1053.13,873.41c-5.15-3.01-9.21-7.34-12.17-12.99c-2.96-5.65-4.45-12.16-4.45-19.55
				c0-5.76,0.89-11.03,2.68-15.8c1.79-4.77,4.26-8.76,7.4-11.97c3.15-3.21,6.88-5.7,11.2-7.48c4.32-1.77,9-2.66,14.03-2.66
				c6.33,0,12.54,1.52,18.63,4.57c2.29,1.26,3.43,2.98,3.43,5.17c0,1.52-0.55,2.88-1.64,4.07c-1.09,1.19-2.38,1.79-3.88,1.79
				c-0.56,0-1.19-0.13-1.89-0.4c-0.27-0.1-0.87-0.36-1.81-0.79c-0.94-0.43-1.76-0.77-2.43-1.02c-0.68-0.25-1.55-0.53-2.61-0.84
				c-1.06-0.31-2.19-0.55-3.38-0.72c-1.19-0.17-2.43-0.25-3.73-0.25c-6.72,0-11.91,2.15-15.55,6.46
				c-3.64,4.31-5.46,10.81-5.46,19.52c0,8.28,1.83,14.66,5.49,19.15c3.66,4.49,8.93,6.73,15.82,6.73c4.57,0,9.5-1.44,14.8-4.32
				c0.7-0.36,1.39-0.55,2.09-0.55c1.36,0,2.51,0.56,3.45,1.69c0.94,1.13,1.42,2.42,1.42,3.88c0,2.05-0.93,3.73-2.78,5.02
				c-5.8,3.88-12.87,5.81-21.21,5.81C1064.1,877.93,1058.28,876.42,1053.13,873.41z"/>
			<path class="st13" d="M1117.29,875.1c-3.41-1.42-6.14-3.34-8.17-5.76c-2.04-2.42-3.59-5.12-4.65-8.1
				c-1.06-2.98-1.59-6.14-1.59-9.49c0-2.65,0.32-5.21,0.97-7.68c0.65-2.47,1.66-4.79,3.06-6.98c1.39-2.19,3.09-4.09,5.09-5.71
				c2-1.62,4.45-2.91,7.35-3.85c2.9-0.94,6.09-1.42,9.56-1.42c3.41,0,6.55,0.46,9.41,1.37c2.86,0.91,5.31,2.15,7.33,3.73
				c2.02,1.57,3.74,3.44,5.17,5.61c1.42,2.17,2.48,4.51,3.15,7.03c0.68,2.52,1.02,5.15,1.02,7.9c0,2.62-0.32,5.13-0.97,7.55
				c-0.65,2.42-1.66,4.73-3.03,6.93c-1.37,2.2-3.06,4.11-5.07,5.71c-2,1.61-4.46,2.89-7.38,3.85c-2.91,0.96-6.13,1.44-9.64,1.44
				C1124.57,877.23,1120.7,876.52,1117.29,875.1z M1138.95,864.27c2.38-2.98,3.58-7.15,3.58-12.52c0-5.4-1.19-9.6-3.58-12.62
				c-2.38-3.01-5.73-4.52-10.04-4.52c-4.31,0-7.64,1.5-10.01,4.5c-2.37,3-3.55,7.21-3.55,12.64c0,5.37,1.19,9.54,3.58,12.52
				c2.38,2.98,5.71,4.47,9.99,4.47C1133.22,868.74,1136.56,867.25,1138.95,864.27z"/>
			<path class="st13" d="M1167.27,874.82c-1.16-1.21-1.74-2.89-1.74-5.04v-36.71c0-1.99,0.6-3.53,1.79-4.62
				c1.19-1.09,2.7-1.64,4.52-1.64c1.79,0,3.26,0.54,4.42,1.61c1.16,1.08,1.74,2.59,1.74,4.55v1.74c1.46-2.81,3.58-4.95,6.38-6.41
				c2.8-1.46,6.14-2.19,10.01-2.19c2.38,0,4.63,0.39,6.73,1.17c2.1,0.78,3.98,1.92,5.64,3.43c1.66,1.51,2.96,3.5,3.92,5.99
				c0.96,2.48,1.44,5.32,1.44,8.5v24.59c0,2.15-0.6,3.83-1.79,5.04c-1.19,1.21-2.72,1.81-4.57,1.81c-1.76,0-3.21-0.6-4.37-1.81
				c-1.16-1.21-1.74-2.89-1.74-5.04v-24.64c0-3.41-0.89-6.02-2.66-7.82c-1.77-1.8-4.03-2.71-6.78-2.71c-3.31,0-6.18,1.31-8.59,3.92
				c-2.42,2.62-3.63,6.03-3.63,10.23v21.01c0,2.15-0.59,3.83-1.76,5.04c-1.18,1.21-2.67,1.81-4.5,1.81
				C1169.92,876.64,1168.43,876.03,1167.27,874.82z"/>
			<path class="st13" d="M1232.22,873.9c-3.3-2.29-5.78-5.37-7.45-9.27c-1.67-3.89-2.51-8.27-2.51-13.14
				c0-7.82,2.02-13.98,6.06-18.48c4.04-4.5,9.42-6.76,16.15-6.76c7.25,0,12.49,2.65,15.7,7.95v-22.5c0-2.15,0.59-3.82,1.76-4.99
				c1.18-1.18,2.69-1.76,4.55-1.76c1.82,0,3.3,0.59,4.45,1.76c1.14,1.18,1.71,2.84,1.71,4.99v57.88c0,2.15-0.6,3.87-1.81,5.14
				c-1.21,1.28-2.71,1.91-4.5,1.91c-1.89,0-3.38-0.52-4.47-1.56s-1.64-2.57-1.64-4.6v-1.74c-3.18,5.73-8.66,8.59-16.44,8.59
				C1239.37,877.33,1235.52,876.19,1232.22,873.9z M1257.11,864.61c2-2.91,3-7.22,3-12.92c0-3.21-0.42-6.05-1.27-8.52
				c-0.84-2.47-2.27-4.5-4.27-6.09c-2-1.59-4.5-2.38-7.48-2.38c-2.25,0-4.22,0.48-5.89,1.44c-1.67,0.96-2.97,2.26-3.9,3.9
				c-0.93,1.64-1.61,3.42-2.06,5.34c-0.45,1.92-0.67,3.99-0.67,6.21c0,2.05,0.21,4.03,0.62,5.94c0.41,1.91,1.07,3.75,1.96,5.54
				s2.19,3.22,3.88,4.3c1.69,1.08,3.68,1.61,5.96,1.61C1251.74,868.99,1255.11,867.53,1257.11,864.61z"/>
			<path class="st13" d="M1287.02,814.96c-1.34-1.27-2.01-2.94-2.01-4.99c0-2.05,0.67-3.71,2.01-4.97c1.34-1.26,3.11-1.89,5.29-1.89
				c2.15,0,3.89,0.63,5.22,1.89c1.32,1.26,1.99,2.92,1.99,4.97c0,2.05-0.67,3.72-2.01,4.99c-1.34,1.28-3.09,1.91-5.24,1.91
				S1288.36,816.23,1287.02,814.96z M1287.79,874.82c-1.16-1.21-1.74-2.92-1.74-5.14v-35.87c0-2.22,0.58-3.94,1.74-5.17
				c1.16-1.23,2.65-1.84,4.47-1.84s3.32,0.61,4.5,1.84c1.18,1.23,1.76,2.95,1.76,5.17v35.87c0,2.19-0.59,3.89-1.76,5.12
				c-1.18,1.23-2.67,1.84-4.5,1.84S1288.95,876.03,1287.79,874.82z"/>
			<path class="st13" d="M1318.77,872.94c-2.53-2.73-3.8-6.67-3.8-11.8v-25.68h-4.82c-1.42,0-2.53-0.39-3.3-1.17
				c-0.78-0.78-1.17-1.81-1.17-3.1c0-1.23,0.36-2.21,1.09-2.96s1.8-1.12,3.23-1.12h5.22l1.49-12.32c0.2-1.79,0.82-3.25,1.86-4.4
				c1.04-1.14,2.47-1.71,4.3-1.71c1.46,0,2.59,0.48,3.4,1.44c0.81,0.96,1.22,2.4,1.22,4.32v12.67h8c1.39,0,2.45,0.39,3.18,1.17
				c0.73,0.78,1.09,1.81,1.09,3.1c0,1.26-0.37,2.25-1.09,2.98c-0.73,0.73-1.81,1.09-3.23,1.09h-7.95v22.6c0,3.18,0.4,5.55,1.19,7.1
				c0.79,1.56,2.2,2.33,4.22,2.33h0.55l3.53-0.2h0.35c1.36,0,2.43,0.46,3.23,1.39c0.79,0.93,1.19,2.02,1.19,3.28
				c0,0.79-0.13,1.49-0.4,2.09c-0.26,0.6-0.69,1.08-1.27,1.44c-0.58,0.36-1.17,0.66-1.76,0.89c-0.6,0.23-1.4,0.39-2.41,0.47
				c-1.01,0.08-1.88,0.14-2.61,0.17c-0.73,0.03-1.69,0.05-2.88,0.05h-1.09C1324.82,877.05,1321.3,875.67,1318.77,872.94z"/>
			<path class="st13" d="M1351.45,814.96c-1.34-1.27-2.01-2.94-2.01-4.99c0-2.05,0.67-3.71,2.01-4.97c1.34-1.26,3.11-1.89,5.29-1.89
				c2.15,0,3.89,0.63,5.22,1.89c1.32,1.26,1.99,2.92,1.99,4.97c0,2.05-0.67,3.72-2.01,4.99c-1.34,1.28-3.09,1.91-5.24,1.91
				S1352.8,816.23,1351.45,814.96z M1352.22,874.82c-1.16-1.21-1.74-2.92-1.74-5.14v-35.87c0-2.22,0.58-3.94,1.74-5.17
				c1.16-1.23,2.65-1.84,4.47-1.84s3.32,0.61,4.5,1.84c1.18,1.23,1.76,2.95,1.76,5.17v35.87c0,2.19-0.59,3.89-1.76,5.12
				c-1.18,1.23-2.67,1.84-4.5,1.84S1353.38,876.03,1352.22,874.82z"/>
			<path class="st13" d="M1387.4,875.1c-3.41-1.42-6.14-3.34-8.17-5.76c-2.04-2.42-3.58-5.12-4.64-8.1
				c-1.06-2.98-1.59-6.14-1.59-9.49c0-2.65,0.32-5.21,0.97-7.68c0.65-2.47,1.66-4.79,3.05-6.98c1.39-2.19,3.09-4.09,5.09-5.71
				c2-1.62,4.45-2.91,7.35-3.85c2.9-0.94,6.09-1.42,9.56-1.42c3.41,0,6.55,0.46,9.41,1.37c2.86,0.91,5.31,2.15,7.33,3.73
				c2.02,1.57,3.74,3.44,5.17,5.61c1.42,2.17,2.47,4.51,3.15,7.03c0.68,2.52,1.02,5.15,1.02,7.9c0,2.62-0.32,5.13-0.97,7.55
				c-0.65,2.42-1.66,4.73-3.03,6.93c-1.38,2.2-3.06,4.11-5.07,5.71c-2,1.61-4.46,2.89-7.38,3.85c-2.92,0.96-6.13,1.44-9.64,1.44
				C1394.68,877.23,1390.81,876.52,1387.4,875.1z M1409.06,864.27c2.38-2.98,3.58-7.15,3.58-12.52c0-5.4-1.19-9.6-3.58-12.62
				c-2.38-3.01-5.73-4.52-10.04-4.52c-4.31,0-7.64,1.5-10.01,4.5c-2.37,3-3.55,7.21-3.55,12.64c0,5.37,1.19,9.54,3.58,12.52
				c2.38,2.98,5.71,4.47,9.99,4.47C1403.33,868.74,1406.67,867.25,1409.06,864.27z"/>
			<path class="st13" d="M1437.38,874.82c-1.16-1.21-1.74-2.89-1.74-5.04v-36.71c0-1.99,0.6-3.53,1.79-4.62
				c1.19-1.09,2.7-1.64,4.52-1.64c1.79,0,3.26,0.54,4.42,1.61c1.16,1.08,1.74,2.59,1.74,4.55v1.74c1.46-2.81,3.58-4.95,6.38-6.41
				c2.8-1.46,6.14-2.19,10.01-2.19c2.38,0,4.63,0.39,6.73,1.17c2.1,0.78,3.98,1.92,5.64,3.43c1.66,1.51,2.96,3.5,3.92,5.99
				c0.96,2.48,1.44,5.32,1.44,8.5v24.59c0,2.15-0.6,3.83-1.79,5.04c-1.19,1.21-2.72,1.81-4.57,1.81c-1.76,0-3.21-0.6-4.37-1.81
				c-1.16-1.21-1.74-2.89-1.74-5.04v-24.64c0-3.41-0.89-6.02-2.66-7.82c-1.77-1.8-4.03-2.71-6.78-2.71c-3.31,0-6.18,1.31-8.59,3.92
				c-2.42,2.62-3.63,6.03-3.63,10.23v21.01c0,2.15-0.59,3.83-1.76,5.04c-1.18,1.21-2.67,1.81-4.5,1.81
				S1438.54,876.03,1437.38,874.82z"/>
		</g>
	</g>
</g>
</svg>
