<svg xmlns="http://www.w3.org/2000/svg" width="37" height="41" viewBox="0 0 37 41">
    <g fill="none" fill-rule="evenodd">
        <g fill="#FFF" fill-rule="nonzero">
            <g>
                <path d="M30.092 16.64c3.04 0 5.9 1.178 8.06 3.322 2.18 2.165 3.38 5.048 3.38 8.12 0 2.933-1.109 5.723-3.122 7.854-1.696 1.796-2.63 4.104-2.63 6.5v2.315c0 1.717-1.307 3.135-2.979 3.31v.18c0 1.499-1.22 2.719-2.72 2.719-1.5 0-2.72-1.22-2.72-2.72v-.18c-1.662-.185-2.96-1.598-2.96-3.31v-2.314c0-2.428-.908-4.71-2.558-6.424-2.141-2.227-3.274-5.156-3.19-8.249.012-.441.378-.793.822-.778.441.012.79.38.778.822-.073 2.66.902 5.18 2.743 7.096 1.784 1.854 2.83 4.268 2.985 6.857h1.54v-8.48h-.641c-1.162 0-2.107-.944-2.107-2.106v-.107c0-1.161.945-2.106 2.107-2.106h.135c1.162 0 2.107.944 2.107 2.106v.613h1.92v-.613c0-1.161.945-2.106 2.106-2.106 1.162 0 2.107.944 2.107 2.106v.107c0 1.161-.945 2.106-2.107 2.106h-.506v8.48h1.56c.16-2.56 1.227-4.997 3.045-6.922 1.732-1.834 2.685-4.233 2.685-6.756 0-2.642-1.032-5.123-2.907-6.984-1.858-1.845-4.318-2.858-6.934-2.858h-.071c-2.829.02-5.52 1.27-7.383 3.43-.288.335-.793.372-1.128.083-.335-.288-.372-.793-.083-1.128 2.164-2.51 5.293-3.962 8.582-3.985zm1.11 31.44h-2.24v.16c0 .618.502 1.12 1.12 1.12.617 0 1.12-.502 1.12-1.12v-.16zm2.978-4.72h-8.179v1.39c0 .954.776 1.73 1.73 1.73h4.72c.953 0 1.73-.776 1.73-1.73v-1.39zm-3.138-10.08h-1.92v8.48h1.92v-8.48zm2.106-2.72c-.28 0-.506.228-.506.507v.613h.506c.28 0 .507-.227.507-.506v-.107c0-.28-.227-.507-.507-.507zm-6.133 0h-.135c-.28 0-.507.228-.507.507v.107c0 .28.227.506.507.506h.642v-.613c0-.28-.228-.507-.507-.507zm20.348-3.278c.442 0 .8.358.8.8 0 .441-.358.8-.8.8h-2.987c-.442 0-.8-.359-.8-.8 0-.442.358-.8.8-.8zm-31.575 0c.441 0 .8.358.8.8 0 .441-.359.8-.8.8H12.8c-.442 0-.8-.359-.8-.8 0-.442.358-.8.8-.8zm21.566 0c.21 0 .417.085.566.234.149.149.233.355.233.566 0 .21-.084.416-.233.565-.149.15-.355.235-.566.235-.211 0-.417-.086-.566-.235-.149-.149-.234-.355-.234-.565 0-.21.085-.417.234-.566.149-.149.355-.234.566-.234zm-7.287-7.288c1.635 0 3.21.485 4.556 1.405 1.329.908 2.348 2.174 2.948 3.662.165.41-.034.876-.444 1.04-.097.04-.199.06-.298.06-.317 0-.617-.19-.742-.502-.997-2.473-3.356-4.065-6.02-4.065h-.053c-.44 0-.797-.354-.8-.794-.003-.442.352-.802.794-.806zm-9.785 3.167c.21 0 .417.085.565.234.15.15.235.355.235.566 0 .21-.086.416-.235.566-.148.148-.355.234-.565.234-.21 0-.417-.086-.566-.234-.149-.15-.234-.356-.234-.566 0-.211.085-.417.234-.566.149-.15.355-.234.566-.234zm-2.986-7.865c.313-.312.819-.312 1.131 0l2.113 2.112c.312.313.312.82 0 1.132-.156.156-.361.234-.566.234-.205 0-.41-.078-.566-.234l-2.112-2.113c-.312-.312-.312-.819 0-1.131zm24.44 0c.312-.312.819-.312 1.131 0 .313.312.313.819 0 1.131l-2.112 2.113c-.156.156-.361.234-.566.234-.205 0-.41-.078-.565-.234-.313-.313-.313-.82 0-1.132zM30.082 10c.441 0 .8.358.8.8v2.988c0 .441-.359.8-.8.8-.442 0-.8-.359-.8-.8V10.8c0-.442.358-.8.8-.8z" transform="translate(-184 -421) translate(172 411)"/>
            </g>
        </g>
    </g>
</svg>
