<svg xmlns="http://www.w3.org/2000/svg" width="31" height="31" viewBox="0 0 31 31">
    <defs>
        <filter id="zuv492hksa">
            <feColorMatrix in="SourceGraphic" values="0 0 0 0 1.000000 0 0 0 0 1.000000 0 0 0 0 1.000000 0 0 0 1.000000 0"/>
        </filter>
    </defs>
    <g fill="none" fill-rule="evenodd">
        <g>
            <g>
                <g filter="url(#zuv492hksa)" transform="translate(-1077 -199) translate(177 177) translate(838 8.73)">
                    <g>
                        <path fill="#000" fill-rule="nonzero" d="M15.368 0c2.85 0 5.382 1.815 6.297 4.514l8.817 5.293c.152.092.245.256.246.433.002.177-.088.343-.238.437l-3.402 2.127 3.402 2.126c.155.096.246.265.242.445-.003.18-.101.345-.258.434l-3.84 2.194v6.068c-.001.185-.1.354-.26.445l-10.756 6.146c-.158.09-.35.09-.508 0L4.354 24.516c-.158-.092-.256-.261-.256-.445v-6.068L.257 15.81c-.156-.09-.254-.255-.257-.435-.003-.18.089-.348.242-.444l3.402-2.126-3.402-2.13c-.15-.094-.24-.26-.239-.437.002-.177.095-.34.246-.433l8.822-5.29C9.986 1.815 12.52 0 15.368 0zM5.123 18.588v5.186l9.73 5.56v-9.462l-3.315 2.073c-.16.1-.362.104-.526.01l-5.89-3.367zm20.486 0l-5.892 3.365c-.164.094-.366.09-.525-.01l-3.314-2.071v9.463l9.73-5.56v-5.187zm-6.895 7.077c.16-.09.354-.09.512.003.159.092.255.261.254.444 0 .183-.099.352-.258.443l-1.562.893c-.16.09-.355.09-.513-.002-.158-.092-.255-.262-.254-.445 0-.183.1-.352.258-.443zm2.088-1.194c.159-.09.354-.09.512.002.158.093.255.262.254.445 0 .183-.1.352-.258.442l-.584.334c-.077.044-.164.068-.253.068v-.001l-.084-.006c-.168-.028-.311-.138-.382-.292l-.029-.081c-.06-.225.039-.462.24-.577zm-2.088-.854c.16-.091.354-.09.512.002.159.092.255.262.254.445 0 .183-.099.351-.258.442l-1.562.893c-.16.091-.355.09-.513-.002-.158-.092-.255-.262-.254-.445 0-.183.1-.351.258-.442zm2.088-1.195c.159-.09.354-.09.512.003.158.092.255.261.254.444 0 .183-.1.352-.258.443l-.584.333c-.077.045-.164.068-.253.068v-.001l-.084-.006c-.168-.028-.311-.137-.382-.292l-.029-.08c-.06-.225.039-.462.24-.578zm-16.18-9.021l-3.111 1.944 9.746 5.57 3.111-1.946-9.746-5.568zm21.487 0l-9.746 5.567 3.112 1.946 9.746-5.567-3.112-1.946zm-5.331-3.06c-1.448 2.46-3.133 4.772-5.031 6.902-.097.108-.236.17-.381.17-.146 0-.284-.062-.381-.17-1.899-2.13-3.584-4.442-5.031-6.901l-4.311 2.462 9.723 5.556 9.723-5.556zm-5.412-9.317c-3.11.004-5.63 2.524-5.634 5.634 0 2.443 3.765 7.304 5.634 9.467 1.869-2.163 5.633-7.026 5.633-9.467-.003-3.11-2.523-5.63-5.633-5.634zm6.61 4.872c.03.253.047.507.048.762-.064.968-.33 1.911-.78 2.77l4.865 2.78 3.129-1.956zm-13.221 0l-7.261 4.356 3.129 1.955 4.865-2.779c-.45-.859-.716-1.802-.78-2.77 0-.255.017-.509.047-.762zm6.61-2.311c1.415 0 2.562 1.146 2.562 2.56 0 1.415-1.147 2.562-2.561 2.562-1.414-.002-2.56-1.148-2.561-2.561 0-1.415 1.146-2.561 2.56-2.561zm0 1.024c-.848 0-1.536.688-1.536 1.537 0 .848.688 1.536 1.537 1.536.848 0 1.536-.688 1.536-1.536 0-.849-.688-1.537-1.536-1.537z" transform="translate(62.08 13.58)"/>
                    </g>
                </g>
            </g>
        </g>
    </g>
</svg>
