<?xml version="1.0" encoding="utf-8"?>
<svg version="1.1" id="Layer_1" x="0px" y="0px" viewBox="0 0 340.61 319.32" style="enable-background:new 0 0 340.61 319.32;" xmlns="http://www.w3.org/2000/svg">
  <style type="text/css">
	.st0{fill:none;stroke:#E5977B;stroke-miterlimit:10;}
	.st1{fill:#E5977B;}
	.st2{fill:#E30613;}
</style>
  <g style="" transform="matrix(0.995998, 0, 0, 1, 0.063629, 7)">
    <path class="st0" d="M321.69,152.85c0-77.77-68.45-140.82-152.89-140.82S15.9,75.07,15.9,152.85 c0,77.77,68.45,140.82,152.89,140.82c22,0,42.91-4.29,61.81-12c7.87-3.21,16.57-3.75,24.78-1.55l51.05,13.68 c5.41,1.45,10.37-3.5,8.92-8.92l-11.67-43.54c-2.54-9.47-1.36-19.53,3.15-28.23C316.31,194.85,321.69,174.44,321.69,152.85z" style="stroke: rgb(255, 142, 110); stroke-width: 8.01604px;"/>
  </g>
  <path class="st1" d="M137.68,155.78c-0.61,12.03-10.39,21.81-22.42,22.42c-14.05,0.71-25.6-10.83-24.89-24.89 c0.61-12.03,10.39-21.81,22.42-22.42C126.84,130.18,138.39,141.72,137.68,155.78z" style="fill: rgb(255, 142, 110);"/>
  <path class="st1" d="M192.45,155.78c-0.61,12.03-10.39,21.81-22.42,22.42c-14.05,0.71-25.6-10.83-24.89-24.89 c0.61-12.03,10.39-21.81,22.42-22.42C181.62,130.18,193.16,141.72,192.45,155.78z" style="fill: rgb(255, 142, 110);"/>
  <path class="st1" d="M247.22,155.78c-0.61,12.03-10.39,21.81-22.42,22.42c-14.05,0.71-25.6-10.83-24.89-24.89 c0.61-12.03,10.39-21.81,22.42-22.42C236.39,130.18,247.93,141.72,247.22,155.78z" style="fill: rgb(255, 142, 110);"/>
  <path class="st2" d="M 308.035 70.986 C 306.73 96.16 285.779 116.627 260.009 117.904 C 229.909 119.39 205.168 95.239 206.69 65.817 C 207.997 40.642 228.947 20.176 254.718 18.898 C 284.836 17.413 309.558 41.584 308.035 70.986 Z" style="stroke-miterlimit: 5; stroke-dashoffset: 3px;"/>
</svg>