<svg xmlns="http://www.w3.org/2000/svg" width="17" height="20" viewBox="0 0 17 20">
    <defs>
        <filter id="7uvvdgt2ia">
            <feColorMatrix in="SourceGraphic" values="0 0 0 0 0.443137 0 0 0 0 0.588235 0 0 0 0 0.694118 0 0 0 1.000000 0"/>
        </filter>
    </defs>
    <g fill="none" fill-rule="evenodd">
        <g>
            <g filter="url(#7uvvdgt2ia)" transform="translate(-1186 -273) translate(1159 173)">
                <g fill="#2D5A76" fill-rule="nonzero">
                    <path d="M5.176 10.468c.244-.172.58-.112.752.132.172.244.112.58-.132.752-.068.044-1.66 1.156-3.652 1.668-.932.332-1.036 1.328-1.064 2.24 0 .036-.004.068-.004.1-.008.36.02.916.084 1.236.652.368 3.208 1.644 7.056 1.644 3.864 0 6.404-1.272 7.052-1.64.064-.32.088-.876.084-1.236-.004-.032-.004-.064-.004-.1-.028-.912-.132-1.908-1.064-2.24-1.992-.512-3.584-1.62-3.652-1.668-.244-.172-.304-.508-.132-.752s.508-.304.752-.132c.016.012 1.516 1.052 3.32 1.512l.04.012c1.736.592 1.788 2.444 1.812 3.236 0 .036.004.068.004.1v.075c.004.306-.007 1.254-.192 1.745-.04.104-.116.192-.208.252-.12.076-2.996 1.912-7.808 1.912-4.812 0-7.688-1.832-7.808-1.912-.096-.06-.168-.148-.208-.252-.163-.412-.198-1.14-.204-1.548v-.276c.004-.032.004-.064.004-.1.024-.788.076-2.64 1.812-3.236l.04-.012c1.812-.46 3.304-1.5 3.32-1.512zM8.256 0c.808.016 1.532.208 2.152.564.832.476 1.84 1.496 1.94 3.628.028.284.284 3.26-1.256 4.996-.7.788-1.648 1.2-2.82 1.22h-.128c-1.172-.02-2.12-.432-2.816-1.22-1.54-1.736-1.284-4.712-1.256-4.996.1-2.148 1.124-3.168 1.964-3.644C6.872.072 7.744 0 8.188 0zm-.024 1.084h-.048c-.872 0-2.908.308-3.04 3.176 0 .008-.004.02-.004.032-.004.024-.276 2.756.992 4.18.5.568 1.176.848 2.056.856h.04c.884-.008 1.556-.288 2.06-.856 1.272-1.432.992-4.152.988-4.18-.004-.008-.004-.02-.004-.032-.124-2.712-1.96-3.152-3.04-3.176z" transform="translate(27 100)"/>
                </g>
            </g>
        </g>
    </g>
</svg>
