<svg xmlns="http://www.w3.org/2000/svg" width="24" height="24" viewBox="0 0 24 24">
    <g fill="none" fill-rule="evenodd">
        <g fill="#30D9C4">
            <g>
                <g>
                    <g>
                        <path d="M11.609 23.217C5.197 23.217 0 18.02 0 11.61 0 5.197 5.197 0 11.609 0c6.41 0 11.608 5.197 11.608 11.609 0 6.41-5.197 11.608-11.608 11.608zm0-20.895c-5.13 0-9.287 4.158-9.287 9.287 0 2.932 1.36 5.548 3.482 7.25v-.451c0-1.956.996-3.679 2.508-4.69-.833-.84-1.347-1.995-1.347-3.27 0-2.565 2.08-4.644 4.644-4.644s4.643 2.08 4.643 4.644c0 1.275-.514 2.43-1.347 3.27 1.512 1.011 2.508 2.734 2.508 4.69v.45c2.123-1.701 3.482-4.317 3.482-7.25 0-5.128-4.157-9.286-9.286-9.286zM15.09 20.22v-1.812c0-1.832-1.485-3.317-3.317-3.317h-.331c-1.832 0-3.317 1.485-3.317 3.317v1.812c1.075.436 2.251.675 3.483.675 1.231 0 2.407-.24 3.482-.675zm-3.482-7.45c1.282 0 2.321-1.04 2.321-2.322 0-1.283-1.04-2.322-2.321-2.322-1.283 0-2.322 1.04-2.322 2.322s1.04 2.321 2.322 2.321z" transform="translate(-526 -220) translate(177 177) translate(323 8.73) translate(26.19 34.92)"/>
                    </g>
                </g>
            </g>
        </g>
    </g>
</svg>
