<svg id="Layer_1" data-name="Layer 1" xmlns="http://www.w3.org/2000/svg" viewBox="0 0 32.59 35.25"><defs><style>.cls-1{fill:#fff;}.cls-2{fill:#241b54;}</style></defs><g id="icon"><path class="cls-1" d="M4.7,20.24A11.26,11.26,0,1,0,16,9,11.26,11.26,0,0,0,4.7,20.24Z"/><path class="cls-2" d="M16,32.23a12,12,0,1,1,12-12A12,12,0,0,1,16,32.23ZM16,9.71A10.53,10.53,0,1,0,26.49,20.24,10.54,10.54,0,0,0,16,9.71Z"/><path class="cls-2" d="M19.13,22.85a2,2,0,0,0-1.24.09,4.88,4.88,0,0,1-1.87.38A4.77,4.77,0,0,1,14.17,23a1.9,1.9,0,0,0-1.2-.09c-3.45.89-4.26,3.29-4.42,5.85a11.25,11.25,0,0,0,14.93-.09C23.27,26.19,22.32,23.75,19.13,22.85Z"/><path class="cls-2" d="M19.48,18.43A3.52,3.52,0,1,1,16,14.91,3.52,3.52,0,0,1,19.48,18.43Z"/></g></svg>