<?xml version="1.0" encoding="UTF-8"?>
<svg width="14px" height="19px" viewBox="0 0 14 19" version="1.1" xmlns="http://www.w3.org/2000/svg" xmlns:xlink="http://www.w3.org/1999/xlink">
    <title>List</title>
    <g id="Page-1" stroke="none" stroke-width="1" fill="none" fill-rule="evenodd" fill-opacity="0.472394">
        <path d="M3.5,3.05128205 L10.5,3.05128205 C10.7146667,3.05128205 10.8888889,2.88041026 10.8888889,2.66987179 L10.8888889,1.90705128 C10.8888889,1.27619872 10.3654444,0.762820513 9.72222222,0.762820513 L8.34244444,0.762820513 C8.06788889,0.2975 7.55844444,0 7,0 C6.44155556,0 5.93211111,0.2975 5.65755556,0.762820513 L4.27777778,0.762820513 C3.63455556,0.762820513 3.11111111,1.27619872 3.11111111,1.90705128 L3.11111111,2.66987179 C3.11111111,2.88041026 3.28533333,3.05128205 3.5,3.05128205 Z M12.8333333,1.52564103 L12.0555556,1.52564103 C11.8408889,1.52564103 11.6666667,1.69651282 11.6666667,1.90705128 L11.6666667,2.66987179 C11.6666667,3.30072436 11.1432222,3.81410256 10.5,3.81410256 L3.5,3.81410256 C2.85677778,3.81410256 2.33333333,3.30072436 2.33333333,2.66987179 L2.33333333,1.90705128 C2.33333333,1.69651282 2.15911111,1.52564103 1.94444444,1.52564103 L1.16666667,1.52564103 C0.523444444,1.52564103 0,2.03901923 0,2.66987179 L0,17.1634615 C0,17.7943141 0.523444444,18.3076923 1.16666667,18.3076923 L12.8333333,18.3076923 C13.4765556,18.3076923 14,17.7943141 14,17.1634615 L14,2.66987179 C14,2.03901923 13.4765556,1.52564103 12.8333333,1.52564103 Z M2.33333333,6.48397436 C2.33333333,6.2734359 2.50755556,6.1025641 2.72222222,6.1025641 L5.83333333,6.1025641 C6.048,6.1025641 6.22222222,6.2734359 6.22222222,6.48397436 L6.22222222,9.53525641 C6.22222222,9.74579487 6.048,9.91666667 5.83333333,9.91666667 L2.72222222,9.91666667 C2.50755556,9.91666667 2.33333333,9.74579487 2.33333333,9.53525641 L2.33333333,6.48397436 Z M6.86,12.8794615 L4.52666667,14.7865128 C4.45433333,14.8460128 4.36566667,14.875 4.27777778,14.875 C4.17822222,14.875 4.07866667,14.8376218 4.00244444,14.7636282 L3.22466667,14.0008077 C3.14844444,13.9260513 3.11111111,13.8284103 3.11111111,13.7307692 L3.11111111,15.2564103 L5.44444444,15.2564103 L5.44444444,14.4935897 C5.44444444,14.2830513 5.61866667,14.1121795 5.83333333,14.1121795 C6.048,14.1121795 6.22222222,14.2830513 6.22222222,14.4935897 L6.22222222,15.6378205 C6.22222222,15.848359 6.048,16.0192308 5.83333333,16.0192308 L2.72222222,16.0192308 C2.50755556,16.0192308 2.33333333,15.848359 2.33333333,15.6378205 L2.33333333,12.5865385 C2.33333333,12.376 2.50755556,12.2051282 2.72222222,12.2051282 L5.05555556,12.2051282 C5.27022222,12.2051282 5.44444444,12.376 5.44444444,12.5865385 C5.44444444,12.7970769 5.27022222,12.9679487 5.05555556,12.9679487 L3.11111111,12.9679487 L3.11111111,13.7307692 C3.11111111,13.6331282 3.14922222,13.5354872 3.22466667,13.4607308 C3.37633333,13.3119808 3.62288889,13.3119808 3.77455556,13.4607308 L4.30111111,13.9771603 L6.36144444,12.2928526 C6.52711111,12.1585962 6.77133333,12.1807179 6.90977778,12.3416731 C7.04744444,12.5041538 7.02488889,12.7452051 6.86,12.8794615 Z M11.2777778,14.4935897 L7.38888889,14.4935897 C7.17422222,14.4935897 7,14.3227179 7,14.1121795 C7,13.901641 7.17422222,13.7307692 7.38888889,13.7307692 L11.2777778,13.7307692 C11.4924444,13.7307692 11.6666667,13.901641 11.6666667,14.1121795 C11.6666667,14.3227179 11.4924444,14.4935897 11.2777778,14.4935897 Z M11.2777778,8.39102564 L7.38888889,8.39102564 C7.17422222,8.39102564 7,8.22015385 7,8.00961538 C7,7.79907692 7.17422222,7.62820513 7.38888889,7.62820513 L11.2777778,7.62820513 C11.4924444,7.62820513 11.6666667,7.79907692 11.6666667,8.00961538 C11.6666667,8.22015385 11.4924444,8.39102564 11.2777778,8.39102564 Z M5.44444444,6.86538462 L3.11111111,6.86538462 L3.11111111,9.15384615 L5.44444444,9.15384615 L5.44444444,6.86538462 Z" id="List" fill="#7196B1" fill-rule="nonzero"></path>
    </g>
</svg>