<svg xmlns="http://www.w3.org/2000/svg" width="58" height="41" viewBox="0 0 58 41">
    <g fill="none" fill-opacity=".142" fill-rule="evenodd">
        <g fill="#30D9C4" fill-rule="nonzero">
            <g>
                <g>
                    <path d="M211.469 14c1.009 0 1.827.814 1.827 1.818v1.818h7.799c.637 0 1.225.33 1.556.864l.077.138 5.483 10.848-.003.002 3.408 4.367c.213.273.343.6.376.943l.008.172v11.818c0 1.004-.818 1.818-1.828 1.818h-5.304c-.834 3.102-3.684 5.394-7.063 5.394-3.379 0-6.23-2.291-7.064-5.393H199.89c-.835 3.102-3.685 5.393-7.063 5.393-3.379 0-6.229-2.291-7.064-5.393l-4.756-.001c-1.01 0-1.827-.814-1.827-1.818s.818-1.818 1.827-1.818h4.725c.792-3.165 3.673-5.515 7.095-5.515 3.422 0 6.302 2.35 7.095 5.514h10.789c.792-3.164 3.672-5.514 7.095-5.514 3.422 0 6.302 2.35 7.095 5.514h3.445v-9.376l-2.662-3.411h-14.215c-1.009 0-1.827-.814-1.827-1.818V17.636h-28.635c-1.01 0-1.827-.814-1.827-1.818S179.997 14 181.006 14zm6.336 29.09c-2.016 0-3.656 1.632-3.656 3.637 0 2.006 1.64 3.637 3.656 3.637s3.655-1.631 3.655-3.637c0-2.005-1.64-3.636-3.655-3.636zm-24.98 0c-2.015 0-3.655 1.632-3.655 3.637 0 2.006 1.64 3.637 3.656 3.637s3.655-1.631 3.655-3.637c0-2.005-1.64-3.636-3.655-3.636zm-5.604-7.332c1.01 0 1.827.814 1.827 1.818s-.818 1.818-1.828 1.818h-8.407c-1.01 0-1.828-.814-1.828-1.818s.818-1.818 1.828-1.818zm4.203-7.152c1.01 0 1.828.814 1.828 1.818s-.818 1.818-1.828 1.818h-15.596c-1.01 0-1.828-.813-1.828-1.818 0-1.004.818-1.818 1.828-1.818zm28.543-7.333l-6.671-.001v7.273h10.347l-3.676-7.272zm-25.557.182c1.01 0 1.827.813 1.827 1.818 0 1.004-.818 1.818-1.827 1.818h-15.597c-1.01 0-1.828-.814-1.828-1.818 0-1.005.818-1.818 1.828-1.818z" transform="translate(-1459 -199) translate(177 177) translate(1108 8.73)"/>
                </g>
            </g>
        </g>
    </g>
</svg>
