<svg xmlns="http://www.w3.org/2000/svg" width="26" height="26" viewBox="0 0 26 26">
    <g fill="none" fill-rule="evenodd">
        <g fill="#30D9C4" fill-rule="nonzero">
            <g>
                <g>
                    <g>
                        <path d="M16.02 13.313c.332-.993 1.392-1.55 2.398-1.216l14.79 4.758c1.832.722 1.21 2.438 1.21 2.438h1.692c1.06 0 1.895.828 1.89 1.88v14.889c0 1.11-.835 1.938-1.895 1.938h-22.21C12.835 38 12 37.172 12 36.12V21.172c.198-2.076 2.077-1.88 2.077-1.88zm19.807 8.135H14.173v14.396h21.654V21.448zm-5.632 10.907c.616 0 1.06.5 1.06 1.052.059.552-.444 1.051-1.06 1.051h-13.34c-.615 0-1.06-.494-1.06-1.051 0-.61.504-1.052 1.06-1.052zm-7.762-5.644c.616 0 1.06.499 1.06 1.051 0 .552-.444 1.052-1.06 1.052h-5.578c-.615 0-1.06-.5-1.06-1.052 0-.61.504-1.051 1.06-1.051zm0-3.489c.616 0 1.06.5 1.06 1.051 0 .611-.444 1.052-1.06 1.052h-5.578c-.615 0-1.06-.5-1.06-1.052 0-.61.504-1.051 1.06-1.051zM17.97 14.2l-1.665 5.093h15.91l.155-.441-14.4-4.652z" transform="translate(-51 -675) translate(0 52) translate(39 334) translate(0 277)"/>
                    </g>
                </g>
            </g>
        </g>
    </g>
</svg>
