<svg width="25" height="24" viewBox="0 0 25 24" fill="none" xmlns="http://www.w3.org/2000/svg">
<path d="M15.7148 19.25C15.7148 20.0456 15.3987 20.8087 14.8361 21.3713C14.2735 21.9339 13.5104 22.25 12.7148 22.25C11.9192 22.25 11.1561 21.9339 10.5935 21.3713C10.0309 20.8087 9.71484 20.0456 9.71484 19.25" stroke="black" stroke-linecap="round" stroke-linejoin="round"/>
<path d="M6.29581 18.2505C5.80636 18.1466 5.37363 17.8631 5.08298 17.4558C4.79233 17.0485 4.6649 16.5471 4.72583 16.0505L5.72583 7.94047C5.98115 6.27312 6.82993 4.75401 8.11606 3.66264C9.40219 2.57126 11.0391 1.98103 12.7258 2.00047C14.4125 1.98103 16.0494 2.57126 17.3355 3.66264C18.6217 4.75401 19.4705 6.27312 19.7258 7.94047L20.7258 16.0505C20.7871 16.5457 20.661 17.0459 20.3724 17.453C20.0838 17.86 19.6534 18.1445 19.1658 18.2505C14.9334 19.245 10.5282 19.245 6.29581 18.2505Z" stroke="black" stroke-linecap="round" stroke-linejoin="round"/>
</svg>
